G04 EAGLE Gerber RS-274X export*
G75*
%MOMM*%
%FSLAX34Y34*%
%LPD*%
%IN*%
%IPPOS*%
%AMOC8*
5,1,8,0,0,1.08239X$1,22.5*%
G01*
%ADD10C,0.254000*%


D10*
X428625Y738188D02*
X429078Y727811D01*
X430434Y717513D01*
X432682Y707372D01*
X435805Y697466D01*
X439780Y687870D01*
X444576Y678656D01*
X450157Y669896D01*
X456480Y661656D01*
X463498Y653998D01*
X471156Y646980D01*
X479396Y640657D01*
X488156Y635076D01*
X497370Y630280D01*
X506966Y626305D01*
X516872Y623182D01*
X527013Y620934D01*
X537311Y619578D01*
X547688Y619125D01*
X1262063Y619125D01*
X1272439Y619578D01*
X1282738Y620934D01*
X1292878Y623182D01*
X1302784Y626305D01*
X1312381Y630280D01*
X1321594Y635076D01*
X1330354Y640657D01*
X1338594Y646980D01*
X1346252Y653998D01*
X1353270Y661656D01*
X1359593Y669896D01*
X1365174Y678656D01*
X1369970Y687870D01*
X1373945Y697466D01*
X1377068Y707372D01*
X1379316Y717513D01*
X1380672Y727811D01*
X1381125Y738188D01*
X1381125Y1452563D01*
X1380672Y1462939D01*
X1379316Y1473238D01*
X1377068Y1483378D01*
X1373945Y1493284D01*
X1369970Y1502881D01*
X1365174Y1512094D01*
X1359593Y1520854D01*
X1353270Y1529094D01*
X1346252Y1536752D01*
X1338594Y1543770D01*
X1330354Y1550093D01*
X1321594Y1555674D01*
X1312381Y1560470D01*
X1302784Y1564445D01*
X1292878Y1567568D01*
X1282738Y1569816D01*
X1272439Y1571172D01*
X1262063Y1571625D01*
X547688Y1571625D01*
X537311Y1571172D01*
X527013Y1569816D01*
X516872Y1567568D01*
X506966Y1564445D01*
X497370Y1560470D01*
X488156Y1555674D01*
X479396Y1550093D01*
X471156Y1543770D01*
X463498Y1536752D01*
X456480Y1529094D01*
X450157Y1520854D01*
X444576Y1512094D01*
X439780Y1502881D01*
X435805Y1493284D01*
X432682Y1483378D01*
X430434Y1473238D01*
X429078Y1462939D01*
X428625Y1452563D01*
X428625Y738188D01*
M02*
