G04 EAGLE Gerber RS-274X export*
G75*
%MOMM*%
%FSLAX34Y34*%
%LPD*%
%INSoldermask Top*%
%IPPOS*%
%AMOC8*
5,1,8,0,0,1.08239X$1,22.5*%
G01*
%ADD10R,0.254000X0.084581*%
%ADD11R,1.948181X0.084581*%
%ADD12R,1.524000X0.084581*%
%ADD13R,1.186181X0.084581*%
%ADD14R,0.424181X0.084581*%
%ADD15R,2.032000X0.084581*%
%ADD16R,0.421637X0.084581*%
%ADD17R,1.694181X0.084581*%
%ADD18R,1.861819X0.084581*%
%ADD19R,0.424181X0.084838*%
%ADD20R,2.032000X0.084838*%
%ADD21R,0.421637X0.084838*%
%ADD22R,1.864363X0.084838*%
%ADD23R,1.694181X0.084838*%
%ADD24R,1.861819X0.084838*%
%ADD25R,0.508000X0.084581*%
%ADD26R,0.591819X0.084838*%
%ADD27R,0.508000X0.084838*%
%ADD28R,1.691638X0.084838*%
%ADD29R,1.691638X0.084581*%
%ADD30R,0.591819X0.084581*%
%ADD31R,1.948181X0.084838*%
%ADD32R,1.778000X0.084838*%
%ADD33R,1.864363X0.084581*%
%ADD34R,1.945638X0.084838*%
%ADD35R,0.762000X0.084581*%
%ADD36R,1.778000X0.084581*%
%ADD37R,0.848363X0.084581*%
%ADD38R,0.932181X0.084838*%
%ADD39R,1.016000X0.084838*%
%ADD40R,0.845819X0.084581*%
%ADD41R,0.848363X0.084838*%
%ADD42R,0.845819X0.084838*%
%ADD43R,0.675638X0.084581*%
%ADD44R,0.678181X0.084581*%
%ADD45R,0.675638X0.084838*%
%ADD46R,0.678181X0.084838*%
%ADD47R,1.945638X0.084581*%
%ADD48R,0.340363X0.084838*%
%ADD49R,0.254000X0.084838*%
%ADD50R,0.337819X0.084838*%
%ADD51R,1.524000X0.084838*%
%ADD52R,1.016000X0.084581*%
%ADD53R,1.183638X0.084838*%
%ADD54R,1.186181X0.084838*%
%ADD55R,1.356363X0.084581*%
%ADD56R,1.353819X0.084581*%
%ADD57R,1.270000X0.084581*%
%ADD58R,1.440181X0.084838*%
%ADD59R,1.437638X0.084838*%
%ADD60R,1.440181X0.084581*%
%ADD61R,1.610363X0.084581*%
%ADD62R,1.437638X0.084581*%
%ADD63R,1.607819X0.084581*%
%ADD64R,1.610363X0.084838*%
%ADD65R,1.607819X0.084838*%
%ADD66R,6.517638X0.084581*%
%ADD67R,6.350000X0.084581*%
%ADD68R,6.350000X0.084838*%
%ADD69R,6.182362X0.084581*%
%ADD70R,6.182362X0.084838*%
%ADD71R,6.096000X0.084581*%
%ADD72R,6.009638X0.084838*%
%ADD73R,6.009638X0.084581*%
%ADD74R,5.842000X0.084838*%
%ADD75R,5.842000X0.084581*%
%ADD76R,5.674362X0.084838*%
%ADD77R,5.674362X0.084581*%
%ADD78R,6.179819X0.084581*%
%ADD79R,6.433819X0.084838*%
%ADD80R,6.520181X0.084581*%
%ADD81R,6.604000X0.084581*%
%ADD82R,6.604000X0.084838*%
%ADD83R,3.469638X0.084838*%
%ADD84R,6.687819X0.084581*%
%ADD85R,3.385819X0.084581*%
%ADD86R,3.302000X0.084581*%
%ADD87R,6.687819X0.084838*%
%ADD88R,3.134362X0.084838*%
%ADD89R,3.134362X0.084581*%
%ADD90R,2.961638X0.084581*%
%ADD91R,2.877819X0.084838*%
%ADD92R,2.794000X0.084581*%
%ADD93R,2.626362X0.084581*%
%ADD94R,2.626362X0.084838*%
%ADD95R,2.453638X0.084581*%
%ADD96R,2.369819X0.084581*%
%ADD97R,2.286000X0.084838*%
%ADD98R,2.118362X0.084581*%
%ADD99R,2.118362X0.084838*%
%ADD100R,2.202181X0.084581*%
%ADD101R,2.286000X0.084581*%
%ADD102R,5.755638X0.084838*%
%ADD103R,2.369819X0.084838*%
%ADD104R,5.928363X0.084581*%
%ADD105R,6.263638X0.084581*%
%ADD106R,2.710181X0.084838*%
%ADD107R,6.436363X0.084581*%
%ADD108R,2.877819X0.084581*%
%ADD109R,6.690362X0.084838*%
%ADD110R,6.771638X0.084838*%
%ADD111R,2.961638X0.084838*%
%ADD112R,6.774181X0.084581*%
%ADD113R,6.858000X0.084581*%
%ADD114R,6.941819X0.084581*%
%ADD115R,3.218181X0.084581*%
%ADD116R,6.944363X0.084838*%
%ADD117R,7.025638X0.084838*%
%ADD118R,3.302000X0.084838*%
%ADD119R,7.028181X0.084581*%
%ADD120R,7.112000X0.084581*%
%ADD121R,3.469638X0.084581*%
%ADD122R,7.112000X0.084838*%
%ADD123R,7.195819X0.084838*%
%ADD124R,7.198362X0.084581*%
%ADD125R,7.279638X0.084581*%
%ADD126R,7.282181X0.084838*%
%ADD127R,7.366000X0.084838*%
%ADD128R,7.282181X0.084581*%
%ADD129R,7.366000X0.084581*%
%ADD130R,2.794000X0.084838*%
%ADD131R,1.183638X0.084581*%
%ADD132R,2.453638X0.084838*%
%ADD133R,1.353819X0.084838*%
%ADD134R,1.356363X0.084838*%
%ADD135R,7.449819X0.084581*%
%ADD136R,7.198362X0.084838*%
%ADD137R,7.279638X0.084838*%
%ADD138R,7.449819X0.084838*%
%ADD139R,7.195819X0.084581*%
%ADD140R,7.028181X0.084838*%
%ADD141R,6.944363X0.084581*%
%ADD142R,7.025638X0.084581*%
%ADD143R,6.858000X0.084838*%
%ADD144R,6.941819X0.084838*%
%ADD145R,6.690362X0.084581*%
%ADD146R,6.771638X0.084581*%
%ADD147R,1.270000X0.084838*%
%ADD148R,6.433819X0.084581*%
%ADD149R,1.102363X0.084838*%
%ADD150R,6.263638X0.084838*%
%ADD151R,5.755638X0.084581*%
%ADD152C,4.203200*%
%ADD153C,5.203200*%


D10*
X876186Y1024785D03*
X892289Y1024785D03*
D11*
X915137Y1024785D03*
D10*
X938009Y1024785D03*
X954088Y1024785D03*
D12*
X973976Y1024785D03*
D10*
X999808Y1024785D03*
X1015886Y1024785D03*
X1030288Y1024785D03*
X1046366Y1024785D03*
D13*
X1068807Y1024785D03*
D10*
X1100569Y1024785D03*
D11*
X1161517Y1024785D03*
D12*
X1192416Y1024785D03*
D11*
X1222477Y1024785D03*
D12*
X1254239Y1024785D03*
D14*
X876198Y1025630D03*
X892277Y1025630D03*
D15*
X915556Y1025630D03*
D14*
X937997Y1025630D03*
D16*
X954088Y1025630D03*
D17*
X974827Y1025630D03*
D16*
X999808Y1025630D03*
D14*
X1015898Y1025630D03*
D16*
X1030288Y1025630D03*
D14*
X1046378Y1025630D03*
D12*
X1068819Y1025630D03*
D14*
X1100557Y1025630D03*
D15*
X1161936Y1025630D03*
D18*
X1192428Y1025630D03*
D15*
X1222896Y1025630D03*
D18*
X1254227Y1025630D03*
D19*
X876198Y1026478D03*
X892277Y1026478D03*
D20*
X915556Y1026478D03*
D19*
X937997Y1026478D03*
D21*
X954088Y1026478D03*
D22*
X975678Y1026478D03*
D21*
X999808Y1026478D03*
D19*
X1015898Y1026478D03*
D21*
X1030288Y1026478D03*
D19*
X1046378Y1026478D03*
D23*
X1068807Y1026478D03*
D19*
X1100557Y1026478D03*
D20*
X1161936Y1026478D03*
D24*
X1192428Y1026478D03*
D20*
X1222896Y1026478D03*
D24*
X1254227Y1026478D03*
D14*
X876198Y1027325D03*
X892277Y1027325D03*
D15*
X915556Y1027325D03*
D14*
X937997Y1027325D03*
D16*
X954088Y1027325D03*
D11*
X976097Y1027325D03*
D16*
X999808Y1027325D03*
D14*
X1015898Y1027325D03*
D16*
X1030288Y1027325D03*
D14*
X1046378Y1027325D03*
D18*
X1068807Y1027325D03*
D14*
X1100557Y1027325D03*
D15*
X1161936Y1027325D03*
X1192416Y1027325D03*
X1222896Y1027325D03*
X1254239Y1027325D03*
D25*
X876618Y1028170D03*
X891858Y1028170D03*
D11*
X915137Y1028170D03*
D25*
X938416Y1028170D03*
X953656Y1028170D03*
D11*
X976097Y1028170D03*
D25*
X1000239Y1028170D03*
X1015479Y1028170D03*
D16*
X1030288Y1028170D03*
D14*
X1046378Y1028170D03*
D18*
X1068807Y1028170D03*
D14*
X1100557Y1028170D03*
D11*
X1161517Y1028170D03*
D15*
X1192416Y1028170D03*
D11*
X1222477Y1028170D03*
D15*
X1254239Y1028170D03*
D19*
X877037Y1029018D03*
X891438Y1029018D03*
X907517Y1029018D03*
D21*
X938848Y1029018D03*
D19*
X953237Y1029018D03*
X968477Y1029018D03*
D26*
X983717Y1029018D03*
D19*
X1000658Y1029018D03*
D21*
X1015048Y1029018D03*
X1030288Y1029018D03*
D19*
X1046378Y1029018D03*
D27*
X1061199Y1029018D03*
X1076439Y1029018D03*
D19*
X1100557Y1029018D03*
X1153897Y1029018D03*
X1184377Y1029018D03*
D21*
X1200468Y1029018D03*
D19*
X1214857Y1029018D03*
D21*
X1246188Y1029018D03*
D19*
X1262278Y1029018D03*
D14*
X877037Y1029865D03*
X891438Y1029865D03*
X907517Y1029865D03*
D16*
X938848Y1029865D03*
D14*
X953237Y1029865D03*
X968477Y1029865D03*
D16*
X984568Y1029865D03*
D14*
X1000658Y1029865D03*
D16*
X1015048Y1029865D03*
X1030288Y1029865D03*
D14*
X1046378Y1029865D03*
D16*
X1060768Y1029865D03*
D14*
X1076858Y1029865D03*
X1100557Y1029865D03*
X1153897Y1029865D03*
X1184377Y1029865D03*
D16*
X1200468Y1029865D03*
D14*
X1214857Y1029865D03*
D16*
X1246188Y1029865D03*
D14*
X1262278Y1029865D03*
X877037Y1030710D03*
X891438Y1030710D03*
X907517Y1030710D03*
D16*
X938848Y1030710D03*
D14*
X953237Y1030710D03*
X968477Y1030710D03*
D25*
X984999Y1030710D03*
D14*
X1000658Y1030710D03*
D16*
X1015048Y1030710D03*
X1030288Y1030710D03*
D14*
X1046378Y1030710D03*
D16*
X1060768Y1030710D03*
D14*
X1076858Y1030710D03*
X1100557Y1030710D03*
X1153897Y1030710D03*
X1184377Y1030710D03*
D16*
X1200468Y1030710D03*
D14*
X1214857Y1030710D03*
D16*
X1246188Y1030710D03*
D14*
X1262278Y1030710D03*
D28*
X884238Y1031558D03*
D19*
X907517Y1031558D03*
D23*
X946048Y1031558D03*
D19*
X968477Y1031558D03*
X985418Y1031558D03*
D23*
X1007847Y1031558D03*
D21*
X1030288Y1031558D03*
D19*
X1046378Y1031558D03*
D21*
X1060768Y1031558D03*
D19*
X1076858Y1031558D03*
X1100557Y1031558D03*
X1153897Y1031558D03*
X1184377Y1031558D03*
D21*
X1200468Y1031558D03*
D19*
X1214857Y1031558D03*
D21*
X1246188Y1031558D03*
D19*
X1262278Y1031558D03*
D29*
X884238Y1032405D03*
D14*
X907517Y1032405D03*
D17*
X946048Y1032405D03*
D14*
X968477Y1032405D03*
X985418Y1032405D03*
D17*
X1007847Y1032405D03*
D16*
X1030288Y1032405D03*
D14*
X1046378Y1032405D03*
D16*
X1060768Y1032405D03*
D14*
X1076858Y1032405D03*
X1100557Y1032405D03*
X1153897Y1032405D03*
X1184377Y1032405D03*
D16*
X1200468Y1032405D03*
D14*
X1214857Y1032405D03*
D16*
X1246188Y1032405D03*
D14*
X1262278Y1032405D03*
D29*
X884238Y1033250D03*
D14*
X907517Y1033250D03*
D17*
X946048Y1033250D03*
D14*
X968477Y1033250D03*
X985418Y1033250D03*
D17*
X1007847Y1033250D03*
D16*
X1030288Y1033250D03*
D14*
X1046378Y1033250D03*
D16*
X1060768Y1033250D03*
D14*
X1076858Y1033250D03*
X1100557Y1033250D03*
X1153897Y1033250D03*
X1184377Y1033250D03*
D16*
X1200468Y1033250D03*
D14*
X1214857Y1033250D03*
D16*
X1246188Y1033250D03*
D14*
X1262278Y1033250D03*
D28*
X884238Y1034098D03*
D19*
X907517Y1034098D03*
D23*
X946048Y1034098D03*
D19*
X968477Y1034098D03*
X985418Y1034098D03*
D23*
X1007847Y1034098D03*
D21*
X1030288Y1034098D03*
D19*
X1046378Y1034098D03*
D21*
X1060768Y1034098D03*
D19*
X1076858Y1034098D03*
X1100557Y1034098D03*
X1153897Y1034098D03*
X1184377Y1034098D03*
D21*
X1200468Y1034098D03*
D19*
X1214857Y1034098D03*
D21*
X1246188Y1034098D03*
D19*
X1262278Y1034098D03*
D12*
X884238Y1034945D03*
D14*
X907517Y1034945D03*
D12*
X946036Y1034945D03*
D14*
X968477Y1034945D03*
X985418Y1034945D03*
D12*
X1007859Y1034945D03*
D16*
X1030288Y1034945D03*
D14*
X1046378Y1034945D03*
D16*
X1060768Y1034945D03*
D14*
X1076858Y1034945D03*
X1100557Y1034945D03*
X1153897Y1034945D03*
X1184377Y1034945D03*
D16*
X1200468Y1034945D03*
D14*
X1214857Y1034945D03*
D16*
X1246188Y1034945D03*
D14*
X1262278Y1034945D03*
X878738Y1035790D03*
X889737Y1035790D03*
X907517Y1035790D03*
X940537Y1035790D03*
D16*
X951548Y1035790D03*
D14*
X968477Y1035790D03*
X985418Y1035790D03*
D16*
X1002348Y1035790D03*
D14*
X1013358Y1035790D03*
D16*
X1030288Y1035790D03*
D14*
X1046378Y1035790D03*
D16*
X1060768Y1035790D03*
D14*
X1076858Y1035790D03*
X1100557Y1035790D03*
X1153897Y1035790D03*
X1184377Y1035790D03*
D16*
X1200468Y1035790D03*
D14*
X1214857Y1035790D03*
D16*
X1246188Y1035790D03*
D14*
X1262278Y1035790D03*
D19*
X878738Y1036638D03*
X889737Y1036638D03*
X907517Y1036638D03*
X940537Y1036638D03*
D21*
X951548Y1036638D03*
D19*
X968477Y1036638D03*
D27*
X984999Y1036638D03*
D21*
X1002348Y1036638D03*
D19*
X1013358Y1036638D03*
D21*
X1030288Y1036638D03*
D19*
X1046378Y1036638D03*
D21*
X1060768Y1036638D03*
D19*
X1076858Y1036638D03*
X1100557Y1036638D03*
X1153897Y1036638D03*
X1184377Y1036638D03*
D21*
X1200468Y1036638D03*
D19*
X1214857Y1036638D03*
D21*
X1246188Y1036638D03*
D19*
X1262278Y1036638D03*
D25*
X879158Y1037485D03*
X889318Y1037485D03*
D14*
X907517Y1037485D03*
D25*
X940956Y1037485D03*
X951116Y1037485D03*
D14*
X968477Y1037485D03*
D16*
X984568Y1037485D03*
D25*
X1002779Y1037485D03*
X1012939Y1037485D03*
D16*
X1030288Y1037485D03*
D14*
X1046378Y1037485D03*
D16*
X1060768Y1037485D03*
D14*
X1076858Y1037485D03*
X1100557Y1037485D03*
X1153897Y1037485D03*
X1184377Y1037485D03*
D16*
X1200468Y1037485D03*
D14*
X1214857Y1037485D03*
D16*
X1246188Y1037485D03*
D14*
X1262278Y1037485D03*
X879577Y1038330D03*
X888898Y1038330D03*
X907517Y1038330D03*
D16*
X941388Y1038330D03*
D14*
X950697Y1038330D03*
X968477Y1038330D03*
D30*
X983717Y1038330D03*
D14*
X1003198Y1038330D03*
D16*
X1012508Y1038330D03*
X1030288Y1038330D03*
D14*
X1046378Y1038330D03*
D16*
X1060768Y1038330D03*
D14*
X1076858Y1038330D03*
X1100557Y1038330D03*
X1153897Y1038330D03*
X1184377Y1038330D03*
D16*
X1200468Y1038330D03*
D14*
X1214857Y1038330D03*
D16*
X1246188Y1038330D03*
D14*
X1262278Y1038330D03*
D19*
X879577Y1039178D03*
X888898Y1039178D03*
X907517Y1039178D03*
D21*
X941388Y1039178D03*
D19*
X950697Y1039178D03*
D31*
X976097Y1039178D03*
D19*
X1003198Y1039178D03*
D21*
X1012508Y1039178D03*
D20*
X1038339Y1039178D03*
D21*
X1060768Y1039178D03*
D19*
X1076858Y1039178D03*
X1100557Y1039178D03*
D32*
X1160666Y1039178D03*
D19*
X1184377Y1039178D03*
D21*
X1200468Y1039178D03*
D32*
X1221626Y1039178D03*
D21*
X1246188Y1039178D03*
D19*
X1262278Y1039178D03*
D14*
X879577Y1040025D03*
X888898Y1040025D03*
X907517Y1040025D03*
D16*
X941388Y1040025D03*
D14*
X950697Y1040025D03*
D11*
X976097Y1040025D03*
D14*
X1003198Y1040025D03*
D16*
X1012508Y1040025D03*
D15*
X1038339Y1040025D03*
D16*
X1060768Y1040025D03*
D14*
X1076858Y1040025D03*
X1100557Y1040025D03*
D11*
X1161517Y1040025D03*
D14*
X1184377Y1040025D03*
D16*
X1200468Y1040025D03*
D11*
X1222477Y1040025D03*
D16*
X1246188Y1040025D03*
D14*
X1262278Y1040025D03*
D16*
X880428Y1040870D03*
X888048Y1040870D03*
D14*
X907517Y1040870D03*
X942238Y1040870D03*
X949858Y1040870D03*
D33*
X975678Y1040870D03*
D14*
X1004037Y1040870D03*
X1011657Y1040870D03*
D15*
X1038339Y1040870D03*
D16*
X1060768Y1040870D03*
D14*
X1076858Y1040870D03*
X1100557Y1040870D03*
D18*
X1161948Y1040870D03*
D14*
X1184377Y1040870D03*
D16*
X1200468Y1040870D03*
D18*
X1222908Y1040870D03*
D16*
X1246188Y1040870D03*
D14*
X1262278Y1040870D03*
D21*
X880428Y1041718D03*
X888048Y1041718D03*
D19*
X907517Y1041718D03*
X942238Y1041718D03*
X949858Y1041718D03*
D31*
X976097Y1041718D03*
D19*
X1004037Y1041718D03*
X1011657Y1041718D03*
D20*
X1038339Y1041718D03*
D21*
X1060768Y1041718D03*
D19*
X1076858Y1041718D03*
D26*
X1100557Y1041718D03*
D34*
X1162368Y1041718D03*
D19*
X1184377Y1041718D03*
D21*
X1200468Y1041718D03*
D34*
X1223328Y1041718D03*
D21*
X1246188Y1041718D03*
D19*
X1262278Y1041718D03*
D16*
X880428Y1042565D03*
X888048Y1042565D03*
D14*
X907517Y1042565D03*
X942238Y1042565D03*
X949858Y1042565D03*
D11*
X976097Y1042565D03*
D14*
X1004037Y1042565D03*
X1011657Y1042565D03*
D15*
X1038339Y1042565D03*
D16*
X1060768Y1042565D03*
D14*
X1076858Y1042565D03*
D35*
X1100569Y1042565D03*
D36*
X1163206Y1042565D03*
D14*
X1184377Y1042565D03*
D16*
X1200468Y1042565D03*
D36*
X1224166Y1042565D03*
D16*
X1246188Y1042565D03*
D14*
X1262278Y1042565D03*
D25*
X880859Y1043410D03*
X887616Y1043410D03*
D14*
X907517Y1043410D03*
D25*
X942658Y1043410D03*
X949439Y1043410D03*
D14*
X968477Y1043410D03*
D30*
X983717Y1043410D03*
D25*
X1004456Y1043410D03*
X1011238Y1043410D03*
D16*
X1030288Y1043410D03*
D14*
X1046378Y1043410D03*
D16*
X1060768Y1043410D03*
D14*
X1076858Y1043410D03*
D37*
X1100138Y1043410D03*
D16*
X1169988Y1043410D03*
D14*
X1184377Y1043410D03*
D16*
X1200468Y1043410D03*
X1230948Y1043410D03*
X1246188Y1043410D03*
D14*
X1262278Y1043410D03*
D19*
X881278Y1044258D03*
X887197Y1044258D03*
X907517Y1044258D03*
X943077Y1044258D03*
D21*
X949008Y1044258D03*
D19*
X968477Y1044258D03*
D21*
X984568Y1044258D03*
X1004888Y1044258D03*
D19*
X1010818Y1044258D03*
D21*
X1030288Y1044258D03*
D19*
X1046378Y1044258D03*
D21*
X1060768Y1044258D03*
D19*
X1076858Y1044258D03*
D38*
X1100557Y1044258D03*
D21*
X1169988Y1044258D03*
D19*
X1184377Y1044258D03*
D21*
X1200468Y1044258D03*
X1230948Y1044258D03*
X1246188Y1044258D03*
D19*
X1262278Y1044258D03*
D14*
X881278Y1045105D03*
X887197Y1045105D03*
X907517Y1045105D03*
X943077Y1045105D03*
D16*
X949008Y1045105D03*
D14*
X968477Y1045105D03*
D25*
X984999Y1045105D03*
D16*
X1004888Y1045105D03*
D14*
X1010818Y1045105D03*
D16*
X1030288Y1045105D03*
D14*
X1046378Y1045105D03*
D16*
X1060768Y1045105D03*
D14*
X1076858Y1045105D03*
D25*
X1097598Y1045105D03*
X1103516Y1045105D03*
D16*
X1169988Y1045105D03*
D14*
X1184377Y1045105D03*
D16*
X1200468Y1045105D03*
X1230948Y1045105D03*
X1246188Y1045105D03*
D14*
X1262278Y1045105D03*
X881278Y1045950D03*
X887197Y1045950D03*
X907517Y1045950D03*
X943077Y1045950D03*
D16*
X949008Y1045950D03*
D14*
X968477Y1045950D03*
X985418Y1045950D03*
D16*
X1004888Y1045950D03*
D14*
X1010818Y1045950D03*
D16*
X1030288Y1045950D03*
D14*
X1046378Y1045950D03*
D16*
X1060768Y1045950D03*
D14*
X1076858Y1045950D03*
D25*
X1096759Y1045950D03*
X1104379Y1045950D03*
D16*
X1169988Y1045950D03*
D14*
X1184377Y1045950D03*
D16*
X1200468Y1045950D03*
X1230948Y1045950D03*
X1246188Y1045950D03*
D14*
X1262278Y1045950D03*
D39*
X884238Y1046798D03*
D19*
X907517Y1046798D03*
D39*
X946036Y1046798D03*
D19*
X968477Y1046798D03*
X985418Y1046798D03*
D39*
X1007859Y1046798D03*
D21*
X1030288Y1046798D03*
D19*
X1046378Y1046798D03*
D21*
X1060768Y1046798D03*
D19*
X1076858Y1046798D03*
D27*
X1095896Y1046798D03*
X1105218Y1046798D03*
D21*
X1169988Y1046798D03*
D19*
X1184377Y1046798D03*
D21*
X1200468Y1046798D03*
X1230948Y1046798D03*
X1246188Y1046798D03*
D19*
X1262278Y1046798D03*
D37*
X884238Y1047645D03*
D14*
X907517Y1047645D03*
D40*
X946048Y1047645D03*
D14*
X968477Y1047645D03*
X985418Y1047645D03*
D40*
X1007847Y1047645D03*
D16*
X1030288Y1047645D03*
D14*
X1046378Y1047645D03*
D16*
X1060768Y1047645D03*
D14*
X1076858Y1047645D03*
D30*
X1095477Y1047645D03*
X1105637Y1047645D03*
D16*
X1169988Y1047645D03*
D14*
X1184377Y1047645D03*
D16*
X1200468Y1047645D03*
X1230948Y1047645D03*
X1246188Y1047645D03*
D14*
X1262278Y1047645D03*
D37*
X884238Y1048490D03*
D14*
X907517Y1048490D03*
D40*
X946048Y1048490D03*
D14*
X968477Y1048490D03*
X985418Y1048490D03*
D40*
X1007847Y1048490D03*
D16*
X1030288Y1048490D03*
D14*
X1046378Y1048490D03*
D16*
X1060768Y1048490D03*
D14*
X1076858Y1048490D03*
D30*
X1094638Y1048490D03*
D25*
X1106056Y1048490D03*
D16*
X1169988Y1048490D03*
D14*
X1184377Y1048490D03*
D16*
X1200468Y1048490D03*
X1230948Y1048490D03*
X1246188Y1048490D03*
D14*
X1262278Y1048490D03*
D41*
X884238Y1049338D03*
D19*
X907517Y1049338D03*
D42*
X946048Y1049338D03*
D19*
X968477Y1049338D03*
X985418Y1049338D03*
D42*
X1007847Y1049338D03*
D21*
X1030288Y1049338D03*
D19*
X1046378Y1049338D03*
D21*
X1060768Y1049338D03*
D19*
X1076858Y1049338D03*
D27*
X1094219Y1049338D03*
X1106919Y1049338D03*
D21*
X1169988Y1049338D03*
D19*
X1184377Y1049338D03*
D21*
X1200468Y1049338D03*
X1230948Y1049338D03*
X1246188Y1049338D03*
D19*
X1262278Y1049338D03*
D43*
X884238Y1050185D03*
D14*
X907517Y1050185D03*
D44*
X946048Y1050185D03*
D14*
X968477Y1050185D03*
X985418Y1050185D03*
D44*
X1007847Y1050185D03*
D16*
X1030288Y1050185D03*
D14*
X1046378Y1050185D03*
D16*
X1060768Y1050185D03*
D14*
X1076858Y1050185D03*
D25*
X1093356Y1050185D03*
X1107758Y1050185D03*
D16*
X1169988Y1050185D03*
D14*
X1184377Y1050185D03*
D16*
X1200468Y1050185D03*
X1230948Y1050185D03*
X1246188Y1050185D03*
D14*
X1262278Y1050185D03*
D43*
X884238Y1051030D03*
D14*
X907517Y1051030D03*
D44*
X946048Y1051030D03*
D14*
X968477Y1051030D03*
D25*
X984999Y1051030D03*
D44*
X1007847Y1051030D03*
D16*
X1030288Y1051030D03*
D14*
X1046378Y1051030D03*
D16*
X1060768Y1051030D03*
D14*
X1076858Y1051030D03*
D25*
X1092518Y1051030D03*
X1108596Y1051030D03*
D16*
X1169988Y1051030D03*
D14*
X1184377Y1051030D03*
D16*
X1200468Y1051030D03*
X1230948Y1051030D03*
X1246188Y1051030D03*
D14*
X1262278Y1051030D03*
D45*
X884238Y1051878D03*
D19*
X907517Y1051878D03*
D46*
X946048Y1051878D03*
D19*
X968477Y1051878D03*
D21*
X984568Y1051878D03*
D46*
X1007847Y1051878D03*
D21*
X1030288Y1051878D03*
D19*
X1046378Y1051878D03*
D21*
X1060768Y1051878D03*
D19*
X1076858Y1051878D03*
X1092098Y1051878D03*
D21*
X1109028Y1051878D03*
X1169988Y1051878D03*
D19*
X1184377Y1051878D03*
D21*
X1200468Y1051878D03*
X1230948Y1051878D03*
X1246188Y1051878D03*
D19*
X1262278Y1051878D03*
D43*
X884238Y1052725D03*
D14*
X907517Y1052725D03*
D44*
X946048Y1052725D03*
D14*
X968477Y1052725D03*
D30*
X983717Y1052725D03*
D44*
X1007847Y1052725D03*
D16*
X1030288Y1052725D03*
D14*
X1046378Y1052725D03*
D16*
X1060768Y1052725D03*
D14*
X1076858Y1052725D03*
X1092098Y1052725D03*
D16*
X1109028Y1052725D03*
X1169988Y1052725D03*
D14*
X1184377Y1052725D03*
D16*
X1200468Y1052725D03*
X1230948Y1052725D03*
X1246188Y1052725D03*
D14*
X1262278Y1052725D03*
D25*
X884238Y1053570D03*
D14*
X907517Y1053570D03*
D25*
X946036Y1053570D03*
D11*
X976097Y1053570D03*
D25*
X1007859Y1053570D03*
D16*
X1030288Y1053570D03*
D14*
X1046378Y1053570D03*
D16*
X1060768Y1053570D03*
D14*
X1076858Y1053570D03*
X1092098Y1053570D03*
D16*
X1109028Y1053570D03*
D47*
X1162368Y1053570D03*
D15*
X1192416Y1053570D03*
D47*
X1223328Y1053570D03*
D15*
X1254239Y1053570D03*
D27*
X884238Y1054418D03*
D19*
X907517Y1054418D03*
D27*
X946036Y1054418D03*
D31*
X976097Y1054418D03*
D27*
X1007859Y1054418D03*
D21*
X1030288Y1054418D03*
D19*
X1046378Y1054418D03*
D21*
X1060768Y1054418D03*
D19*
X1076858Y1054418D03*
X1092098Y1054418D03*
D21*
X1109028Y1054418D03*
D20*
X1161936Y1054418D03*
X1192416Y1054418D03*
X1222896Y1054418D03*
X1254239Y1054418D03*
D25*
X884238Y1055265D03*
D14*
X907517Y1055265D03*
D25*
X946036Y1055265D03*
D33*
X975678Y1055265D03*
D25*
X1007859Y1055265D03*
D16*
X1030288Y1055265D03*
D14*
X1046378Y1055265D03*
D16*
X1060768Y1055265D03*
D14*
X1076858Y1055265D03*
X1092098Y1055265D03*
D16*
X1109028Y1055265D03*
D11*
X1161517Y1055265D03*
D18*
X1192428Y1055265D03*
D11*
X1222477Y1055265D03*
D18*
X1254227Y1055265D03*
D25*
X884238Y1056110D03*
D14*
X907517Y1056110D03*
D25*
X946036Y1056110D03*
D17*
X974827Y1056110D03*
D25*
X1007859Y1056110D03*
D16*
X1030288Y1056110D03*
D14*
X1046378Y1056110D03*
D16*
X1060768Y1056110D03*
D14*
X1076858Y1056110D03*
X1092098Y1056110D03*
D16*
X1109028Y1056110D03*
D11*
X1161517Y1056110D03*
D18*
X1192428Y1056110D03*
D11*
X1222477Y1056110D03*
D18*
X1254227Y1056110D03*
D48*
X884238Y1056958D03*
D49*
X907529Y1056958D03*
D50*
X946048Y1056958D03*
D51*
X973976Y1056958D03*
D50*
X1007847Y1056958D03*
D49*
X1030288Y1056958D03*
X1046366Y1056958D03*
X1060768Y1056958D03*
X1076846Y1056958D03*
X1092086Y1056958D03*
X1109028Y1056958D03*
D28*
X1161098Y1056958D03*
D51*
X1192416Y1056958D03*
D28*
X1222058Y1056958D03*
D51*
X1254239Y1056958D03*
D27*
X554038Y1082358D03*
X614159Y1082358D03*
X662419Y1082358D03*
X722516Y1082358D03*
X771639Y1082358D03*
X831736Y1082358D03*
X910476Y1082358D03*
X1037476Y1082358D03*
X1099299Y1082358D03*
X1159396Y1082358D03*
X1255078Y1082358D03*
D37*
X554038Y1083205D03*
D40*
X614147Y1083205D03*
X662407Y1083205D03*
X722528Y1083205D03*
X771627Y1083205D03*
X831748Y1083205D03*
X910488Y1083205D03*
X1037488Y1083205D03*
X1099287Y1083205D03*
X1159408Y1083205D03*
D37*
X1255078Y1083205D03*
D52*
X554038Y1084050D03*
X614159Y1084050D03*
X662419Y1084050D03*
X722516Y1084050D03*
X771639Y1084050D03*
X831736Y1084050D03*
X910476Y1084050D03*
X1037476Y1084050D03*
X1099299Y1084050D03*
X1159396Y1084050D03*
X1255078Y1084050D03*
D53*
X554038Y1084898D03*
D54*
X614147Y1084898D03*
X662407Y1084898D03*
X722528Y1084898D03*
X771627Y1084898D03*
X831748Y1084898D03*
X910488Y1084898D03*
X1037488Y1084898D03*
X1099287Y1084898D03*
X1159408Y1084898D03*
D53*
X1255078Y1084898D03*
D55*
X554038Y1085745D03*
D56*
X614147Y1085745D03*
D57*
X661988Y1085745D03*
X722948Y1085745D03*
D56*
X771627Y1085745D03*
X831748Y1085745D03*
X910488Y1085745D03*
X1037488Y1085745D03*
X1099287Y1085745D03*
X1159408Y1085745D03*
D55*
X1255078Y1085745D03*
X554038Y1086590D03*
D56*
X614147Y1086590D03*
X662407Y1086590D03*
X722528Y1086590D03*
X771627Y1086590D03*
X831748Y1086590D03*
X910488Y1086590D03*
X1037488Y1086590D03*
X1099287Y1086590D03*
X1159408Y1086590D03*
D55*
X1255078Y1086590D03*
D58*
X554457Y1087438D03*
D51*
X614159Y1087438D03*
D59*
X661988Y1087438D03*
X722948Y1087438D03*
D51*
X771639Y1087438D03*
X831736Y1087438D03*
X910476Y1087438D03*
X1037476Y1087438D03*
X1099299Y1087438D03*
X1159396Y1087438D03*
X1255078Y1087438D03*
D60*
X554457Y1088285D03*
D61*
X613728Y1088285D03*
D62*
X661988Y1088285D03*
X722948Y1088285D03*
D12*
X771639Y1088285D03*
D63*
X831317Y1088285D03*
D12*
X910476Y1088285D03*
X1037476Y1088285D03*
X1099299Y1088285D03*
X1159396Y1088285D03*
X1255078Y1088285D03*
D60*
X554457Y1089130D03*
D61*
X613728Y1089130D03*
D12*
X662419Y1089130D03*
X722516Y1089130D03*
X771639Y1089130D03*
D63*
X831317Y1089130D03*
D12*
X910476Y1089130D03*
X1037476Y1089130D03*
D63*
X1099718Y1089130D03*
X1158977Y1089130D03*
D12*
X1255078Y1089130D03*
D58*
X554457Y1089978D03*
D23*
X613308Y1089978D03*
D51*
X662419Y1089978D03*
X722516Y1089978D03*
X771639Y1089978D03*
D28*
X830898Y1089978D03*
D51*
X910476Y1089978D03*
X1037476Y1089978D03*
D28*
X1100138Y1089978D03*
X1158558Y1089978D03*
D51*
X1255078Y1089978D03*
D60*
X554457Y1090825D03*
D17*
X613308Y1090825D03*
D12*
X662419Y1090825D03*
X722516Y1090825D03*
X771639Y1090825D03*
D29*
X830898Y1090825D03*
D12*
X910476Y1090825D03*
X1037476Y1090825D03*
D29*
X1100138Y1090825D03*
X1158558Y1090825D03*
D12*
X1255078Y1090825D03*
D60*
X554457Y1091670D03*
D36*
X612889Y1091670D03*
D63*
X662838Y1091670D03*
D12*
X722516Y1091670D03*
X771639Y1091670D03*
D36*
X830466Y1091670D03*
D12*
X910476Y1091670D03*
X1037476Y1091670D03*
D17*
X1100988Y1091670D03*
D36*
X1158126Y1091670D03*
D12*
X1255078Y1091670D03*
D58*
X554457Y1092518D03*
D32*
X612026Y1092518D03*
D51*
X663258Y1092518D03*
X721678Y1092518D03*
X771639Y1092518D03*
D32*
X829628Y1092518D03*
D51*
X910476Y1092518D03*
X1037476Y1092518D03*
D23*
X1100988Y1092518D03*
X1157707Y1092518D03*
D51*
X1255078Y1092518D03*
D60*
X554457Y1093365D03*
D36*
X612026Y1093365D03*
D12*
X663258Y1093365D03*
X721678Y1093365D03*
X771639Y1093365D03*
D36*
X829628Y1093365D03*
D12*
X910476Y1093365D03*
X1037476Y1093365D03*
D36*
X1101408Y1093365D03*
D17*
X1156868Y1093365D03*
D12*
X1255078Y1093365D03*
D60*
X554457Y1094210D03*
D36*
X611188Y1094210D03*
D63*
X663677Y1094210D03*
D12*
X721678Y1094210D03*
X771639Y1094210D03*
D36*
X828789Y1094210D03*
D12*
X910476Y1094210D03*
X1037476Y1094210D03*
D36*
X1102246Y1094210D03*
D17*
X1156868Y1094210D03*
D12*
X1255078Y1094210D03*
D58*
X554457Y1095058D03*
D23*
X610768Y1095058D03*
D51*
X664096Y1095058D03*
X720839Y1095058D03*
X771639Y1095058D03*
D28*
X828358Y1095058D03*
D51*
X910476Y1095058D03*
X1037476Y1095058D03*
D28*
X1102678Y1095058D03*
X1156018Y1095058D03*
D51*
X1255078Y1095058D03*
D60*
X554457Y1095905D03*
D36*
X610349Y1095905D03*
D12*
X664096Y1095905D03*
X720839Y1095905D03*
X771639Y1095905D03*
D36*
X827926Y1095905D03*
D12*
X910476Y1095905D03*
X1037476Y1095905D03*
D36*
X1103109Y1095905D03*
X1155586Y1095905D03*
D12*
X1255078Y1095905D03*
D60*
X554457Y1096750D03*
D29*
X609918Y1096750D03*
D12*
X664096Y1096750D03*
X720839Y1096750D03*
X771639Y1096750D03*
D17*
X827507Y1096750D03*
D12*
X910476Y1096750D03*
X1037476Y1096750D03*
D17*
X1103528Y1096750D03*
X1155167Y1096750D03*
D12*
X1255078Y1096750D03*
D58*
X554457Y1097598D03*
D32*
X609486Y1097598D03*
D64*
X664528Y1097598D03*
D51*
X719976Y1097598D03*
X771639Y1097598D03*
D32*
X827088Y1097598D03*
D51*
X910476Y1097598D03*
X1037476Y1097598D03*
D32*
X1103948Y1097598D03*
X1154748Y1097598D03*
D51*
X1255078Y1097598D03*
D60*
X554457Y1098445D03*
D36*
X608648Y1098445D03*
D12*
X664959Y1098445D03*
X719976Y1098445D03*
X771639Y1098445D03*
D36*
X826249Y1098445D03*
D12*
X910476Y1098445D03*
X1037476Y1098445D03*
D36*
X1104786Y1098445D03*
D17*
X1154328Y1098445D03*
D12*
X1255078Y1098445D03*
D60*
X554457Y1099290D03*
D17*
X608228Y1099290D03*
D12*
X664959Y1099290D03*
X719976Y1099290D03*
X771639Y1099290D03*
D29*
X825818Y1099290D03*
D12*
X910476Y1099290D03*
X1037476Y1099290D03*
D29*
X1105218Y1099290D03*
X1153478Y1099290D03*
D12*
X1255078Y1099290D03*
D58*
X554457Y1100138D03*
D32*
X607809Y1100138D03*
D65*
X665378Y1100138D03*
D51*
X719976Y1100138D03*
X771639Y1100138D03*
D32*
X825386Y1100138D03*
D51*
X910476Y1100138D03*
X1037476Y1100138D03*
D32*
X1105649Y1100138D03*
X1153046Y1100138D03*
D51*
X1255078Y1100138D03*
D60*
X554457Y1100985D03*
D29*
X607378Y1100985D03*
D12*
X665798Y1100985D03*
X719138Y1100985D03*
X771639Y1100985D03*
D17*
X824967Y1100985D03*
D12*
X910476Y1100985D03*
X1037476Y1100985D03*
D17*
X1106068Y1100985D03*
X1152627Y1100985D03*
D12*
X1255078Y1100985D03*
D60*
X554457Y1101830D03*
D36*
X606946Y1101830D03*
D12*
X665798Y1101830D03*
X719138Y1101830D03*
X771639Y1101830D03*
D36*
X824548Y1101830D03*
D12*
X910476Y1101830D03*
X1037476Y1101830D03*
D36*
X1106488Y1101830D03*
X1152208Y1101830D03*
D12*
X1255078Y1101830D03*
D58*
X554457Y1102678D03*
D32*
X606108Y1102678D03*
D65*
X666217Y1102678D03*
D51*
X719138Y1102678D03*
X771639Y1102678D03*
D32*
X823709Y1102678D03*
D51*
X910476Y1102678D03*
X1037476Y1102678D03*
D32*
X1107326Y1102678D03*
D23*
X1151788Y1102678D03*
D51*
X1255078Y1102678D03*
D60*
X554457Y1103525D03*
D17*
X605688Y1103525D03*
D12*
X666636Y1103525D03*
X718299Y1103525D03*
X771639Y1103525D03*
D29*
X823278Y1103525D03*
D12*
X910476Y1103525D03*
X1037476Y1103525D03*
D29*
X1107758Y1103525D03*
X1150938Y1103525D03*
D12*
X1255078Y1103525D03*
D60*
X554457Y1104370D03*
D36*
X605269Y1104370D03*
D12*
X666636Y1104370D03*
X718299Y1104370D03*
X771639Y1104370D03*
D36*
X822846Y1104370D03*
D12*
X910476Y1104370D03*
X1037476Y1104370D03*
D36*
X1108189Y1104370D03*
X1150506Y1104370D03*
D12*
X1255078Y1104370D03*
D58*
X554457Y1105218D03*
D28*
X604838Y1105218D03*
D64*
X667068Y1105218D03*
D51*
X718299Y1105218D03*
X771639Y1105218D03*
D23*
X822427Y1105218D03*
D51*
X910476Y1105218D03*
X1037476Y1105218D03*
D23*
X1108608Y1105218D03*
X1150087Y1105218D03*
D51*
X1255078Y1105218D03*
D60*
X554457Y1106065D03*
D36*
X604406Y1106065D03*
D61*
X667068Y1106065D03*
D62*
X717868Y1106065D03*
D12*
X771639Y1106065D03*
D36*
X822008Y1106065D03*
D12*
X910476Y1106065D03*
X1037476Y1106065D03*
D36*
X1109028Y1106065D03*
X1149668Y1106065D03*
D12*
X1255078Y1106065D03*
D60*
X554457Y1106910D03*
D36*
X603568Y1106910D03*
D12*
X667499Y1106910D03*
X717436Y1106910D03*
X771639Y1106910D03*
D36*
X821169Y1106910D03*
D12*
X910476Y1106910D03*
X1037476Y1106910D03*
D17*
X1109447Y1106910D03*
X1149248Y1106910D03*
D12*
X1255078Y1106910D03*
D58*
X554457Y1107758D03*
D32*
X603568Y1107758D03*
D51*
X667499Y1107758D03*
X717436Y1107758D03*
X771639Y1107758D03*
D32*
X821169Y1107758D03*
D51*
X910476Y1107758D03*
X1037476Y1107758D03*
D28*
X1110298Y1107758D03*
X1148398Y1107758D03*
D51*
X1255078Y1107758D03*
D60*
X554457Y1108605D03*
D36*
X602729Y1108605D03*
D66*
X692468Y1108605D03*
D12*
X771639Y1108605D03*
D36*
X820306Y1108605D03*
D12*
X910476Y1108605D03*
X1037476Y1108605D03*
D36*
X1110729Y1108605D03*
D29*
X1148398Y1108605D03*
D12*
X1255078Y1108605D03*
D60*
X554457Y1109450D03*
D29*
X602298Y1109450D03*
D67*
X692468Y1109450D03*
D12*
X771639Y1109450D03*
D17*
X819887Y1109450D03*
D12*
X910476Y1109450D03*
X1037476Y1109450D03*
D17*
X1111148Y1109450D03*
X1147547Y1109450D03*
D12*
X1255078Y1109450D03*
D58*
X554457Y1110298D03*
D32*
X601866Y1110298D03*
D68*
X692468Y1110298D03*
D51*
X771639Y1110298D03*
D32*
X819468Y1110298D03*
D51*
X910476Y1110298D03*
X1037476Y1110298D03*
D32*
X1111568Y1110298D03*
X1147128Y1110298D03*
D51*
X1255078Y1110298D03*
D60*
X554457Y1111145D03*
D36*
X601028Y1111145D03*
D67*
X692468Y1111145D03*
D12*
X771639Y1111145D03*
D36*
X818629Y1111145D03*
D12*
X910476Y1111145D03*
X1037476Y1111145D03*
D17*
X1111987Y1111145D03*
X1146708Y1111145D03*
D12*
X1255078Y1111145D03*
D60*
X554457Y1111990D03*
D36*
X601028Y1111990D03*
D69*
X692468Y1111990D03*
D12*
X771639Y1111990D03*
D36*
X818629Y1111990D03*
D12*
X910476Y1111990D03*
X1037476Y1111990D03*
D36*
X1112406Y1111990D03*
X1146289Y1111990D03*
D12*
X1255078Y1111990D03*
D58*
X554457Y1112838D03*
D32*
X600189Y1112838D03*
D70*
X692468Y1112838D03*
D51*
X771639Y1112838D03*
D32*
X817766Y1112838D03*
D51*
X910476Y1112838D03*
X1037476Y1112838D03*
D32*
X1113269Y1112838D03*
D28*
X1145858Y1112838D03*
D51*
X1255078Y1112838D03*
D60*
X554457Y1113685D03*
D29*
X599758Y1113685D03*
D69*
X692468Y1113685D03*
D12*
X771639Y1113685D03*
D17*
X817347Y1113685D03*
D12*
X910476Y1113685D03*
X1037476Y1113685D03*
D17*
X1113688Y1113685D03*
X1145007Y1113685D03*
D12*
X1255078Y1113685D03*
D60*
X554457Y1114530D03*
D36*
X599326Y1114530D03*
D71*
X692036Y1114530D03*
D12*
X771639Y1114530D03*
D36*
X816928Y1114530D03*
D12*
X910476Y1114530D03*
X1037476Y1114530D03*
D36*
X1114108Y1114530D03*
X1144588Y1114530D03*
D12*
X1255078Y1114530D03*
D58*
X554457Y1115378D03*
D32*
X598488Y1115378D03*
D72*
X692468Y1115378D03*
D51*
X771639Y1115378D03*
D32*
X816089Y1115378D03*
D51*
X910476Y1115378D03*
X1037476Y1115378D03*
D23*
X1114527Y1115378D03*
X1144168Y1115378D03*
D51*
X1255078Y1115378D03*
D60*
X554457Y1116225D03*
D36*
X598488Y1116225D03*
D73*
X692468Y1116225D03*
D12*
X771639Y1116225D03*
D36*
X816089Y1116225D03*
D12*
X910476Y1116225D03*
X1037476Y1116225D03*
D36*
X1114946Y1116225D03*
X1143749Y1116225D03*
D12*
X1255078Y1116225D03*
D60*
X554457Y1117070D03*
D36*
X597649Y1117070D03*
D73*
X692468Y1117070D03*
D12*
X771639Y1117070D03*
D36*
X815226Y1117070D03*
D12*
X910476Y1117070D03*
X1037476Y1117070D03*
D36*
X1115809Y1117070D03*
D29*
X1143318Y1117070D03*
D12*
X1255078Y1117070D03*
D58*
X554457Y1117918D03*
D28*
X597218Y1117918D03*
D74*
X692468Y1117918D03*
D51*
X771639Y1117918D03*
D23*
X814807Y1117918D03*
D51*
X910476Y1117918D03*
X1037476Y1117918D03*
D23*
X1116228Y1117918D03*
X1142467Y1117918D03*
D51*
X1255078Y1117918D03*
D60*
X554457Y1118765D03*
D36*
X596786Y1118765D03*
D75*
X692468Y1118765D03*
D12*
X771639Y1118765D03*
D36*
X814388Y1118765D03*
D12*
X910476Y1118765D03*
X1037476Y1118765D03*
D36*
X1116648Y1118765D03*
X1142048Y1118765D03*
D12*
X1255078Y1118765D03*
D60*
X554457Y1119610D03*
D36*
X595948Y1119610D03*
D75*
X692468Y1119610D03*
D12*
X771639Y1119610D03*
D36*
X813549Y1119610D03*
D12*
X910476Y1119610D03*
X1037476Y1119610D03*
D17*
X1117067Y1119610D03*
X1141628Y1119610D03*
D12*
X1255078Y1119610D03*
D58*
X554457Y1120458D03*
D32*
X595948Y1120458D03*
D76*
X692468Y1120458D03*
D51*
X771639Y1120458D03*
D32*
X813549Y1120458D03*
D51*
X910476Y1120458D03*
X1037476Y1120458D03*
D32*
X1117486Y1120458D03*
X1141209Y1120458D03*
D51*
X1255078Y1120458D03*
D60*
X554457Y1121305D03*
D36*
X595109Y1121305D03*
D77*
X692468Y1121305D03*
D12*
X771639Y1121305D03*
D36*
X812686Y1121305D03*
D12*
X910476Y1121305D03*
D78*
X1016737Y1121305D03*
D36*
X1118349Y1121305D03*
D29*
X1140778Y1121305D03*
D78*
X1234338Y1121305D03*
D60*
X554457Y1122150D03*
D29*
X594678Y1122150D03*
D77*
X692468Y1122150D03*
D12*
X771639Y1122150D03*
D17*
X812267Y1122150D03*
D12*
X910476Y1122150D03*
D67*
X1017588Y1122150D03*
D17*
X1118768Y1122150D03*
X1139927Y1122150D03*
D67*
X1235189Y1122150D03*
D58*
X554457Y1122998D03*
D32*
X594246Y1122998D03*
D64*
X672148Y1122998D03*
D59*
X712788Y1122998D03*
D51*
X771639Y1122998D03*
D32*
X811848Y1122998D03*
D51*
X910476Y1122998D03*
D79*
X1018007Y1122998D03*
D32*
X1119188Y1122998D03*
X1139508Y1122998D03*
D79*
X1235608Y1122998D03*
D60*
X554457Y1123845D03*
D36*
X593408Y1123845D03*
D12*
X672579Y1123845D03*
X712356Y1123845D03*
X771639Y1123845D03*
D36*
X811009Y1123845D03*
D12*
X910476Y1123845D03*
D80*
X1018438Y1123845D03*
D17*
X1119607Y1123845D03*
X1139088Y1123845D03*
D66*
X1236028Y1123845D03*
D60*
X554457Y1124690D03*
D36*
X593408Y1124690D03*
D63*
X672998Y1124690D03*
D12*
X712356Y1124690D03*
X771639Y1124690D03*
D36*
X811009Y1124690D03*
D12*
X910476Y1124690D03*
D81*
X1018858Y1124690D03*
D36*
X1120026Y1124690D03*
X1138669Y1124690D03*
D81*
X1236459Y1124690D03*
D58*
X554457Y1125538D03*
D32*
X592569Y1125538D03*
D65*
X672998Y1125538D03*
D51*
X712356Y1125538D03*
X771639Y1125538D03*
D32*
X810146Y1125538D03*
D51*
X910476Y1125538D03*
D82*
X1018858Y1125538D03*
D83*
X1129348Y1125538D03*
D82*
X1236459Y1125538D03*
D60*
X554457Y1126385D03*
D29*
X592138Y1126385D03*
D12*
X673418Y1126385D03*
X711518Y1126385D03*
X771639Y1126385D03*
D17*
X809727Y1126385D03*
D12*
X910476Y1126385D03*
D84*
X1019277Y1126385D03*
D85*
X1129767Y1126385D03*
D84*
X1236878Y1126385D03*
D60*
X554457Y1127230D03*
D36*
X591706Y1127230D03*
D12*
X673418Y1127230D03*
X711518Y1127230D03*
X771639Y1127230D03*
D36*
X809308Y1127230D03*
D12*
X910476Y1127230D03*
D84*
X1019277Y1127230D03*
D86*
X1129348Y1127230D03*
D84*
X1236878Y1127230D03*
D58*
X554457Y1128078D03*
D32*
X590868Y1128078D03*
D65*
X673837Y1128078D03*
D51*
X711518Y1128078D03*
X771639Y1128078D03*
D32*
X808469Y1128078D03*
D51*
X910476Y1128078D03*
D87*
X1019277Y1128078D03*
D88*
X1129348Y1128078D03*
D87*
X1236878Y1128078D03*
D60*
X554457Y1128925D03*
D36*
X590868Y1128925D03*
D12*
X674256Y1128925D03*
D60*
X711098Y1128925D03*
D12*
X771639Y1128925D03*
D36*
X808469Y1128925D03*
D12*
X910476Y1128925D03*
D84*
X1019277Y1128925D03*
D89*
X1129348Y1128925D03*
D84*
X1236878Y1128925D03*
D60*
X554457Y1129770D03*
D36*
X590029Y1129770D03*
D12*
X674256Y1129770D03*
X710679Y1129770D03*
X771639Y1129770D03*
D36*
X807606Y1129770D03*
D12*
X910476Y1129770D03*
D84*
X1019277Y1129770D03*
D90*
X1129348Y1129770D03*
D84*
X1236878Y1129770D03*
D58*
X554457Y1130618D03*
D28*
X589598Y1130618D03*
D64*
X674688Y1130618D03*
D51*
X710679Y1130618D03*
X771639Y1130618D03*
D23*
X807187Y1130618D03*
D51*
X910476Y1130618D03*
D82*
X1018858Y1130618D03*
D91*
X1129767Y1130618D03*
D82*
X1236459Y1130618D03*
D60*
X554457Y1131465D03*
D36*
X589166Y1131465D03*
D61*
X674688Y1131465D03*
D12*
X710679Y1131465D03*
X771639Y1131465D03*
D36*
X806768Y1131465D03*
D12*
X910476Y1131465D03*
D81*
X1018858Y1131465D03*
D92*
X1129348Y1131465D03*
D81*
X1236459Y1131465D03*
D60*
X554457Y1132310D03*
D36*
X588328Y1132310D03*
D12*
X675119Y1132310D03*
X709816Y1132310D03*
X771639Y1132310D03*
D36*
X805929Y1132310D03*
D12*
X910476Y1132310D03*
D80*
X1018438Y1132310D03*
D93*
X1129348Y1132310D03*
D66*
X1236028Y1132310D03*
D58*
X554457Y1133158D03*
D32*
X588328Y1133158D03*
D65*
X675538Y1133158D03*
D51*
X709816Y1133158D03*
X771639Y1133158D03*
D32*
X805929Y1133158D03*
D51*
X910476Y1133158D03*
D79*
X1018007Y1133158D03*
D94*
X1129348Y1133158D03*
D79*
X1235608Y1133158D03*
D60*
X554457Y1134005D03*
D36*
X587489Y1134005D03*
D63*
X675538Y1134005D03*
D12*
X709816Y1134005D03*
X771639Y1134005D03*
D36*
X805066Y1134005D03*
D12*
X910476Y1134005D03*
D67*
X1017588Y1134005D03*
D95*
X1129348Y1134005D03*
D67*
X1235189Y1134005D03*
D60*
X554457Y1134850D03*
D36*
X587489Y1134850D03*
D12*
X675958Y1134850D03*
X708978Y1134850D03*
X771639Y1134850D03*
D36*
X805066Y1134850D03*
D12*
X910476Y1134850D03*
D78*
X1016737Y1134850D03*
D96*
X1129767Y1134850D03*
D78*
X1234338Y1134850D03*
D58*
X554457Y1135698D03*
D32*
X586626Y1135698D03*
D51*
X675958Y1135698D03*
X708978Y1135698D03*
X771639Y1135698D03*
D32*
X804228Y1135698D03*
D51*
X910476Y1135698D03*
X993458Y1135698D03*
X1037476Y1135698D03*
D97*
X1129348Y1135698D03*
D51*
X1211059Y1135698D03*
X1255078Y1135698D03*
D60*
X554457Y1136545D03*
D17*
X586207Y1136545D03*
D63*
X676377Y1136545D03*
D12*
X708978Y1136545D03*
X771639Y1136545D03*
D17*
X803808Y1136545D03*
D12*
X910476Y1136545D03*
X993458Y1136545D03*
X1037476Y1136545D03*
D98*
X1129348Y1136545D03*
D12*
X1211059Y1136545D03*
X1255078Y1136545D03*
D60*
X554457Y1137390D03*
D36*
X585788Y1137390D03*
D12*
X676796Y1137390D03*
D60*
X708558Y1137390D03*
D12*
X771639Y1137390D03*
D36*
X803389Y1137390D03*
D12*
X910476Y1137390D03*
X993458Y1137390D03*
X1037476Y1137390D03*
D98*
X1129348Y1137390D03*
D12*
X1211059Y1137390D03*
X1255078Y1137390D03*
D58*
X554457Y1138238D03*
D32*
X584949Y1138238D03*
D51*
X676796Y1138238D03*
X708139Y1138238D03*
X771639Y1138238D03*
D32*
X802526Y1138238D03*
D51*
X910476Y1138238D03*
X993458Y1138238D03*
X1037476Y1138238D03*
D34*
X1129348Y1138238D03*
D51*
X1211059Y1138238D03*
X1255078Y1138238D03*
D60*
X554457Y1139085D03*
D36*
X584949Y1139085D03*
D61*
X677228Y1139085D03*
D12*
X708139Y1139085D03*
X771639Y1139085D03*
D36*
X802526Y1139085D03*
D12*
X910476Y1139085D03*
X993458Y1139085D03*
X1037476Y1139085D03*
D47*
X1129348Y1139085D03*
D12*
X1211059Y1139085D03*
X1255078Y1139085D03*
D60*
X554457Y1139930D03*
D36*
X584086Y1139930D03*
D61*
X677228Y1139930D03*
D12*
X708139Y1139930D03*
X771639Y1139930D03*
D36*
X801688Y1139930D03*
D12*
X910476Y1139930D03*
X993458Y1139930D03*
X1037476Y1139930D03*
D36*
X1129348Y1139930D03*
D12*
X1211059Y1139930D03*
X1255078Y1139930D03*
D58*
X554457Y1140778D03*
D23*
X583667Y1140778D03*
D51*
X677659Y1140778D03*
X707276Y1140778D03*
X771639Y1140778D03*
D23*
X801268Y1140778D03*
D51*
X910476Y1140778D03*
X993458Y1140778D03*
X1037476Y1140778D03*
D32*
X1129348Y1140778D03*
D51*
X1211059Y1140778D03*
X1255078Y1140778D03*
D60*
X554457Y1141625D03*
D36*
X583248Y1141625D03*
D63*
X678078Y1141625D03*
D12*
X707276Y1141625D03*
X771639Y1141625D03*
D36*
X800849Y1141625D03*
D12*
X910476Y1141625D03*
X993458Y1141625D03*
X1037476Y1141625D03*
D18*
X1129767Y1141625D03*
D12*
X1211059Y1141625D03*
X1255078Y1141625D03*
D60*
X554457Y1142470D03*
D36*
X582409Y1142470D03*
D63*
X678078Y1142470D03*
D12*
X707276Y1142470D03*
X771639Y1142470D03*
D36*
X799986Y1142470D03*
D12*
X910476Y1142470D03*
X993458Y1142470D03*
X1037476Y1142470D03*
D47*
X1129348Y1142470D03*
D12*
X1211059Y1142470D03*
X1255078Y1142470D03*
D58*
X554457Y1143318D03*
D32*
X582409Y1143318D03*
D51*
X678498Y1143318D03*
D58*
X706857Y1143318D03*
D51*
X771639Y1143318D03*
D32*
X799986Y1143318D03*
D51*
X910476Y1143318D03*
X993458Y1143318D03*
X1037476Y1143318D03*
D99*
X1129348Y1143318D03*
D51*
X1211059Y1143318D03*
X1255078Y1143318D03*
D60*
X554457Y1144165D03*
D36*
X581546Y1144165D03*
D63*
X678917Y1144165D03*
D12*
X706438Y1144165D03*
X771639Y1144165D03*
D36*
X799148Y1144165D03*
D12*
X910476Y1144165D03*
X993458Y1144165D03*
X1037476Y1144165D03*
D100*
X1129767Y1144165D03*
D12*
X1211059Y1144165D03*
X1255078Y1144165D03*
D60*
X554457Y1145010D03*
D17*
X581127Y1145010D03*
D63*
X678917Y1145010D03*
D12*
X706438Y1145010D03*
X771639Y1145010D03*
D17*
X798728Y1145010D03*
D12*
X910476Y1145010D03*
X993458Y1145010D03*
X1037476Y1145010D03*
D101*
X1129348Y1145010D03*
D12*
X1211059Y1145010D03*
X1255078Y1145010D03*
D76*
X575628Y1145858D03*
D51*
X679336Y1145858D03*
D58*
X706018Y1145858D03*
D102*
X792798Y1145858D03*
D51*
X910476Y1145858D03*
X993458Y1145858D03*
X1037476Y1145858D03*
D103*
X1129767Y1145858D03*
D51*
X1211059Y1145858D03*
X1255078Y1145858D03*
D104*
X576898Y1146705D03*
D12*
X679336Y1146705D03*
X705599Y1146705D03*
D73*
X794068Y1146705D03*
D12*
X910476Y1146705D03*
X993458Y1146705D03*
X1037476Y1146705D03*
D95*
X1129348Y1146705D03*
D12*
X1211059Y1146705D03*
X1255078Y1146705D03*
D69*
X578168Y1147550D03*
D61*
X679768Y1147550D03*
D12*
X705599Y1147550D03*
D105*
X795338Y1147550D03*
D12*
X910476Y1147550D03*
X993458Y1147550D03*
X1037476Y1147550D03*
D93*
X1129348Y1147550D03*
D12*
X1211059Y1147550D03*
X1255078Y1147550D03*
D68*
X579006Y1148398D03*
D64*
X679768Y1148398D03*
D51*
X705599Y1148398D03*
D79*
X796188Y1148398D03*
D51*
X910476Y1148398D03*
X993458Y1148398D03*
X1037476Y1148398D03*
D106*
X1129767Y1148398D03*
D51*
X1211059Y1148398D03*
X1255078Y1148398D03*
D107*
X579438Y1149245D03*
D12*
X680199Y1149245D03*
X704736Y1149245D03*
D66*
X796608Y1149245D03*
D12*
X910476Y1149245D03*
X993458Y1149245D03*
X1037476Y1149245D03*
D92*
X1129348Y1149245D03*
D12*
X1211059Y1149245D03*
X1255078Y1149245D03*
D81*
X580276Y1150090D03*
D63*
X680618Y1150090D03*
D12*
X704736Y1150090D03*
D84*
X797458Y1150090D03*
D12*
X910476Y1150090D03*
X993458Y1150090D03*
X1037476Y1150090D03*
D108*
X1129767Y1150090D03*
D12*
X1211059Y1150090D03*
X1255078Y1150090D03*
D109*
X580708Y1150938D03*
D65*
X680618Y1150938D03*
D51*
X704736Y1150938D03*
D110*
X797878Y1150938D03*
D51*
X910476Y1150938D03*
X993458Y1150938D03*
X1037476Y1150938D03*
D111*
X1129348Y1150938D03*
D51*
X1211059Y1150938D03*
X1255078Y1150938D03*
D112*
X581127Y1151785D03*
D12*
X681038Y1151785D03*
D60*
X704317Y1151785D03*
D113*
X798309Y1151785D03*
D12*
X910476Y1151785D03*
X993458Y1151785D03*
X1037476Y1151785D03*
D89*
X1129348Y1151785D03*
D12*
X1211059Y1151785D03*
X1255078Y1151785D03*
D113*
X581546Y1152630D03*
D63*
X681457Y1152630D03*
D12*
X703898Y1152630D03*
D114*
X798728Y1152630D03*
D12*
X910476Y1152630D03*
X993458Y1152630D03*
X1037476Y1152630D03*
D115*
X1129767Y1152630D03*
D12*
X1211059Y1152630D03*
X1255078Y1152630D03*
D116*
X581978Y1153478D03*
D65*
X681457Y1153478D03*
D51*
X703898Y1153478D03*
D117*
X799148Y1153478D03*
D51*
X910476Y1153478D03*
X993458Y1153478D03*
X1037476Y1153478D03*
D118*
X1129348Y1153478D03*
D51*
X1211059Y1153478D03*
X1255078Y1153478D03*
D119*
X582397Y1154325D03*
D12*
X681876Y1154325D03*
D60*
X703478Y1154325D03*
D120*
X799579Y1154325D03*
D12*
X910476Y1154325D03*
X993458Y1154325D03*
X1037476Y1154325D03*
D85*
X1129767Y1154325D03*
D12*
X1211059Y1154325D03*
X1255078Y1154325D03*
D119*
X582397Y1155170D03*
D12*
X681876Y1155170D03*
X703059Y1155170D03*
D120*
X799579Y1155170D03*
D12*
X910476Y1155170D03*
X993458Y1155170D03*
X1037476Y1155170D03*
D121*
X1129348Y1155170D03*
D12*
X1211059Y1155170D03*
X1255078Y1155170D03*
D122*
X582816Y1156018D03*
D64*
X682308Y1156018D03*
D51*
X703059Y1156018D03*
D123*
X799998Y1156018D03*
D51*
X910476Y1156018D03*
X993458Y1156018D03*
X1037476Y1156018D03*
D28*
X1120458Y1156018D03*
D32*
X1138669Y1156018D03*
D51*
X1211059Y1156018D03*
X1255078Y1156018D03*
D124*
X583248Y1156865D03*
D61*
X682308Y1156865D03*
D12*
X703059Y1156865D03*
D125*
X800418Y1156865D03*
D12*
X910476Y1156865D03*
X993458Y1156865D03*
X1037476Y1156865D03*
D17*
X1119607Y1156865D03*
X1139088Y1156865D03*
D12*
X1211059Y1156865D03*
X1255078Y1156865D03*
D124*
X583248Y1157710D03*
D12*
X682739Y1157710D03*
D62*
X702628Y1157710D03*
D125*
X800418Y1157710D03*
D12*
X910476Y1157710D03*
X993458Y1157710D03*
X1037476Y1157710D03*
D36*
X1119188Y1157710D03*
X1139508Y1157710D03*
D12*
X1211059Y1157710D03*
X1255078Y1157710D03*
D126*
X583667Y1158558D03*
D65*
X683158Y1158558D03*
D51*
X702196Y1158558D03*
D127*
X800849Y1158558D03*
D51*
X910476Y1158558D03*
X993458Y1158558D03*
X1037476Y1158558D03*
D23*
X1118768Y1158558D03*
D32*
X1140346Y1158558D03*
D51*
X1211059Y1158558D03*
X1255078Y1158558D03*
D128*
X583667Y1159405D03*
D63*
X683158Y1159405D03*
D12*
X702196Y1159405D03*
D129*
X800849Y1159405D03*
D12*
X910476Y1159405D03*
X993458Y1159405D03*
X1037476Y1159405D03*
D36*
X1118349Y1159405D03*
D29*
X1140778Y1159405D03*
D12*
X1211059Y1159405D03*
X1255078Y1159405D03*
D60*
X554457Y1160250D03*
D18*
X610768Y1160250D03*
D12*
X683578Y1160250D03*
D60*
X701777Y1160250D03*
D12*
X771639Y1160250D03*
D33*
X828358Y1160250D03*
D12*
X910476Y1160250D03*
X993458Y1160250D03*
X1037476Y1160250D03*
D29*
X1117918Y1160250D03*
D36*
X1141209Y1160250D03*
D12*
X1211059Y1160250D03*
X1255078Y1160250D03*
D58*
X554457Y1161098D03*
D32*
X612026Y1161098D03*
D65*
X683997Y1161098D03*
D51*
X701358Y1161098D03*
X771639Y1161098D03*
D32*
X829628Y1161098D03*
D51*
X910476Y1161098D03*
X993458Y1161098D03*
X1037476Y1161098D03*
D23*
X1117067Y1161098D03*
X1141628Y1161098D03*
D51*
X1211059Y1161098D03*
X1255078Y1161098D03*
D60*
X554457Y1161945D03*
D29*
X612458Y1161945D03*
D63*
X683997Y1161945D03*
D12*
X701358Y1161945D03*
X771639Y1161945D03*
D17*
X830047Y1161945D03*
D12*
X910476Y1161945D03*
X993458Y1161945D03*
X1037476Y1161945D03*
D36*
X1116648Y1161945D03*
X1142048Y1161945D03*
D12*
X1211059Y1161945D03*
X1255078Y1161945D03*
D60*
X554457Y1162790D03*
D63*
X612877Y1162790D03*
D12*
X684416Y1162790D03*
X701358Y1162790D03*
X771639Y1162790D03*
D63*
X830478Y1162790D03*
D12*
X910476Y1162790D03*
X993458Y1162790D03*
X1037476Y1162790D03*
D17*
X1116228Y1162790D03*
D36*
X1142886Y1162790D03*
D12*
X1211059Y1162790D03*
X1255078Y1162790D03*
D58*
X554457Y1163638D03*
D64*
X613728Y1163638D03*
D88*
X692468Y1163638D03*
D51*
X771639Y1163638D03*
D65*
X831317Y1163638D03*
D51*
X910476Y1163638D03*
X993458Y1163638D03*
X1037476Y1163638D03*
D32*
X1115809Y1163638D03*
D28*
X1143318Y1163638D03*
D51*
X1211059Y1163638D03*
X1255078Y1163638D03*
D60*
X554457Y1164485D03*
D61*
X613728Y1164485D03*
D89*
X692468Y1164485D03*
D12*
X771639Y1164485D03*
D63*
X831317Y1164485D03*
D12*
X910476Y1164485D03*
X993458Y1164485D03*
X1037476Y1164485D03*
D29*
X1115378Y1164485D03*
D36*
X1143749Y1164485D03*
D12*
X1211059Y1164485D03*
X1255078Y1164485D03*
D60*
X554457Y1165330D03*
D12*
X614159Y1165330D03*
D89*
X692468Y1165330D03*
D12*
X771639Y1165330D03*
X831736Y1165330D03*
X910476Y1165330D03*
X993458Y1165330D03*
X1037476Y1165330D03*
D17*
X1114527Y1165330D03*
X1144168Y1165330D03*
D12*
X1211059Y1165330D03*
X1255078Y1165330D03*
D58*
X554457Y1166178D03*
D51*
X614159Y1166178D03*
D111*
X692468Y1166178D03*
D51*
X771639Y1166178D03*
X831736Y1166178D03*
X910476Y1166178D03*
X993458Y1166178D03*
X1037476Y1166178D03*
D32*
X1114108Y1166178D03*
X1144588Y1166178D03*
D51*
X1211059Y1166178D03*
X1255078Y1166178D03*
D60*
X554457Y1167025D03*
D12*
X614159Y1167025D03*
D90*
X692468Y1167025D03*
D12*
X771639Y1167025D03*
X831736Y1167025D03*
X910476Y1167025D03*
X993458Y1167025D03*
X1037476Y1167025D03*
D17*
X1113688Y1167025D03*
D36*
X1145426Y1167025D03*
D12*
X1211059Y1167025D03*
X1255078Y1167025D03*
D60*
X554457Y1167870D03*
D12*
X614159Y1167870D03*
D90*
X692468Y1167870D03*
D12*
X771639Y1167870D03*
X831736Y1167870D03*
X910476Y1167870D03*
X993458Y1167870D03*
X1037476Y1167870D03*
D36*
X1113269Y1167870D03*
D29*
X1145858Y1167870D03*
D12*
X1211059Y1167870D03*
X1255078Y1167870D03*
D58*
X554457Y1168718D03*
D51*
X614159Y1168718D03*
D130*
X692468Y1168718D03*
D51*
X771639Y1168718D03*
X831736Y1168718D03*
X910476Y1168718D03*
X993458Y1168718D03*
X1037476Y1168718D03*
D28*
X1112838Y1168718D03*
D32*
X1146289Y1168718D03*
D51*
X1211059Y1168718D03*
X1255078Y1168718D03*
D60*
X554457Y1169565D03*
D12*
X614159Y1169565D03*
D92*
X692468Y1169565D03*
D12*
X771639Y1169565D03*
X831736Y1169565D03*
X910476Y1169565D03*
X993458Y1169565D03*
X1037476Y1169565D03*
D17*
X1111987Y1169565D03*
X1146708Y1169565D03*
D12*
X1211059Y1169565D03*
X1255078Y1169565D03*
D60*
X554457Y1170410D03*
D12*
X614159Y1170410D03*
D92*
X692468Y1170410D03*
D12*
X771639Y1170410D03*
X831736Y1170410D03*
X910476Y1170410D03*
X993458Y1170410D03*
X1037476Y1170410D03*
D17*
X1111987Y1170410D03*
D36*
X1147128Y1170410D03*
D12*
X1211059Y1170410D03*
X1255078Y1170410D03*
D58*
X554457Y1171258D03*
D51*
X614159Y1171258D03*
D106*
X692887Y1171258D03*
D51*
X771639Y1171258D03*
X831736Y1171258D03*
X910476Y1171258D03*
X993458Y1171258D03*
X1037476Y1171258D03*
D23*
X1111148Y1171258D03*
D32*
X1147966Y1171258D03*
D51*
X1211059Y1171258D03*
X1255078Y1171258D03*
D60*
X554457Y1172105D03*
D12*
X614159Y1172105D03*
D93*
X692468Y1172105D03*
D12*
X771639Y1172105D03*
X831736Y1172105D03*
D25*
X880859Y1172105D03*
D12*
X910476Y1172105D03*
D25*
X940118Y1172105D03*
D12*
X993458Y1172105D03*
X1037476Y1172105D03*
D36*
X1110729Y1172105D03*
D29*
X1148398Y1172105D03*
D12*
X1211059Y1172105D03*
X1255078Y1172105D03*
D60*
X554457Y1172950D03*
D12*
X614159Y1172950D03*
D93*
X692468Y1172950D03*
D12*
X771639Y1172950D03*
X831736Y1172950D03*
D40*
X880847Y1172950D03*
D12*
X910476Y1172950D03*
D37*
X940118Y1172950D03*
D12*
X993458Y1172950D03*
X1037476Y1172950D03*
D29*
X1110298Y1172950D03*
D36*
X1148829Y1172950D03*
D12*
X1211059Y1172950D03*
X1255078Y1172950D03*
D58*
X554457Y1173798D03*
D51*
X614159Y1173798D03*
D94*
X692468Y1173798D03*
D51*
X771639Y1173798D03*
X831736Y1173798D03*
D39*
X880859Y1173798D03*
D51*
X910476Y1173798D03*
D39*
X940118Y1173798D03*
D51*
X993458Y1173798D03*
X1037476Y1173798D03*
D32*
X1109866Y1173798D03*
D23*
X1149248Y1173798D03*
D51*
X1211059Y1173798D03*
X1255078Y1173798D03*
D60*
X554457Y1174645D03*
D12*
X614159Y1174645D03*
D95*
X692468Y1174645D03*
D12*
X771639Y1174645D03*
X831736Y1174645D03*
D13*
X880847Y1174645D03*
D12*
X910476Y1174645D03*
D131*
X940118Y1174645D03*
D12*
X993458Y1174645D03*
X1037476Y1174645D03*
D17*
X1109447Y1174645D03*
D36*
X1149668Y1174645D03*
D12*
X1211059Y1174645D03*
X1255078Y1174645D03*
D60*
X554457Y1175490D03*
D12*
X614159Y1175490D03*
D95*
X692468Y1175490D03*
D12*
X771639Y1175490D03*
X831736Y1175490D03*
D56*
X880847Y1175490D03*
D12*
X910476Y1175490D03*
D55*
X940118Y1175490D03*
D12*
X993458Y1175490D03*
X1037476Y1175490D03*
D17*
X1108608Y1175490D03*
D36*
X1150506Y1175490D03*
D12*
X1211059Y1175490D03*
X1255078Y1175490D03*
D58*
X554457Y1176338D03*
D51*
X614159Y1176338D03*
D132*
X692468Y1176338D03*
D51*
X771639Y1176338D03*
X831736Y1176338D03*
D133*
X880847Y1176338D03*
D51*
X910476Y1176338D03*
D134*
X940118Y1176338D03*
D51*
X993458Y1176338D03*
X1037476Y1176338D03*
D32*
X1108189Y1176338D03*
D28*
X1150938Y1176338D03*
D51*
X1211059Y1176338D03*
X1255078Y1176338D03*
D60*
X554457Y1177185D03*
D12*
X614159Y1177185D03*
D101*
X692468Y1177185D03*
D12*
X771639Y1177185D03*
X831736Y1177185D03*
X880859Y1177185D03*
X910476Y1177185D03*
X940118Y1177185D03*
X993458Y1177185D03*
X1037476Y1177185D03*
D29*
X1107758Y1177185D03*
D36*
X1151369Y1177185D03*
D12*
X1211059Y1177185D03*
X1255078Y1177185D03*
D60*
X554457Y1178030D03*
D12*
X614159Y1178030D03*
D101*
X692468Y1178030D03*
D12*
X771639Y1178030D03*
X831736Y1178030D03*
X880859Y1178030D03*
X910476Y1178030D03*
X940118Y1178030D03*
X993458Y1178030D03*
X1037476Y1178030D03*
D36*
X1107326Y1178030D03*
D17*
X1151788Y1178030D03*
D12*
X1211059Y1178030D03*
X1255078Y1178030D03*
D58*
X554457Y1178878D03*
D51*
X614159Y1178878D03*
D97*
X692468Y1178878D03*
D51*
X771639Y1178878D03*
X831736Y1178878D03*
X880859Y1178878D03*
X910476Y1178878D03*
X940118Y1178878D03*
X993458Y1178878D03*
X1037476Y1178878D03*
D23*
X1106907Y1178878D03*
D32*
X1152208Y1178878D03*
D51*
X1211059Y1178878D03*
X1255078Y1178878D03*
D60*
X554457Y1179725D03*
D61*
X613728Y1179725D03*
D100*
X692887Y1179725D03*
D12*
X771639Y1179725D03*
D63*
X831317Y1179725D03*
D12*
X880859Y1179725D03*
X910476Y1179725D03*
X940118Y1179725D03*
X993458Y1179725D03*
X1037476Y1179725D03*
D17*
X1106068Y1179725D03*
D36*
X1153046Y1179725D03*
D12*
X1211059Y1179725D03*
X1255078Y1179725D03*
D60*
X554457Y1180570D03*
D61*
X613728Y1180570D03*
D98*
X692468Y1180570D03*
D12*
X771639Y1180570D03*
D63*
X831317Y1180570D03*
D12*
X880859Y1180570D03*
X910476Y1180570D03*
X940118Y1180570D03*
X993458Y1180570D03*
X1037476Y1180570D03*
D36*
X1105649Y1180570D03*
D29*
X1153478Y1180570D03*
D12*
X1211059Y1180570D03*
X1255078Y1180570D03*
D58*
X554457Y1181418D03*
D65*
X612877Y1181418D03*
D99*
X692468Y1181418D03*
D51*
X771639Y1181418D03*
D65*
X830478Y1181418D03*
D51*
X880859Y1181418D03*
X910476Y1181418D03*
X940118Y1181418D03*
X993458Y1181418D03*
D133*
X1037488Y1181418D03*
D28*
X1105218Y1181418D03*
D32*
X1153909Y1181418D03*
D51*
X1211059Y1181418D03*
D134*
X1255078Y1181418D03*
D60*
X554457Y1182265D03*
D29*
X612458Y1182265D03*
D98*
X692468Y1182265D03*
D12*
X771639Y1182265D03*
D17*
X830047Y1182265D03*
D12*
X880859Y1182265D03*
X910476Y1182265D03*
X940118Y1182265D03*
X993458Y1182265D03*
D56*
X1037488Y1182265D03*
D36*
X1104786Y1182265D03*
D17*
X1154328Y1182265D03*
D12*
X1211059Y1182265D03*
D55*
X1255078Y1182265D03*
D60*
X554457Y1183110D03*
D36*
X612026Y1183110D03*
D47*
X692468Y1183110D03*
D12*
X771639Y1183110D03*
D36*
X829628Y1183110D03*
D12*
X880859Y1183110D03*
X910476Y1183110D03*
X940118Y1183110D03*
X993458Y1183110D03*
D13*
X1037488Y1183110D03*
D17*
X1104367Y1183110D03*
D36*
X1154748Y1183110D03*
D12*
X1211059Y1183110D03*
D131*
X1255078Y1183110D03*
D58*
X554457Y1183958D03*
D24*
X610768Y1183958D03*
D34*
X692468Y1183958D03*
D51*
X771639Y1183958D03*
D22*
X828358Y1183958D03*
D51*
X880859Y1183958D03*
X910476Y1183958D03*
X940118Y1183958D03*
X993458Y1183958D03*
D39*
X1037476Y1183958D03*
D23*
X1103528Y1183958D03*
X1155167Y1183958D03*
D51*
X1211059Y1183958D03*
D39*
X1255078Y1183958D03*
D128*
X583667Y1184805D03*
D47*
X692468Y1184805D03*
D129*
X800849Y1184805D03*
D135*
X910488Y1184805D03*
D12*
X993458Y1184805D03*
D40*
X1037488Y1184805D03*
D36*
X1103109Y1184805D03*
X1155586Y1184805D03*
D12*
X1211059Y1184805D03*
D37*
X1255078Y1184805D03*
D128*
X583667Y1185650D03*
D36*
X692468Y1185650D03*
D129*
X800849Y1185650D03*
D135*
X910488Y1185650D03*
D12*
X993458Y1185650D03*
D25*
X1037476Y1185650D03*
D29*
X1102678Y1185650D03*
D36*
X1156449Y1185650D03*
D12*
X1211059Y1185650D03*
D25*
X1255078Y1185650D03*
D136*
X583248Y1186498D03*
D32*
X692468Y1186498D03*
D137*
X800418Y1186498D03*
D138*
X910488Y1186498D03*
D51*
X993458Y1186498D03*
D32*
X1102246Y1186498D03*
D23*
X1156868Y1186498D03*
D51*
X1211059Y1186498D03*
D124*
X583248Y1187345D03*
D36*
X692468Y1187345D03*
D125*
X800418Y1187345D03*
D135*
X910488Y1187345D03*
D12*
X993458Y1187345D03*
D17*
X1101827Y1187345D03*
D36*
X1157288Y1187345D03*
D12*
X1211059Y1187345D03*
D120*
X582816Y1188190D03*
D17*
X692887Y1188190D03*
D139*
X799998Y1188190D03*
D135*
X910488Y1188190D03*
D12*
X993458Y1188190D03*
D36*
X1101408Y1188190D03*
D17*
X1157707Y1188190D03*
D12*
X1211059Y1188190D03*
D140*
X582397Y1189038D03*
D64*
X692468Y1189038D03*
D122*
X799579Y1189038D03*
D138*
X910488Y1189038D03*
D51*
X993458Y1189038D03*
D23*
X1100988Y1189038D03*
D32*
X1158126Y1189038D03*
D51*
X1211059Y1189038D03*
D119*
X582397Y1189885D03*
D61*
X692468Y1189885D03*
D120*
X799579Y1189885D03*
D135*
X910488Y1189885D03*
D12*
X993458Y1189885D03*
D29*
X1100138Y1189885D03*
X1158558Y1189885D03*
D12*
X1211059Y1189885D03*
D141*
X581978Y1190730D03*
D61*
X692468Y1190730D03*
D142*
X799148Y1190730D03*
D135*
X910488Y1190730D03*
D12*
X993458Y1190730D03*
D29*
X1100138Y1190730D03*
D63*
X1158977Y1190730D03*
D12*
X1211059Y1190730D03*
D143*
X581546Y1191578D03*
D59*
X692468Y1191578D03*
D144*
X798728Y1191578D03*
D138*
X910488Y1191578D03*
D51*
X993458Y1191578D03*
D65*
X1099718Y1191578D03*
X1158977Y1191578D03*
D51*
X1211059Y1191578D03*
D112*
X581127Y1192425D03*
D62*
X692468Y1192425D03*
D113*
X798309Y1192425D03*
D135*
X910488Y1192425D03*
D12*
X993458Y1192425D03*
D63*
X1099718Y1192425D03*
D12*
X1159396Y1192425D03*
X1211059Y1192425D03*
D145*
X580708Y1193270D03*
D62*
X692468Y1193270D03*
D146*
X797878Y1193270D03*
D135*
X910488Y1193270D03*
D12*
X993458Y1193270D03*
X1099299Y1193270D03*
X1159396Y1193270D03*
X1211059Y1193270D03*
D82*
X580276Y1194118D03*
D147*
X692468Y1194118D03*
D87*
X797458Y1194118D03*
D138*
X910488Y1194118D03*
D134*
X993458Y1194118D03*
D133*
X1099287Y1194118D03*
X1159408Y1194118D03*
X1211047Y1194118D03*
D107*
X579438Y1194965D03*
D57*
X692468Y1194965D03*
D66*
X796608Y1194965D03*
D135*
X910488Y1194965D03*
D55*
X993458Y1194965D03*
D56*
X1099287Y1194965D03*
D57*
X1159828Y1194965D03*
D56*
X1211047Y1194965D03*
D67*
X579006Y1195810D03*
D13*
X692887Y1195810D03*
D148*
X796188Y1195810D03*
D135*
X910488Y1195810D03*
D131*
X993458Y1195810D03*
D13*
X1099287Y1195810D03*
X1159408Y1195810D03*
X1211047Y1195810D03*
D70*
X578168Y1196658D03*
D149*
X692468Y1196658D03*
D150*
X795338Y1196658D03*
D138*
X910488Y1196658D03*
D39*
X993458Y1196658D03*
X1099299Y1196658D03*
X1159396Y1196658D03*
X1211059Y1196658D03*
D104*
X576898Y1197505D03*
D40*
X692887Y1197505D03*
D73*
X794068Y1197505D03*
D135*
X910488Y1197505D03*
D37*
X993458Y1197505D03*
D40*
X1099287Y1197505D03*
X1159408Y1197505D03*
X1211047Y1197505D03*
D77*
X575628Y1198350D03*
D25*
X692899Y1198350D03*
D151*
X792798Y1198350D03*
D135*
X910488Y1198350D03*
D25*
X993458Y1198350D03*
X1099299Y1198350D03*
X1159396Y1198350D03*
X1211059Y1198350D03*
D152*
X500063Y690563D03*
X1309688Y690563D03*
X500063Y1500188D03*
D153*
X1309688Y1500188D03*
M02*
