M48
;GenerationSoftware,Autodesk,EAGLE,9.6.1*%
;CreationDate,2021-02-12T13:50:39Z*%
FMAT,2
ICI,OFF
METRIC,TZ,000.000
T14C0.350
T13C0.600
T12C0.630
T11C0.813
T10C1.000
T9C1.100
T8C1.118
T7C1.200
T6C1.300
T5C1.600
T4C1.700
T3C3.050
T2C3.200
T1C4.000
%
G90
M71
T1
X119277Y19865
X225999Y67499
X229960Y48865
X237503Y105000
X241464Y86366
X245425Y67733
X249386Y49099
X24850Y105000
X165345Y77977
X118811Y88923
X20890Y86366
X59741Y85898
X71245Y48397
X16929Y67733
X93048Y59343
X55780Y67265
X12968Y49099
X131177Y11625
X92472Y16324
X44186Y104766
X51820Y48631
X110889Y51656
X40315Y86192
X89087Y40709
X83128Y104298
X36294Y67499
X100969Y96611
X114850Y70289
X32394Y48865
X79167Y85664
X106929Y33022
X65320Y27103
X97008Y77977
X75206Y67031
X63702Y104532
X143077Y19865
X143543Y88923
X147503Y70289
X151464Y51656
X155425Y33022
X161384Y96611
X169306Y59343
X173267Y40709
X169872Y16324
X179226Y104298
X183187Y85664
X187147Y67031
X191108Y48397
X198652Y104532
X202612Y85898
X207113Y67265
X210534Y48631
X197040Y27103
X218078Y104766
X222038Y86192
T2
X23677Y56500
X31677Y93500
X230677Y93500
X238677Y56500
X177777Y27800
X86277Y70600
T3
X119277Y4625
X143077Y4625
T4
X74198Y86720
X84136Y84608
X70237Y68087
X80175Y65975
X66276Y49453
X76214Y47341
X87565Y17639
X97379Y15009
X96000Y97667
X105938Y95555
X101977Y76921
X88079Y60399
X98017Y58287
X84118Y41765
X94056Y39653
X113842Y89979
X123780Y87867
X109881Y71345
X119819Y69233
X105920Y52712
X115858Y50600
X101960Y34078
X111898Y31966
X92039Y79033
X136257Y11625
X19881Y106056
X29819Y103944
X15921Y87422
X25859Y85310
X138574Y87867
X148512Y89979
X11960Y68789
X142534Y69233
X152472Y71345
X21898Y66677
X146495Y50600
X156433Y52712
X7999Y50155
X150456Y31966
X160394Y34078
X17937Y48043
X156415Y95555
X166353Y97667
X126097Y11625
X160376Y76921
X170314Y79033
X39217Y105822
X164337Y58287
X174275Y60399
X49155Y103710
X168298Y39653
X178236Y41765
X35346Y87248
X164965Y15009
X174779Y17639
X45284Y85136
X174257Y103242
X184195Y105354
X31325Y68555
X178218Y84608
X188156Y86720
X41263Y66443
X182178Y65975
X192116Y68087
X27425Y49921
X186139Y47341
X196077Y49453
X37363Y47809
X193683Y103476
X203621Y105588
X60240Y27103
X197643Y84842
X207581Y86954
X70400Y27103
X202144Y66209
X212082Y68321
X58733Y105588
X205565Y47575
X215503Y49687
X68671Y103476
X191960Y27103
X202120Y27103
X54772Y86954
X213109Y103710
X223047Y105822
X64710Y84842
X217069Y85136
X227007Y87248
X50811Y68321
X221030Y66443
X230968Y68555
X60749Y66209
X224991Y47809
X234929Y49921
X46851Y49687
X232534Y103944
X242472Y106056
X56789Y47575
X236495Y85310
X246433Y87422
X78159Y105354
X240456Y66677
X250394Y68789
X88097Y103242
X244417Y48043
X254355Y50155
T5
X134827Y115150
X127527Y115150
X134827Y110500
X127527Y110500
T6
X24431Y90807
X13730Y71010
X20470Y72174
X9769Y52376
X16509Y53540
X40987Y108043
X47727Y109207
X37116Y89469
X43856Y90633
X33095Y70776
X39835Y71940
X29195Y52142
X35935Y53306
X61510Y29643
X67860Y32183
X60503Y107809
X67243Y108973
X56542Y89175
X63282Y90339
X52581Y70542
X59321Y71706
X48621Y51908
X55361Y53072
X79929Y107575
X86669Y108739
X75968Y88941
X82708Y90105
X72007Y70308
X78747Y71472
X68046Y51674
X74786Y52838
X89449Y19764
X96240Y20574
X97770Y99888
X104510Y101052
X93809Y81254
X100549Y82418
X89849Y62620
X96589Y63784
X85888Y43986
X92628Y45150
X115612Y92200
X122352Y93364
X111651Y73566
X118391Y74730
X107690Y54933
X114430Y56097
X103730Y36299
X110470Y37463
X127367Y14165
X133717Y16705
X139288Y90615
X144971Y94420
X143248Y71981
X148931Y75786
X147209Y53348
X152892Y57153
X151170Y34714
X156853Y38519
X157129Y98303
X162812Y102108
X161090Y79669
X166773Y83474
X165051Y61035
X170734Y64840
X169012Y42401
X174695Y46206
X165534Y17791
X171011Y21888
X174971Y105990
X180654Y109795
X178932Y87356
X184615Y91161
X182892Y68723
X188575Y72528
X186853Y50089
X192536Y53894
X194397Y106224
X200080Y110029
X198357Y87590
X204040Y91395
X202858Y68957
X208541Y72762
X206279Y50323
X211962Y54128
X193230Y29643
X199580Y32183
X213823Y106458
X219506Y110263
X217783Y87884
X223466Y91689
X221744Y69191
X227427Y72996
X225705Y50557
X231388Y54362
X233248Y106692
X238931Y110497
X237209Y88058
X242892Y91863
X241170Y69425
X246853Y73230
X245131Y50791
X250814Y54596
X21651Y108277
X28391Y109441
X17691Y89643
T7
X156080Y116040
X153540Y116040
X151000Y113500
X151000Y116040
X153540Y113500
X156080Y113500
T8
X134941Y31580
X134941Y29040
X134941Y26500
X127321Y26500
X134941Y39200
X127321Y29040
X127321Y31580
X127321Y34120
X127321Y36660
X127321Y39200
X127321Y41740
X127321Y44280
X127321Y46820
X127321Y49360
X127321Y51900
X127321Y54440
X127321Y56980
X127321Y59520
X134941Y49360
X134941Y46820
X134941Y44280
X134941Y41740
X134941Y36660
X134941Y34120
X134941Y51900
X134941Y54440
X134941Y56980
X134941Y59520
T9
X104730Y116000
X102190Y116000
X109810Y116000
X107270Y116000
T10
X139927Y111750
X146427Y116250
X139927Y116250
X122427Y111750
X115927Y116250
X122427Y116250
X115927Y111750
X146427Y111750
T11
X140000Y99960
X140000Y105040
X150460Y109000
X155540Y109000
X150460Y106000
X155540Y106000
X128660Y72000
X133740Y72000
X139367Y108000
X98270Y113000
X133000Y106433
X133000Y98813
X130000Y106433
X130000Y98813
X136000Y106433
X136000Y98813
X127000Y106433
X127000Y98813
X115367Y108000
X115367Y106000
X122987Y106000
X146987Y108000
X122987Y108000
X107270Y110000
X104730Y110000
X133717Y69000
X128637Y69000
X95730Y113000
T12
X128737Y64000
X133617Y64000
T13
X130377Y110800
X132777Y109600
X129577Y109600
X131177Y109600
X131977Y110800
T14
X128400Y19600
M30