G04 EAGLE Gerber RS-274X export*
G75*
%MOMM*%
%FSLAX34Y34*%
%LPD*%
%IN*%
%IPPOS*%
%AMOC8*
5,1,8,0,0,1.08239X$1,22.5*%
G01*
%ADD10C,0.254000*%


D10*
X0Y119063D02*
X453Y108685D01*
X1809Y98387D01*
X4057Y88247D01*
X7180Y78341D01*
X11155Y68744D01*
X15951Y59531D01*
X21532Y50771D01*
X27855Y42531D01*
X34873Y34873D01*
X42531Y27855D01*
X50771Y21532D01*
X59531Y15951D01*
X68745Y11155D01*
X78341Y7180D01*
X88247Y4057D01*
X98388Y1809D01*
X108686Y453D01*
X119063Y0D01*
X833438Y0D01*
X843815Y453D01*
X854113Y1809D01*
X864253Y4057D01*
X874159Y7180D01*
X883756Y11155D01*
X892969Y15951D01*
X901729Y21532D01*
X909969Y27855D01*
X917627Y34873D01*
X924645Y42531D01*
X930968Y50771D01*
X936549Y59531D01*
X941345Y68745D01*
X945320Y78341D01*
X948443Y88247D01*
X950691Y98388D01*
X952047Y108686D01*
X952500Y119063D01*
X952500Y833438D01*
X952047Y843814D01*
X950691Y854113D01*
X948443Y864253D01*
X945320Y874159D01*
X941345Y883756D01*
X936549Y892969D01*
X930968Y901729D01*
X924645Y909969D01*
X917627Y917627D01*
X909969Y924645D01*
X901729Y930968D01*
X892969Y936549D01*
X883756Y941345D01*
X874159Y945320D01*
X864253Y948443D01*
X854113Y950691D01*
X843814Y952047D01*
X833438Y952500D01*
X119063Y952500D01*
X108686Y952047D01*
X98388Y950691D01*
X88247Y948443D01*
X78341Y945320D01*
X68745Y941345D01*
X59531Y936549D01*
X50771Y930968D01*
X42531Y924645D01*
X34873Y917627D01*
X27855Y909969D01*
X21532Y901729D01*
X15951Y892969D01*
X11155Y883755D01*
X7180Y874159D01*
X4057Y864253D01*
X1809Y854112D01*
X453Y843814D01*
X0Y833438D01*
X0Y119063D01*
X692500Y320188D02*
X692533Y319430D01*
X692632Y318679D01*
X692796Y317939D01*
X693024Y317216D01*
X693314Y316516D01*
X693664Y315844D01*
X694071Y315205D01*
X694533Y314603D01*
X695045Y314045D01*
X695603Y313533D01*
X696205Y313071D01*
X696844Y312664D01*
X697516Y312314D01*
X698216Y312024D01*
X698939Y311796D01*
X699679Y311632D01*
X700430Y311533D01*
X701188Y311500D01*
X822813Y311500D01*
X823570Y311533D01*
X824321Y311632D01*
X825061Y311796D01*
X825784Y312024D01*
X826484Y312314D01*
X827156Y312664D01*
X827795Y313071D01*
X828397Y313533D01*
X828956Y314045D01*
X829468Y314603D01*
X829929Y315205D01*
X830336Y315844D01*
X830686Y316516D01*
X830976Y317216D01*
X831204Y317939D01*
X831368Y318679D01*
X831467Y319430D01*
X831500Y320188D01*
X831500Y441813D01*
X831467Y442570D01*
X831368Y443321D01*
X831204Y444061D01*
X830976Y444784D01*
X830686Y445484D01*
X830336Y446156D01*
X829929Y446795D01*
X829468Y447397D01*
X828956Y447956D01*
X828397Y448468D01*
X827795Y448929D01*
X827156Y449336D01*
X826484Y449686D01*
X825784Y449976D01*
X825061Y450204D01*
X824321Y450368D01*
X823570Y450467D01*
X822813Y450500D01*
X701188Y450500D01*
X700430Y450467D01*
X699679Y450368D01*
X698939Y450204D01*
X698216Y449976D01*
X697516Y449686D01*
X696844Y449336D01*
X696205Y448929D01*
X695603Y448468D01*
X695045Y447956D01*
X694533Y447397D01*
X694071Y446795D01*
X693664Y446156D01*
X693314Y445484D01*
X693024Y444784D01*
X692796Y444061D01*
X692632Y443321D01*
X692533Y442570D01*
X692500Y441813D01*
X692500Y320188D01*
X311500Y129688D02*
X311533Y128930D01*
X311632Y128179D01*
X311796Y127439D01*
X312024Y126716D01*
X312314Y126016D01*
X312664Y125344D01*
X313071Y124705D01*
X313533Y124103D01*
X314045Y123545D01*
X314603Y123033D01*
X315205Y122571D01*
X315844Y122164D01*
X316516Y121814D01*
X317216Y121524D01*
X317939Y121296D01*
X318679Y121132D01*
X319430Y121033D01*
X320188Y121000D01*
X441813Y121000D01*
X442570Y121033D01*
X443321Y121132D01*
X444061Y121296D01*
X444784Y121524D01*
X445484Y121814D01*
X446156Y122164D01*
X446795Y122571D01*
X447397Y123033D01*
X447956Y123545D01*
X448468Y124103D01*
X448929Y124705D01*
X449336Y125344D01*
X449686Y126016D01*
X449976Y126716D01*
X450204Y127439D01*
X450368Y128179D01*
X450467Y128930D01*
X450500Y129688D01*
X450500Y251313D01*
X450467Y252070D01*
X450368Y252821D01*
X450204Y253561D01*
X449976Y254284D01*
X449686Y254984D01*
X449336Y255656D01*
X448929Y256295D01*
X448468Y256897D01*
X447956Y257456D01*
X447397Y257968D01*
X446795Y258429D01*
X446156Y258836D01*
X445484Y259186D01*
X444784Y259476D01*
X444061Y259704D01*
X443321Y259868D01*
X442570Y259967D01*
X441813Y260000D01*
X320188Y260000D01*
X319430Y259967D01*
X318679Y259868D01*
X317939Y259704D01*
X317216Y259476D01*
X316516Y259186D01*
X315844Y258836D01*
X315205Y258429D01*
X314603Y257968D01*
X314045Y257456D01*
X313533Y256897D01*
X313071Y256295D01*
X312664Y255656D01*
X312314Y254984D01*
X312024Y254284D01*
X311796Y253561D01*
X311632Y252821D01*
X311533Y252070D01*
X311500Y251313D01*
X311500Y129688D01*
X692500Y701188D02*
X692533Y700430D01*
X692632Y699679D01*
X692796Y698939D01*
X693024Y698216D01*
X693314Y697516D01*
X693664Y696844D01*
X694071Y696205D01*
X694533Y695603D01*
X695045Y695045D01*
X695603Y694533D01*
X696205Y694071D01*
X696844Y693664D01*
X697516Y693314D01*
X698216Y693024D01*
X698939Y692796D01*
X699679Y692632D01*
X700430Y692533D01*
X701188Y692500D01*
X822813Y692500D01*
X823570Y692533D01*
X824321Y692632D01*
X825061Y692796D01*
X825784Y693024D01*
X826484Y693314D01*
X827156Y693664D01*
X827795Y694071D01*
X828397Y694533D01*
X828956Y695045D01*
X829468Y695603D01*
X829929Y696205D01*
X830336Y696844D01*
X830686Y697516D01*
X830976Y698216D01*
X831204Y698939D01*
X831368Y699679D01*
X831467Y700430D01*
X831500Y701188D01*
X831500Y822813D01*
X831467Y823570D01*
X831368Y824321D01*
X831204Y825061D01*
X830976Y825784D01*
X830686Y826484D01*
X830336Y827156D01*
X829929Y827795D01*
X829468Y828397D01*
X828956Y828956D01*
X828397Y829468D01*
X827795Y829929D01*
X827156Y830336D01*
X826484Y830686D01*
X825784Y830976D01*
X825061Y831204D01*
X824321Y831368D01*
X823570Y831467D01*
X822813Y831500D01*
X701188Y831500D01*
X700430Y831467D01*
X699679Y831368D01*
X698939Y831204D01*
X698216Y830976D01*
X697516Y830686D01*
X696844Y830336D01*
X696205Y829929D01*
X695603Y829468D01*
X695045Y828956D01*
X694533Y828397D01*
X694071Y827795D01*
X693664Y827156D01*
X693314Y826484D01*
X693024Y825784D01*
X692796Y825061D01*
X692632Y824321D01*
X692533Y823570D01*
X692500Y822813D01*
X692500Y701188D01*
X311500Y510688D02*
X311533Y509930D01*
X311632Y509179D01*
X311796Y508439D01*
X312024Y507716D01*
X312314Y507016D01*
X312664Y506344D01*
X313071Y505705D01*
X313533Y505103D01*
X314045Y504545D01*
X314603Y504033D01*
X315205Y503571D01*
X315844Y503164D01*
X316516Y502814D01*
X317216Y502524D01*
X317939Y502296D01*
X318679Y502132D01*
X319430Y502033D01*
X320188Y502000D01*
X441813Y502000D01*
X442570Y502033D01*
X443321Y502132D01*
X444061Y502296D01*
X444784Y502524D01*
X445484Y502814D01*
X446156Y503164D01*
X446795Y503571D01*
X447397Y504033D01*
X447956Y504545D01*
X448468Y505103D01*
X448929Y505705D01*
X449336Y506344D01*
X449686Y507016D01*
X449976Y507716D01*
X450204Y508439D01*
X450368Y509179D01*
X450467Y509930D01*
X450500Y510688D01*
X450500Y632313D01*
X450467Y633070D01*
X450368Y633821D01*
X450204Y634561D01*
X449976Y635284D01*
X449686Y635984D01*
X449336Y636656D01*
X448929Y637295D01*
X448468Y637897D01*
X447956Y638456D01*
X447397Y638968D01*
X446795Y639429D01*
X446156Y639836D01*
X445484Y640186D01*
X444784Y640476D01*
X444061Y640704D01*
X443321Y640868D01*
X442570Y640967D01*
X441813Y641000D01*
X320188Y641000D01*
X319430Y640967D01*
X318679Y640868D01*
X317939Y640704D01*
X317216Y640476D01*
X316516Y640186D01*
X315844Y639836D01*
X315205Y639429D01*
X314603Y638968D01*
X314045Y638456D01*
X313533Y637897D01*
X313071Y637295D01*
X312664Y636656D01*
X312314Y635984D01*
X312024Y635284D01*
X311796Y634561D01*
X311632Y633821D01*
X311533Y633070D01*
X311500Y632313D01*
X311500Y510688D01*
X502000Y701188D02*
X502033Y700430D01*
X502132Y699679D01*
X502296Y698939D01*
X502524Y698216D01*
X502814Y697516D01*
X503164Y696844D01*
X503571Y696205D01*
X504033Y695603D01*
X504545Y695045D01*
X505103Y694533D01*
X505705Y694071D01*
X506344Y693664D01*
X507016Y693314D01*
X507716Y693024D01*
X508439Y692796D01*
X509179Y692632D01*
X509930Y692533D01*
X510688Y692500D01*
X632313Y692500D01*
X633070Y692533D01*
X633821Y692632D01*
X634561Y692796D01*
X635284Y693024D01*
X635984Y693314D01*
X636656Y693664D01*
X637295Y694071D01*
X637897Y694533D01*
X638456Y695045D01*
X638968Y695603D01*
X639429Y696205D01*
X639836Y696844D01*
X640186Y697516D01*
X640476Y698216D01*
X640704Y698939D01*
X640868Y699679D01*
X640967Y700430D01*
X641000Y701188D01*
X641000Y822813D01*
X640967Y823570D01*
X640868Y824321D01*
X640704Y825061D01*
X640476Y825784D01*
X640186Y826484D01*
X639836Y827156D01*
X639429Y827795D01*
X638968Y828397D01*
X638456Y828956D01*
X637897Y829468D01*
X637295Y829929D01*
X636656Y830336D01*
X635984Y830686D01*
X635284Y830976D01*
X634561Y831204D01*
X633821Y831368D01*
X633070Y831467D01*
X632313Y831500D01*
X510688Y831500D01*
X509930Y831467D01*
X509179Y831368D01*
X508439Y831204D01*
X507716Y830976D01*
X507016Y830686D01*
X506344Y830336D01*
X505705Y829929D01*
X505103Y829468D01*
X504545Y828956D01*
X504033Y828397D01*
X503571Y827795D01*
X503164Y827156D01*
X502814Y826484D01*
X502524Y825784D01*
X502296Y825061D01*
X502132Y824321D01*
X502033Y823570D01*
X502000Y822813D01*
X502000Y701188D01*
X121000Y510688D02*
X121033Y509930D01*
X121132Y509179D01*
X121296Y508439D01*
X121524Y507716D01*
X121814Y507016D01*
X122164Y506344D01*
X122571Y505705D01*
X123033Y505103D01*
X123545Y504545D01*
X124103Y504033D01*
X124705Y503571D01*
X125344Y503164D01*
X126016Y502814D01*
X126716Y502524D01*
X127439Y502296D01*
X128179Y502132D01*
X128930Y502033D01*
X129688Y502000D01*
X251313Y502000D01*
X252070Y502033D01*
X252821Y502132D01*
X253561Y502296D01*
X254284Y502524D01*
X254984Y502814D01*
X255656Y503164D01*
X256295Y503571D01*
X256897Y504033D01*
X257456Y504545D01*
X257968Y505103D01*
X258429Y505705D01*
X258836Y506344D01*
X259186Y507016D01*
X259476Y507716D01*
X259704Y508439D01*
X259868Y509179D01*
X259967Y509930D01*
X260000Y510688D01*
X260000Y632313D01*
X259967Y633070D01*
X259868Y633821D01*
X259704Y634561D01*
X259476Y635284D01*
X259186Y635984D01*
X258836Y636656D01*
X258429Y637295D01*
X257968Y637897D01*
X257456Y638456D01*
X256897Y638968D01*
X256295Y639429D01*
X255656Y639836D01*
X254984Y640186D01*
X254284Y640476D01*
X253561Y640704D01*
X252821Y640868D01*
X252070Y640967D01*
X251313Y641000D01*
X129688Y641000D01*
X128930Y640967D01*
X128179Y640868D01*
X127439Y640704D01*
X126716Y640476D01*
X126016Y640186D01*
X125344Y639836D01*
X124705Y639429D01*
X124103Y638968D01*
X123545Y638456D01*
X123033Y637897D01*
X122571Y637295D01*
X122164Y636656D01*
X121814Y635984D01*
X121524Y635284D01*
X121296Y634561D01*
X121132Y633821D01*
X121033Y633070D01*
X121000Y632313D01*
X121000Y510688D01*
X121000Y129688D02*
X121033Y128930D01*
X121132Y128179D01*
X121296Y127439D01*
X121524Y126716D01*
X121814Y126016D01*
X122164Y125344D01*
X122571Y124705D01*
X123033Y124103D01*
X123545Y123545D01*
X124103Y123033D01*
X124705Y122571D01*
X125344Y122164D01*
X126016Y121814D01*
X126716Y121524D01*
X127439Y121296D01*
X128179Y121132D01*
X128930Y121033D01*
X129688Y121000D01*
X251313Y121000D01*
X252070Y121033D01*
X252821Y121132D01*
X253561Y121296D01*
X254284Y121524D01*
X254984Y121814D01*
X255656Y122164D01*
X256295Y122571D01*
X256897Y123033D01*
X257456Y123545D01*
X257968Y124103D01*
X258429Y124705D01*
X258836Y125344D01*
X259186Y126016D01*
X259476Y126716D01*
X259704Y127439D01*
X259868Y128179D01*
X259967Y128930D01*
X260000Y129688D01*
X260000Y251313D01*
X259967Y252070D01*
X259868Y252821D01*
X259704Y253561D01*
X259476Y254284D01*
X259186Y254984D01*
X258836Y255656D01*
X258429Y256295D01*
X257968Y256897D01*
X257456Y257456D01*
X256897Y257968D01*
X256295Y258429D01*
X255656Y258836D01*
X254984Y259186D01*
X254284Y259476D01*
X253561Y259704D01*
X252821Y259868D01*
X252070Y259967D01*
X251313Y260000D01*
X129688Y260000D01*
X128930Y259967D01*
X128179Y259868D01*
X127439Y259704D01*
X126716Y259476D01*
X126016Y259186D01*
X125344Y258836D01*
X124705Y258429D01*
X124103Y257968D01*
X123545Y257456D01*
X123033Y256897D01*
X122571Y256295D01*
X122164Y255656D01*
X121814Y254984D01*
X121524Y254284D01*
X121296Y253561D01*
X121132Y252821D01*
X121033Y252070D01*
X121000Y251313D01*
X121000Y129688D01*
X502000Y320188D02*
X502033Y319430D01*
X502132Y318679D01*
X502296Y317939D01*
X502524Y317216D01*
X502814Y316516D01*
X503164Y315844D01*
X503571Y315205D01*
X504033Y314603D01*
X504545Y314045D01*
X505103Y313533D01*
X505705Y313071D01*
X506344Y312664D01*
X507016Y312314D01*
X507716Y312024D01*
X508439Y311796D01*
X509179Y311632D01*
X509930Y311533D01*
X510688Y311500D01*
X632313Y311500D01*
X633070Y311533D01*
X633821Y311632D01*
X634561Y311796D01*
X635284Y312024D01*
X635984Y312314D01*
X636656Y312664D01*
X637295Y313071D01*
X637897Y313533D01*
X638456Y314045D01*
X638968Y314603D01*
X639429Y315205D01*
X639836Y315844D01*
X640186Y316516D01*
X640476Y317216D01*
X640704Y317939D01*
X640868Y318679D01*
X640967Y319430D01*
X641000Y320188D01*
X641000Y441813D01*
X640967Y442570D01*
X640868Y443321D01*
X640704Y444061D01*
X640476Y444784D01*
X640186Y445484D01*
X639836Y446156D01*
X639429Y446795D01*
X638968Y447397D01*
X638456Y447956D01*
X637897Y448468D01*
X637295Y448929D01*
X636656Y449336D01*
X635984Y449686D01*
X635284Y449976D01*
X634561Y450204D01*
X633821Y450368D01*
X633070Y450467D01*
X632313Y450500D01*
X510688Y450500D01*
X509930Y450467D01*
X509179Y450368D01*
X508439Y450204D01*
X507716Y449976D01*
X507016Y449686D01*
X506344Y449336D01*
X505705Y448929D01*
X505103Y448468D01*
X504545Y447956D01*
X504033Y447397D01*
X503571Y446795D01*
X503164Y446156D01*
X502814Y445484D01*
X502524Y444784D01*
X502296Y444061D01*
X502132Y443321D01*
X502033Y442570D01*
X502000Y441813D01*
X502000Y320188D01*
X692500Y129688D02*
X692533Y128930D01*
X692632Y128179D01*
X692796Y127439D01*
X693024Y126716D01*
X693314Y126016D01*
X693664Y125344D01*
X694071Y124705D01*
X694533Y124103D01*
X695045Y123545D01*
X695603Y123033D01*
X696205Y122571D01*
X696844Y122164D01*
X697516Y121814D01*
X698216Y121524D01*
X698939Y121296D01*
X699679Y121132D01*
X700430Y121033D01*
X701188Y121000D01*
X822813Y121000D01*
X823570Y121033D01*
X824321Y121132D01*
X825061Y121296D01*
X825784Y121524D01*
X826484Y121814D01*
X827156Y122164D01*
X827795Y122571D01*
X828397Y123033D01*
X828956Y123545D01*
X829468Y124103D01*
X829929Y124705D01*
X830336Y125344D01*
X830686Y126016D01*
X830976Y126716D01*
X831204Y127439D01*
X831368Y128179D01*
X831467Y128930D01*
X831500Y129688D01*
X831500Y251313D01*
X831467Y252070D01*
X831368Y252821D01*
X831204Y253561D01*
X830976Y254284D01*
X830686Y254984D01*
X830336Y255656D01*
X829929Y256295D01*
X829468Y256897D01*
X828956Y257456D01*
X828397Y257968D01*
X827795Y258429D01*
X827156Y258836D01*
X826484Y259186D01*
X825784Y259476D01*
X825061Y259704D01*
X824321Y259868D01*
X823570Y259967D01*
X822813Y260000D01*
X701188Y260000D01*
X700430Y259967D01*
X699679Y259868D01*
X698939Y259704D01*
X698216Y259476D01*
X697516Y259186D01*
X696844Y258836D01*
X696205Y258429D01*
X695603Y257968D01*
X695045Y257456D01*
X694533Y256897D01*
X694071Y256295D01*
X693664Y255656D01*
X693314Y254984D01*
X693024Y254284D01*
X692796Y253561D01*
X692632Y252821D01*
X692533Y252070D01*
X692500Y251313D01*
X692500Y129688D01*
X692500Y510688D02*
X692533Y509930D01*
X692632Y509179D01*
X692796Y508439D01*
X693024Y507716D01*
X693314Y507016D01*
X693664Y506344D01*
X694071Y505705D01*
X694533Y505103D01*
X695045Y504545D01*
X695603Y504033D01*
X696205Y503571D01*
X696844Y503164D01*
X697516Y502814D01*
X698216Y502524D01*
X698939Y502296D01*
X699679Y502132D01*
X700430Y502033D01*
X701188Y502000D01*
X822813Y502000D01*
X823570Y502033D01*
X824321Y502132D01*
X825061Y502296D01*
X825784Y502524D01*
X826484Y502814D01*
X827156Y503164D01*
X827795Y503571D01*
X828397Y504033D01*
X828956Y504545D01*
X829468Y505103D01*
X829929Y505705D01*
X830336Y506344D01*
X830686Y507016D01*
X830976Y507716D01*
X831204Y508439D01*
X831368Y509179D01*
X831467Y509930D01*
X831500Y510688D01*
X831500Y632313D01*
X831467Y633070D01*
X831368Y633821D01*
X831204Y634561D01*
X830976Y635284D01*
X830686Y635984D01*
X830336Y636656D01*
X829929Y637295D01*
X829468Y637897D01*
X828956Y638456D01*
X828397Y638968D01*
X827795Y639429D01*
X827156Y639836D01*
X826484Y640186D01*
X825784Y640476D01*
X825061Y640704D01*
X824321Y640868D01*
X823570Y640967D01*
X822813Y641000D01*
X701188Y641000D01*
X700430Y640967D01*
X699679Y640868D01*
X698939Y640704D01*
X698216Y640476D01*
X697516Y640186D01*
X696844Y639836D01*
X696205Y639429D01*
X695603Y638968D01*
X695045Y638456D01*
X694533Y637897D01*
X694071Y637295D01*
X693664Y636656D01*
X693314Y635984D01*
X693024Y635284D01*
X692796Y634561D01*
X692632Y633821D01*
X692533Y633070D01*
X692500Y632313D01*
X692500Y510688D01*
X311500Y320188D02*
X311533Y319430D01*
X311632Y318679D01*
X311796Y317939D01*
X312024Y317216D01*
X312314Y316516D01*
X312664Y315844D01*
X313071Y315205D01*
X313533Y314603D01*
X314045Y314045D01*
X314603Y313533D01*
X315205Y313071D01*
X315844Y312664D01*
X316516Y312314D01*
X317216Y312024D01*
X317939Y311796D01*
X318679Y311632D01*
X319430Y311533D01*
X320188Y311500D01*
X441813Y311500D01*
X442570Y311533D01*
X443321Y311632D01*
X444061Y311796D01*
X444784Y312024D01*
X445484Y312314D01*
X446156Y312664D01*
X446795Y313071D01*
X447397Y313533D01*
X447956Y314045D01*
X448468Y314603D01*
X448929Y315205D01*
X449336Y315844D01*
X449686Y316516D01*
X449976Y317216D01*
X450204Y317939D01*
X450368Y318679D01*
X450467Y319430D01*
X450500Y320188D01*
X450500Y441813D01*
X450467Y442570D01*
X450368Y443321D01*
X450204Y444061D01*
X449976Y444784D01*
X449686Y445484D01*
X449336Y446156D01*
X448929Y446795D01*
X448468Y447397D01*
X447956Y447956D01*
X447397Y448468D01*
X446795Y448929D01*
X446156Y449336D01*
X445484Y449686D01*
X444784Y449976D01*
X444061Y450204D01*
X443321Y450368D01*
X442570Y450467D01*
X441813Y450500D01*
X320188Y450500D01*
X319430Y450467D01*
X318679Y450368D01*
X317939Y450204D01*
X317216Y449976D01*
X316516Y449686D01*
X315844Y449336D01*
X315205Y448929D01*
X314603Y448468D01*
X314045Y447956D01*
X313533Y447397D01*
X313071Y446795D01*
X312664Y446156D01*
X312314Y445484D01*
X312024Y444784D01*
X311796Y444061D01*
X311632Y443321D01*
X311533Y442570D01*
X311500Y441813D01*
X311500Y320188D01*
X311500Y701188D02*
X311533Y700430D01*
X311632Y699679D01*
X311796Y698939D01*
X312024Y698216D01*
X312314Y697516D01*
X312664Y696844D01*
X313071Y696205D01*
X313533Y695603D01*
X314045Y695045D01*
X314603Y694533D01*
X315205Y694071D01*
X315844Y693664D01*
X316516Y693314D01*
X317216Y693024D01*
X317939Y692796D01*
X318679Y692632D01*
X319430Y692533D01*
X320188Y692500D01*
X441813Y692500D01*
X442570Y692533D01*
X443321Y692632D01*
X444061Y692796D01*
X444784Y693024D01*
X445484Y693314D01*
X446156Y693664D01*
X446795Y694071D01*
X447397Y694533D01*
X447956Y695045D01*
X448468Y695603D01*
X448929Y696205D01*
X449336Y696844D01*
X449686Y697516D01*
X449976Y698216D01*
X450204Y698939D01*
X450368Y699679D01*
X450467Y700430D01*
X450500Y701188D01*
X450500Y822813D01*
X450467Y823570D01*
X450368Y824321D01*
X450204Y825061D01*
X449976Y825784D01*
X449686Y826484D01*
X449336Y827156D01*
X448929Y827795D01*
X448468Y828397D01*
X447956Y828956D01*
X447397Y829468D01*
X446795Y829929D01*
X446156Y830336D01*
X445484Y830686D01*
X444784Y830976D01*
X444061Y831204D01*
X443321Y831368D01*
X442570Y831467D01*
X441813Y831500D01*
X320188Y831500D01*
X319430Y831467D01*
X318679Y831368D01*
X317939Y831204D01*
X317216Y830976D01*
X316516Y830686D01*
X315844Y830336D01*
X315205Y829929D01*
X314603Y829468D01*
X314045Y828956D01*
X313533Y828397D01*
X313071Y827795D01*
X312664Y827156D01*
X312314Y826484D01*
X312024Y825784D01*
X311796Y825061D01*
X311632Y824321D01*
X311533Y823570D01*
X311500Y822813D01*
X311500Y701188D01*
X502000Y510688D02*
X502033Y509930D01*
X502132Y509179D01*
X502296Y508439D01*
X502524Y507716D01*
X502814Y507016D01*
X503164Y506344D01*
X503571Y505705D01*
X504033Y505103D01*
X504545Y504545D01*
X505103Y504033D01*
X505705Y503571D01*
X506344Y503164D01*
X507016Y502814D01*
X507716Y502524D01*
X508439Y502296D01*
X509179Y502132D01*
X509930Y502033D01*
X510688Y502000D01*
X632313Y502000D01*
X633070Y502033D01*
X633821Y502132D01*
X634561Y502296D01*
X635284Y502524D01*
X635984Y502814D01*
X636656Y503164D01*
X637295Y503571D01*
X637897Y504033D01*
X638456Y504545D01*
X638968Y505103D01*
X639429Y505705D01*
X639836Y506344D01*
X640186Y507016D01*
X640476Y507716D01*
X640704Y508439D01*
X640868Y509179D01*
X640967Y509930D01*
X641000Y510688D01*
X641000Y632313D01*
X640967Y633070D01*
X640868Y633821D01*
X640704Y634561D01*
X640476Y635284D01*
X640186Y635984D01*
X639836Y636656D01*
X639429Y637295D01*
X638968Y637897D01*
X638456Y638456D01*
X637897Y638968D01*
X637295Y639429D01*
X636656Y639836D01*
X635984Y640186D01*
X635284Y640476D01*
X634561Y640704D01*
X633821Y640868D01*
X633070Y640967D01*
X632313Y641000D01*
X510688Y641000D01*
X509930Y640967D01*
X509179Y640868D01*
X508439Y640704D01*
X507716Y640476D01*
X507016Y640186D01*
X506344Y639836D01*
X505705Y639429D01*
X505103Y638968D01*
X504545Y638456D01*
X504033Y637897D01*
X503571Y637295D01*
X503164Y636656D01*
X502814Y635984D01*
X502524Y635284D01*
X502296Y634561D01*
X502132Y633821D01*
X502033Y633070D01*
X502000Y632313D01*
X502000Y510688D01*
X502000Y129688D02*
X502033Y128930D01*
X502132Y128179D01*
X502296Y127439D01*
X502524Y126716D01*
X502814Y126016D01*
X503164Y125344D01*
X503571Y124705D01*
X504033Y124103D01*
X504545Y123545D01*
X505103Y123033D01*
X505705Y122571D01*
X506344Y122164D01*
X507016Y121814D01*
X507716Y121524D01*
X508439Y121296D01*
X509179Y121132D01*
X509930Y121033D01*
X510688Y121000D01*
X632313Y121000D01*
X633070Y121033D01*
X633821Y121132D01*
X634561Y121296D01*
X635284Y121524D01*
X635984Y121814D01*
X636656Y122164D01*
X637295Y122571D01*
X637897Y123033D01*
X638456Y123545D01*
X638968Y124103D01*
X639429Y124705D01*
X639836Y125344D01*
X640186Y126016D01*
X640476Y126716D01*
X640704Y127439D01*
X640868Y128179D01*
X640967Y128930D01*
X641000Y129688D01*
X641000Y251313D01*
X640967Y252070D01*
X640868Y252821D01*
X640704Y253561D01*
X640476Y254284D01*
X640186Y254984D01*
X639836Y255656D01*
X639429Y256295D01*
X638968Y256897D01*
X638456Y257456D01*
X637897Y257968D01*
X637295Y258429D01*
X636656Y258836D01*
X635984Y259186D01*
X635284Y259476D01*
X634561Y259704D01*
X633821Y259868D01*
X633070Y259967D01*
X632313Y260000D01*
X510688Y260000D01*
X509930Y259967D01*
X509179Y259868D01*
X508439Y259704D01*
X507716Y259476D01*
X507016Y259186D01*
X506344Y258836D01*
X505705Y258429D01*
X505103Y257968D01*
X504545Y257456D01*
X504033Y256897D01*
X503571Y256295D01*
X503164Y255656D01*
X502814Y254984D01*
X502524Y254284D01*
X502296Y253561D01*
X502132Y252821D01*
X502033Y252070D01*
X502000Y251313D01*
X502000Y129688D01*
X121000Y701188D02*
X121033Y700430D01*
X121132Y699679D01*
X121296Y698939D01*
X121524Y698216D01*
X121814Y697516D01*
X122164Y696844D01*
X122571Y696205D01*
X123033Y695603D01*
X123545Y695045D01*
X124103Y694533D01*
X124705Y694071D01*
X125344Y693664D01*
X126016Y693314D01*
X126716Y693024D01*
X127439Y692796D01*
X128179Y692632D01*
X128930Y692533D01*
X129688Y692500D01*
X251313Y692500D01*
X252070Y692533D01*
X252821Y692632D01*
X253561Y692796D01*
X254284Y693024D01*
X254984Y693314D01*
X255656Y693664D01*
X256295Y694071D01*
X256897Y694533D01*
X257456Y695045D01*
X257968Y695603D01*
X258429Y696205D01*
X258836Y696844D01*
X259186Y697516D01*
X259476Y698216D01*
X259704Y698939D01*
X259868Y699679D01*
X259967Y700430D01*
X260000Y701188D01*
X260000Y822813D01*
X259967Y823570D01*
X259868Y824321D01*
X259704Y825061D01*
X259476Y825784D01*
X259186Y826484D01*
X258836Y827156D01*
X258429Y827795D01*
X257968Y828397D01*
X257456Y828956D01*
X256897Y829468D01*
X256295Y829929D01*
X255656Y830336D01*
X254984Y830686D01*
X254284Y830976D01*
X253561Y831204D01*
X252821Y831368D01*
X252070Y831467D01*
X251313Y831500D01*
X129688Y831500D01*
X128930Y831467D01*
X128179Y831368D01*
X127439Y831204D01*
X126716Y830976D01*
X126016Y830686D01*
X125344Y830336D01*
X124705Y829929D01*
X124103Y829468D01*
X123545Y828956D01*
X123033Y828397D01*
X122571Y827795D01*
X122164Y827156D01*
X121814Y826484D01*
X121524Y825784D01*
X121296Y825061D01*
X121132Y824321D01*
X121033Y823570D01*
X121000Y822813D01*
X121000Y701188D01*
X121000Y320188D02*
X121033Y319430D01*
X121132Y318679D01*
X121296Y317939D01*
X121524Y317216D01*
X121814Y316516D01*
X122164Y315844D01*
X122571Y315205D01*
X123033Y314603D01*
X123545Y314045D01*
X124103Y313533D01*
X124705Y313071D01*
X125344Y312664D01*
X126016Y312314D01*
X126716Y312024D01*
X127439Y311796D01*
X128179Y311632D01*
X128930Y311533D01*
X129688Y311500D01*
X251313Y311500D01*
X252070Y311533D01*
X252821Y311632D01*
X253561Y311796D01*
X254284Y312024D01*
X254984Y312314D01*
X255656Y312664D01*
X256295Y313071D01*
X256897Y313533D01*
X257456Y314045D01*
X257968Y314603D01*
X258429Y315205D01*
X258836Y315844D01*
X259186Y316516D01*
X259476Y317216D01*
X259704Y317939D01*
X259868Y318679D01*
X259967Y319430D01*
X260000Y320188D01*
X260000Y441813D01*
X259967Y442570D01*
X259868Y443321D01*
X259704Y444061D01*
X259476Y444784D01*
X259186Y445484D01*
X258836Y446156D01*
X258429Y446795D01*
X257968Y447397D01*
X257456Y447956D01*
X256897Y448468D01*
X256295Y448929D01*
X255656Y449336D01*
X254984Y449686D01*
X254284Y449976D01*
X253561Y450204D01*
X252821Y450368D01*
X252070Y450467D01*
X251313Y450500D01*
X129688Y450500D01*
X128930Y450467D01*
X128179Y450368D01*
X127439Y450204D01*
X126716Y449976D01*
X126016Y449686D01*
X125344Y449336D01*
X124705Y448929D01*
X124103Y448468D01*
X123545Y447956D01*
X123033Y447397D01*
X122571Y446795D01*
X122164Y446156D01*
X121814Y445484D01*
X121524Y444784D01*
X121296Y444061D01*
X121132Y443321D01*
X121033Y442570D01*
X121000Y441813D01*
X121000Y320188D01*
M02*
