G04 EAGLE Gerber RS-274X export*
G75*
%MOMM*%
%FSLAX34Y34*%
%LPD*%
%INSoldermask Top*%
%IPPOS*%
%AMOC8*
5,1,8,0,0,1.08239X$1,22.5*%
G01*
%ADD10C,4.203200*%
%ADD11C,1.903200*%
%ADD12C,2.743200*%
%ADD13C,3.253200*%
%ADD14C,1.311200*%
%ADD15C,2.603200*%
%ADD16C,1.341200*%
%ADD17C,1.524000*%
%ADD18P,2.034460X8X112.500000*%
%ADD19P,2.034460X8X202.500000*%
%ADD20P,1.649562X8X202.500000*%
%ADD21P,1.649562X8X22.500000*%
%ADD22P,2.144431X8X202.500000*%
%ADD23C,1.981200*%
%ADD24C,1.711200*%
%ADD25R,2.032000X2.032000*%
%ADD26P,2.199416X8X22.500000*%
%ADD27R,2.203200X2.203200*%
%ADD28C,2.203200*%
%ADD29R,1.879600X1.879600*%
%ADD30C,1.879600*%
%ADD31P,2.034460X8X22.500000*%
%ADD32C,0.959600*%
%ADD33C,4.703200*%


D10*
X248500Y1050000D03*
D11*
X198810Y1060562D03*
X298190Y1039438D03*
D12*
X216514Y1082766D03*
X283907Y1094409D03*
D10*
X208900Y863660D03*
D11*
X159210Y874222D03*
X258590Y853098D03*
D12*
X176914Y896426D03*
X244307Y908069D03*
D10*
X169290Y677330D03*
D11*
X119600Y687892D03*
X218980Y666768D03*
D12*
X137304Y710096D03*
X204697Y721739D03*
D10*
X129680Y490990D03*
D11*
X79990Y501552D03*
X179370Y480428D03*
D12*
X97694Y523756D03*
X165087Y535399D03*
D10*
X441860Y1047660D03*
D11*
X392170Y1058222D03*
X491550Y1037098D03*
D12*
X409874Y1080426D03*
X477267Y1092069D03*
D10*
X403150Y861920D03*
D11*
X353460Y872482D03*
X452840Y851358D03*
D12*
X371164Y894686D03*
X438557Y906329D03*
D10*
X362940Y674990D03*
D11*
X313250Y685552D03*
X412630Y664428D03*
D12*
X330954Y707756D03*
X398347Y719399D03*
D10*
X323940Y488650D03*
D11*
X274250Y499212D03*
X373630Y478088D03*
D12*
X291954Y521416D03*
X359347Y533059D03*
D10*
X653200Y271030D03*
D11*
X602400Y271030D03*
X704000Y271030D03*
D12*
X615100Y296430D03*
X678600Y321830D03*
D10*
X637020Y1045320D03*
D11*
X587330Y1055882D03*
X686710Y1034758D03*
D12*
X605034Y1078086D03*
X672427Y1089729D03*
D10*
X597410Y858980D03*
D11*
X547720Y869542D03*
X647100Y848418D03*
D12*
X565424Y891746D03*
X632817Y903389D03*
D10*
X557800Y672650D03*
D11*
X508110Y683212D03*
X607490Y662088D03*
D12*
X525814Y705416D03*
X593207Y717059D03*
D10*
X518200Y486310D03*
D11*
X468510Y496872D03*
X567890Y475748D03*
D12*
X486214Y519076D03*
X553607Y530719D03*
D10*
X831280Y1042980D03*
D11*
X781590Y1053542D03*
X880970Y1032418D03*
D12*
X799294Y1075746D03*
X866687Y1087389D03*
D10*
X791670Y856640D03*
D11*
X741980Y867202D03*
X841360Y846078D03*
D12*
X759684Y889406D03*
X827077Y901049D03*
D10*
X752060Y670310D03*
D11*
X702370Y680872D03*
X801750Y659748D03*
D12*
X720074Y703076D03*
X787467Y714719D03*
D10*
X712450Y483970D03*
D11*
X662760Y494532D03*
X762140Y473408D03*
D12*
X680464Y516736D03*
X747857Y528379D03*
D10*
X924720Y163240D03*
D11*
X875651Y176388D03*
X973789Y150092D03*
D12*
X894492Y197636D03*
X962403Y205735D03*
D10*
X1009690Y966110D03*
D11*
X960000Y976672D03*
X1059380Y955548D03*
D12*
X977704Y998876D03*
X1045097Y1010519D03*
D10*
X970080Y779770D03*
D11*
X920390Y790332D03*
X1019770Y769208D03*
D12*
X938094Y812536D03*
X1005487Y824179D03*
D10*
X930480Y593430D03*
D11*
X880790Y603992D03*
X980170Y582868D03*
D12*
X898494Y626196D03*
X965887Y637839D03*
D10*
X890870Y407090D03*
D11*
X841180Y417652D03*
X940560Y396528D03*
D12*
X858884Y439856D03*
X926277Y451499D03*
D10*
X1188110Y889230D03*
D11*
X1138420Y899792D03*
X1237800Y878668D03*
D12*
X1156124Y921996D03*
X1223517Y933639D03*
D10*
X1148500Y702890D03*
D11*
X1098810Y713452D03*
X1198190Y692328D03*
D12*
X1116514Y735656D03*
X1183907Y747299D03*
D10*
X1108890Y516560D03*
D11*
X1059200Y527122D03*
X1158580Y505998D03*
D12*
X1076904Y549326D03*
X1144297Y560969D03*
D10*
X1069290Y330220D03*
D11*
X1019600Y340782D03*
X1118980Y319658D03*
D12*
X1037304Y362986D03*
X1104697Y374629D03*
D10*
X1311770Y116250D03*
D11*
X1260970Y116250D03*
X1362570Y116250D03*
D13*
X1192770Y46250D03*
X1430770Y46250D03*
D10*
X1192770Y198650D03*
X1430770Y198650D03*
D12*
X1273670Y141650D03*
X1337170Y167050D03*
D10*
X1435430Y889230D03*
D11*
X1385740Y878668D03*
X1485120Y899792D03*
D12*
X1392882Y906154D03*
X1449713Y944201D03*
D10*
X1475030Y702890D03*
D11*
X1425340Y692328D03*
X1524720Y713452D03*
D12*
X1432482Y719814D03*
X1489313Y757861D03*
D10*
X1514640Y516560D03*
D11*
X1464950Y505998D03*
X1564330Y527122D03*
D12*
X1472092Y533484D03*
X1528923Y571531D03*
D10*
X1554250Y330220D03*
D11*
X1504560Y319658D03*
X1603940Y340782D03*
D12*
X1511702Y347144D03*
X1568533Y385191D03*
D10*
X1613840Y966110D03*
D11*
X1564150Y955548D03*
X1663530Y976672D03*
D12*
X1571292Y983034D03*
X1628123Y1021081D03*
D10*
X1653450Y779770D03*
D11*
X1603760Y769208D03*
X1703140Y790332D03*
D12*
X1610902Y796694D03*
X1667733Y834741D03*
D10*
X1693060Y593430D03*
D11*
X1643370Y582868D03*
X1742750Y603992D03*
D12*
X1650512Y610354D03*
X1707343Y648401D03*
D10*
X1732670Y407090D03*
D11*
X1682980Y396528D03*
X1782360Y417652D03*
D12*
X1690122Y424014D03*
X1746953Y462061D03*
D10*
X1698720Y163240D03*
D11*
X1649651Y150092D03*
X1747789Y176388D03*
D12*
X1655344Y177914D03*
X1710107Y218883D03*
D10*
X1792260Y1042980D03*
D11*
X1742570Y1032418D03*
X1841950Y1053542D03*
D12*
X1749712Y1059904D03*
X1806543Y1097951D03*
D10*
X1831870Y856640D03*
D11*
X1782180Y846078D03*
X1881560Y867202D03*
D12*
X1789322Y873564D03*
X1846153Y911611D03*
D10*
X1871470Y670310D03*
D11*
X1821780Y659748D03*
X1921160Y680872D03*
D12*
X1828922Y687234D03*
X1885753Y725281D03*
D10*
X1911080Y483970D03*
D11*
X1861390Y473408D03*
X1960770Y494532D03*
D12*
X1868532Y500894D03*
X1925363Y538941D03*
D10*
X1986520Y1045320D03*
D11*
X1936830Y1034758D03*
X2036210Y1055882D03*
D12*
X1943972Y1062244D03*
X2000803Y1100291D03*
D10*
X2026120Y858980D03*
D11*
X1976430Y848418D03*
X2075810Y869542D03*
D12*
X1983572Y875904D03*
X2040403Y913951D03*
D10*
X2071130Y672650D03*
D11*
X2021440Y662088D03*
X2120820Y683212D03*
D12*
X2028582Y689574D03*
X2085413Y727621D03*
D10*
X2105340Y486310D03*
D11*
X2055650Y475748D03*
X2155030Y496872D03*
D12*
X2062792Y503234D03*
X2119623Y541281D03*
D10*
X1970400Y271030D03*
D11*
X1919600Y271030D03*
X2021200Y271030D03*
D12*
X1932300Y296430D03*
X1995800Y321830D03*
D10*
X2180780Y1047660D03*
D11*
X2131090Y1037098D03*
X2230470Y1058222D03*
D12*
X2138232Y1064584D03*
X2195063Y1102631D03*
D10*
X2220380Y861920D03*
D11*
X2170690Y851358D03*
X2270070Y872482D03*
D12*
X2177832Y878844D03*
X2234663Y916891D03*
D10*
X2259990Y674990D03*
D11*
X2210300Y664428D03*
X2309680Y685552D03*
D12*
X2217442Y691914D03*
X2274273Y729961D03*
D10*
X2299600Y488650D03*
D11*
X2249910Y478088D03*
X2349290Y499212D03*
D12*
X2257052Y505574D03*
X2313883Y543621D03*
D10*
X2375030Y1050000D03*
D11*
X2325340Y1039438D03*
X2424720Y1060562D03*
D12*
X2332482Y1066924D03*
X2389313Y1104971D03*
D10*
X2414640Y863660D03*
D11*
X2364950Y853098D03*
X2464330Y874222D03*
D12*
X2372092Y880584D03*
X2428923Y918631D03*
D10*
X2454250Y677330D03*
D11*
X2404560Y666768D03*
X2503940Y687892D03*
D12*
X2411702Y694254D03*
X2468533Y732301D03*
D10*
X2493860Y490990D03*
D11*
X2444170Y480428D03*
X2543550Y501552D03*
D12*
X2451312Y507914D03*
X2508143Y545961D03*
D14*
X1311770Y1096000D03*
X1295770Y1096000D03*
X1327770Y1096000D03*
X1303770Y1108000D03*
X1319770Y1108000D03*
D15*
X1348270Y1151500D03*
X1275270Y1151500D03*
X1348270Y1105000D03*
X1275270Y1105000D03*
D16*
X1287370Y640000D03*
X1336170Y640000D03*
D17*
X1236474Y1060000D02*
X1223266Y1060000D01*
X1160274Y1060000D02*
X1147066Y1060000D01*
X1223266Y1080000D02*
X1236474Y1080000D01*
X1160274Y1080000D02*
X1147066Y1080000D01*
D18*
X1270000Y988130D03*
X1270000Y1064330D03*
X1360000Y988130D03*
X1360000Y1064330D03*
X1300000Y988130D03*
X1300000Y1064330D03*
X1330000Y988130D03*
X1330000Y1064330D03*
D19*
X1469870Y1080000D03*
X1393670Y1080000D03*
D20*
X1337400Y720000D03*
X1286600Y720000D03*
D21*
X1286370Y690000D03*
X1337170Y690000D03*
D22*
X1047300Y1100000D03*
D23*
X1072700Y1100000D03*
D24*
X1151730Y1162500D02*
X1166810Y1162500D01*
X1216730Y1162500D02*
X1231810Y1162500D01*
X1166810Y1117500D02*
X1151730Y1117500D01*
X1216730Y1117500D02*
X1231810Y1117500D01*
X1456730Y1117500D02*
X1471810Y1117500D01*
X1406810Y1117500D02*
X1391730Y1117500D01*
X1456730Y1162500D02*
X1471810Y1162500D01*
X1406810Y1162500D02*
X1391730Y1162500D01*
D25*
X1510000Y1135000D03*
D26*
X1535400Y1135000D03*
X1560800Y1135000D03*
X1560800Y1160400D03*
X1535400Y1160400D03*
X1510000Y1160400D03*
D27*
X1021900Y1160000D03*
D28*
X1047300Y1160000D03*
X1072700Y1160000D03*
X1098100Y1160000D03*
D18*
X1400000Y999600D03*
X1400000Y1050400D03*
D21*
X1504600Y1090000D03*
X1555400Y1090000D03*
X1504600Y1060000D03*
X1555400Y1060000D03*
D29*
X1273210Y595200D03*
D30*
X1273210Y569800D03*
X1273210Y544400D03*
X1273210Y519000D03*
X1273210Y493600D03*
X1273210Y468200D03*
X1273210Y442800D03*
X1273210Y417400D03*
X1273210Y392000D03*
X1273210Y366600D03*
X1273210Y341200D03*
X1273210Y315800D03*
X1273210Y290400D03*
X1273210Y265000D03*
X1349410Y265000D03*
X1349410Y290400D03*
X1349410Y315800D03*
X1349410Y341200D03*
X1349410Y366600D03*
X1349410Y392000D03*
X1349410Y417400D03*
X1349410Y442800D03*
X1349410Y468200D03*
X1349410Y493600D03*
X1349410Y519000D03*
X1349410Y544400D03*
X1349410Y569800D03*
X1349410Y595200D03*
D31*
X957300Y1130000D03*
X982700Y1130000D03*
D32*
X1284000Y196000D03*
D33*
X236770Y565000D03*
X316770Y935000D03*
X2306770Y935000D03*
X2386770Y565000D03*
X1777770Y278000D03*
X862770Y706000D03*
M02*
