M48
;GenerationSoftware,Autodesk,EAGLE,9.6.1*%
;CreationDate,2020-11-29T01:58:14Z*%
FMAT,2
ICI,OFF
METRIC,TZ,000.000
T7C0.350
T6C1.000
T5C1.143
T4C1.300
T3C1.400
T2C1.700
T1C4.000
%
G90
M71
T1
X38100Y76200
X57150Y38100
X57150Y57150
X57150Y76200
X19050Y76200
X38100Y38100
X19050Y19050
X19050Y57150
X38100Y19050
X38100Y57150
X19050Y38100
X57150Y19050
X76200Y76200
X76200Y57150
X76200Y38100
X76200Y19050
T2
X13970Y38100
X24130Y38100
X13970Y19050
X62230Y76200
X33020Y76200
X43180Y76200
X33020Y57150
X43180Y57150
X33020Y38100
X43180Y38100
X33020Y19050
X43180Y19050
X52070Y76200
X52070Y57150
X62230Y57150
X52070Y38100
X62230Y38100
X24130Y19050
X52070Y19050
X62230Y19050
X13970Y76200
X71120Y76200
X81280Y76200
X24130Y76200
X71120Y57150
X81280Y57150
X13970Y57150
X71120Y38100
X81280Y38100
X24130Y57150
X71120Y19050
X81280Y19050
T3
X24750Y76200
X13350Y76200
X81900Y76200
X70500Y76200
T4
X72390Y78740
X78740Y81280
X72390Y59690
X78740Y62230
X72390Y40640
X78740Y43180
X40640Y24130
X78740Y24130
X72390Y21590
X15240Y78740
X21590Y81280
X15240Y59690
X21590Y62230
X15240Y40640
X21590Y43180
X15240Y21590
X21590Y24130
X34290Y78740
X40640Y81280
X34290Y59690
X40640Y62230
X34290Y40640
X40640Y43180
X34290Y21590
X53340Y78740
X59690Y81280
X53340Y59690
X59690Y62230
X53340Y40640
X59690Y43180
X53340Y21590
X59690Y24130
T5
X30480Y78899
X45720Y68739
X45720Y71279
X45720Y73819
X45720Y86519
X45720Y83979
X45720Y81439
X45720Y78899
X45720Y76359
X45720Y61119
X45720Y58579
X30480Y58579
X30480Y61119
X30480Y63659
X30480Y66199
X30480Y68739
X30480Y71279
X30480Y73819
X30480Y76359
X45720Y63659
X30480Y81439
X30480Y83979
X30480Y86519
X45720Y66199
T6
X16550Y83200
X21550Y83200
X19050Y68700
X16550Y68700
X76200Y68700
X73700Y68700
X78750Y68700
X73700Y83200
X78700Y83200
X21600Y68700
T7
X24500Y66758
X76000Y88900
X78700Y14900
X79700Y50100
M30