G04 EAGLE Gerber RS-274X export*
G75*
%MOMM*%
%FSLAX34Y34*%
%LPD*%
%IN*%
%IPPOS*%
%AMOC8*
5,1,8,0,0,1.08239X$1,22.5*%
G01*
%ADD10C,0.254000*%


D10*
X95250Y190500D02*
X95612Y182198D01*
X96697Y173960D01*
X98496Y165848D01*
X100994Y157923D01*
X104174Y150246D01*
X108011Y142875D01*
X112476Y135867D01*
X117534Y129274D01*
X123148Y123148D01*
X129274Y117534D01*
X135867Y112476D01*
X142875Y108011D01*
X150246Y104174D01*
X157923Y100994D01*
X165848Y98496D01*
X173960Y96697D01*
X182198Y95612D01*
X190500Y95250D01*
X762000Y95250D01*
X770302Y95612D01*
X778540Y96697D01*
X786653Y98496D01*
X794577Y100994D01*
X802254Y104174D01*
X809625Y108011D01*
X816633Y112476D01*
X823226Y117534D01*
X829352Y123148D01*
X834966Y129274D01*
X840024Y135867D01*
X844489Y142875D01*
X848326Y150246D01*
X851506Y157923D01*
X854004Y165848D01*
X855803Y173960D01*
X856888Y182198D01*
X857250Y190500D01*
X857250Y809625D01*
X856888Y817927D01*
X855803Y826165D01*
X854004Y834278D01*
X851506Y842202D01*
X848326Y849879D01*
X844489Y857250D01*
X840024Y864258D01*
X834966Y870851D01*
X829352Y876977D01*
X823226Y882591D01*
X816633Y887649D01*
X809625Y892114D01*
X802254Y895951D01*
X794577Y899131D01*
X786653Y901629D01*
X778540Y903428D01*
X770302Y904513D01*
X762000Y904875D01*
X190500Y904875D01*
X182198Y904513D01*
X173960Y903428D01*
X165848Y901629D01*
X157923Y899131D01*
X150246Y895951D01*
X142875Y892114D01*
X135867Y887649D01*
X129274Y882591D01*
X123148Y876977D01*
X117534Y870851D01*
X112476Y864258D01*
X108011Y857250D01*
X104174Y849879D01*
X100994Y842202D01*
X98496Y834278D01*
X96697Y826165D01*
X95612Y817927D01*
X95250Y809625D01*
X95250Y190500D01*
X698000Y751500D02*
X712000Y751500D01*
X712000Y772500D01*
X698000Y772500D01*
X698000Y751500D01*
X812000Y751500D02*
X826000Y751500D01*
X826000Y772500D01*
X812000Y772500D01*
X812000Y751500D01*
X240500Y751500D02*
X254500Y751500D01*
X254500Y772500D01*
X240500Y772500D01*
X240500Y751500D01*
X126500Y751500D02*
X140500Y751500D01*
X140500Y772500D01*
X126500Y772500D01*
X126500Y751500D01*
X210500Y761396D02*
X210427Y760189D01*
X210281Y758989D01*
X210063Y757800D01*
X209774Y756627D01*
X209415Y755473D01*
X208986Y754343D01*
X208490Y753241D01*
X207928Y752170D01*
X207303Y751136D01*
X206616Y750141D01*
X205871Y749190D01*
X205069Y748285D01*
X204215Y747431D01*
X203310Y746629D01*
X202359Y745884D01*
X201364Y745197D01*
X200330Y744572D01*
X199259Y744010D01*
X198157Y743514D01*
X197027Y743085D01*
X195873Y742726D01*
X194700Y742437D01*
X193511Y742219D01*
X192311Y742073D01*
X191104Y742000D01*
X189896Y742000D01*
X188689Y742073D01*
X187489Y742219D01*
X186300Y742437D01*
X185127Y742726D01*
X183973Y743085D01*
X182843Y743514D01*
X181741Y744010D01*
X180670Y744572D01*
X179636Y745197D01*
X178641Y745884D01*
X177690Y746629D01*
X176785Y747431D01*
X175931Y748285D01*
X175129Y749190D01*
X174384Y750141D01*
X173697Y751136D01*
X173072Y752170D01*
X172510Y753241D01*
X172014Y754343D01*
X171585Y755473D01*
X171226Y756627D01*
X170937Y757800D01*
X170719Y758989D01*
X170573Y760189D01*
X170500Y761396D01*
X170500Y762604D01*
X170573Y763811D01*
X170719Y765011D01*
X170937Y766200D01*
X171226Y767373D01*
X171585Y768527D01*
X172014Y769657D01*
X172510Y770759D01*
X173072Y771830D01*
X173697Y772864D01*
X174384Y773859D01*
X175129Y774810D01*
X175931Y775715D01*
X176785Y776569D01*
X177690Y777371D01*
X178641Y778116D01*
X179636Y778803D01*
X180670Y779428D01*
X181741Y779990D01*
X182843Y780486D01*
X183973Y780915D01*
X185127Y781274D01*
X186300Y781563D01*
X187489Y781781D01*
X188689Y781927D01*
X189896Y782000D01*
X191104Y782000D01*
X192311Y781927D01*
X193511Y781781D01*
X194700Y781563D01*
X195873Y781274D01*
X197027Y780915D01*
X198157Y780486D01*
X199259Y779990D01*
X200330Y779428D01*
X201364Y778803D01*
X202359Y778116D01*
X203310Y777371D01*
X204215Y776569D01*
X205069Y775715D01*
X205871Y774810D01*
X206616Y773859D01*
X207303Y772864D01*
X207928Y771830D01*
X208490Y770759D01*
X208986Y769657D01*
X209415Y768527D01*
X209774Y767373D01*
X210063Y766200D01*
X210281Y765011D01*
X210427Y763811D01*
X210500Y762604D01*
X210500Y761396D01*
X148200Y761629D02*
X148135Y760889D01*
X148006Y760159D01*
X147814Y759442D01*
X147560Y758744D01*
X147247Y758071D01*
X146876Y757429D01*
X146450Y756821D01*
X145973Y756252D01*
X145448Y755727D01*
X144879Y755250D01*
X144271Y754824D01*
X143629Y754453D01*
X142956Y754140D01*
X142258Y753886D01*
X141542Y753694D01*
X140811Y753565D01*
X140071Y753500D01*
X139329Y753500D01*
X138589Y753565D01*
X137859Y753694D01*
X137142Y753886D01*
X136444Y754140D01*
X135771Y754453D01*
X135129Y754824D01*
X134521Y755250D01*
X133952Y755727D01*
X133427Y756252D01*
X132950Y756821D01*
X132524Y757429D01*
X132153Y758071D01*
X131840Y758744D01*
X131586Y759442D01*
X131394Y760159D01*
X131265Y760889D01*
X131200Y761629D01*
X131200Y762371D01*
X131265Y763111D01*
X131394Y763842D01*
X131586Y764558D01*
X131840Y765256D01*
X132153Y765929D01*
X132524Y766571D01*
X132950Y767179D01*
X133427Y767748D01*
X133952Y768273D01*
X134521Y768750D01*
X135129Y769176D01*
X135771Y769547D01*
X136444Y769860D01*
X137142Y770114D01*
X137859Y770306D01*
X138589Y770435D01*
X139329Y770500D01*
X140071Y770500D01*
X140811Y770435D01*
X141542Y770306D01*
X142258Y770114D01*
X142956Y769860D01*
X143629Y769547D01*
X144271Y769176D01*
X144879Y768750D01*
X145448Y768273D01*
X145973Y767748D01*
X146450Y767179D01*
X146876Y766571D01*
X147247Y765929D01*
X147560Y765256D01*
X147814Y764558D01*
X148006Y763842D01*
X148135Y763111D01*
X148200Y762371D01*
X148200Y761629D01*
X249800Y761629D02*
X249735Y760889D01*
X249606Y760159D01*
X249414Y759442D01*
X249160Y758744D01*
X248847Y758071D01*
X248476Y757429D01*
X248050Y756821D01*
X247573Y756252D01*
X247048Y755727D01*
X246479Y755250D01*
X245871Y754824D01*
X245229Y754453D01*
X244556Y754140D01*
X243858Y753886D01*
X243142Y753694D01*
X242411Y753565D01*
X241671Y753500D01*
X240929Y753500D01*
X240189Y753565D01*
X239459Y753694D01*
X238742Y753886D01*
X238044Y754140D01*
X237371Y754453D01*
X236729Y754824D01*
X236121Y755250D01*
X235552Y755727D01*
X235027Y756252D01*
X234550Y756821D01*
X234124Y757429D01*
X233753Y758071D01*
X233440Y758744D01*
X233186Y759442D01*
X232994Y760159D01*
X232865Y760889D01*
X232800Y761629D01*
X232800Y762371D01*
X232865Y763111D01*
X232994Y763842D01*
X233186Y764558D01*
X233440Y765256D01*
X233753Y765929D01*
X234124Y766571D01*
X234550Y767179D01*
X235027Y767748D01*
X235552Y768273D01*
X236121Y768750D01*
X236729Y769176D01*
X237371Y769547D01*
X238044Y769860D01*
X238742Y770114D01*
X239459Y770306D01*
X240189Y770435D01*
X240929Y770500D01*
X241671Y770500D01*
X242411Y770435D01*
X243142Y770306D01*
X243858Y770114D01*
X244556Y769860D01*
X245229Y769547D01*
X245871Y769176D01*
X246479Y768750D01*
X247048Y768273D01*
X247573Y767748D01*
X248050Y767179D01*
X248476Y766571D01*
X248847Y765929D01*
X249160Y765256D01*
X249414Y764558D01*
X249606Y763842D01*
X249735Y763111D01*
X249800Y762371D01*
X249800Y761629D01*
X210500Y570896D02*
X210427Y569689D01*
X210281Y568489D01*
X210063Y567300D01*
X209774Y566127D01*
X209415Y564973D01*
X208986Y563843D01*
X208490Y562741D01*
X207928Y561670D01*
X207303Y560636D01*
X206616Y559641D01*
X205871Y558690D01*
X205069Y557785D01*
X204215Y556931D01*
X203310Y556129D01*
X202359Y555384D01*
X201364Y554697D01*
X200330Y554072D01*
X199259Y553510D01*
X198157Y553014D01*
X197027Y552585D01*
X195873Y552226D01*
X194700Y551937D01*
X193511Y551719D01*
X192311Y551573D01*
X191104Y551500D01*
X189896Y551500D01*
X188689Y551573D01*
X187489Y551719D01*
X186300Y551937D01*
X185127Y552226D01*
X183973Y552585D01*
X182843Y553014D01*
X181741Y553510D01*
X180670Y554072D01*
X179636Y554697D01*
X178641Y555384D01*
X177690Y556129D01*
X176785Y556931D01*
X175931Y557785D01*
X175129Y558690D01*
X174384Y559641D01*
X173697Y560636D01*
X173072Y561670D01*
X172510Y562741D01*
X172014Y563843D01*
X171585Y564973D01*
X171226Y566127D01*
X170937Y567300D01*
X170719Y568489D01*
X170573Y569689D01*
X170500Y570896D01*
X170500Y572104D01*
X170573Y573311D01*
X170719Y574511D01*
X170937Y575700D01*
X171226Y576873D01*
X171585Y578027D01*
X172014Y579157D01*
X172510Y580259D01*
X173072Y581330D01*
X173697Y582364D01*
X174384Y583359D01*
X175129Y584310D01*
X175931Y585215D01*
X176785Y586069D01*
X177690Y586871D01*
X178641Y587616D01*
X179636Y588303D01*
X180670Y588928D01*
X181741Y589490D01*
X182843Y589986D01*
X183973Y590415D01*
X185127Y590774D01*
X186300Y591063D01*
X187489Y591281D01*
X188689Y591427D01*
X189896Y591500D01*
X191104Y591500D01*
X192311Y591427D01*
X193511Y591281D01*
X194700Y591063D01*
X195873Y590774D01*
X197027Y590415D01*
X198157Y589986D01*
X199259Y589490D01*
X200330Y588928D01*
X201364Y588303D01*
X202359Y587616D01*
X203310Y586871D01*
X204215Y586069D01*
X205069Y585215D01*
X205871Y584310D01*
X206616Y583359D01*
X207303Y582364D01*
X207928Y581330D01*
X208490Y580259D01*
X208986Y579157D01*
X209415Y578027D01*
X209774Y576873D01*
X210063Y575700D01*
X210281Y574511D01*
X210427Y573311D01*
X210500Y572104D01*
X210500Y570896D01*
X148200Y571129D02*
X148135Y570389D01*
X148006Y569659D01*
X147814Y568942D01*
X147560Y568244D01*
X147247Y567571D01*
X146876Y566929D01*
X146450Y566321D01*
X145973Y565752D01*
X145448Y565227D01*
X144879Y564750D01*
X144271Y564324D01*
X143629Y563953D01*
X142956Y563640D01*
X142258Y563386D01*
X141542Y563194D01*
X140811Y563065D01*
X140071Y563000D01*
X139329Y563000D01*
X138589Y563065D01*
X137859Y563194D01*
X137142Y563386D01*
X136444Y563640D01*
X135771Y563953D01*
X135129Y564324D01*
X134521Y564750D01*
X133952Y565227D01*
X133427Y565752D01*
X132950Y566321D01*
X132524Y566929D01*
X132153Y567571D01*
X131840Y568244D01*
X131586Y568942D01*
X131394Y569659D01*
X131265Y570389D01*
X131200Y571129D01*
X131200Y571871D01*
X131265Y572611D01*
X131394Y573342D01*
X131586Y574058D01*
X131840Y574756D01*
X132153Y575429D01*
X132524Y576071D01*
X132950Y576679D01*
X133427Y577248D01*
X133952Y577773D01*
X134521Y578250D01*
X135129Y578676D01*
X135771Y579047D01*
X136444Y579360D01*
X137142Y579614D01*
X137859Y579806D01*
X138589Y579935D01*
X139329Y580000D01*
X140071Y580000D01*
X140811Y579935D01*
X141542Y579806D01*
X142258Y579614D01*
X142956Y579360D01*
X143629Y579047D01*
X144271Y578676D01*
X144879Y578250D01*
X145448Y577773D01*
X145973Y577248D01*
X146450Y576679D01*
X146876Y576071D01*
X147247Y575429D01*
X147560Y574756D01*
X147814Y574058D01*
X148006Y573342D01*
X148135Y572611D01*
X148200Y571871D01*
X148200Y571129D01*
X249800Y571129D02*
X249735Y570389D01*
X249606Y569659D01*
X249414Y568942D01*
X249160Y568244D01*
X248847Y567571D01*
X248476Y566929D01*
X248050Y566321D01*
X247573Y565752D01*
X247048Y565227D01*
X246479Y564750D01*
X245871Y564324D01*
X245229Y563953D01*
X244556Y563640D01*
X243858Y563386D01*
X243142Y563194D01*
X242411Y563065D01*
X241671Y563000D01*
X240929Y563000D01*
X240189Y563065D01*
X239459Y563194D01*
X238742Y563386D01*
X238044Y563640D01*
X237371Y563953D01*
X236729Y564324D01*
X236121Y564750D01*
X235552Y565227D01*
X235027Y565752D01*
X234550Y566321D01*
X234124Y566929D01*
X233753Y567571D01*
X233440Y568244D01*
X233186Y568942D01*
X232994Y569659D01*
X232865Y570389D01*
X232800Y571129D01*
X232800Y571871D01*
X232865Y572611D01*
X232994Y573342D01*
X233186Y574058D01*
X233440Y574756D01*
X233753Y575429D01*
X234124Y576071D01*
X234550Y576679D01*
X235027Y577248D01*
X235552Y577773D01*
X236121Y578250D01*
X236729Y578676D01*
X237371Y579047D01*
X238044Y579360D01*
X238742Y579614D01*
X239459Y579806D01*
X240189Y579935D01*
X240929Y580000D01*
X241671Y580000D01*
X242411Y579935D01*
X243142Y579806D01*
X243858Y579614D01*
X244556Y579360D01*
X245229Y579047D01*
X245871Y578676D01*
X246479Y578250D01*
X247048Y577773D01*
X247573Y577248D01*
X248050Y576679D01*
X248476Y576071D01*
X248847Y575429D01*
X249160Y574756D01*
X249414Y574058D01*
X249606Y573342D01*
X249735Y572611D01*
X249800Y571871D01*
X249800Y571129D01*
X210500Y380396D02*
X210427Y379189D01*
X210281Y377989D01*
X210063Y376800D01*
X209774Y375627D01*
X209415Y374473D01*
X208986Y373343D01*
X208490Y372241D01*
X207928Y371170D01*
X207303Y370136D01*
X206616Y369141D01*
X205871Y368190D01*
X205069Y367285D01*
X204215Y366431D01*
X203310Y365629D01*
X202359Y364884D01*
X201364Y364197D01*
X200330Y363572D01*
X199259Y363010D01*
X198157Y362514D01*
X197027Y362085D01*
X195873Y361726D01*
X194700Y361437D01*
X193511Y361219D01*
X192311Y361073D01*
X191104Y361000D01*
X189896Y361000D01*
X188689Y361073D01*
X187489Y361219D01*
X186300Y361437D01*
X185127Y361726D01*
X183973Y362085D01*
X182843Y362514D01*
X181741Y363010D01*
X180670Y363572D01*
X179636Y364197D01*
X178641Y364884D01*
X177690Y365629D01*
X176785Y366431D01*
X175931Y367285D01*
X175129Y368190D01*
X174384Y369141D01*
X173697Y370136D01*
X173072Y371170D01*
X172510Y372241D01*
X172014Y373343D01*
X171585Y374473D01*
X171226Y375627D01*
X170937Y376800D01*
X170719Y377989D01*
X170573Y379189D01*
X170500Y380396D01*
X170500Y381604D01*
X170573Y382811D01*
X170719Y384011D01*
X170937Y385200D01*
X171226Y386373D01*
X171585Y387527D01*
X172014Y388657D01*
X172510Y389759D01*
X173072Y390830D01*
X173697Y391864D01*
X174384Y392859D01*
X175129Y393810D01*
X175931Y394715D01*
X176785Y395569D01*
X177690Y396371D01*
X178641Y397116D01*
X179636Y397803D01*
X180670Y398428D01*
X181741Y398990D01*
X182843Y399486D01*
X183973Y399915D01*
X185127Y400274D01*
X186300Y400563D01*
X187489Y400781D01*
X188689Y400927D01*
X189896Y401000D01*
X191104Y401000D01*
X192311Y400927D01*
X193511Y400781D01*
X194700Y400563D01*
X195873Y400274D01*
X197027Y399915D01*
X198157Y399486D01*
X199259Y398990D01*
X200330Y398428D01*
X201364Y397803D01*
X202359Y397116D01*
X203310Y396371D01*
X204215Y395569D01*
X205069Y394715D01*
X205871Y393810D01*
X206616Y392859D01*
X207303Y391864D01*
X207928Y390830D01*
X208490Y389759D01*
X208986Y388657D01*
X209415Y387527D01*
X209774Y386373D01*
X210063Y385200D01*
X210281Y384011D01*
X210427Y382811D01*
X210500Y381604D01*
X210500Y380396D01*
X148200Y380629D02*
X148135Y379889D01*
X148006Y379159D01*
X147814Y378442D01*
X147560Y377744D01*
X147247Y377071D01*
X146876Y376429D01*
X146450Y375821D01*
X145973Y375252D01*
X145448Y374727D01*
X144879Y374250D01*
X144271Y373824D01*
X143629Y373453D01*
X142956Y373140D01*
X142258Y372886D01*
X141542Y372694D01*
X140811Y372565D01*
X140071Y372500D01*
X139329Y372500D01*
X138589Y372565D01*
X137859Y372694D01*
X137142Y372886D01*
X136444Y373140D01*
X135771Y373453D01*
X135129Y373824D01*
X134521Y374250D01*
X133952Y374727D01*
X133427Y375252D01*
X132950Y375821D01*
X132524Y376429D01*
X132153Y377071D01*
X131840Y377744D01*
X131586Y378442D01*
X131394Y379159D01*
X131265Y379889D01*
X131200Y380629D01*
X131200Y381371D01*
X131265Y382111D01*
X131394Y382842D01*
X131586Y383558D01*
X131840Y384256D01*
X132153Y384929D01*
X132524Y385571D01*
X132950Y386179D01*
X133427Y386748D01*
X133952Y387273D01*
X134521Y387750D01*
X135129Y388176D01*
X135771Y388547D01*
X136444Y388860D01*
X137142Y389114D01*
X137859Y389306D01*
X138589Y389435D01*
X139329Y389500D01*
X140071Y389500D01*
X140811Y389435D01*
X141542Y389306D01*
X142258Y389114D01*
X142956Y388860D01*
X143629Y388547D01*
X144271Y388176D01*
X144879Y387750D01*
X145448Y387273D01*
X145973Y386748D01*
X146450Y386179D01*
X146876Y385571D01*
X147247Y384929D01*
X147560Y384256D01*
X147814Y383558D01*
X148006Y382842D01*
X148135Y382111D01*
X148200Y381371D01*
X148200Y380629D01*
X249800Y380629D02*
X249735Y379889D01*
X249606Y379159D01*
X249414Y378442D01*
X249160Y377744D01*
X248847Y377071D01*
X248476Y376429D01*
X248050Y375821D01*
X247573Y375252D01*
X247048Y374727D01*
X246479Y374250D01*
X245871Y373824D01*
X245229Y373453D01*
X244556Y373140D01*
X243858Y372886D01*
X243142Y372694D01*
X242411Y372565D01*
X241671Y372500D01*
X240929Y372500D01*
X240189Y372565D01*
X239459Y372694D01*
X238742Y372886D01*
X238044Y373140D01*
X237371Y373453D01*
X236729Y373824D01*
X236121Y374250D01*
X235552Y374727D01*
X235027Y375252D01*
X234550Y375821D01*
X234124Y376429D01*
X233753Y377071D01*
X233440Y377744D01*
X233186Y378442D01*
X232994Y379159D01*
X232865Y379889D01*
X232800Y380629D01*
X232800Y381371D01*
X232865Y382111D01*
X232994Y382842D01*
X233186Y383558D01*
X233440Y384256D01*
X233753Y384929D01*
X234124Y385571D01*
X234550Y386179D01*
X235027Y386748D01*
X235552Y387273D01*
X236121Y387750D01*
X236729Y388176D01*
X237371Y388547D01*
X238044Y388860D01*
X238742Y389114D01*
X239459Y389306D01*
X240189Y389435D01*
X240929Y389500D01*
X241671Y389500D01*
X242411Y389435D01*
X243142Y389306D01*
X243858Y389114D01*
X244556Y388860D01*
X245229Y388547D01*
X245871Y388176D01*
X246479Y387750D01*
X247048Y387273D01*
X247573Y386748D01*
X248050Y386179D01*
X248476Y385571D01*
X248847Y384929D01*
X249160Y384256D01*
X249414Y383558D01*
X249606Y382842D01*
X249735Y382111D01*
X249800Y381371D01*
X249800Y380629D01*
X210500Y189896D02*
X210427Y188689D01*
X210281Y187489D01*
X210063Y186300D01*
X209774Y185127D01*
X209415Y183973D01*
X208986Y182843D01*
X208490Y181741D01*
X207928Y180670D01*
X207303Y179636D01*
X206616Y178641D01*
X205871Y177690D01*
X205069Y176785D01*
X204215Y175931D01*
X203310Y175129D01*
X202359Y174384D01*
X201364Y173697D01*
X200330Y173072D01*
X199259Y172510D01*
X198157Y172014D01*
X197027Y171585D01*
X195873Y171226D01*
X194700Y170937D01*
X193511Y170719D01*
X192311Y170573D01*
X191104Y170500D01*
X189896Y170500D01*
X188689Y170573D01*
X187489Y170719D01*
X186300Y170937D01*
X185127Y171226D01*
X183973Y171585D01*
X182843Y172014D01*
X181741Y172510D01*
X180670Y173072D01*
X179636Y173697D01*
X178641Y174384D01*
X177690Y175129D01*
X176785Y175931D01*
X175931Y176785D01*
X175129Y177690D01*
X174384Y178641D01*
X173697Y179636D01*
X173072Y180670D01*
X172510Y181741D01*
X172014Y182843D01*
X171585Y183973D01*
X171226Y185127D01*
X170937Y186300D01*
X170719Y187489D01*
X170573Y188689D01*
X170500Y189896D01*
X170500Y191104D01*
X170573Y192311D01*
X170719Y193511D01*
X170937Y194700D01*
X171226Y195873D01*
X171585Y197027D01*
X172014Y198157D01*
X172510Y199259D01*
X173072Y200330D01*
X173697Y201364D01*
X174384Y202359D01*
X175129Y203310D01*
X175931Y204215D01*
X176785Y205069D01*
X177690Y205871D01*
X178641Y206616D01*
X179636Y207303D01*
X180670Y207928D01*
X181741Y208490D01*
X182843Y208986D01*
X183973Y209415D01*
X185127Y209774D01*
X186300Y210063D01*
X187489Y210281D01*
X188689Y210427D01*
X189896Y210500D01*
X191104Y210500D01*
X192311Y210427D01*
X193511Y210281D01*
X194700Y210063D01*
X195873Y209774D01*
X197027Y209415D01*
X198157Y208986D01*
X199259Y208490D01*
X200330Y207928D01*
X201364Y207303D01*
X202359Y206616D01*
X203310Y205871D01*
X204215Y205069D01*
X205069Y204215D01*
X205871Y203310D01*
X206616Y202359D01*
X207303Y201364D01*
X207928Y200330D01*
X208490Y199259D01*
X208986Y198157D01*
X209415Y197027D01*
X209774Y195873D01*
X210063Y194700D01*
X210281Y193511D01*
X210427Y192311D01*
X210500Y191104D01*
X210500Y189896D01*
X148200Y190129D02*
X148135Y189389D01*
X148006Y188659D01*
X147814Y187942D01*
X147560Y187244D01*
X147247Y186571D01*
X146876Y185929D01*
X146450Y185321D01*
X145973Y184752D01*
X145448Y184227D01*
X144879Y183750D01*
X144271Y183324D01*
X143629Y182953D01*
X142956Y182640D01*
X142258Y182386D01*
X141542Y182194D01*
X140811Y182065D01*
X140071Y182000D01*
X139329Y182000D01*
X138589Y182065D01*
X137859Y182194D01*
X137142Y182386D01*
X136444Y182640D01*
X135771Y182953D01*
X135129Y183324D01*
X134521Y183750D01*
X133952Y184227D01*
X133427Y184752D01*
X132950Y185321D01*
X132524Y185929D01*
X132153Y186571D01*
X131840Y187244D01*
X131586Y187942D01*
X131394Y188659D01*
X131265Y189389D01*
X131200Y190129D01*
X131200Y190871D01*
X131265Y191611D01*
X131394Y192342D01*
X131586Y193058D01*
X131840Y193756D01*
X132153Y194429D01*
X132524Y195071D01*
X132950Y195679D01*
X133427Y196248D01*
X133952Y196773D01*
X134521Y197250D01*
X135129Y197676D01*
X135771Y198047D01*
X136444Y198360D01*
X137142Y198614D01*
X137859Y198806D01*
X138589Y198935D01*
X139329Y199000D01*
X140071Y199000D01*
X140811Y198935D01*
X141542Y198806D01*
X142258Y198614D01*
X142956Y198360D01*
X143629Y198047D01*
X144271Y197676D01*
X144879Y197250D01*
X145448Y196773D01*
X145973Y196248D01*
X146450Y195679D01*
X146876Y195071D01*
X147247Y194429D01*
X147560Y193756D01*
X147814Y193058D01*
X148006Y192342D01*
X148135Y191611D01*
X148200Y190871D01*
X148200Y190129D01*
X249800Y190129D02*
X249735Y189389D01*
X249606Y188659D01*
X249414Y187942D01*
X249160Y187244D01*
X248847Y186571D01*
X248476Y185929D01*
X248050Y185321D01*
X247573Y184752D01*
X247048Y184227D01*
X246479Y183750D01*
X245871Y183324D01*
X245229Y182953D01*
X244556Y182640D01*
X243858Y182386D01*
X243142Y182194D01*
X242411Y182065D01*
X241671Y182000D01*
X240929Y182000D01*
X240189Y182065D01*
X239459Y182194D01*
X238742Y182386D01*
X238044Y182640D01*
X237371Y182953D01*
X236729Y183324D01*
X236121Y183750D01*
X235552Y184227D01*
X235027Y184752D01*
X234550Y185321D01*
X234124Y185929D01*
X233753Y186571D01*
X233440Y187244D01*
X233186Y187942D01*
X232994Y188659D01*
X232865Y189389D01*
X232800Y190129D01*
X232800Y190871D01*
X232865Y191611D01*
X232994Y192342D01*
X233186Y193058D01*
X233440Y193756D01*
X233753Y194429D01*
X234124Y195071D01*
X234550Y195679D01*
X235027Y196248D01*
X235552Y196773D01*
X236121Y197250D01*
X236729Y197676D01*
X237371Y198047D01*
X238044Y198360D01*
X238742Y198614D01*
X239459Y198806D01*
X240189Y198935D01*
X240929Y199000D01*
X241671Y199000D01*
X242411Y198935D01*
X243142Y198806D01*
X243858Y198614D01*
X244556Y198360D01*
X245229Y198047D01*
X245871Y197676D01*
X246479Y197250D01*
X247048Y196773D01*
X247573Y196248D01*
X248050Y195679D01*
X248476Y195071D01*
X248847Y194429D01*
X249160Y193756D01*
X249414Y193058D01*
X249606Y192342D01*
X249735Y191611D01*
X249800Y190871D01*
X249800Y190129D01*
X401000Y761396D02*
X400927Y760189D01*
X400781Y758989D01*
X400563Y757800D01*
X400274Y756627D01*
X399915Y755473D01*
X399486Y754343D01*
X398990Y753241D01*
X398428Y752170D01*
X397803Y751136D01*
X397116Y750141D01*
X396371Y749190D01*
X395569Y748285D01*
X394715Y747431D01*
X393810Y746629D01*
X392859Y745884D01*
X391864Y745197D01*
X390830Y744572D01*
X389759Y744010D01*
X388657Y743514D01*
X387527Y743085D01*
X386373Y742726D01*
X385200Y742437D01*
X384011Y742219D01*
X382811Y742073D01*
X381604Y742000D01*
X380396Y742000D01*
X379189Y742073D01*
X377989Y742219D01*
X376800Y742437D01*
X375627Y742726D01*
X374473Y743085D01*
X373343Y743514D01*
X372241Y744010D01*
X371170Y744572D01*
X370136Y745197D01*
X369141Y745884D01*
X368190Y746629D01*
X367285Y747431D01*
X366431Y748285D01*
X365629Y749190D01*
X364884Y750141D01*
X364197Y751136D01*
X363572Y752170D01*
X363010Y753241D01*
X362514Y754343D01*
X362085Y755473D01*
X361726Y756627D01*
X361437Y757800D01*
X361219Y758989D01*
X361073Y760189D01*
X361000Y761396D01*
X361000Y762604D01*
X361073Y763811D01*
X361219Y765011D01*
X361437Y766200D01*
X361726Y767373D01*
X362085Y768527D01*
X362514Y769657D01*
X363010Y770759D01*
X363572Y771830D01*
X364197Y772864D01*
X364884Y773859D01*
X365629Y774810D01*
X366431Y775715D01*
X367285Y776569D01*
X368190Y777371D01*
X369141Y778116D01*
X370136Y778803D01*
X371170Y779428D01*
X372241Y779990D01*
X373343Y780486D01*
X374473Y780915D01*
X375627Y781274D01*
X376800Y781563D01*
X377989Y781781D01*
X379189Y781927D01*
X380396Y782000D01*
X381604Y782000D01*
X382811Y781927D01*
X384011Y781781D01*
X385200Y781563D01*
X386373Y781274D01*
X387527Y780915D01*
X388657Y780486D01*
X389759Y779990D01*
X390830Y779428D01*
X391864Y778803D01*
X392859Y778116D01*
X393810Y777371D01*
X394715Y776569D01*
X395569Y775715D01*
X396371Y774810D01*
X397116Y773859D01*
X397803Y772864D01*
X398428Y771830D01*
X398990Y770759D01*
X399486Y769657D01*
X399915Y768527D01*
X400274Y767373D01*
X400563Y766200D01*
X400781Y765011D01*
X400927Y763811D01*
X401000Y762604D01*
X401000Y761396D01*
X338700Y761629D02*
X338635Y760889D01*
X338506Y760159D01*
X338314Y759442D01*
X338060Y758744D01*
X337747Y758071D01*
X337376Y757429D01*
X336950Y756821D01*
X336473Y756252D01*
X335948Y755727D01*
X335379Y755250D01*
X334771Y754824D01*
X334129Y754453D01*
X333456Y754140D01*
X332758Y753886D01*
X332042Y753694D01*
X331311Y753565D01*
X330571Y753500D01*
X329829Y753500D01*
X329089Y753565D01*
X328359Y753694D01*
X327642Y753886D01*
X326944Y754140D01*
X326271Y754453D01*
X325629Y754824D01*
X325021Y755250D01*
X324452Y755727D01*
X323927Y756252D01*
X323450Y756821D01*
X323024Y757429D01*
X322653Y758071D01*
X322340Y758744D01*
X322086Y759442D01*
X321894Y760159D01*
X321765Y760889D01*
X321700Y761629D01*
X321700Y762371D01*
X321765Y763111D01*
X321894Y763842D01*
X322086Y764558D01*
X322340Y765256D01*
X322653Y765929D01*
X323024Y766571D01*
X323450Y767179D01*
X323927Y767748D01*
X324452Y768273D01*
X325021Y768750D01*
X325629Y769176D01*
X326271Y769547D01*
X326944Y769860D01*
X327642Y770114D01*
X328359Y770306D01*
X329089Y770435D01*
X329829Y770500D01*
X330571Y770500D01*
X331311Y770435D01*
X332042Y770306D01*
X332758Y770114D01*
X333456Y769860D01*
X334129Y769547D01*
X334771Y769176D01*
X335379Y768750D01*
X335948Y768273D01*
X336473Y767748D01*
X336950Y767179D01*
X337376Y766571D01*
X337747Y765929D01*
X338060Y765256D01*
X338314Y764558D01*
X338506Y763842D01*
X338635Y763111D01*
X338700Y762371D01*
X338700Y761629D01*
X440300Y761629D02*
X440235Y760889D01*
X440106Y760159D01*
X439914Y759442D01*
X439660Y758744D01*
X439347Y758071D01*
X438976Y757429D01*
X438550Y756821D01*
X438073Y756252D01*
X437548Y755727D01*
X436979Y755250D01*
X436371Y754824D01*
X435729Y754453D01*
X435056Y754140D01*
X434358Y753886D01*
X433642Y753694D01*
X432911Y753565D01*
X432171Y753500D01*
X431429Y753500D01*
X430689Y753565D01*
X429959Y753694D01*
X429242Y753886D01*
X428544Y754140D01*
X427871Y754453D01*
X427229Y754824D01*
X426621Y755250D01*
X426052Y755727D01*
X425527Y756252D01*
X425050Y756821D01*
X424624Y757429D01*
X424253Y758071D01*
X423940Y758744D01*
X423686Y759442D01*
X423494Y760159D01*
X423365Y760889D01*
X423300Y761629D01*
X423300Y762371D01*
X423365Y763111D01*
X423494Y763842D01*
X423686Y764558D01*
X423940Y765256D01*
X424253Y765929D01*
X424624Y766571D01*
X425050Y767179D01*
X425527Y767748D01*
X426052Y768273D01*
X426621Y768750D01*
X427229Y769176D01*
X427871Y769547D01*
X428544Y769860D01*
X429242Y770114D01*
X429959Y770306D01*
X430689Y770435D01*
X431429Y770500D01*
X432171Y770500D01*
X432911Y770435D01*
X433642Y770306D01*
X434358Y770114D01*
X435056Y769860D01*
X435729Y769547D01*
X436371Y769176D01*
X436979Y768750D01*
X437548Y768273D01*
X438073Y767748D01*
X438550Y767179D01*
X438976Y766571D01*
X439347Y765929D01*
X439660Y765256D01*
X439914Y764558D01*
X440106Y763842D01*
X440235Y763111D01*
X440300Y762371D01*
X440300Y761629D01*
X401000Y570896D02*
X400927Y569689D01*
X400781Y568489D01*
X400563Y567300D01*
X400274Y566127D01*
X399915Y564973D01*
X399486Y563843D01*
X398990Y562741D01*
X398428Y561670D01*
X397803Y560636D01*
X397116Y559641D01*
X396371Y558690D01*
X395569Y557785D01*
X394715Y556931D01*
X393810Y556129D01*
X392859Y555384D01*
X391864Y554697D01*
X390830Y554072D01*
X389759Y553510D01*
X388657Y553014D01*
X387527Y552585D01*
X386373Y552226D01*
X385200Y551937D01*
X384011Y551719D01*
X382811Y551573D01*
X381604Y551500D01*
X380396Y551500D01*
X379189Y551573D01*
X377989Y551719D01*
X376800Y551937D01*
X375627Y552226D01*
X374473Y552585D01*
X373343Y553014D01*
X372241Y553510D01*
X371170Y554072D01*
X370136Y554697D01*
X369141Y555384D01*
X368190Y556129D01*
X367285Y556931D01*
X366431Y557785D01*
X365629Y558690D01*
X364884Y559641D01*
X364197Y560636D01*
X363572Y561670D01*
X363010Y562741D01*
X362514Y563843D01*
X362085Y564973D01*
X361726Y566127D01*
X361437Y567300D01*
X361219Y568489D01*
X361073Y569689D01*
X361000Y570896D01*
X361000Y572104D01*
X361073Y573311D01*
X361219Y574511D01*
X361437Y575700D01*
X361726Y576873D01*
X362085Y578027D01*
X362514Y579157D01*
X363010Y580259D01*
X363572Y581330D01*
X364197Y582364D01*
X364884Y583359D01*
X365629Y584310D01*
X366431Y585215D01*
X367285Y586069D01*
X368190Y586871D01*
X369141Y587616D01*
X370136Y588303D01*
X371170Y588928D01*
X372241Y589490D01*
X373343Y589986D01*
X374473Y590415D01*
X375627Y590774D01*
X376800Y591063D01*
X377989Y591281D01*
X379189Y591427D01*
X380396Y591500D01*
X381604Y591500D01*
X382811Y591427D01*
X384011Y591281D01*
X385200Y591063D01*
X386373Y590774D01*
X387527Y590415D01*
X388657Y589986D01*
X389759Y589490D01*
X390830Y588928D01*
X391864Y588303D01*
X392859Y587616D01*
X393810Y586871D01*
X394715Y586069D01*
X395569Y585215D01*
X396371Y584310D01*
X397116Y583359D01*
X397803Y582364D01*
X398428Y581330D01*
X398990Y580259D01*
X399486Y579157D01*
X399915Y578027D01*
X400274Y576873D01*
X400563Y575700D01*
X400781Y574511D01*
X400927Y573311D01*
X401000Y572104D01*
X401000Y570896D01*
X338700Y571129D02*
X338635Y570389D01*
X338506Y569659D01*
X338314Y568942D01*
X338060Y568244D01*
X337747Y567571D01*
X337376Y566929D01*
X336950Y566321D01*
X336473Y565752D01*
X335948Y565227D01*
X335379Y564750D01*
X334771Y564324D01*
X334129Y563953D01*
X333456Y563640D01*
X332758Y563386D01*
X332042Y563194D01*
X331311Y563065D01*
X330571Y563000D01*
X329829Y563000D01*
X329089Y563065D01*
X328359Y563194D01*
X327642Y563386D01*
X326944Y563640D01*
X326271Y563953D01*
X325629Y564324D01*
X325021Y564750D01*
X324452Y565227D01*
X323927Y565752D01*
X323450Y566321D01*
X323024Y566929D01*
X322653Y567571D01*
X322340Y568244D01*
X322086Y568942D01*
X321894Y569659D01*
X321765Y570389D01*
X321700Y571129D01*
X321700Y571871D01*
X321765Y572611D01*
X321894Y573342D01*
X322086Y574058D01*
X322340Y574756D01*
X322653Y575429D01*
X323024Y576071D01*
X323450Y576679D01*
X323927Y577248D01*
X324452Y577773D01*
X325021Y578250D01*
X325629Y578676D01*
X326271Y579047D01*
X326944Y579360D01*
X327642Y579614D01*
X328359Y579806D01*
X329089Y579935D01*
X329829Y580000D01*
X330571Y580000D01*
X331311Y579935D01*
X332042Y579806D01*
X332758Y579614D01*
X333456Y579360D01*
X334129Y579047D01*
X334771Y578676D01*
X335379Y578250D01*
X335948Y577773D01*
X336473Y577248D01*
X336950Y576679D01*
X337376Y576071D01*
X337747Y575429D01*
X338060Y574756D01*
X338314Y574058D01*
X338506Y573342D01*
X338635Y572611D01*
X338700Y571871D01*
X338700Y571129D01*
X440300Y571129D02*
X440235Y570389D01*
X440106Y569659D01*
X439914Y568942D01*
X439660Y568244D01*
X439347Y567571D01*
X438976Y566929D01*
X438550Y566321D01*
X438073Y565752D01*
X437548Y565227D01*
X436979Y564750D01*
X436371Y564324D01*
X435729Y563953D01*
X435056Y563640D01*
X434358Y563386D01*
X433642Y563194D01*
X432911Y563065D01*
X432171Y563000D01*
X431429Y563000D01*
X430689Y563065D01*
X429959Y563194D01*
X429242Y563386D01*
X428544Y563640D01*
X427871Y563953D01*
X427229Y564324D01*
X426621Y564750D01*
X426052Y565227D01*
X425527Y565752D01*
X425050Y566321D01*
X424624Y566929D01*
X424253Y567571D01*
X423940Y568244D01*
X423686Y568942D01*
X423494Y569659D01*
X423365Y570389D01*
X423300Y571129D01*
X423300Y571871D01*
X423365Y572611D01*
X423494Y573342D01*
X423686Y574058D01*
X423940Y574756D01*
X424253Y575429D01*
X424624Y576071D01*
X425050Y576679D01*
X425527Y577248D01*
X426052Y577773D01*
X426621Y578250D01*
X427229Y578676D01*
X427871Y579047D01*
X428544Y579360D01*
X429242Y579614D01*
X429959Y579806D01*
X430689Y579935D01*
X431429Y580000D01*
X432171Y580000D01*
X432911Y579935D01*
X433642Y579806D01*
X434358Y579614D01*
X435056Y579360D01*
X435729Y579047D01*
X436371Y578676D01*
X436979Y578250D01*
X437548Y577773D01*
X438073Y577248D01*
X438550Y576679D01*
X438976Y576071D01*
X439347Y575429D01*
X439660Y574756D01*
X439914Y574058D01*
X440106Y573342D01*
X440235Y572611D01*
X440300Y571871D01*
X440300Y571129D01*
X401000Y380396D02*
X400927Y379189D01*
X400781Y377989D01*
X400563Y376800D01*
X400274Y375627D01*
X399915Y374473D01*
X399486Y373343D01*
X398990Y372241D01*
X398428Y371170D01*
X397803Y370136D01*
X397116Y369141D01*
X396371Y368190D01*
X395569Y367285D01*
X394715Y366431D01*
X393810Y365629D01*
X392859Y364884D01*
X391864Y364197D01*
X390830Y363572D01*
X389759Y363010D01*
X388657Y362514D01*
X387527Y362085D01*
X386373Y361726D01*
X385200Y361437D01*
X384011Y361219D01*
X382811Y361073D01*
X381604Y361000D01*
X380396Y361000D01*
X379189Y361073D01*
X377989Y361219D01*
X376800Y361437D01*
X375627Y361726D01*
X374473Y362085D01*
X373343Y362514D01*
X372241Y363010D01*
X371170Y363572D01*
X370136Y364197D01*
X369141Y364884D01*
X368190Y365629D01*
X367285Y366431D01*
X366431Y367285D01*
X365629Y368190D01*
X364884Y369141D01*
X364197Y370136D01*
X363572Y371170D01*
X363010Y372241D01*
X362514Y373343D01*
X362085Y374473D01*
X361726Y375627D01*
X361437Y376800D01*
X361219Y377989D01*
X361073Y379189D01*
X361000Y380396D01*
X361000Y381604D01*
X361073Y382811D01*
X361219Y384011D01*
X361437Y385200D01*
X361726Y386373D01*
X362085Y387527D01*
X362514Y388657D01*
X363010Y389759D01*
X363572Y390830D01*
X364197Y391864D01*
X364884Y392859D01*
X365629Y393810D01*
X366431Y394715D01*
X367285Y395569D01*
X368190Y396371D01*
X369141Y397116D01*
X370136Y397803D01*
X371170Y398428D01*
X372241Y398990D01*
X373343Y399486D01*
X374473Y399915D01*
X375627Y400274D01*
X376800Y400563D01*
X377989Y400781D01*
X379189Y400927D01*
X380396Y401000D01*
X381604Y401000D01*
X382811Y400927D01*
X384011Y400781D01*
X385200Y400563D01*
X386373Y400274D01*
X387527Y399915D01*
X388657Y399486D01*
X389759Y398990D01*
X390830Y398428D01*
X391864Y397803D01*
X392859Y397116D01*
X393810Y396371D01*
X394715Y395569D01*
X395569Y394715D01*
X396371Y393810D01*
X397116Y392859D01*
X397803Y391864D01*
X398428Y390830D01*
X398990Y389759D01*
X399486Y388657D01*
X399915Y387527D01*
X400274Y386373D01*
X400563Y385200D01*
X400781Y384011D01*
X400927Y382811D01*
X401000Y381604D01*
X401000Y380396D01*
X338700Y380629D02*
X338635Y379889D01*
X338506Y379159D01*
X338314Y378442D01*
X338060Y377744D01*
X337747Y377071D01*
X337376Y376429D01*
X336950Y375821D01*
X336473Y375252D01*
X335948Y374727D01*
X335379Y374250D01*
X334771Y373824D01*
X334129Y373453D01*
X333456Y373140D01*
X332758Y372886D01*
X332042Y372694D01*
X331311Y372565D01*
X330571Y372500D01*
X329829Y372500D01*
X329089Y372565D01*
X328359Y372694D01*
X327642Y372886D01*
X326944Y373140D01*
X326271Y373453D01*
X325629Y373824D01*
X325021Y374250D01*
X324452Y374727D01*
X323927Y375252D01*
X323450Y375821D01*
X323024Y376429D01*
X322653Y377071D01*
X322340Y377744D01*
X322086Y378442D01*
X321894Y379159D01*
X321765Y379889D01*
X321700Y380629D01*
X321700Y381371D01*
X321765Y382111D01*
X321894Y382842D01*
X322086Y383558D01*
X322340Y384256D01*
X322653Y384929D01*
X323024Y385571D01*
X323450Y386179D01*
X323927Y386748D01*
X324452Y387273D01*
X325021Y387750D01*
X325629Y388176D01*
X326271Y388547D01*
X326944Y388860D01*
X327642Y389114D01*
X328359Y389306D01*
X329089Y389435D01*
X329829Y389500D01*
X330571Y389500D01*
X331311Y389435D01*
X332042Y389306D01*
X332758Y389114D01*
X333456Y388860D01*
X334129Y388547D01*
X334771Y388176D01*
X335379Y387750D01*
X335948Y387273D01*
X336473Y386748D01*
X336950Y386179D01*
X337376Y385571D01*
X337747Y384929D01*
X338060Y384256D01*
X338314Y383558D01*
X338506Y382842D01*
X338635Y382111D01*
X338700Y381371D01*
X338700Y380629D01*
X440300Y380629D02*
X440235Y379889D01*
X440106Y379159D01*
X439914Y378442D01*
X439660Y377744D01*
X439347Y377071D01*
X438976Y376429D01*
X438550Y375821D01*
X438073Y375252D01*
X437548Y374727D01*
X436979Y374250D01*
X436371Y373824D01*
X435729Y373453D01*
X435056Y373140D01*
X434358Y372886D01*
X433642Y372694D01*
X432911Y372565D01*
X432171Y372500D01*
X431429Y372500D01*
X430689Y372565D01*
X429959Y372694D01*
X429242Y372886D01*
X428544Y373140D01*
X427871Y373453D01*
X427229Y373824D01*
X426621Y374250D01*
X426052Y374727D01*
X425527Y375252D01*
X425050Y375821D01*
X424624Y376429D01*
X424253Y377071D01*
X423940Y377744D01*
X423686Y378442D01*
X423494Y379159D01*
X423365Y379889D01*
X423300Y380629D01*
X423300Y381371D01*
X423365Y382111D01*
X423494Y382842D01*
X423686Y383558D01*
X423940Y384256D01*
X424253Y384929D01*
X424624Y385571D01*
X425050Y386179D01*
X425527Y386748D01*
X426052Y387273D01*
X426621Y387750D01*
X427229Y388176D01*
X427871Y388547D01*
X428544Y388860D01*
X429242Y389114D01*
X429959Y389306D01*
X430689Y389435D01*
X431429Y389500D01*
X432171Y389500D01*
X432911Y389435D01*
X433642Y389306D01*
X434358Y389114D01*
X435056Y388860D01*
X435729Y388547D01*
X436371Y388176D01*
X436979Y387750D01*
X437548Y387273D01*
X438073Y386748D01*
X438550Y386179D01*
X438976Y385571D01*
X439347Y384929D01*
X439660Y384256D01*
X439914Y383558D01*
X440106Y382842D01*
X440235Y382111D01*
X440300Y381371D01*
X440300Y380629D01*
X401000Y189896D02*
X400927Y188689D01*
X400781Y187489D01*
X400563Y186300D01*
X400274Y185127D01*
X399915Y183973D01*
X399486Y182843D01*
X398990Y181741D01*
X398428Y180670D01*
X397803Y179636D01*
X397116Y178641D01*
X396371Y177690D01*
X395569Y176785D01*
X394715Y175931D01*
X393810Y175129D01*
X392859Y174384D01*
X391864Y173697D01*
X390830Y173072D01*
X389759Y172510D01*
X388657Y172014D01*
X387527Y171585D01*
X386373Y171226D01*
X385200Y170937D01*
X384011Y170719D01*
X382811Y170573D01*
X381604Y170500D01*
X380396Y170500D01*
X379189Y170573D01*
X377989Y170719D01*
X376800Y170937D01*
X375627Y171226D01*
X374473Y171585D01*
X373343Y172014D01*
X372241Y172510D01*
X371170Y173072D01*
X370136Y173697D01*
X369141Y174384D01*
X368190Y175129D01*
X367285Y175931D01*
X366431Y176785D01*
X365629Y177690D01*
X364884Y178641D01*
X364197Y179636D01*
X363572Y180670D01*
X363010Y181741D01*
X362514Y182843D01*
X362085Y183973D01*
X361726Y185127D01*
X361437Y186300D01*
X361219Y187489D01*
X361073Y188689D01*
X361000Y189896D01*
X361000Y191104D01*
X361073Y192311D01*
X361219Y193511D01*
X361437Y194700D01*
X361726Y195873D01*
X362085Y197027D01*
X362514Y198157D01*
X363010Y199259D01*
X363572Y200330D01*
X364197Y201364D01*
X364884Y202359D01*
X365629Y203310D01*
X366431Y204215D01*
X367285Y205069D01*
X368190Y205871D01*
X369141Y206616D01*
X370136Y207303D01*
X371170Y207928D01*
X372241Y208490D01*
X373343Y208986D01*
X374473Y209415D01*
X375627Y209774D01*
X376800Y210063D01*
X377989Y210281D01*
X379189Y210427D01*
X380396Y210500D01*
X381604Y210500D01*
X382811Y210427D01*
X384011Y210281D01*
X385200Y210063D01*
X386373Y209774D01*
X387527Y209415D01*
X388657Y208986D01*
X389759Y208490D01*
X390830Y207928D01*
X391864Y207303D01*
X392859Y206616D01*
X393810Y205871D01*
X394715Y205069D01*
X395569Y204215D01*
X396371Y203310D01*
X397116Y202359D01*
X397803Y201364D01*
X398428Y200330D01*
X398990Y199259D01*
X399486Y198157D01*
X399915Y197027D01*
X400274Y195873D01*
X400563Y194700D01*
X400781Y193511D01*
X400927Y192311D01*
X401000Y191104D01*
X401000Y189896D01*
X338700Y190129D02*
X338635Y189389D01*
X338506Y188659D01*
X338314Y187942D01*
X338060Y187244D01*
X337747Y186571D01*
X337376Y185929D01*
X336950Y185321D01*
X336473Y184752D01*
X335948Y184227D01*
X335379Y183750D01*
X334771Y183324D01*
X334129Y182953D01*
X333456Y182640D01*
X332758Y182386D01*
X332042Y182194D01*
X331311Y182065D01*
X330571Y182000D01*
X329829Y182000D01*
X329089Y182065D01*
X328359Y182194D01*
X327642Y182386D01*
X326944Y182640D01*
X326271Y182953D01*
X325629Y183324D01*
X325021Y183750D01*
X324452Y184227D01*
X323927Y184752D01*
X323450Y185321D01*
X323024Y185929D01*
X322653Y186571D01*
X322340Y187244D01*
X322086Y187942D01*
X321894Y188659D01*
X321765Y189389D01*
X321700Y190129D01*
X321700Y190871D01*
X321765Y191611D01*
X321894Y192342D01*
X322086Y193058D01*
X322340Y193756D01*
X322653Y194429D01*
X323024Y195071D01*
X323450Y195679D01*
X323927Y196248D01*
X324452Y196773D01*
X325021Y197250D01*
X325629Y197676D01*
X326271Y198047D01*
X326944Y198360D01*
X327642Y198614D01*
X328359Y198806D01*
X329089Y198935D01*
X329829Y199000D01*
X330571Y199000D01*
X331311Y198935D01*
X332042Y198806D01*
X332758Y198614D01*
X333456Y198360D01*
X334129Y198047D01*
X334771Y197676D01*
X335379Y197250D01*
X335948Y196773D01*
X336473Y196248D01*
X336950Y195679D01*
X337376Y195071D01*
X337747Y194429D01*
X338060Y193756D01*
X338314Y193058D01*
X338506Y192342D01*
X338635Y191611D01*
X338700Y190871D01*
X338700Y190129D01*
X440300Y190129D02*
X440235Y189389D01*
X440106Y188659D01*
X439914Y187942D01*
X439660Y187244D01*
X439347Y186571D01*
X438976Y185929D01*
X438550Y185321D01*
X438073Y184752D01*
X437548Y184227D01*
X436979Y183750D01*
X436371Y183324D01*
X435729Y182953D01*
X435056Y182640D01*
X434358Y182386D01*
X433642Y182194D01*
X432911Y182065D01*
X432171Y182000D01*
X431429Y182000D01*
X430689Y182065D01*
X429959Y182194D01*
X429242Y182386D01*
X428544Y182640D01*
X427871Y182953D01*
X427229Y183324D01*
X426621Y183750D01*
X426052Y184227D01*
X425527Y184752D01*
X425050Y185321D01*
X424624Y185929D01*
X424253Y186571D01*
X423940Y187244D01*
X423686Y187942D01*
X423494Y188659D01*
X423365Y189389D01*
X423300Y190129D01*
X423300Y190871D01*
X423365Y191611D01*
X423494Y192342D01*
X423686Y193058D01*
X423940Y193756D01*
X424253Y194429D01*
X424624Y195071D01*
X425050Y195679D01*
X425527Y196248D01*
X426052Y196773D01*
X426621Y197250D01*
X427229Y197676D01*
X427871Y198047D01*
X428544Y198360D01*
X429242Y198614D01*
X429959Y198806D01*
X430689Y198935D01*
X431429Y199000D01*
X432171Y199000D01*
X432911Y198935D01*
X433642Y198806D01*
X434358Y198614D01*
X435056Y198360D01*
X435729Y198047D01*
X436371Y197676D01*
X436979Y197250D01*
X437548Y196773D01*
X438073Y196248D01*
X438550Y195679D01*
X438976Y195071D01*
X439347Y194429D01*
X439660Y193756D01*
X439914Y193058D01*
X440106Y192342D01*
X440235Y191611D01*
X440300Y190871D01*
X440300Y190129D01*
X591500Y761396D02*
X591427Y760189D01*
X591281Y758989D01*
X591063Y757800D01*
X590774Y756627D01*
X590415Y755473D01*
X589986Y754343D01*
X589490Y753241D01*
X588928Y752170D01*
X588303Y751136D01*
X587616Y750141D01*
X586871Y749190D01*
X586069Y748285D01*
X585215Y747431D01*
X584310Y746629D01*
X583359Y745884D01*
X582364Y745197D01*
X581330Y744572D01*
X580259Y744010D01*
X579157Y743514D01*
X578027Y743085D01*
X576873Y742726D01*
X575700Y742437D01*
X574511Y742219D01*
X573311Y742073D01*
X572104Y742000D01*
X570896Y742000D01*
X569689Y742073D01*
X568489Y742219D01*
X567300Y742437D01*
X566127Y742726D01*
X564973Y743085D01*
X563843Y743514D01*
X562741Y744010D01*
X561670Y744572D01*
X560636Y745197D01*
X559641Y745884D01*
X558690Y746629D01*
X557785Y747431D01*
X556931Y748285D01*
X556129Y749190D01*
X555384Y750141D01*
X554697Y751136D01*
X554072Y752170D01*
X553510Y753241D01*
X553014Y754343D01*
X552585Y755473D01*
X552226Y756627D01*
X551937Y757800D01*
X551719Y758989D01*
X551573Y760189D01*
X551500Y761396D01*
X551500Y762604D01*
X551573Y763811D01*
X551719Y765011D01*
X551937Y766200D01*
X552226Y767373D01*
X552585Y768527D01*
X553014Y769657D01*
X553510Y770759D01*
X554072Y771830D01*
X554697Y772864D01*
X555384Y773859D01*
X556129Y774810D01*
X556931Y775715D01*
X557785Y776569D01*
X558690Y777371D01*
X559641Y778116D01*
X560636Y778803D01*
X561670Y779428D01*
X562741Y779990D01*
X563843Y780486D01*
X564973Y780915D01*
X566127Y781274D01*
X567300Y781563D01*
X568489Y781781D01*
X569689Y781927D01*
X570896Y782000D01*
X572104Y782000D01*
X573311Y781927D01*
X574511Y781781D01*
X575700Y781563D01*
X576873Y781274D01*
X578027Y780915D01*
X579157Y780486D01*
X580259Y779990D01*
X581330Y779428D01*
X582364Y778803D01*
X583359Y778116D01*
X584310Y777371D01*
X585215Y776569D01*
X586069Y775715D01*
X586871Y774810D01*
X587616Y773859D01*
X588303Y772864D01*
X588928Y771830D01*
X589490Y770759D01*
X589986Y769657D01*
X590415Y768527D01*
X590774Y767373D01*
X591063Y766200D01*
X591281Y765011D01*
X591427Y763811D01*
X591500Y762604D01*
X591500Y761396D01*
X529200Y761629D02*
X529135Y760889D01*
X529006Y760159D01*
X528814Y759442D01*
X528560Y758744D01*
X528247Y758071D01*
X527876Y757429D01*
X527450Y756821D01*
X526973Y756252D01*
X526448Y755727D01*
X525879Y755250D01*
X525271Y754824D01*
X524629Y754453D01*
X523956Y754140D01*
X523258Y753886D01*
X522542Y753694D01*
X521811Y753565D01*
X521071Y753500D01*
X520329Y753500D01*
X519589Y753565D01*
X518859Y753694D01*
X518142Y753886D01*
X517444Y754140D01*
X516771Y754453D01*
X516129Y754824D01*
X515521Y755250D01*
X514952Y755727D01*
X514427Y756252D01*
X513950Y756821D01*
X513524Y757429D01*
X513153Y758071D01*
X512840Y758744D01*
X512586Y759442D01*
X512394Y760159D01*
X512265Y760889D01*
X512200Y761629D01*
X512200Y762371D01*
X512265Y763111D01*
X512394Y763842D01*
X512586Y764558D01*
X512840Y765256D01*
X513153Y765929D01*
X513524Y766571D01*
X513950Y767179D01*
X514427Y767748D01*
X514952Y768273D01*
X515521Y768750D01*
X516129Y769176D01*
X516771Y769547D01*
X517444Y769860D01*
X518142Y770114D01*
X518859Y770306D01*
X519589Y770435D01*
X520329Y770500D01*
X521071Y770500D01*
X521811Y770435D01*
X522542Y770306D01*
X523258Y770114D01*
X523956Y769860D01*
X524629Y769547D01*
X525271Y769176D01*
X525879Y768750D01*
X526448Y768273D01*
X526973Y767748D01*
X527450Y767179D01*
X527876Y766571D01*
X528247Y765929D01*
X528560Y765256D01*
X528814Y764558D01*
X529006Y763842D01*
X529135Y763111D01*
X529200Y762371D01*
X529200Y761629D01*
X630800Y761629D02*
X630735Y760889D01*
X630606Y760159D01*
X630414Y759442D01*
X630160Y758744D01*
X629847Y758071D01*
X629476Y757429D01*
X629050Y756821D01*
X628573Y756252D01*
X628048Y755727D01*
X627479Y755250D01*
X626871Y754824D01*
X626229Y754453D01*
X625556Y754140D01*
X624858Y753886D01*
X624142Y753694D01*
X623411Y753565D01*
X622671Y753500D01*
X621929Y753500D01*
X621189Y753565D01*
X620459Y753694D01*
X619742Y753886D01*
X619044Y754140D01*
X618371Y754453D01*
X617729Y754824D01*
X617121Y755250D01*
X616552Y755727D01*
X616027Y756252D01*
X615550Y756821D01*
X615124Y757429D01*
X614753Y758071D01*
X614440Y758744D01*
X614186Y759442D01*
X613994Y760159D01*
X613865Y760889D01*
X613800Y761629D01*
X613800Y762371D01*
X613865Y763111D01*
X613994Y763842D01*
X614186Y764558D01*
X614440Y765256D01*
X614753Y765929D01*
X615124Y766571D01*
X615550Y767179D01*
X616027Y767748D01*
X616552Y768273D01*
X617121Y768750D01*
X617729Y769176D01*
X618371Y769547D01*
X619044Y769860D01*
X619742Y770114D01*
X620459Y770306D01*
X621189Y770435D01*
X621929Y770500D01*
X622671Y770500D01*
X623411Y770435D01*
X624142Y770306D01*
X624858Y770114D01*
X625556Y769860D01*
X626229Y769547D01*
X626871Y769176D01*
X627479Y768750D01*
X628048Y768273D01*
X628573Y767748D01*
X629050Y767179D01*
X629476Y766571D01*
X629847Y765929D01*
X630160Y765256D01*
X630414Y764558D01*
X630606Y763842D01*
X630735Y763111D01*
X630800Y762371D01*
X630800Y761629D01*
X591500Y570896D02*
X591427Y569689D01*
X591281Y568489D01*
X591063Y567300D01*
X590774Y566127D01*
X590415Y564973D01*
X589986Y563843D01*
X589490Y562741D01*
X588928Y561670D01*
X588303Y560636D01*
X587616Y559641D01*
X586871Y558690D01*
X586069Y557785D01*
X585215Y556931D01*
X584310Y556129D01*
X583359Y555384D01*
X582364Y554697D01*
X581330Y554072D01*
X580259Y553510D01*
X579157Y553014D01*
X578027Y552585D01*
X576873Y552226D01*
X575700Y551937D01*
X574511Y551719D01*
X573311Y551573D01*
X572104Y551500D01*
X570896Y551500D01*
X569689Y551573D01*
X568489Y551719D01*
X567300Y551937D01*
X566127Y552226D01*
X564973Y552585D01*
X563843Y553014D01*
X562741Y553510D01*
X561670Y554072D01*
X560636Y554697D01*
X559641Y555384D01*
X558690Y556129D01*
X557785Y556931D01*
X556931Y557785D01*
X556129Y558690D01*
X555384Y559641D01*
X554697Y560636D01*
X554072Y561670D01*
X553510Y562741D01*
X553014Y563843D01*
X552585Y564973D01*
X552226Y566127D01*
X551937Y567300D01*
X551719Y568489D01*
X551573Y569689D01*
X551500Y570896D01*
X551500Y572104D01*
X551573Y573311D01*
X551719Y574511D01*
X551937Y575700D01*
X552226Y576873D01*
X552585Y578027D01*
X553014Y579157D01*
X553510Y580259D01*
X554072Y581330D01*
X554697Y582364D01*
X555384Y583359D01*
X556129Y584310D01*
X556931Y585215D01*
X557785Y586069D01*
X558690Y586871D01*
X559641Y587616D01*
X560636Y588303D01*
X561670Y588928D01*
X562741Y589490D01*
X563843Y589986D01*
X564973Y590415D01*
X566127Y590774D01*
X567300Y591063D01*
X568489Y591281D01*
X569689Y591427D01*
X570896Y591500D01*
X572104Y591500D01*
X573311Y591427D01*
X574511Y591281D01*
X575700Y591063D01*
X576873Y590774D01*
X578027Y590415D01*
X579157Y589986D01*
X580259Y589490D01*
X581330Y588928D01*
X582364Y588303D01*
X583359Y587616D01*
X584310Y586871D01*
X585215Y586069D01*
X586069Y585215D01*
X586871Y584310D01*
X587616Y583359D01*
X588303Y582364D01*
X588928Y581330D01*
X589490Y580259D01*
X589986Y579157D01*
X590415Y578027D01*
X590774Y576873D01*
X591063Y575700D01*
X591281Y574511D01*
X591427Y573311D01*
X591500Y572104D01*
X591500Y570896D01*
X529200Y571129D02*
X529135Y570389D01*
X529006Y569659D01*
X528814Y568942D01*
X528560Y568244D01*
X528247Y567571D01*
X527876Y566929D01*
X527450Y566321D01*
X526973Y565752D01*
X526448Y565227D01*
X525879Y564750D01*
X525271Y564324D01*
X524629Y563953D01*
X523956Y563640D01*
X523258Y563386D01*
X522542Y563194D01*
X521811Y563065D01*
X521071Y563000D01*
X520329Y563000D01*
X519589Y563065D01*
X518859Y563194D01*
X518142Y563386D01*
X517444Y563640D01*
X516771Y563953D01*
X516129Y564324D01*
X515521Y564750D01*
X514952Y565227D01*
X514427Y565752D01*
X513950Y566321D01*
X513524Y566929D01*
X513153Y567571D01*
X512840Y568244D01*
X512586Y568942D01*
X512394Y569659D01*
X512265Y570389D01*
X512200Y571129D01*
X512200Y571871D01*
X512265Y572611D01*
X512394Y573342D01*
X512586Y574058D01*
X512840Y574756D01*
X513153Y575429D01*
X513524Y576071D01*
X513950Y576679D01*
X514427Y577248D01*
X514952Y577773D01*
X515521Y578250D01*
X516129Y578676D01*
X516771Y579047D01*
X517444Y579360D01*
X518142Y579614D01*
X518859Y579806D01*
X519589Y579935D01*
X520329Y580000D01*
X521071Y580000D01*
X521811Y579935D01*
X522542Y579806D01*
X523258Y579614D01*
X523956Y579360D01*
X524629Y579047D01*
X525271Y578676D01*
X525879Y578250D01*
X526448Y577773D01*
X526973Y577248D01*
X527450Y576679D01*
X527876Y576071D01*
X528247Y575429D01*
X528560Y574756D01*
X528814Y574058D01*
X529006Y573342D01*
X529135Y572611D01*
X529200Y571871D01*
X529200Y571129D01*
X630800Y571129D02*
X630735Y570389D01*
X630606Y569659D01*
X630414Y568942D01*
X630160Y568244D01*
X629847Y567571D01*
X629476Y566929D01*
X629050Y566321D01*
X628573Y565752D01*
X628048Y565227D01*
X627479Y564750D01*
X626871Y564324D01*
X626229Y563953D01*
X625556Y563640D01*
X624858Y563386D01*
X624142Y563194D01*
X623411Y563065D01*
X622671Y563000D01*
X621929Y563000D01*
X621189Y563065D01*
X620459Y563194D01*
X619742Y563386D01*
X619044Y563640D01*
X618371Y563953D01*
X617729Y564324D01*
X617121Y564750D01*
X616552Y565227D01*
X616027Y565752D01*
X615550Y566321D01*
X615124Y566929D01*
X614753Y567571D01*
X614440Y568244D01*
X614186Y568942D01*
X613994Y569659D01*
X613865Y570389D01*
X613800Y571129D01*
X613800Y571871D01*
X613865Y572611D01*
X613994Y573342D01*
X614186Y574058D01*
X614440Y574756D01*
X614753Y575429D01*
X615124Y576071D01*
X615550Y576679D01*
X616027Y577248D01*
X616552Y577773D01*
X617121Y578250D01*
X617729Y578676D01*
X618371Y579047D01*
X619044Y579360D01*
X619742Y579614D01*
X620459Y579806D01*
X621189Y579935D01*
X621929Y580000D01*
X622671Y580000D01*
X623411Y579935D01*
X624142Y579806D01*
X624858Y579614D01*
X625556Y579360D01*
X626229Y579047D01*
X626871Y578676D01*
X627479Y578250D01*
X628048Y577773D01*
X628573Y577248D01*
X629050Y576679D01*
X629476Y576071D01*
X629847Y575429D01*
X630160Y574756D01*
X630414Y574058D01*
X630606Y573342D01*
X630735Y572611D01*
X630800Y571871D01*
X630800Y571129D01*
X591500Y380396D02*
X591427Y379189D01*
X591281Y377989D01*
X591063Y376800D01*
X590774Y375627D01*
X590415Y374473D01*
X589986Y373343D01*
X589490Y372241D01*
X588928Y371170D01*
X588303Y370136D01*
X587616Y369141D01*
X586871Y368190D01*
X586069Y367285D01*
X585215Y366431D01*
X584310Y365629D01*
X583359Y364884D01*
X582364Y364197D01*
X581330Y363572D01*
X580259Y363010D01*
X579157Y362514D01*
X578027Y362085D01*
X576873Y361726D01*
X575700Y361437D01*
X574511Y361219D01*
X573311Y361073D01*
X572104Y361000D01*
X570896Y361000D01*
X569689Y361073D01*
X568489Y361219D01*
X567300Y361437D01*
X566127Y361726D01*
X564973Y362085D01*
X563843Y362514D01*
X562741Y363010D01*
X561670Y363572D01*
X560636Y364197D01*
X559641Y364884D01*
X558690Y365629D01*
X557785Y366431D01*
X556931Y367285D01*
X556129Y368190D01*
X555384Y369141D01*
X554697Y370136D01*
X554072Y371170D01*
X553510Y372241D01*
X553014Y373343D01*
X552585Y374473D01*
X552226Y375627D01*
X551937Y376800D01*
X551719Y377989D01*
X551573Y379189D01*
X551500Y380396D01*
X551500Y381604D01*
X551573Y382811D01*
X551719Y384011D01*
X551937Y385200D01*
X552226Y386373D01*
X552585Y387527D01*
X553014Y388657D01*
X553510Y389759D01*
X554072Y390830D01*
X554697Y391864D01*
X555384Y392859D01*
X556129Y393810D01*
X556931Y394715D01*
X557785Y395569D01*
X558690Y396371D01*
X559641Y397116D01*
X560636Y397803D01*
X561670Y398428D01*
X562741Y398990D01*
X563843Y399486D01*
X564973Y399915D01*
X566127Y400274D01*
X567300Y400563D01*
X568489Y400781D01*
X569689Y400927D01*
X570896Y401000D01*
X572104Y401000D01*
X573311Y400927D01*
X574511Y400781D01*
X575700Y400563D01*
X576873Y400274D01*
X578027Y399915D01*
X579157Y399486D01*
X580259Y398990D01*
X581330Y398428D01*
X582364Y397803D01*
X583359Y397116D01*
X584310Y396371D01*
X585215Y395569D01*
X586069Y394715D01*
X586871Y393810D01*
X587616Y392859D01*
X588303Y391864D01*
X588928Y390830D01*
X589490Y389759D01*
X589986Y388657D01*
X590415Y387527D01*
X590774Y386373D01*
X591063Y385200D01*
X591281Y384011D01*
X591427Y382811D01*
X591500Y381604D01*
X591500Y380396D01*
X529200Y380629D02*
X529135Y379889D01*
X529006Y379159D01*
X528814Y378442D01*
X528560Y377744D01*
X528247Y377071D01*
X527876Y376429D01*
X527450Y375821D01*
X526973Y375252D01*
X526448Y374727D01*
X525879Y374250D01*
X525271Y373824D01*
X524629Y373453D01*
X523956Y373140D01*
X523258Y372886D01*
X522542Y372694D01*
X521811Y372565D01*
X521071Y372500D01*
X520329Y372500D01*
X519589Y372565D01*
X518859Y372694D01*
X518142Y372886D01*
X517444Y373140D01*
X516771Y373453D01*
X516129Y373824D01*
X515521Y374250D01*
X514952Y374727D01*
X514427Y375252D01*
X513950Y375821D01*
X513524Y376429D01*
X513153Y377071D01*
X512840Y377744D01*
X512586Y378442D01*
X512394Y379159D01*
X512265Y379889D01*
X512200Y380629D01*
X512200Y381371D01*
X512265Y382111D01*
X512394Y382842D01*
X512586Y383558D01*
X512840Y384256D01*
X513153Y384929D01*
X513524Y385571D01*
X513950Y386179D01*
X514427Y386748D01*
X514952Y387273D01*
X515521Y387750D01*
X516129Y388176D01*
X516771Y388547D01*
X517444Y388860D01*
X518142Y389114D01*
X518859Y389306D01*
X519589Y389435D01*
X520329Y389500D01*
X521071Y389500D01*
X521811Y389435D01*
X522542Y389306D01*
X523258Y389114D01*
X523956Y388860D01*
X524629Y388547D01*
X525271Y388176D01*
X525879Y387750D01*
X526448Y387273D01*
X526973Y386748D01*
X527450Y386179D01*
X527876Y385571D01*
X528247Y384929D01*
X528560Y384256D01*
X528814Y383558D01*
X529006Y382842D01*
X529135Y382111D01*
X529200Y381371D01*
X529200Y380629D01*
X630800Y380629D02*
X630735Y379889D01*
X630606Y379159D01*
X630414Y378442D01*
X630160Y377744D01*
X629847Y377071D01*
X629476Y376429D01*
X629050Y375821D01*
X628573Y375252D01*
X628048Y374727D01*
X627479Y374250D01*
X626871Y373824D01*
X626229Y373453D01*
X625556Y373140D01*
X624858Y372886D01*
X624142Y372694D01*
X623411Y372565D01*
X622671Y372500D01*
X621929Y372500D01*
X621189Y372565D01*
X620459Y372694D01*
X619742Y372886D01*
X619044Y373140D01*
X618371Y373453D01*
X617729Y373824D01*
X617121Y374250D01*
X616552Y374727D01*
X616027Y375252D01*
X615550Y375821D01*
X615124Y376429D01*
X614753Y377071D01*
X614440Y377744D01*
X614186Y378442D01*
X613994Y379159D01*
X613865Y379889D01*
X613800Y380629D01*
X613800Y381371D01*
X613865Y382111D01*
X613994Y382842D01*
X614186Y383558D01*
X614440Y384256D01*
X614753Y384929D01*
X615124Y385571D01*
X615550Y386179D01*
X616027Y386748D01*
X616552Y387273D01*
X617121Y387750D01*
X617729Y388176D01*
X618371Y388547D01*
X619044Y388860D01*
X619742Y389114D01*
X620459Y389306D01*
X621189Y389435D01*
X621929Y389500D01*
X622671Y389500D01*
X623411Y389435D01*
X624142Y389306D01*
X624858Y389114D01*
X625556Y388860D01*
X626229Y388547D01*
X626871Y388176D01*
X627479Y387750D01*
X628048Y387273D01*
X628573Y386748D01*
X629050Y386179D01*
X629476Y385571D01*
X629847Y384929D01*
X630160Y384256D01*
X630414Y383558D01*
X630606Y382842D01*
X630735Y382111D01*
X630800Y381371D01*
X630800Y380629D01*
X591500Y189896D02*
X591427Y188689D01*
X591281Y187489D01*
X591063Y186300D01*
X590774Y185127D01*
X590415Y183973D01*
X589986Y182843D01*
X589490Y181741D01*
X588928Y180670D01*
X588303Y179636D01*
X587616Y178641D01*
X586871Y177690D01*
X586069Y176785D01*
X585215Y175931D01*
X584310Y175129D01*
X583359Y174384D01*
X582364Y173697D01*
X581330Y173072D01*
X580259Y172510D01*
X579157Y172014D01*
X578027Y171585D01*
X576873Y171226D01*
X575700Y170937D01*
X574511Y170719D01*
X573311Y170573D01*
X572104Y170500D01*
X570896Y170500D01*
X569689Y170573D01*
X568489Y170719D01*
X567300Y170937D01*
X566127Y171226D01*
X564973Y171585D01*
X563843Y172014D01*
X562741Y172510D01*
X561670Y173072D01*
X560636Y173697D01*
X559641Y174384D01*
X558690Y175129D01*
X557785Y175931D01*
X556931Y176785D01*
X556129Y177690D01*
X555384Y178641D01*
X554697Y179636D01*
X554072Y180670D01*
X553510Y181741D01*
X553014Y182843D01*
X552585Y183973D01*
X552226Y185127D01*
X551937Y186300D01*
X551719Y187489D01*
X551573Y188689D01*
X551500Y189896D01*
X551500Y191104D01*
X551573Y192311D01*
X551719Y193511D01*
X551937Y194700D01*
X552226Y195873D01*
X552585Y197027D01*
X553014Y198157D01*
X553510Y199259D01*
X554072Y200330D01*
X554697Y201364D01*
X555384Y202359D01*
X556129Y203310D01*
X556931Y204215D01*
X557785Y205069D01*
X558690Y205871D01*
X559641Y206616D01*
X560636Y207303D01*
X561670Y207928D01*
X562741Y208490D01*
X563843Y208986D01*
X564973Y209415D01*
X566127Y209774D01*
X567300Y210063D01*
X568489Y210281D01*
X569689Y210427D01*
X570896Y210500D01*
X572104Y210500D01*
X573311Y210427D01*
X574511Y210281D01*
X575700Y210063D01*
X576873Y209774D01*
X578027Y209415D01*
X579157Y208986D01*
X580259Y208490D01*
X581330Y207928D01*
X582364Y207303D01*
X583359Y206616D01*
X584310Y205871D01*
X585215Y205069D01*
X586069Y204215D01*
X586871Y203310D01*
X587616Y202359D01*
X588303Y201364D01*
X588928Y200330D01*
X589490Y199259D01*
X589986Y198157D01*
X590415Y197027D01*
X590774Y195873D01*
X591063Y194700D01*
X591281Y193511D01*
X591427Y192311D01*
X591500Y191104D01*
X591500Y189896D01*
X529200Y190129D02*
X529135Y189389D01*
X529006Y188659D01*
X528814Y187942D01*
X528560Y187244D01*
X528247Y186571D01*
X527876Y185929D01*
X527450Y185321D01*
X526973Y184752D01*
X526448Y184227D01*
X525879Y183750D01*
X525271Y183324D01*
X524629Y182953D01*
X523956Y182640D01*
X523258Y182386D01*
X522542Y182194D01*
X521811Y182065D01*
X521071Y182000D01*
X520329Y182000D01*
X519589Y182065D01*
X518859Y182194D01*
X518142Y182386D01*
X517444Y182640D01*
X516771Y182953D01*
X516129Y183324D01*
X515521Y183750D01*
X514952Y184227D01*
X514427Y184752D01*
X513950Y185321D01*
X513524Y185929D01*
X513153Y186571D01*
X512840Y187244D01*
X512586Y187942D01*
X512394Y188659D01*
X512265Y189389D01*
X512200Y190129D01*
X512200Y190871D01*
X512265Y191611D01*
X512394Y192342D01*
X512586Y193058D01*
X512840Y193756D01*
X513153Y194429D01*
X513524Y195071D01*
X513950Y195679D01*
X514427Y196248D01*
X514952Y196773D01*
X515521Y197250D01*
X516129Y197676D01*
X516771Y198047D01*
X517444Y198360D01*
X518142Y198614D01*
X518859Y198806D01*
X519589Y198935D01*
X520329Y199000D01*
X521071Y199000D01*
X521811Y198935D01*
X522542Y198806D01*
X523258Y198614D01*
X523956Y198360D01*
X524629Y198047D01*
X525271Y197676D01*
X525879Y197250D01*
X526448Y196773D01*
X526973Y196248D01*
X527450Y195679D01*
X527876Y195071D01*
X528247Y194429D01*
X528560Y193756D01*
X528814Y193058D01*
X529006Y192342D01*
X529135Y191611D01*
X529200Y190871D01*
X529200Y190129D01*
X630800Y190129D02*
X630735Y189389D01*
X630606Y188659D01*
X630414Y187942D01*
X630160Y187244D01*
X629847Y186571D01*
X629476Y185929D01*
X629050Y185321D01*
X628573Y184752D01*
X628048Y184227D01*
X627479Y183750D01*
X626871Y183324D01*
X626229Y182953D01*
X625556Y182640D01*
X624858Y182386D01*
X624142Y182194D01*
X623411Y182065D01*
X622671Y182000D01*
X621929Y182000D01*
X621189Y182065D01*
X620459Y182194D01*
X619742Y182386D01*
X619044Y182640D01*
X618371Y182953D01*
X617729Y183324D01*
X617121Y183750D01*
X616552Y184227D01*
X616027Y184752D01*
X615550Y185321D01*
X615124Y185929D01*
X614753Y186571D01*
X614440Y187244D01*
X614186Y187942D01*
X613994Y188659D01*
X613865Y189389D01*
X613800Y190129D01*
X613800Y190871D01*
X613865Y191611D01*
X613994Y192342D01*
X614186Y193058D01*
X614440Y193756D01*
X614753Y194429D01*
X615124Y195071D01*
X615550Y195679D01*
X616027Y196248D01*
X616552Y196773D01*
X617121Y197250D01*
X617729Y197676D01*
X618371Y198047D01*
X619044Y198360D01*
X619742Y198614D01*
X620459Y198806D01*
X621189Y198935D01*
X621929Y199000D01*
X622671Y199000D01*
X623411Y198935D01*
X624142Y198806D01*
X624858Y198614D01*
X625556Y198360D01*
X626229Y198047D01*
X626871Y197676D01*
X627479Y197250D01*
X628048Y196773D01*
X628573Y196248D01*
X629050Y195679D01*
X629476Y195071D01*
X629847Y194429D01*
X630160Y193756D01*
X630414Y193058D01*
X630606Y192342D01*
X630735Y191611D01*
X630800Y190871D01*
X630800Y190129D01*
X782000Y761396D02*
X781927Y760189D01*
X781781Y758989D01*
X781563Y757800D01*
X781274Y756627D01*
X780915Y755473D01*
X780486Y754343D01*
X779990Y753241D01*
X779428Y752170D01*
X778803Y751136D01*
X778116Y750141D01*
X777371Y749190D01*
X776569Y748285D01*
X775715Y747431D01*
X774810Y746629D01*
X773859Y745884D01*
X772864Y745197D01*
X771830Y744572D01*
X770759Y744010D01*
X769657Y743514D01*
X768527Y743085D01*
X767373Y742726D01*
X766200Y742437D01*
X765011Y742219D01*
X763811Y742073D01*
X762604Y742000D01*
X761396Y742000D01*
X760189Y742073D01*
X758989Y742219D01*
X757800Y742437D01*
X756627Y742726D01*
X755473Y743085D01*
X754343Y743514D01*
X753241Y744010D01*
X752170Y744572D01*
X751136Y745197D01*
X750141Y745884D01*
X749190Y746629D01*
X748285Y747431D01*
X747431Y748285D01*
X746629Y749190D01*
X745884Y750141D01*
X745197Y751136D01*
X744572Y752170D01*
X744010Y753241D01*
X743514Y754343D01*
X743085Y755473D01*
X742726Y756627D01*
X742437Y757800D01*
X742219Y758989D01*
X742073Y760189D01*
X742000Y761396D01*
X742000Y762604D01*
X742073Y763811D01*
X742219Y765011D01*
X742437Y766200D01*
X742726Y767373D01*
X743085Y768527D01*
X743514Y769657D01*
X744010Y770759D01*
X744572Y771830D01*
X745197Y772864D01*
X745884Y773859D01*
X746629Y774810D01*
X747431Y775715D01*
X748285Y776569D01*
X749190Y777371D01*
X750141Y778116D01*
X751136Y778803D01*
X752170Y779428D01*
X753241Y779990D01*
X754343Y780486D01*
X755473Y780915D01*
X756627Y781274D01*
X757800Y781563D01*
X758989Y781781D01*
X760189Y781927D01*
X761396Y782000D01*
X762604Y782000D01*
X763811Y781927D01*
X765011Y781781D01*
X766200Y781563D01*
X767373Y781274D01*
X768527Y780915D01*
X769657Y780486D01*
X770759Y779990D01*
X771830Y779428D01*
X772864Y778803D01*
X773859Y778116D01*
X774810Y777371D01*
X775715Y776569D01*
X776569Y775715D01*
X777371Y774810D01*
X778116Y773859D01*
X778803Y772864D01*
X779428Y771830D01*
X779990Y770759D01*
X780486Y769657D01*
X780915Y768527D01*
X781274Y767373D01*
X781563Y766200D01*
X781781Y765011D01*
X781927Y763811D01*
X782000Y762604D01*
X782000Y761396D01*
X719700Y761629D02*
X719635Y760889D01*
X719506Y760159D01*
X719314Y759442D01*
X719060Y758744D01*
X718747Y758071D01*
X718376Y757429D01*
X717950Y756821D01*
X717473Y756252D01*
X716948Y755727D01*
X716379Y755250D01*
X715771Y754824D01*
X715129Y754453D01*
X714456Y754140D01*
X713758Y753886D01*
X713042Y753694D01*
X712311Y753565D01*
X711571Y753500D01*
X710829Y753500D01*
X710089Y753565D01*
X709359Y753694D01*
X708642Y753886D01*
X707944Y754140D01*
X707271Y754453D01*
X706629Y754824D01*
X706021Y755250D01*
X705452Y755727D01*
X704927Y756252D01*
X704450Y756821D01*
X704024Y757429D01*
X703653Y758071D01*
X703340Y758744D01*
X703086Y759442D01*
X702894Y760159D01*
X702765Y760889D01*
X702700Y761629D01*
X702700Y762371D01*
X702765Y763111D01*
X702894Y763842D01*
X703086Y764558D01*
X703340Y765256D01*
X703653Y765929D01*
X704024Y766571D01*
X704450Y767179D01*
X704927Y767748D01*
X705452Y768273D01*
X706021Y768750D01*
X706629Y769176D01*
X707271Y769547D01*
X707944Y769860D01*
X708642Y770114D01*
X709359Y770306D01*
X710089Y770435D01*
X710829Y770500D01*
X711571Y770500D01*
X712311Y770435D01*
X713042Y770306D01*
X713758Y770114D01*
X714456Y769860D01*
X715129Y769547D01*
X715771Y769176D01*
X716379Y768750D01*
X716948Y768273D01*
X717473Y767748D01*
X717950Y767179D01*
X718376Y766571D01*
X718747Y765929D01*
X719060Y765256D01*
X719314Y764558D01*
X719506Y763842D01*
X719635Y763111D01*
X719700Y762371D01*
X719700Y761629D01*
X821300Y761629D02*
X821235Y760889D01*
X821106Y760159D01*
X820914Y759442D01*
X820660Y758744D01*
X820347Y758071D01*
X819976Y757429D01*
X819550Y756821D01*
X819073Y756252D01*
X818548Y755727D01*
X817979Y755250D01*
X817371Y754824D01*
X816729Y754453D01*
X816056Y754140D01*
X815358Y753886D01*
X814642Y753694D01*
X813911Y753565D01*
X813171Y753500D01*
X812429Y753500D01*
X811689Y753565D01*
X810959Y753694D01*
X810242Y753886D01*
X809544Y754140D01*
X808871Y754453D01*
X808229Y754824D01*
X807621Y755250D01*
X807052Y755727D01*
X806527Y756252D01*
X806050Y756821D01*
X805624Y757429D01*
X805253Y758071D01*
X804940Y758744D01*
X804686Y759442D01*
X804494Y760159D01*
X804365Y760889D01*
X804300Y761629D01*
X804300Y762371D01*
X804365Y763111D01*
X804494Y763842D01*
X804686Y764558D01*
X804940Y765256D01*
X805253Y765929D01*
X805624Y766571D01*
X806050Y767179D01*
X806527Y767748D01*
X807052Y768273D01*
X807621Y768750D01*
X808229Y769176D01*
X808871Y769547D01*
X809544Y769860D01*
X810242Y770114D01*
X810959Y770306D01*
X811689Y770435D01*
X812429Y770500D01*
X813171Y770500D01*
X813911Y770435D01*
X814642Y770306D01*
X815358Y770114D01*
X816056Y769860D01*
X816729Y769547D01*
X817371Y769176D01*
X817979Y768750D01*
X818548Y768273D01*
X819073Y767748D01*
X819550Y767179D01*
X819976Y766571D01*
X820347Y765929D01*
X820660Y765256D01*
X820914Y764558D01*
X821106Y763842D01*
X821235Y763111D01*
X821300Y762371D01*
X821300Y761629D01*
X782000Y570896D02*
X781927Y569689D01*
X781781Y568489D01*
X781563Y567300D01*
X781274Y566127D01*
X780915Y564973D01*
X780486Y563843D01*
X779990Y562741D01*
X779428Y561670D01*
X778803Y560636D01*
X778116Y559641D01*
X777371Y558690D01*
X776569Y557785D01*
X775715Y556931D01*
X774810Y556129D01*
X773859Y555384D01*
X772864Y554697D01*
X771830Y554072D01*
X770759Y553510D01*
X769657Y553014D01*
X768527Y552585D01*
X767373Y552226D01*
X766200Y551937D01*
X765011Y551719D01*
X763811Y551573D01*
X762604Y551500D01*
X761396Y551500D01*
X760189Y551573D01*
X758989Y551719D01*
X757800Y551937D01*
X756627Y552226D01*
X755473Y552585D01*
X754343Y553014D01*
X753241Y553510D01*
X752170Y554072D01*
X751136Y554697D01*
X750141Y555384D01*
X749190Y556129D01*
X748285Y556931D01*
X747431Y557785D01*
X746629Y558690D01*
X745884Y559641D01*
X745197Y560636D01*
X744572Y561670D01*
X744010Y562741D01*
X743514Y563843D01*
X743085Y564973D01*
X742726Y566127D01*
X742437Y567300D01*
X742219Y568489D01*
X742073Y569689D01*
X742000Y570896D01*
X742000Y572104D01*
X742073Y573311D01*
X742219Y574511D01*
X742437Y575700D01*
X742726Y576873D01*
X743085Y578027D01*
X743514Y579157D01*
X744010Y580259D01*
X744572Y581330D01*
X745197Y582364D01*
X745884Y583359D01*
X746629Y584310D01*
X747431Y585215D01*
X748285Y586069D01*
X749190Y586871D01*
X750141Y587616D01*
X751136Y588303D01*
X752170Y588928D01*
X753241Y589490D01*
X754343Y589986D01*
X755473Y590415D01*
X756627Y590774D01*
X757800Y591063D01*
X758989Y591281D01*
X760189Y591427D01*
X761396Y591500D01*
X762604Y591500D01*
X763811Y591427D01*
X765011Y591281D01*
X766200Y591063D01*
X767373Y590774D01*
X768527Y590415D01*
X769657Y589986D01*
X770759Y589490D01*
X771830Y588928D01*
X772864Y588303D01*
X773859Y587616D01*
X774810Y586871D01*
X775715Y586069D01*
X776569Y585215D01*
X777371Y584310D01*
X778116Y583359D01*
X778803Y582364D01*
X779428Y581330D01*
X779990Y580259D01*
X780486Y579157D01*
X780915Y578027D01*
X781274Y576873D01*
X781563Y575700D01*
X781781Y574511D01*
X781927Y573311D01*
X782000Y572104D01*
X782000Y570896D01*
X719700Y571129D02*
X719635Y570389D01*
X719506Y569659D01*
X719314Y568942D01*
X719060Y568244D01*
X718747Y567571D01*
X718376Y566929D01*
X717950Y566321D01*
X717473Y565752D01*
X716948Y565227D01*
X716379Y564750D01*
X715771Y564324D01*
X715129Y563953D01*
X714456Y563640D01*
X713758Y563386D01*
X713042Y563194D01*
X712311Y563065D01*
X711571Y563000D01*
X710829Y563000D01*
X710089Y563065D01*
X709359Y563194D01*
X708642Y563386D01*
X707944Y563640D01*
X707271Y563953D01*
X706629Y564324D01*
X706021Y564750D01*
X705452Y565227D01*
X704927Y565752D01*
X704450Y566321D01*
X704024Y566929D01*
X703653Y567571D01*
X703340Y568244D01*
X703086Y568942D01*
X702894Y569659D01*
X702765Y570389D01*
X702700Y571129D01*
X702700Y571871D01*
X702765Y572611D01*
X702894Y573342D01*
X703086Y574058D01*
X703340Y574756D01*
X703653Y575429D01*
X704024Y576071D01*
X704450Y576679D01*
X704927Y577248D01*
X705452Y577773D01*
X706021Y578250D01*
X706629Y578676D01*
X707271Y579047D01*
X707944Y579360D01*
X708642Y579614D01*
X709359Y579806D01*
X710089Y579935D01*
X710829Y580000D01*
X711571Y580000D01*
X712311Y579935D01*
X713042Y579806D01*
X713758Y579614D01*
X714456Y579360D01*
X715129Y579047D01*
X715771Y578676D01*
X716379Y578250D01*
X716948Y577773D01*
X717473Y577248D01*
X717950Y576679D01*
X718376Y576071D01*
X718747Y575429D01*
X719060Y574756D01*
X719314Y574058D01*
X719506Y573342D01*
X719635Y572611D01*
X719700Y571871D01*
X719700Y571129D01*
X821300Y571129D02*
X821235Y570389D01*
X821106Y569659D01*
X820914Y568942D01*
X820660Y568244D01*
X820347Y567571D01*
X819976Y566929D01*
X819550Y566321D01*
X819073Y565752D01*
X818548Y565227D01*
X817979Y564750D01*
X817371Y564324D01*
X816729Y563953D01*
X816056Y563640D01*
X815358Y563386D01*
X814642Y563194D01*
X813911Y563065D01*
X813171Y563000D01*
X812429Y563000D01*
X811689Y563065D01*
X810959Y563194D01*
X810242Y563386D01*
X809544Y563640D01*
X808871Y563953D01*
X808229Y564324D01*
X807621Y564750D01*
X807052Y565227D01*
X806527Y565752D01*
X806050Y566321D01*
X805624Y566929D01*
X805253Y567571D01*
X804940Y568244D01*
X804686Y568942D01*
X804494Y569659D01*
X804365Y570389D01*
X804300Y571129D01*
X804300Y571871D01*
X804365Y572611D01*
X804494Y573342D01*
X804686Y574058D01*
X804940Y574756D01*
X805253Y575429D01*
X805624Y576071D01*
X806050Y576679D01*
X806527Y577248D01*
X807052Y577773D01*
X807621Y578250D01*
X808229Y578676D01*
X808871Y579047D01*
X809544Y579360D01*
X810242Y579614D01*
X810959Y579806D01*
X811689Y579935D01*
X812429Y580000D01*
X813171Y580000D01*
X813911Y579935D01*
X814642Y579806D01*
X815358Y579614D01*
X816056Y579360D01*
X816729Y579047D01*
X817371Y578676D01*
X817979Y578250D01*
X818548Y577773D01*
X819073Y577248D01*
X819550Y576679D01*
X819976Y576071D01*
X820347Y575429D01*
X820660Y574756D01*
X820914Y574058D01*
X821106Y573342D01*
X821235Y572611D01*
X821300Y571871D01*
X821300Y571129D01*
X782000Y380396D02*
X781927Y379189D01*
X781781Y377989D01*
X781563Y376800D01*
X781274Y375627D01*
X780915Y374473D01*
X780486Y373343D01*
X779990Y372241D01*
X779428Y371170D01*
X778803Y370136D01*
X778116Y369141D01*
X777371Y368190D01*
X776569Y367285D01*
X775715Y366431D01*
X774810Y365629D01*
X773859Y364884D01*
X772864Y364197D01*
X771830Y363572D01*
X770759Y363010D01*
X769657Y362514D01*
X768527Y362085D01*
X767373Y361726D01*
X766200Y361437D01*
X765011Y361219D01*
X763811Y361073D01*
X762604Y361000D01*
X761396Y361000D01*
X760189Y361073D01*
X758989Y361219D01*
X757800Y361437D01*
X756627Y361726D01*
X755473Y362085D01*
X754343Y362514D01*
X753241Y363010D01*
X752170Y363572D01*
X751136Y364197D01*
X750141Y364884D01*
X749190Y365629D01*
X748285Y366431D01*
X747431Y367285D01*
X746629Y368190D01*
X745884Y369141D01*
X745197Y370136D01*
X744572Y371170D01*
X744010Y372241D01*
X743514Y373343D01*
X743085Y374473D01*
X742726Y375627D01*
X742437Y376800D01*
X742219Y377989D01*
X742073Y379189D01*
X742000Y380396D01*
X742000Y381604D01*
X742073Y382811D01*
X742219Y384011D01*
X742437Y385200D01*
X742726Y386373D01*
X743085Y387527D01*
X743514Y388657D01*
X744010Y389759D01*
X744572Y390830D01*
X745197Y391864D01*
X745884Y392859D01*
X746629Y393810D01*
X747431Y394715D01*
X748285Y395569D01*
X749190Y396371D01*
X750141Y397116D01*
X751136Y397803D01*
X752170Y398428D01*
X753241Y398990D01*
X754343Y399486D01*
X755473Y399915D01*
X756627Y400274D01*
X757800Y400563D01*
X758989Y400781D01*
X760189Y400927D01*
X761396Y401000D01*
X762604Y401000D01*
X763811Y400927D01*
X765011Y400781D01*
X766200Y400563D01*
X767373Y400274D01*
X768527Y399915D01*
X769657Y399486D01*
X770759Y398990D01*
X771830Y398428D01*
X772864Y397803D01*
X773859Y397116D01*
X774810Y396371D01*
X775715Y395569D01*
X776569Y394715D01*
X777371Y393810D01*
X778116Y392859D01*
X778803Y391864D01*
X779428Y390830D01*
X779990Y389759D01*
X780486Y388657D01*
X780915Y387527D01*
X781274Y386373D01*
X781563Y385200D01*
X781781Y384011D01*
X781927Y382811D01*
X782000Y381604D01*
X782000Y380396D01*
X719700Y380629D02*
X719635Y379889D01*
X719506Y379159D01*
X719314Y378442D01*
X719060Y377744D01*
X718747Y377071D01*
X718376Y376429D01*
X717950Y375821D01*
X717473Y375252D01*
X716948Y374727D01*
X716379Y374250D01*
X715771Y373824D01*
X715129Y373453D01*
X714456Y373140D01*
X713758Y372886D01*
X713042Y372694D01*
X712311Y372565D01*
X711571Y372500D01*
X710829Y372500D01*
X710089Y372565D01*
X709359Y372694D01*
X708642Y372886D01*
X707944Y373140D01*
X707271Y373453D01*
X706629Y373824D01*
X706021Y374250D01*
X705452Y374727D01*
X704927Y375252D01*
X704450Y375821D01*
X704024Y376429D01*
X703653Y377071D01*
X703340Y377744D01*
X703086Y378442D01*
X702894Y379159D01*
X702765Y379889D01*
X702700Y380629D01*
X702700Y381371D01*
X702765Y382111D01*
X702894Y382842D01*
X703086Y383558D01*
X703340Y384256D01*
X703653Y384929D01*
X704024Y385571D01*
X704450Y386179D01*
X704927Y386748D01*
X705452Y387273D01*
X706021Y387750D01*
X706629Y388176D01*
X707271Y388547D01*
X707944Y388860D01*
X708642Y389114D01*
X709359Y389306D01*
X710089Y389435D01*
X710829Y389500D01*
X711571Y389500D01*
X712311Y389435D01*
X713042Y389306D01*
X713758Y389114D01*
X714456Y388860D01*
X715129Y388547D01*
X715771Y388176D01*
X716379Y387750D01*
X716948Y387273D01*
X717473Y386748D01*
X717950Y386179D01*
X718376Y385571D01*
X718747Y384929D01*
X719060Y384256D01*
X719314Y383558D01*
X719506Y382842D01*
X719635Y382111D01*
X719700Y381371D01*
X719700Y380629D01*
X821300Y380629D02*
X821235Y379889D01*
X821106Y379159D01*
X820914Y378442D01*
X820660Y377744D01*
X820347Y377071D01*
X819976Y376429D01*
X819550Y375821D01*
X819073Y375252D01*
X818548Y374727D01*
X817979Y374250D01*
X817371Y373824D01*
X816729Y373453D01*
X816056Y373140D01*
X815358Y372886D01*
X814642Y372694D01*
X813911Y372565D01*
X813171Y372500D01*
X812429Y372500D01*
X811689Y372565D01*
X810959Y372694D01*
X810242Y372886D01*
X809544Y373140D01*
X808871Y373453D01*
X808229Y373824D01*
X807621Y374250D01*
X807052Y374727D01*
X806527Y375252D01*
X806050Y375821D01*
X805624Y376429D01*
X805253Y377071D01*
X804940Y377744D01*
X804686Y378442D01*
X804494Y379159D01*
X804365Y379889D01*
X804300Y380629D01*
X804300Y381371D01*
X804365Y382111D01*
X804494Y382842D01*
X804686Y383558D01*
X804940Y384256D01*
X805253Y384929D01*
X805624Y385571D01*
X806050Y386179D01*
X806527Y386748D01*
X807052Y387273D01*
X807621Y387750D01*
X808229Y388176D01*
X808871Y388547D01*
X809544Y388860D01*
X810242Y389114D01*
X810959Y389306D01*
X811689Y389435D01*
X812429Y389500D01*
X813171Y389500D01*
X813911Y389435D01*
X814642Y389306D01*
X815358Y389114D01*
X816056Y388860D01*
X816729Y388547D01*
X817371Y388176D01*
X817979Y387750D01*
X818548Y387273D01*
X819073Y386748D01*
X819550Y386179D01*
X819976Y385571D01*
X820347Y384929D01*
X820660Y384256D01*
X820914Y383558D01*
X821106Y382842D01*
X821235Y382111D01*
X821300Y381371D01*
X821300Y380629D01*
X782000Y189896D02*
X781927Y188689D01*
X781781Y187489D01*
X781563Y186300D01*
X781274Y185127D01*
X780915Y183973D01*
X780486Y182843D01*
X779990Y181741D01*
X779428Y180670D01*
X778803Y179636D01*
X778116Y178641D01*
X777371Y177690D01*
X776569Y176785D01*
X775715Y175931D01*
X774810Y175129D01*
X773859Y174384D01*
X772864Y173697D01*
X771830Y173072D01*
X770759Y172510D01*
X769657Y172014D01*
X768527Y171585D01*
X767373Y171226D01*
X766200Y170937D01*
X765011Y170719D01*
X763811Y170573D01*
X762604Y170500D01*
X761396Y170500D01*
X760189Y170573D01*
X758989Y170719D01*
X757800Y170937D01*
X756627Y171226D01*
X755473Y171585D01*
X754343Y172014D01*
X753241Y172510D01*
X752170Y173072D01*
X751136Y173697D01*
X750141Y174384D01*
X749190Y175129D01*
X748285Y175931D01*
X747431Y176785D01*
X746629Y177690D01*
X745884Y178641D01*
X745197Y179636D01*
X744572Y180670D01*
X744010Y181741D01*
X743514Y182843D01*
X743085Y183973D01*
X742726Y185127D01*
X742437Y186300D01*
X742219Y187489D01*
X742073Y188689D01*
X742000Y189896D01*
X742000Y191104D01*
X742073Y192311D01*
X742219Y193511D01*
X742437Y194700D01*
X742726Y195873D01*
X743085Y197027D01*
X743514Y198157D01*
X744010Y199259D01*
X744572Y200330D01*
X745197Y201364D01*
X745884Y202359D01*
X746629Y203310D01*
X747431Y204215D01*
X748285Y205069D01*
X749190Y205871D01*
X750141Y206616D01*
X751136Y207303D01*
X752170Y207928D01*
X753241Y208490D01*
X754343Y208986D01*
X755473Y209415D01*
X756627Y209774D01*
X757800Y210063D01*
X758989Y210281D01*
X760189Y210427D01*
X761396Y210500D01*
X762604Y210500D01*
X763811Y210427D01*
X765011Y210281D01*
X766200Y210063D01*
X767373Y209774D01*
X768527Y209415D01*
X769657Y208986D01*
X770759Y208490D01*
X771830Y207928D01*
X772864Y207303D01*
X773859Y206616D01*
X774810Y205871D01*
X775715Y205069D01*
X776569Y204215D01*
X777371Y203310D01*
X778116Y202359D01*
X778803Y201364D01*
X779428Y200330D01*
X779990Y199259D01*
X780486Y198157D01*
X780915Y197027D01*
X781274Y195873D01*
X781563Y194700D01*
X781781Y193511D01*
X781927Y192311D01*
X782000Y191104D01*
X782000Y189896D01*
X719700Y190129D02*
X719635Y189389D01*
X719506Y188659D01*
X719314Y187942D01*
X719060Y187244D01*
X718747Y186571D01*
X718376Y185929D01*
X717950Y185321D01*
X717473Y184752D01*
X716948Y184227D01*
X716379Y183750D01*
X715771Y183324D01*
X715129Y182953D01*
X714456Y182640D01*
X713758Y182386D01*
X713042Y182194D01*
X712311Y182065D01*
X711571Y182000D01*
X710829Y182000D01*
X710089Y182065D01*
X709359Y182194D01*
X708642Y182386D01*
X707944Y182640D01*
X707271Y182953D01*
X706629Y183324D01*
X706021Y183750D01*
X705452Y184227D01*
X704927Y184752D01*
X704450Y185321D01*
X704024Y185929D01*
X703653Y186571D01*
X703340Y187244D01*
X703086Y187942D01*
X702894Y188659D01*
X702765Y189389D01*
X702700Y190129D01*
X702700Y190871D01*
X702765Y191611D01*
X702894Y192342D01*
X703086Y193058D01*
X703340Y193756D01*
X703653Y194429D01*
X704024Y195071D01*
X704450Y195679D01*
X704927Y196248D01*
X705452Y196773D01*
X706021Y197250D01*
X706629Y197676D01*
X707271Y198047D01*
X707944Y198360D01*
X708642Y198614D01*
X709359Y198806D01*
X710089Y198935D01*
X710829Y199000D01*
X711571Y199000D01*
X712311Y198935D01*
X713042Y198806D01*
X713758Y198614D01*
X714456Y198360D01*
X715129Y198047D01*
X715771Y197676D01*
X716379Y197250D01*
X716948Y196773D01*
X717473Y196248D01*
X717950Y195679D01*
X718376Y195071D01*
X718747Y194429D01*
X719060Y193756D01*
X719314Y193058D01*
X719506Y192342D01*
X719635Y191611D01*
X719700Y190871D01*
X719700Y190129D01*
X821300Y190129D02*
X821235Y189389D01*
X821106Y188659D01*
X820914Y187942D01*
X820660Y187244D01*
X820347Y186571D01*
X819976Y185929D01*
X819550Y185321D01*
X819073Y184752D01*
X818548Y184227D01*
X817979Y183750D01*
X817371Y183324D01*
X816729Y182953D01*
X816056Y182640D01*
X815358Y182386D01*
X814642Y182194D01*
X813911Y182065D01*
X813171Y182000D01*
X812429Y182000D01*
X811689Y182065D01*
X810959Y182194D01*
X810242Y182386D01*
X809544Y182640D01*
X808871Y182953D01*
X808229Y183324D01*
X807621Y183750D01*
X807052Y184227D01*
X806527Y184752D01*
X806050Y185321D01*
X805624Y185929D01*
X805253Y186571D01*
X804940Y187244D01*
X804686Y187942D01*
X804494Y188659D01*
X804365Y189389D01*
X804300Y190129D01*
X804300Y190871D01*
X804365Y191611D01*
X804494Y192342D01*
X804686Y193058D01*
X804940Y193756D01*
X805253Y194429D01*
X805624Y195071D01*
X806050Y195679D01*
X806527Y196248D01*
X807052Y196773D01*
X807621Y197250D01*
X808229Y197676D01*
X808871Y198047D01*
X809544Y198360D01*
X810242Y198614D01*
X810959Y198806D01*
X811689Y198935D01*
X812429Y199000D01*
X813171Y199000D01*
X813911Y198935D01*
X814642Y198806D01*
X815358Y198614D01*
X816056Y198360D01*
X816729Y198047D01*
X817371Y197676D01*
X817979Y197250D01*
X818548Y196773D01*
X819073Y196248D01*
X819550Y195679D01*
X819976Y195071D01*
X820347Y194429D01*
X820660Y193756D01*
X820914Y193058D01*
X821106Y192342D01*
X821235Y191611D01*
X821300Y190871D01*
X821300Y190129D01*
M02*
