G04 EAGLE Gerber RS-274X export*
G75*
%MOMM*%
%FSLAX34Y34*%
%LPD*%
%INSilkscreen Bottom*%
%IPPOS*%
%AMOC8*
5,1,8,0,0,1.08239X$1,22.5*%
G01*
%ADD10C,0.127000*%
%ADD11C,0.050800*%
%ADD12C,0.076200*%
%ADD13C,0.203200*%


D10*
X384919Y921844D02*
X383579Y921844D01*
X383508Y921842D01*
X383436Y921836D01*
X383366Y921827D01*
X383296Y921814D01*
X383226Y921797D01*
X383158Y921776D01*
X383091Y921752D01*
X383025Y921724D01*
X382961Y921693D01*
X382898Y921658D01*
X382838Y921620D01*
X382779Y921579D01*
X382723Y921535D01*
X382669Y921488D01*
X382618Y921439D01*
X382570Y921386D01*
X382524Y921331D01*
X382482Y921274D01*
X382442Y921214D01*
X382406Y921153D01*
X382373Y921089D01*
X382344Y921024D01*
X382318Y920958D01*
X382295Y920890D01*
X382276Y920821D01*
X382261Y920751D01*
X382250Y920681D01*
X382242Y920610D01*
X382238Y920539D01*
X382238Y920467D01*
X382242Y920396D01*
X382250Y920325D01*
X382261Y920255D01*
X382276Y920185D01*
X382295Y920116D01*
X382318Y920048D01*
X382344Y919982D01*
X382373Y919917D01*
X382406Y919853D01*
X382442Y919792D01*
X382482Y919732D01*
X382524Y919675D01*
X382570Y919620D01*
X382618Y919567D01*
X382669Y919518D01*
X382723Y919471D01*
X382779Y919427D01*
X382838Y919386D01*
X382898Y919348D01*
X382961Y919313D01*
X383025Y919282D01*
X383091Y919254D01*
X383158Y919230D01*
X383226Y919209D01*
X383296Y919192D01*
X383366Y919179D01*
X383436Y919170D01*
X383508Y919164D01*
X383579Y919162D01*
X383579Y919163D02*
X384919Y919163D01*
X384919Y923989D01*
X383579Y923989D01*
X383579Y923988D02*
X383514Y923986D01*
X383450Y923980D01*
X383386Y923970D01*
X383322Y923957D01*
X383260Y923939D01*
X383199Y923918D01*
X383139Y923894D01*
X383081Y923865D01*
X383024Y923833D01*
X382970Y923798D01*
X382918Y923760D01*
X382868Y923718D01*
X382821Y923674D01*
X382777Y923627D01*
X382735Y923577D01*
X382697Y923525D01*
X382662Y923471D01*
X382630Y923414D01*
X382601Y923356D01*
X382577Y923296D01*
X382556Y923235D01*
X382538Y923173D01*
X382525Y923109D01*
X382515Y923045D01*
X382509Y922981D01*
X382507Y922916D01*
X382509Y922851D01*
X382515Y922787D01*
X382525Y922723D01*
X382538Y922659D01*
X382556Y922597D01*
X382577Y922536D01*
X382601Y922476D01*
X382630Y922418D01*
X382662Y922361D01*
X382697Y922307D01*
X382735Y922255D01*
X382777Y922205D01*
X382821Y922158D01*
X382868Y922114D01*
X382918Y922072D01*
X382970Y922034D01*
X383024Y921999D01*
X383081Y921967D01*
X383139Y921938D01*
X383199Y921914D01*
X383260Y921893D01*
X383322Y921875D01*
X383386Y921862D01*
X383450Y921852D01*
X383514Y921846D01*
X383579Y921844D01*
X379762Y922916D02*
X378422Y923989D01*
X378422Y919163D01*
X379762Y919163D02*
X377081Y919163D01*
X214000Y776000D02*
X214000Y748000D01*
X230000Y748000D02*
X230000Y776000D01*
X228350Y765810D02*
X222000Y758190D01*
X227080Y765810D02*
X228350Y765810D01*
X227080Y765810D02*
X225810Y765810D01*
X215650Y765810D01*
X222000Y758190D01*
X227080Y765810D01*
X216920Y764540D01*
X222000Y759460D01*
X225810Y765810D01*
X218190Y764540D01*
X222000Y760730D01*
X224540Y764540D01*
X223270Y764540D01*
X219460Y764540D01*
X220730Y763270D01*
X222000Y762000D01*
X223270Y764540D01*
X220730Y763270D01*
X222000Y763270D01*
D11*
X218504Y732862D02*
X225496Y732862D01*
X225496Y736746D02*
X221223Y732862D01*
X222777Y734415D02*
X218504Y736746D01*
D10*
X404500Y748000D02*
X404500Y776000D01*
X420500Y776000D02*
X420500Y748000D01*
X412500Y758190D02*
X418850Y765810D01*
X417580Y765810D01*
X416310Y765810D01*
X406150Y765810D01*
X412500Y758190D01*
X417580Y765810D01*
X407420Y764540D01*
X412500Y759460D01*
X416310Y765810D01*
X408690Y764540D01*
X412500Y760730D01*
X415040Y764540D01*
X413770Y764540D01*
X409960Y764540D01*
X411230Y763270D01*
X412500Y762000D01*
X413770Y764540D01*
X411230Y763270D01*
X412500Y763270D01*
D11*
X409004Y732862D02*
X415996Y732862D01*
X415996Y736746D02*
X411723Y732862D01*
X413277Y734415D02*
X409004Y736746D01*
D10*
X595000Y748000D02*
X595000Y776000D01*
X611000Y776000D02*
X611000Y748000D01*
X603000Y758190D02*
X609350Y765810D01*
X608080Y765810D01*
X606810Y765810D01*
X596650Y765810D01*
X603000Y758190D01*
X608080Y765810D01*
X597920Y764540D01*
X603000Y759460D01*
X606810Y765810D01*
X599190Y764540D01*
X603000Y760730D01*
X605540Y764540D01*
X604270Y764540D01*
X600460Y764540D01*
X601730Y763270D01*
X603000Y762000D01*
X604270Y764540D01*
X601730Y763270D01*
X603000Y763270D01*
D11*
X599504Y732862D02*
X606496Y732862D01*
X606496Y736746D02*
X602223Y732862D01*
X603777Y734415D02*
X599504Y736746D01*
D10*
X785500Y748000D02*
X785500Y776000D01*
X801500Y776000D02*
X801500Y748000D01*
X793500Y758190D02*
X799850Y765810D01*
X798580Y765810D01*
X797310Y765810D01*
X787150Y765810D01*
X793500Y758190D01*
X798580Y765810D01*
X788420Y764540D01*
X793500Y759460D01*
X797310Y765810D01*
X789690Y764540D01*
X793500Y760730D01*
X796040Y764540D01*
X794770Y764540D01*
X790960Y764540D01*
X792230Y763270D01*
X793500Y762000D01*
X794770Y764540D01*
X792230Y763270D01*
X793500Y763270D01*
D11*
X790004Y732862D02*
X796996Y732862D01*
X796996Y736746D02*
X792723Y732862D01*
X794277Y734415D02*
X790004Y736746D01*
D10*
X214000Y585500D02*
X214000Y557500D01*
X230000Y557500D02*
X230000Y585500D01*
X228350Y575310D02*
X222000Y567690D01*
X227080Y575310D02*
X228350Y575310D01*
X227080Y575310D02*
X225810Y575310D01*
X215650Y575310D01*
X222000Y567690D01*
X227080Y575310D01*
X216920Y574040D01*
X222000Y568960D01*
X225810Y575310D01*
X218190Y574040D01*
X222000Y570230D01*
X224540Y574040D01*
X223270Y574040D01*
X219460Y574040D01*
X220730Y572770D01*
X222000Y571500D01*
X223270Y574040D01*
X220730Y572770D01*
X222000Y572770D01*
D11*
X218504Y542362D02*
X225496Y542362D01*
X225496Y546246D02*
X221223Y542362D01*
X222777Y543915D02*
X218504Y546246D01*
D10*
X404500Y557500D02*
X404500Y585500D01*
X420500Y585500D02*
X420500Y557500D01*
X412500Y567690D02*
X418850Y575310D01*
X417580Y575310D01*
X416310Y575310D01*
X406150Y575310D01*
X412500Y567690D01*
X417580Y575310D01*
X407420Y574040D01*
X412500Y568960D01*
X416310Y575310D01*
X408690Y574040D01*
X412500Y570230D01*
X415040Y574040D01*
X413770Y574040D01*
X409960Y574040D01*
X411230Y572770D01*
X412500Y571500D01*
X413770Y574040D01*
X411230Y572770D01*
X412500Y572770D01*
D11*
X409004Y542362D02*
X415996Y542362D01*
X415996Y546246D02*
X411723Y542362D01*
X413277Y543915D02*
X409004Y546246D01*
D10*
X595000Y557500D02*
X595000Y585500D01*
X611000Y585500D02*
X611000Y557500D01*
X603000Y567690D02*
X609350Y575310D01*
X608080Y575310D01*
X606810Y575310D01*
X596650Y575310D01*
X603000Y567690D01*
X608080Y575310D01*
X597920Y574040D01*
X603000Y568960D01*
X606810Y575310D01*
X599190Y574040D01*
X603000Y570230D01*
X605540Y574040D01*
X604270Y574040D01*
X600460Y574040D01*
X601730Y572770D01*
X603000Y571500D01*
X604270Y574040D01*
X601730Y572770D01*
X603000Y572770D01*
D11*
X599504Y542362D02*
X606496Y542362D01*
X606496Y546246D02*
X602223Y542362D01*
X603777Y543915D02*
X599504Y546246D01*
D10*
X785500Y557500D02*
X785500Y585500D01*
X801500Y585500D02*
X801500Y557500D01*
X793500Y567690D02*
X799850Y575310D01*
X798580Y575310D01*
X797310Y575310D01*
X787150Y575310D01*
X793500Y567690D01*
X798580Y575310D01*
X788420Y574040D01*
X793500Y568960D01*
X797310Y575310D01*
X789690Y574040D01*
X793500Y570230D01*
X796040Y574040D01*
X794770Y574040D01*
X790960Y574040D01*
X792230Y572770D01*
X793500Y571500D01*
X794770Y574040D01*
X792230Y572770D01*
X793500Y572770D01*
D11*
X790004Y542362D02*
X796996Y542362D01*
X796996Y546246D02*
X792723Y542362D01*
X794277Y543915D02*
X790004Y546246D01*
D10*
X214000Y395000D02*
X214000Y367000D01*
X230000Y367000D02*
X230000Y395000D01*
X228350Y384810D02*
X222000Y377190D01*
X227080Y384810D02*
X228350Y384810D01*
X227080Y384810D02*
X225810Y384810D01*
X215650Y384810D01*
X222000Y377190D01*
X227080Y384810D01*
X216920Y383540D01*
X222000Y378460D01*
X225810Y384810D01*
X218190Y383540D01*
X222000Y379730D01*
X224540Y383540D01*
X223270Y383540D01*
X219460Y383540D01*
X220730Y382270D01*
X222000Y381000D01*
X223270Y383540D01*
X220730Y382270D01*
X222000Y382270D01*
D11*
X218504Y351862D02*
X225496Y351862D01*
X225496Y355746D02*
X221223Y351862D01*
X222777Y353415D02*
X218504Y355746D01*
D10*
X404500Y367000D02*
X404500Y395000D01*
X420500Y395000D02*
X420500Y367000D01*
X412500Y377190D02*
X418850Y384810D01*
X417580Y384810D01*
X416310Y384810D01*
X406150Y384810D01*
X412500Y377190D01*
X417580Y384810D01*
X407420Y383540D01*
X412500Y378460D01*
X416310Y384810D01*
X408690Y383540D01*
X412500Y379730D01*
X415040Y383540D01*
X413770Y383540D01*
X409960Y383540D01*
X411230Y382270D01*
X412500Y381000D01*
X413770Y383540D01*
X411230Y382270D01*
X412500Y382270D01*
D11*
X409004Y351862D02*
X415996Y351862D01*
X415996Y355746D02*
X411723Y351862D01*
X413277Y353415D02*
X409004Y355746D01*
D10*
X595000Y367000D02*
X595000Y395000D01*
X611000Y395000D02*
X611000Y367000D01*
X603000Y377190D02*
X609350Y384810D01*
X608080Y384810D01*
X606810Y384810D01*
X596650Y384810D01*
X603000Y377190D01*
X608080Y384810D01*
X597920Y383540D01*
X603000Y378460D01*
X606810Y384810D01*
X599190Y383540D01*
X603000Y379730D01*
X605540Y383540D01*
X604270Y383540D01*
X600460Y383540D01*
X601730Y382270D01*
X603000Y381000D01*
X604270Y383540D01*
X601730Y382270D01*
X603000Y382270D01*
D11*
X599504Y351862D02*
X606496Y351862D01*
X606496Y355746D02*
X602223Y351862D01*
X603777Y353415D02*
X599504Y355746D01*
D10*
X785500Y367000D02*
X785500Y395000D01*
X801500Y395000D02*
X801500Y367000D01*
X793500Y377190D02*
X799850Y384810D01*
X798580Y384810D01*
X797310Y384810D01*
X787150Y384810D01*
X793500Y377190D01*
X798580Y384810D01*
X788420Y383540D01*
X793500Y378460D01*
X797310Y384810D01*
X789690Y383540D01*
X793500Y379730D01*
X796040Y383540D01*
X794770Y383540D01*
X790960Y383540D01*
X792230Y382270D01*
X793500Y381000D01*
X794770Y383540D01*
X792230Y382270D01*
X793500Y382270D01*
D11*
X790004Y351862D02*
X796996Y351862D01*
X796996Y355746D02*
X792723Y351862D01*
X794277Y353415D02*
X790004Y355746D01*
D10*
X214000Y204500D02*
X214000Y176500D01*
X230000Y176500D02*
X230000Y204500D01*
X228350Y194310D02*
X222000Y186690D01*
X227080Y194310D02*
X228350Y194310D01*
X227080Y194310D02*
X225810Y194310D01*
X215650Y194310D01*
X222000Y186690D01*
X227080Y194310D01*
X216920Y193040D01*
X222000Y187960D01*
X225810Y194310D01*
X218190Y193040D01*
X222000Y189230D01*
X224540Y193040D01*
X223270Y193040D01*
X219460Y193040D01*
X220730Y191770D01*
X222000Y190500D01*
X223270Y193040D01*
X220730Y191770D01*
X222000Y191770D01*
D11*
X218504Y161362D02*
X225496Y161362D01*
X225496Y165246D02*
X221223Y161362D01*
X222777Y162915D02*
X218504Y165246D01*
D10*
X404500Y176500D02*
X404500Y204500D01*
X420500Y204500D02*
X420500Y176500D01*
X412500Y186690D02*
X418850Y194310D01*
X417580Y194310D01*
X416310Y194310D01*
X406150Y194310D01*
X412500Y186690D01*
X417580Y194310D01*
X407420Y193040D01*
X412500Y187960D01*
X416310Y194310D01*
X408690Y193040D01*
X412500Y189230D01*
X415040Y193040D01*
X413770Y193040D01*
X409960Y193040D01*
X411230Y191770D01*
X412500Y190500D01*
X413770Y193040D01*
X411230Y191770D01*
X412500Y191770D01*
D11*
X409004Y161362D02*
X415996Y161362D01*
X415996Y165246D02*
X411723Y161362D01*
X413277Y162915D02*
X409004Y165246D01*
D10*
X595000Y176500D02*
X595000Y204500D01*
X611000Y204500D02*
X611000Y176500D01*
X603000Y186690D02*
X609350Y194310D01*
X608080Y194310D01*
X606810Y194310D01*
X596650Y194310D01*
X603000Y186690D01*
X608080Y194310D01*
X597920Y193040D01*
X603000Y187960D01*
X606810Y194310D01*
X599190Y193040D01*
X603000Y189230D01*
X605540Y193040D01*
X604270Y193040D01*
X600460Y193040D01*
X601730Y191770D01*
X603000Y190500D01*
X604270Y193040D01*
X601730Y191770D01*
X603000Y191770D01*
D11*
X599504Y161362D02*
X606496Y161362D01*
X606496Y165246D02*
X602223Y161362D01*
X603777Y162915D02*
X599504Y165246D01*
D10*
X785500Y176500D02*
X785500Y204500D01*
X801500Y204500D02*
X801500Y176500D01*
X793500Y186690D02*
X799850Y194310D01*
X798580Y194310D01*
X797310Y194310D01*
X787150Y194310D01*
X793500Y186690D01*
X798580Y194310D01*
X788420Y193040D01*
X793500Y187960D01*
X797310Y194310D01*
X789690Y193040D01*
X793500Y189230D01*
X796040Y193040D01*
X794770Y193040D01*
X790960Y193040D01*
X792230Y191770D01*
X793500Y190500D01*
X794770Y193040D01*
X792230Y191770D01*
X793500Y191770D01*
D11*
X790004Y161362D02*
X796996Y161362D01*
X796996Y165246D02*
X792723Y161362D01*
X794277Y162915D02*
X790004Y165246D01*
D10*
X286365Y716385D02*
X286365Y725115D01*
X283940Y725115D01*
X283842Y725113D01*
X283745Y725107D01*
X283648Y725097D01*
X283551Y725084D01*
X283455Y725066D01*
X283360Y725045D01*
X283265Y725019D01*
X283172Y724990D01*
X283080Y724957D01*
X282989Y724921D01*
X282900Y724881D01*
X282813Y724837D01*
X282728Y724790D01*
X282644Y724740D01*
X282562Y724686D01*
X282483Y724629D01*
X282406Y724568D01*
X282332Y724505D01*
X282260Y724439D01*
X282191Y724370D01*
X282125Y724298D01*
X282062Y724224D01*
X282001Y724147D01*
X281944Y724068D01*
X281890Y723986D01*
X281840Y723903D01*
X281793Y723817D01*
X281749Y723730D01*
X281709Y723641D01*
X281673Y723550D01*
X281640Y723458D01*
X281611Y723365D01*
X281585Y723270D01*
X281564Y723175D01*
X281546Y723079D01*
X281533Y722982D01*
X281523Y722885D01*
X281517Y722788D01*
X281515Y722690D01*
X281517Y722592D01*
X281523Y722495D01*
X281533Y722398D01*
X281546Y722301D01*
X281564Y722205D01*
X281585Y722110D01*
X281611Y722015D01*
X281640Y721922D01*
X281673Y721830D01*
X281709Y721739D01*
X281749Y721650D01*
X281793Y721563D01*
X281840Y721478D01*
X281890Y721394D01*
X281944Y721312D01*
X282001Y721233D01*
X282062Y721156D01*
X282125Y721082D01*
X282191Y721010D01*
X282260Y720941D01*
X282332Y720875D01*
X282406Y720812D01*
X282483Y720751D01*
X282562Y720694D01*
X282644Y720640D01*
X282728Y720590D01*
X282813Y720543D01*
X282900Y720499D01*
X282989Y720459D01*
X283080Y720423D01*
X283172Y720390D01*
X283265Y720361D01*
X283360Y720335D01*
X283455Y720314D01*
X283551Y720296D01*
X283648Y720283D01*
X283745Y720273D01*
X283842Y720267D01*
X283940Y720265D01*
X286365Y720265D01*
X283455Y720265D02*
X281515Y716385D01*
X277440Y723175D02*
X275015Y725115D01*
X275015Y716385D01*
X277440Y716385D02*
X272590Y716385D01*
X287365Y706115D02*
X287365Y697385D01*
X287365Y706115D02*
X284940Y706115D01*
X284842Y706113D01*
X284745Y706107D01*
X284648Y706097D01*
X284551Y706084D01*
X284455Y706066D01*
X284360Y706045D01*
X284265Y706019D01*
X284172Y705990D01*
X284080Y705957D01*
X283989Y705921D01*
X283900Y705881D01*
X283813Y705837D01*
X283728Y705790D01*
X283644Y705740D01*
X283562Y705686D01*
X283483Y705629D01*
X283406Y705568D01*
X283332Y705505D01*
X283260Y705439D01*
X283191Y705370D01*
X283125Y705298D01*
X283062Y705224D01*
X283001Y705147D01*
X282944Y705068D01*
X282890Y704986D01*
X282840Y704903D01*
X282793Y704817D01*
X282749Y704730D01*
X282709Y704641D01*
X282673Y704550D01*
X282640Y704458D01*
X282611Y704365D01*
X282585Y704270D01*
X282564Y704175D01*
X282546Y704079D01*
X282533Y703982D01*
X282523Y703885D01*
X282517Y703788D01*
X282515Y703690D01*
X282517Y703592D01*
X282523Y703495D01*
X282533Y703398D01*
X282546Y703301D01*
X282564Y703205D01*
X282585Y703110D01*
X282611Y703015D01*
X282640Y702922D01*
X282673Y702830D01*
X282709Y702739D01*
X282749Y702650D01*
X282793Y702563D01*
X282840Y702478D01*
X282890Y702394D01*
X282944Y702312D01*
X283001Y702233D01*
X283062Y702156D01*
X283125Y702082D01*
X283191Y702010D01*
X283260Y701941D01*
X283332Y701875D01*
X283406Y701812D01*
X283483Y701751D01*
X283562Y701694D01*
X283644Y701640D01*
X283728Y701590D01*
X283813Y701543D01*
X283900Y701499D01*
X283989Y701459D01*
X284080Y701423D01*
X284172Y701390D01*
X284265Y701361D01*
X284360Y701335D01*
X284455Y701314D01*
X284551Y701296D01*
X284648Y701283D01*
X284745Y701273D01*
X284842Y701267D01*
X284940Y701265D01*
X287365Y701265D01*
X284455Y701265D02*
X282515Y697385D01*
X275773Y706116D02*
X275680Y706114D01*
X275588Y706108D01*
X275496Y706098D01*
X275404Y706085D01*
X275313Y706067D01*
X275223Y706046D01*
X275134Y706020D01*
X275046Y705991D01*
X274959Y705959D01*
X274874Y705922D01*
X274790Y705882D01*
X274708Y705839D01*
X274628Y705792D01*
X274551Y705742D01*
X274475Y705688D01*
X274402Y705631D01*
X274331Y705572D01*
X274262Y705509D01*
X274197Y705444D01*
X274134Y705375D01*
X274075Y705304D01*
X274018Y705231D01*
X273964Y705155D01*
X273914Y705078D01*
X273867Y704998D01*
X273824Y704916D01*
X273784Y704832D01*
X273747Y704747D01*
X273715Y704660D01*
X273686Y704572D01*
X273660Y704483D01*
X273639Y704393D01*
X273621Y704302D01*
X273608Y704210D01*
X273598Y704118D01*
X273592Y704026D01*
X273590Y703933D01*
X275773Y706115D02*
X275877Y706113D01*
X275980Y706107D01*
X276084Y706098D01*
X276186Y706084D01*
X276289Y706067D01*
X276390Y706046D01*
X276491Y706022D01*
X276591Y705993D01*
X276689Y705961D01*
X276787Y705925D01*
X276883Y705886D01*
X276977Y705843D01*
X277070Y705797D01*
X277161Y705747D01*
X277250Y705694D01*
X277337Y705638D01*
X277422Y705579D01*
X277505Y705516D01*
X277585Y705451D01*
X277663Y705382D01*
X277739Y705311D01*
X277811Y705237D01*
X277881Y705160D01*
X277948Y705081D01*
X278012Y704999D01*
X278073Y704915D01*
X278130Y704829D01*
X278185Y704741D01*
X278236Y704651D01*
X278284Y704559D01*
X278329Y704465D01*
X278369Y704370D01*
X278407Y704273D01*
X278441Y704175D01*
X274317Y702236D02*
X274250Y702302D01*
X274185Y702372D01*
X274124Y702444D01*
X274065Y702518D01*
X274009Y702595D01*
X273957Y702674D01*
X273907Y702755D01*
X273861Y702838D01*
X273819Y702923D01*
X273780Y703010D01*
X273744Y703098D01*
X273712Y703187D01*
X273684Y703278D01*
X273659Y703369D01*
X273638Y703462D01*
X273621Y703555D01*
X273607Y703649D01*
X273598Y703743D01*
X273592Y703838D01*
X273590Y703933D01*
X274318Y702235D02*
X278440Y697385D01*
X273590Y697385D01*
X110410Y714885D02*
X110410Y723615D01*
X107985Y723615D01*
X107887Y723613D01*
X107790Y723607D01*
X107693Y723597D01*
X107596Y723584D01*
X107500Y723566D01*
X107405Y723545D01*
X107310Y723519D01*
X107217Y723490D01*
X107125Y723457D01*
X107034Y723421D01*
X106945Y723381D01*
X106858Y723337D01*
X106773Y723290D01*
X106689Y723240D01*
X106607Y723186D01*
X106528Y723129D01*
X106451Y723068D01*
X106377Y723005D01*
X106305Y722939D01*
X106236Y722870D01*
X106170Y722798D01*
X106107Y722724D01*
X106046Y722647D01*
X105989Y722568D01*
X105935Y722486D01*
X105885Y722403D01*
X105838Y722317D01*
X105794Y722230D01*
X105754Y722141D01*
X105718Y722050D01*
X105685Y721958D01*
X105656Y721865D01*
X105630Y721770D01*
X105609Y721675D01*
X105591Y721579D01*
X105578Y721482D01*
X105568Y721385D01*
X105562Y721288D01*
X105560Y721190D01*
X105562Y721092D01*
X105568Y720995D01*
X105578Y720898D01*
X105591Y720801D01*
X105609Y720705D01*
X105630Y720610D01*
X105656Y720515D01*
X105685Y720422D01*
X105718Y720330D01*
X105754Y720239D01*
X105794Y720150D01*
X105838Y720063D01*
X105885Y719978D01*
X105935Y719894D01*
X105989Y719812D01*
X106046Y719733D01*
X106107Y719656D01*
X106170Y719582D01*
X106236Y719510D01*
X106305Y719441D01*
X106377Y719375D01*
X106451Y719312D01*
X106528Y719251D01*
X106607Y719194D01*
X106689Y719140D01*
X106772Y719090D01*
X106858Y719043D01*
X106945Y718999D01*
X107034Y718959D01*
X107125Y718923D01*
X107217Y718890D01*
X107310Y718861D01*
X107405Y718835D01*
X107500Y718814D01*
X107596Y718796D01*
X107693Y718783D01*
X107790Y718773D01*
X107887Y718767D01*
X107985Y718765D01*
X110410Y718765D01*
X107500Y718765D02*
X105560Y714885D01*
X101485Y714885D02*
X99060Y714885D01*
X98962Y714887D01*
X98865Y714893D01*
X98768Y714903D01*
X98671Y714916D01*
X98575Y714934D01*
X98480Y714955D01*
X98385Y714981D01*
X98292Y715010D01*
X98200Y715043D01*
X98109Y715079D01*
X98020Y715119D01*
X97933Y715163D01*
X97847Y715210D01*
X97764Y715260D01*
X97682Y715314D01*
X97603Y715371D01*
X97526Y715432D01*
X97452Y715495D01*
X97380Y715561D01*
X97311Y715630D01*
X97245Y715702D01*
X97182Y715776D01*
X97121Y715853D01*
X97064Y715932D01*
X97010Y716014D01*
X96960Y716098D01*
X96913Y716183D01*
X96869Y716270D01*
X96829Y716359D01*
X96793Y716450D01*
X96760Y716542D01*
X96731Y716635D01*
X96705Y716730D01*
X96684Y716825D01*
X96666Y716921D01*
X96653Y717018D01*
X96643Y717115D01*
X96637Y717212D01*
X96635Y717310D01*
X96637Y717408D01*
X96643Y717505D01*
X96653Y717602D01*
X96666Y717699D01*
X96684Y717795D01*
X96705Y717890D01*
X96731Y717985D01*
X96760Y718078D01*
X96793Y718170D01*
X96829Y718261D01*
X96869Y718350D01*
X96913Y718437D01*
X96960Y718523D01*
X97010Y718606D01*
X97064Y718688D01*
X97121Y718767D01*
X97182Y718844D01*
X97245Y718918D01*
X97311Y718990D01*
X97380Y719059D01*
X97452Y719125D01*
X97526Y719188D01*
X97603Y719249D01*
X97682Y719306D01*
X97764Y719360D01*
X97848Y719410D01*
X97933Y719457D01*
X98020Y719501D01*
X98109Y719541D01*
X98200Y719577D01*
X98292Y719610D01*
X98385Y719639D01*
X98480Y719665D01*
X98575Y719686D01*
X98671Y719704D01*
X98768Y719717D01*
X98865Y719727D01*
X98962Y719733D01*
X99060Y719735D01*
X98575Y723615D02*
X101485Y723615D01*
X98575Y723615D02*
X98488Y723613D01*
X98401Y723607D01*
X98315Y723597D01*
X98229Y723584D01*
X98143Y723566D01*
X98059Y723545D01*
X97976Y723520D01*
X97893Y723491D01*
X97813Y723459D01*
X97733Y723423D01*
X97656Y723383D01*
X97580Y723340D01*
X97506Y723294D01*
X97435Y723244D01*
X97365Y723192D01*
X97299Y723136D01*
X97234Y723077D01*
X97173Y723016D01*
X97114Y722951D01*
X97058Y722885D01*
X97006Y722815D01*
X96956Y722744D01*
X96910Y722670D01*
X96867Y722594D01*
X96827Y722517D01*
X96791Y722437D01*
X96759Y722357D01*
X96730Y722274D01*
X96705Y722191D01*
X96684Y722107D01*
X96666Y722021D01*
X96653Y721935D01*
X96643Y721849D01*
X96637Y721762D01*
X96635Y721675D01*
X96637Y721588D01*
X96643Y721501D01*
X96653Y721415D01*
X96666Y721329D01*
X96684Y721243D01*
X96705Y721159D01*
X96730Y721076D01*
X96759Y720993D01*
X96791Y720913D01*
X96827Y720833D01*
X96867Y720756D01*
X96910Y720680D01*
X96956Y720606D01*
X97006Y720535D01*
X97058Y720465D01*
X97114Y720399D01*
X97173Y720334D01*
X97234Y720273D01*
X97299Y720214D01*
X97365Y720158D01*
X97435Y720106D01*
X97506Y720056D01*
X97580Y720010D01*
X97656Y719967D01*
X97733Y719927D01*
X97813Y719891D01*
X97893Y719859D01*
X97976Y719830D01*
X98059Y719805D01*
X98143Y719784D01*
X98229Y719766D01*
X98315Y719753D01*
X98401Y719743D01*
X98488Y719737D01*
X98575Y719735D01*
X100515Y719735D01*
X110410Y702615D02*
X110410Y693885D01*
X110410Y702615D02*
X107985Y702615D01*
X107887Y702613D01*
X107790Y702607D01*
X107693Y702597D01*
X107596Y702584D01*
X107500Y702566D01*
X107405Y702545D01*
X107310Y702519D01*
X107217Y702490D01*
X107125Y702457D01*
X107034Y702421D01*
X106945Y702381D01*
X106858Y702337D01*
X106773Y702290D01*
X106689Y702240D01*
X106607Y702186D01*
X106528Y702129D01*
X106451Y702068D01*
X106377Y702005D01*
X106305Y701939D01*
X106236Y701870D01*
X106170Y701798D01*
X106107Y701724D01*
X106046Y701647D01*
X105989Y701568D01*
X105935Y701486D01*
X105885Y701403D01*
X105838Y701317D01*
X105794Y701230D01*
X105754Y701141D01*
X105718Y701050D01*
X105685Y700958D01*
X105656Y700865D01*
X105630Y700770D01*
X105609Y700675D01*
X105591Y700579D01*
X105578Y700482D01*
X105568Y700385D01*
X105562Y700288D01*
X105560Y700190D01*
X105562Y700092D01*
X105568Y699995D01*
X105578Y699898D01*
X105591Y699801D01*
X105609Y699705D01*
X105630Y699610D01*
X105656Y699515D01*
X105685Y699422D01*
X105718Y699330D01*
X105754Y699239D01*
X105794Y699150D01*
X105838Y699063D01*
X105885Y698978D01*
X105935Y698894D01*
X105989Y698812D01*
X106046Y698733D01*
X106107Y698656D01*
X106170Y698582D01*
X106236Y698510D01*
X106305Y698441D01*
X106377Y698375D01*
X106451Y698312D01*
X106528Y698251D01*
X106607Y698194D01*
X106689Y698140D01*
X106772Y698090D01*
X106858Y698043D01*
X106945Y697999D01*
X107034Y697959D01*
X107125Y697923D01*
X107217Y697890D01*
X107310Y697861D01*
X107405Y697835D01*
X107500Y697814D01*
X107596Y697796D01*
X107693Y697783D01*
X107790Y697773D01*
X107887Y697767D01*
X107985Y697765D01*
X110410Y697765D01*
X107500Y697765D02*
X105560Y693885D01*
X101485Y695825D02*
X99545Y702615D01*
X101485Y695825D02*
X96635Y695825D01*
X98090Y697765D02*
X98090Y693885D01*
D12*
X283442Y676131D02*
X285531Y676131D01*
X285620Y676133D01*
X285708Y676139D01*
X285796Y676148D01*
X285884Y676161D01*
X285971Y676178D01*
X286057Y676198D01*
X286142Y676223D01*
X286227Y676250D01*
X286310Y676282D01*
X286391Y676316D01*
X286471Y676355D01*
X286549Y676396D01*
X286626Y676441D01*
X286700Y676489D01*
X286773Y676540D01*
X286843Y676594D01*
X286910Y676652D01*
X286976Y676712D01*
X287038Y676774D01*
X287098Y676840D01*
X287156Y676907D01*
X287210Y676977D01*
X287261Y677050D01*
X287309Y677124D01*
X287354Y677201D01*
X287395Y677279D01*
X287434Y677359D01*
X287468Y677440D01*
X287500Y677523D01*
X287527Y677608D01*
X287552Y677693D01*
X287572Y677779D01*
X287589Y677866D01*
X287602Y677954D01*
X287611Y678042D01*
X287617Y678130D01*
X287619Y678219D01*
X287619Y683441D01*
X287617Y683530D01*
X287611Y683618D01*
X287602Y683706D01*
X287589Y683794D01*
X287572Y683881D01*
X287552Y683967D01*
X287527Y684052D01*
X287500Y684137D01*
X287468Y684220D01*
X287434Y684301D01*
X287395Y684381D01*
X287354Y684459D01*
X287309Y684536D01*
X287261Y684610D01*
X287210Y684683D01*
X287156Y684753D01*
X287098Y684820D01*
X287038Y684886D01*
X286976Y684948D01*
X286910Y685008D01*
X286843Y685066D01*
X286773Y685120D01*
X286700Y685171D01*
X286626Y685219D01*
X286549Y685264D01*
X286471Y685305D01*
X286391Y685344D01*
X286310Y685378D01*
X286227Y685410D01*
X286142Y685437D01*
X286057Y685462D01*
X285971Y685482D01*
X285884Y685499D01*
X285796Y685512D01*
X285708Y685521D01*
X285620Y685527D01*
X285531Y685529D01*
X283442Y685529D01*
X279973Y683441D02*
X277363Y685529D01*
X277363Y676131D01*
X279973Y676131D02*
X274752Y676131D01*
X106159Y675471D02*
X104071Y675471D01*
X106159Y675471D02*
X106248Y675473D01*
X106336Y675479D01*
X106424Y675488D01*
X106512Y675501D01*
X106599Y675518D01*
X106685Y675538D01*
X106770Y675563D01*
X106855Y675590D01*
X106938Y675622D01*
X107019Y675656D01*
X107099Y675695D01*
X107177Y675736D01*
X107254Y675781D01*
X107328Y675829D01*
X107401Y675880D01*
X107471Y675934D01*
X107538Y675992D01*
X107604Y676052D01*
X107666Y676114D01*
X107726Y676180D01*
X107784Y676247D01*
X107838Y676317D01*
X107889Y676390D01*
X107937Y676464D01*
X107982Y676541D01*
X108023Y676619D01*
X108062Y676699D01*
X108096Y676780D01*
X108128Y676863D01*
X108155Y676948D01*
X108180Y677033D01*
X108200Y677119D01*
X108217Y677206D01*
X108230Y677294D01*
X108239Y677382D01*
X108245Y677470D01*
X108247Y677559D01*
X108248Y677559D02*
X108248Y682781D01*
X108247Y682781D02*
X108245Y682870D01*
X108239Y682958D01*
X108230Y683046D01*
X108217Y683134D01*
X108200Y683221D01*
X108180Y683307D01*
X108155Y683392D01*
X108128Y683477D01*
X108096Y683560D01*
X108062Y683641D01*
X108023Y683721D01*
X107982Y683799D01*
X107937Y683876D01*
X107889Y683950D01*
X107838Y684023D01*
X107784Y684093D01*
X107726Y684160D01*
X107666Y684226D01*
X107604Y684288D01*
X107538Y684348D01*
X107471Y684406D01*
X107401Y684460D01*
X107328Y684511D01*
X107254Y684559D01*
X107177Y684604D01*
X107099Y684645D01*
X107019Y684684D01*
X106938Y684718D01*
X106855Y684750D01*
X106770Y684777D01*
X106685Y684802D01*
X106599Y684822D01*
X106512Y684839D01*
X106424Y684852D01*
X106336Y684861D01*
X106248Y684867D01*
X106159Y684869D01*
X104071Y684869D01*
X97731Y684870D02*
X97636Y684868D01*
X97542Y684862D01*
X97448Y684853D01*
X97354Y684840D01*
X97261Y684823D01*
X97169Y684802D01*
X97077Y684777D01*
X96987Y684749D01*
X96898Y684717D01*
X96810Y684682D01*
X96724Y684643D01*
X96639Y684601D01*
X96556Y684555D01*
X96475Y684506D01*
X96396Y684454D01*
X96319Y684399D01*
X96245Y684340D01*
X96173Y684279D01*
X96103Y684215D01*
X96036Y684148D01*
X95972Y684078D01*
X95911Y684006D01*
X95852Y683932D01*
X95797Y683855D01*
X95745Y683776D01*
X95696Y683695D01*
X95650Y683612D01*
X95608Y683527D01*
X95569Y683441D01*
X95534Y683353D01*
X95502Y683264D01*
X95474Y683174D01*
X95449Y683082D01*
X95428Y682990D01*
X95411Y682897D01*
X95398Y682803D01*
X95389Y682709D01*
X95383Y682615D01*
X95381Y682520D01*
X97731Y684869D02*
X97839Y684867D01*
X97948Y684861D01*
X98056Y684851D01*
X98163Y684838D01*
X98270Y684820D01*
X98377Y684799D01*
X98482Y684774D01*
X98587Y684745D01*
X98690Y684713D01*
X98792Y684676D01*
X98893Y684636D01*
X98992Y684593D01*
X99090Y684546D01*
X99186Y684495D01*
X99280Y684441D01*
X99372Y684384D01*
X99462Y684323D01*
X99550Y684259D01*
X99635Y684193D01*
X99718Y684123D01*
X99798Y684050D01*
X99876Y683974D01*
X99951Y683896D01*
X100023Y683815D01*
X100092Y683731D01*
X100158Y683645D01*
X100221Y683557D01*
X100280Y683466D01*
X100337Y683374D01*
X100390Y683279D01*
X100439Y683182D01*
X100485Y683084D01*
X100528Y682985D01*
X100567Y682883D01*
X100602Y682781D01*
X96164Y680692D02*
X96095Y680761D01*
X96029Y680832D01*
X95965Y680905D01*
X95904Y680981D01*
X95846Y681060D01*
X95792Y681140D01*
X95740Y681223D01*
X95692Y681307D01*
X95646Y681393D01*
X95605Y681481D01*
X95566Y681571D01*
X95531Y681662D01*
X95500Y681754D01*
X95472Y681847D01*
X95448Y681941D01*
X95428Y682036D01*
X95411Y682132D01*
X95398Y682229D01*
X95389Y682326D01*
X95383Y682423D01*
X95381Y682520D01*
X96164Y680692D02*
X100602Y675471D01*
X95381Y675471D01*
D10*
X853410Y714885D02*
X853410Y723615D01*
X850985Y723615D01*
X850887Y723613D01*
X850790Y723607D01*
X850693Y723597D01*
X850596Y723584D01*
X850500Y723566D01*
X850405Y723545D01*
X850310Y723519D01*
X850217Y723490D01*
X850125Y723457D01*
X850034Y723421D01*
X849945Y723381D01*
X849858Y723337D01*
X849773Y723290D01*
X849689Y723240D01*
X849607Y723186D01*
X849528Y723129D01*
X849451Y723068D01*
X849377Y723005D01*
X849305Y722939D01*
X849236Y722870D01*
X849170Y722798D01*
X849107Y722724D01*
X849046Y722647D01*
X848989Y722568D01*
X848935Y722486D01*
X848885Y722403D01*
X848838Y722317D01*
X848794Y722230D01*
X848754Y722141D01*
X848718Y722050D01*
X848685Y721958D01*
X848656Y721865D01*
X848630Y721770D01*
X848609Y721675D01*
X848591Y721579D01*
X848578Y721482D01*
X848568Y721385D01*
X848562Y721288D01*
X848560Y721190D01*
X848562Y721092D01*
X848568Y720995D01*
X848578Y720898D01*
X848591Y720801D01*
X848609Y720705D01*
X848630Y720610D01*
X848656Y720515D01*
X848685Y720422D01*
X848718Y720330D01*
X848754Y720239D01*
X848794Y720150D01*
X848838Y720063D01*
X848885Y719978D01*
X848935Y719894D01*
X848989Y719812D01*
X849046Y719733D01*
X849107Y719656D01*
X849170Y719582D01*
X849236Y719510D01*
X849305Y719441D01*
X849377Y719375D01*
X849451Y719312D01*
X849528Y719251D01*
X849607Y719194D01*
X849689Y719140D01*
X849773Y719090D01*
X849858Y719043D01*
X849945Y718999D01*
X850034Y718959D01*
X850125Y718923D01*
X850217Y718890D01*
X850310Y718861D01*
X850405Y718835D01*
X850500Y718814D01*
X850596Y718796D01*
X850693Y718783D01*
X850790Y718773D01*
X850887Y718767D01*
X850985Y718765D01*
X853410Y718765D01*
X850500Y718765D02*
X848560Y714885D01*
X844485Y714885D02*
X841575Y714885D01*
X841488Y714887D01*
X841401Y714893D01*
X841315Y714903D01*
X841229Y714916D01*
X841143Y714934D01*
X841059Y714955D01*
X840976Y714980D01*
X840893Y715009D01*
X840813Y715041D01*
X840733Y715077D01*
X840656Y715117D01*
X840580Y715160D01*
X840506Y715206D01*
X840435Y715256D01*
X840365Y715308D01*
X840299Y715364D01*
X840234Y715423D01*
X840173Y715484D01*
X840114Y715549D01*
X840058Y715615D01*
X840006Y715685D01*
X839956Y715756D01*
X839910Y715830D01*
X839867Y715906D01*
X839827Y715983D01*
X839791Y716063D01*
X839759Y716143D01*
X839730Y716226D01*
X839705Y716309D01*
X839684Y716393D01*
X839666Y716479D01*
X839653Y716565D01*
X839643Y716651D01*
X839637Y716738D01*
X839635Y716825D01*
X839635Y717795D01*
X839637Y717882D01*
X839643Y717969D01*
X839653Y718055D01*
X839666Y718141D01*
X839684Y718227D01*
X839705Y718311D01*
X839730Y718394D01*
X839759Y718477D01*
X839791Y718557D01*
X839827Y718637D01*
X839867Y718714D01*
X839910Y718790D01*
X839956Y718864D01*
X840006Y718935D01*
X840058Y719005D01*
X840114Y719071D01*
X840173Y719136D01*
X840234Y719197D01*
X840299Y719256D01*
X840365Y719312D01*
X840435Y719364D01*
X840506Y719414D01*
X840580Y719460D01*
X840656Y719503D01*
X840733Y719543D01*
X840813Y719579D01*
X840893Y719611D01*
X840976Y719640D01*
X841059Y719665D01*
X841143Y719686D01*
X841229Y719704D01*
X841315Y719717D01*
X841401Y719727D01*
X841488Y719733D01*
X841575Y719735D01*
X844485Y719735D01*
X844485Y723615D01*
X839635Y723615D01*
X853410Y704615D02*
X853410Y695885D01*
X853410Y704615D02*
X850985Y704615D01*
X850887Y704613D01*
X850790Y704607D01*
X850693Y704597D01*
X850596Y704584D01*
X850500Y704566D01*
X850405Y704545D01*
X850310Y704519D01*
X850217Y704490D01*
X850125Y704457D01*
X850034Y704421D01*
X849945Y704381D01*
X849858Y704337D01*
X849773Y704290D01*
X849689Y704240D01*
X849607Y704186D01*
X849528Y704129D01*
X849451Y704068D01*
X849377Y704005D01*
X849305Y703939D01*
X849236Y703870D01*
X849170Y703798D01*
X849107Y703724D01*
X849046Y703647D01*
X848989Y703568D01*
X848935Y703486D01*
X848885Y703403D01*
X848838Y703317D01*
X848794Y703230D01*
X848754Y703141D01*
X848718Y703050D01*
X848685Y702958D01*
X848656Y702865D01*
X848630Y702770D01*
X848609Y702675D01*
X848591Y702579D01*
X848578Y702482D01*
X848568Y702385D01*
X848562Y702288D01*
X848560Y702190D01*
X848562Y702092D01*
X848568Y701995D01*
X848578Y701898D01*
X848591Y701801D01*
X848609Y701705D01*
X848630Y701610D01*
X848656Y701515D01*
X848685Y701422D01*
X848718Y701330D01*
X848754Y701239D01*
X848794Y701150D01*
X848838Y701063D01*
X848885Y700978D01*
X848935Y700894D01*
X848989Y700812D01*
X849046Y700733D01*
X849107Y700656D01*
X849170Y700582D01*
X849236Y700510D01*
X849305Y700441D01*
X849377Y700375D01*
X849451Y700312D01*
X849528Y700251D01*
X849607Y700194D01*
X849689Y700140D01*
X849773Y700090D01*
X849858Y700043D01*
X849945Y699999D01*
X850034Y699959D01*
X850125Y699923D01*
X850217Y699890D01*
X850310Y699861D01*
X850405Y699835D01*
X850500Y699814D01*
X850596Y699796D01*
X850693Y699783D01*
X850790Y699773D01*
X850887Y699767D01*
X850985Y699765D01*
X853410Y699765D01*
X850500Y699765D02*
X848560Y695885D01*
X844485Y700735D02*
X841575Y700735D01*
X841488Y700733D01*
X841401Y700727D01*
X841315Y700717D01*
X841229Y700704D01*
X841143Y700686D01*
X841059Y700665D01*
X840976Y700640D01*
X840893Y700611D01*
X840813Y700579D01*
X840733Y700543D01*
X840656Y700503D01*
X840580Y700460D01*
X840506Y700414D01*
X840435Y700364D01*
X840365Y700312D01*
X840299Y700256D01*
X840234Y700197D01*
X840173Y700136D01*
X840114Y700071D01*
X840058Y700005D01*
X840006Y699935D01*
X839956Y699864D01*
X839910Y699790D01*
X839867Y699714D01*
X839827Y699637D01*
X839791Y699557D01*
X839759Y699477D01*
X839730Y699394D01*
X839705Y699311D01*
X839684Y699227D01*
X839666Y699141D01*
X839653Y699055D01*
X839643Y698969D01*
X839637Y698882D01*
X839635Y698795D01*
X839635Y698310D01*
X839637Y698212D01*
X839643Y698115D01*
X839653Y698018D01*
X839666Y697921D01*
X839684Y697825D01*
X839705Y697730D01*
X839731Y697635D01*
X839760Y697542D01*
X839793Y697450D01*
X839829Y697359D01*
X839869Y697270D01*
X839913Y697183D01*
X839960Y697098D01*
X840010Y697014D01*
X840064Y696932D01*
X840121Y696853D01*
X840182Y696776D01*
X840245Y696702D01*
X840311Y696630D01*
X840380Y696561D01*
X840452Y696495D01*
X840526Y696432D01*
X840603Y696371D01*
X840682Y696314D01*
X840764Y696260D01*
X840848Y696210D01*
X840933Y696163D01*
X841020Y696119D01*
X841109Y696079D01*
X841200Y696043D01*
X841292Y696010D01*
X841385Y695981D01*
X841480Y695955D01*
X841575Y695934D01*
X841671Y695916D01*
X841768Y695903D01*
X841865Y695893D01*
X841962Y695887D01*
X842060Y695885D01*
X842158Y695887D01*
X842255Y695893D01*
X842352Y695903D01*
X842449Y695916D01*
X842545Y695934D01*
X842640Y695955D01*
X842735Y695981D01*
X842828Y696010D01*
X842920Y696043D01*
X843011Y696079D01*
X843100Y696119D01*
X843187Y696163D01*
X843273Y696210D01*
X843356Y696260D01*
X843438Y696314D01*
X843517Y696371D01*
X843594Y696432D01*
X843668Y696495D01*
X843740Y696561D01*
X843809Y696630D01*
X843875Y696702D01*
X843938Y696776D01*
X843999Y696853D01*
X844056Y696932D01*
X844110Y697014D01*
X844160Y697098D01*
X844207Y697183D01*
X844251Y697270D01*
X844291Y697359D01*
X844327Y697450D01*
X844360Y697542D01*
X844389Y697635D01*
X844415Y697730D01*
X844436Y697825D01*
X844454Y697921D01*
X844467Y698018D01*
X844477Y698115D01*
X844483Y698212D01*
X844485Y698310D01*
X844485Y700735D01*
X844483Y700857D01*
X844477Y700979D01*
X844468Y701100D01*
X844454Y701221D01*
X844437Y701342D01*
X844416Y701462D01*
X844392Y701581D01*
X844363Y701700D01*
X844331Y701817D01*
X844295Y701934D01*
X844256Y702049D01*
X844213Y702163D01*
X844166Y702276D01*
X844116Y702387D01*
X844062Y702496D01*
X844005Y702604D01*
X843945Y702710D01*
X843881Y702814D01*
X843814Y702916D01*
X843744Y703016D01*
X843671Y703113D01*
X843595Y703208D01*
X843515Y703301D01*
X843433Y703391D01*
X843349Y703479D01*
X843261Y703563D01*
X843171Y703645D01*
X843078Y703725D01*
X842983Y703801D01*
X842886Y703874D01*
X842786Y703944D01*
X842684Y704011D01*
X842580Y704075D01*
X842474Y704135D01*
X842366Y704192D01*
X842257Y704246D01*
X842146Y704296D01*
X842033Y704343D01*
X841919Y704386D01*
X841804Y704425D01*
X841687Y704461D01*
X841570Y704493D01*
X841451Y704522D01*
X841332Y704546D01*
X841212Y704567D01*
X841091Y704584D01*
X840970Y704598D01*
X840849Y704607D01*
X840727Y704613D01*
X840605Y704615D01*
X681365Y716385D02*
X681365Y725115D01*
X678940Y725115D01*
X678842Y725113D01*
X678745Y725107D01*
X678648Y725097D01*
X678551Y725084D01*
X678455Y725066D01*
X678360Y725045D01*
X678265Y725019D01*
X678172Y724990D01*
X678080Y724957D01*
X677989Y724921D01*
X677900Y724881D01*
X677813Y724837D01*
X677728Y724790D01*
X677644Y724740D01*
X677562Y724686D01*
X677483Y724629D01*
X677406Y724568D01*
X677332Y724505D01*
X677260Y724439D01*
X677191Y724370D01*
X677125Y724298D01*
X677062Y724224D01*
X677001Y724147D01*
X676944Y724068D01*
X676890Y723986D01*
X676840Y723903D01*
X676793Y723817D01*
X676749Y723730D01*
X676709Y723641D01*
X676673Y723550D01*
X676640Y723458D01*
X676611Y723365D01*
X676585Y723270D01*
X676564Y723175D01*
X676546Y723079D01*
X676533Y722982D01*
X676523Y722885D01*
X676517Y722788D01*
X676515Y722690D01*
X676517Y722592D01*
X676523Y722495D01*
X676533Y722398D01*
X676546Y722301D01*
X676564Y722205D01*
X676585Y722110D01*
X676611Y722015D01*
X676640Y721922D01*
X676673Y721830D01*
X676709Y721739D01*
X676749Y721650D01*
X676793Y721563D01*
X676840Y721478D01*
X676890Y721394D01*
X676944Y721312D01*
X677001Y721233D01*
X677062Y721156D01*
X677125Y721082D01*
X677191Y721010D01*
X677260Y720941D01*
X677332Y720875D01*
X677406Y720812D01*
X677483Y720751D01*
X677562Y720694D01*
X677644Y720640D01*
X677728Y720590D01*
X677813Y720543D01*
X677900Y720499D01*
X677989Y720459D01*
X678080Y720423D01*
X678172Y720390D01*
X678265Y720361D01*
X678360Y720335D01*
X678455Y720314D01*
X678551Y720296D01*
X678648Y720283D01*
X678745Y720273D01*
X678842Y720267D01*
X678940Y720265D01*
X681365Y720265D01*
X678455Y720265D02*
X676515Y716385D01*
X672440Y724145D02*
X672440Y725115D01*
X667590Y725115D01*
X670015Y716385D01*
X681365Y704115D02*
X681365Y695385D01*
X681365Y704115D02*
X678940Y704115D01*
X678842Y704113D01*
X678745Y704107D01*
X678648Y704097D01*
X678551Y704084D01*
X678455Y704066D01*
X678360Y704045D01*
X678265Y704019D01*
X678172Y703990D01*
X678080Y703957D01*
X677989Y703921D01*
X677900Y703881D01*
X677813Y703837D01*
X677728Y703790D01*
X677644Y703740D01*
X677562Y703686D01*
X677483Y703629D01*
X677406Y703568D01*
X677332Y703505D01*
X677260Y703439D01*
X677191Y703370D01*
X677125Y703298D01*
X677062Y703224D01*
X677001Y703147D01*
X676944Y703068D01*
X676890Y702986D01*
X676840Y702903D01*
X676793Y702817D01*
X676749Y702730D01*
X676709Y702641D01*
X676673Y702550D01*
X676640Y702458D01*
X676611Y702365D01*
X676585Y702270D01*
X676564Y702175D01*
X676546Y702079D01*
X676533Y701982D01*
X676523Y701885D01*
X676517Y701788D01*
X676515Y701690D01*
X676517Y701592D01*
X676523Y701495D01*
X676533Y701398D01*
X676546Y701301D01*
X676564Y701205D01*
X676585Y701110D01*
X676611Y701015D01*
X676640Y700922D01*
X676673Y700830D01*
X676709Y700739D01*
X676749Y700650D01*
X676793Y700563D01*
X676840Y700478D01*
X676890Y700394D01*
X676944Y700312D01*
X677001Y700233D01*
X677062Y700156D01*
X677125Y700082D01*
X677191Y700010D01*
X677260Y699941D01*
X677332Y699875D01*
X677406Y699812D01*
X677483Y699751D01*
X677562Y699694D01*
X677644Y699640D01*
X677728Y699590D01*
X677813Y699543D01*
X677900Y699499D01*
X677989Y699459D01*
X678080Y699423D01*
X678172Y699390D01*
X678265Y699361D01*
X678360Y699335D01*
X678455Y699314D01*
X678551Y699296D01*
X678648Y699283D01*
X678745Y699273D01*
X678842Y699267D01*
X678940Y699265D01*
X681365Y699265D01*
X678455Y699265D02*
X676515Y695385D01*
X672440Y697810D02*
X672438Y697908D01*
X672432Y698005D01*
X672422Y698102D01*
X672409Y698199D01*
X672391Y698295D01*
X672370Y698390D01*
X672344Y698485D01*
X672315Y698578D01*
X672282Y698670D01*
X672246Y698761D01*
X672206Y698850D01*
X672162Y698937D01*
X672115Y699023D01*
X672065Y699106D01*
X672011Y699188D01*
X671954Y699267D01*
X671893Y699344D01*
X671830Y699418D01*
X671764Y699490D01*
X671695Y699559D01*
X671623Y699625D01*
X671549Y699688D01*
X671472Y699749D01*
X671393Y699806D01*
X671311Y699860D01*
X671228Y699910D01*
X671142Y699957D01*
X671055Y700001D01*
X670966Y700041D01*
X670875Y700077D01*
X670783Y700110D01*
X670690Y700139D01*
X670595Y700165D01*
X670500Y700186D01*
X670404Y700204D01*
X670307Y700217D01*
X670210Y700227D01*
X670113Y700233D01*
X670015Y700235D01*
X669917Y700233D01*
X669820Y700227D01*
X669723Y700217D01*
X669626Y700204D01*
X669530Y700186D01*
X669435Y700165D01*
X669340Y700139D01*
X669247Y700110D01*
X669155Y700077D01*
X669064Y700041D01*
X668975Y700001D01*
X668888Y699957D01*
X668803Y699910D01*
X668719Y699860D01*
X668637Y699806D01*
X668558Y699749D01*
X668481Y699688D01*
X668407Y699625D01*
X668335Y699559D01*
X668266Y699490D01*
X668200Y699418D01*
X668137Y699344D01*
X668076Y699267D01*
X668019Y699188D01*
X667965Y699106D01*
X667915Y699023D01*
X667868Y698937D01*
X667824Y698850D01*
X667784Y698761D01*
X667748Y698670D01*
X667715Y698578D01*
X667686Y698485D01*
X667660Y698390D01*
X667639Y698295D01*
X667621Y698199D01*
X667608Y698102D01*
X667598Y698005D01*
X667592Y697908D01*
X667590Y697810D01*
X667592Y697712D01*
X667598Y697615D01*
X667608Y697518D01*
X667621Y697421D01*
X667639Y697325D01*
X667660Y697230D01*
X667686Y697135D01*
X667715Y697042D01*
X667748Y696950D01*
X667784Y696859D01*
X667824Y696770D01*
X667868Y696683D01*
X667915Y696598D01*
X667965Y696514D01*
X668019Y696432D01*
X668076Y696353D01*
X668137Y696276D01*
X668200Y696202D01*
X668266Y696130D01*
X668335Y696061D01*
X668407Y695995D01*
X668481Y695932D01*
X668558Y695871D01*
X668637Y695814D01*
X668719Y695760D01*
X668803Y695710D01*
X668888Y695663D01*
X668975Y695619D01*
X669064Y695579D01*
X669155Y695543D01*
X669247Y695510D01*
X669340Y695481D01*
X669435Y695455D01*
X669530Y695434D01*
X669626Y695416D01*
X669723Y695403D01*
X669820Y695393D01*
X669917Y695387D01*
X670015Y695385D01*
X670113Y695387D01*
X670210Y695393D01*
X670307Y695403D01*
X670404Y695416D01*
X670500Y695434D01*
X670595Y695455D01*
X670690Y695481D01*
X670783Y695510D01*
X670875Y695543D01*
X670966Y695579D01*
X671055Y695619D01*
X671142Y695663D01*
X671228Y695710D01*
X671311Y695760D01*
X671393Y695814D01*
X671472Y695871D01*
X671549Y695932D01*
X671623Y695995D01*
X671695Y696061D01*
X671764Y696130D01*
X671830Y696202D01*
X671893Y696276D01*
X671954Y696353D01*
X672011Y696432D01*
X672065Y696514D01*
X672115Y696598D01*
X672162Y696683D01*
X672206Y696770D01*
X672246Y696859D01*
X672282Y696950D01*
X672315Y697042D01*
X672344Y697135D01*
X672370Y697230D01*
X672391Y697325D01*
X672409Y697421D01*
X672422Y697518D01*
X672432Y697615D01*
X672438Y697712D01*
X672440Y697810D01*
X671955Y702175D02*
X671953Y702262D01*
X671947Y702349D01*
X671937Y702435D01*
X671924Y702521D01*
X671906Y702607D01*
X671885Y702691D01*
X671860Y702774D01*
X671831Y702857D01*
X671799Y702937D01*
X671763Y703017D01*
X671723Y703094D01*
X671680Y703170D01*
X671634Y703244D01*
X671584Y703315D01*
X671532Y703385D01*
X671476Y703451D01*
X671417Y703516D01*
X671356Y703577D01*
X671291Y703636D01*
X671225Y703692D01*
X671155Y703744D01*
X671084Y703794D01*
X671010Y703840D01*
X670934Y703883D01*
X670857Y703923D01*
X670777Y703959D01*
X670697Y703991D01*
X670614Y704020D01*
X670531Y704045D01*
X670447Y704066D01*
X670361Y704084D01*
X670275Y704097D01*
X670189Y704107D01*
X670102Y704113D01*
X670015Y704115D01*
X669928Y704113D01*
X669841Y704107D01*
X669755Y704097D01*
X669669Y704084D01*
X669583Y704066D01*
X669499Y704045D01*
X669416Y704020D01*
X669333Y703991D01*
X669253Y703959D01*
X669173Y703923D01*
X669096Y703883D01*
X669020Y703840D01*
X668946Y703794D01*
X668875Y703744D01*
X668805Y703692D01*
X668739Y703636D01*
X668674Y703577D01*
X668613Y703516D01*
X668554Y703451D01*
X668498Y703385D01*
X668446Y703315D01*
X668396Y703244D01*
X668350Y703170D01*
X668307Y703094D01*
X668267Y703017D01*
X668231Y702937D01*
X668199Y702857D01*
X668170Y702774D01*
X668145Y702691D01*
X668124Y702607D01*
X668106Y702521D01*
X668093Y702435D01*
X668083Y702349D01*
X668077Y702262D01*
X668075Y702175D01*
X668077Y702088D01*
X668083Y702001D01*
X668093Y701915D01*
X668106Y701829D01*
X668124Y701743D01*
X668145Y701659D01*
X668170Y701576D01*
X668199Y701493D01*
X668231Y701413D01*
X668267Y701333D01*
X668307Y701256D01*
X668350Y701180D01*
X668396Y701106D01*
X668446Y701035D01*
X668498Y700965D01*
X668554Y700899D01*
X668613Y700834D01*
X668674Y700773D01*
X668739Y700714D01*
X668805Y700658D01*
X668875Y700606D01*
X668946Y700556D01*
X669020Y700510D01*
X669096Y700467D01*
X669173Y700427D01*
X669253Y700391D01*
X669333Y700359D01*
X669416Y700330D01*
X669499Y700305D01*
X669583Y700284D01*
X669669Y700266D01*
X669755Y700253D01*
X669841Y700243D01*
X669928Y700237D01*
X670015Y700235D01*
X670102Y700237D01*
X670189Y700243D01*
X670275Y700253D01*
X670361Y700266D01*
X670447Y700284D01*
X670531Y700305D01*
X670614Y700330D01*
X670697Y700359D01*
X670777Y700391D01*
X670857Y700427D01*
X670934Y700467D01*
X671010Y700510D01*
X671084Y700556D01*
X671155Y700606D01*
X671225Y700658D01*
X671291Y700714D01*
X671356Y700773D01*
X671417Y700834D01*
X671476Y700899D01*
X671532Y700965D01*
X671584Y701035D01*
X671634Y701106D01*
X671680Y701180D01*
X671723Y701256D01*
X671763Y701333D01*
X671799Y701413D01*
X671831Y701493D01*
X671860Y701576D01*
X671885Y701659D01*
X671906Y701743D01*
X671924Y701829D01*
X671937Y701915D01*
X671947Y702001D01*
X671953Y702088D01*
X671955Y702175D01*
D12*
X848071Y675471D02*
X850159Y675471D01*
X850248Y675473D01*
X850336Y675479D01*
X850424Y675488D01*
X850512Y675501D01*
X850599Y675518D01*
X850685Y675538D01*
X850770Y675563D01*
X850855Y675590D01*
X850938Y675622D01*
X851019Y675656D01*
X851099Y675695D01*
X851177Y675736D01*
X851254Y675781D01*
X851328Y675829D01*
X851401Y675880D01*
X851471Y675934D01*
X851538Y675992D01*
X851604Y676052D01*
X851666Y676114D01*
X851726Y676180D01*
X851784Y676247D01*
X851838Y676317D01*
X851889Y676390D01*
X851937Y676464D01*
X851982Y676541D01*
X852023Y676619D01*
X852062Y676699D01*
X852096Y676780D01*
X852128Y676863D01*
X852155Y676948D01*
X852180Y677033D01*
X852200Y677119D01*
X852217Y677206D01*
X852230Y677294D01*
X852239Y677382D01*
X852245Y677470D01*
X852247Y677559D01*
X852248Y677559D02*
X852248Y682781D01*
X852247Y682781D02*
X852245Y682870D01*
X852239Y682958D01*
X852230Y683046D01*
X852217Y683134D01*
X852200Y683221D01*
X852180Y683307D01*
X852155Y683392D01*
X852128Y683477D01*
X852096Y683560D01*
X852062Y683641D01*
X852023Y683721D01*
X851982Y683799D01*
X851937Y683876D01*
X851889Y683950D01*
X851838Y684023D01*
X851784Y684093D01*
X851726Y684160D01*
X851666Y684226D01*
X851604Y684288D01*
X851538Y684348D01*
X851471Y684406D01*
X851401Y684460D01*
X851328Y684511D01*
X851254Y684559D01*
X851177Y684604D01*
X851099Y684645D01*
X851019Y684684D01*
X850938Y684718D01*
X850855Y684750D01*
X850770Y684777D01*
X850685Y684802D01*
X850599Y684822D01*
X850512Y684839D01*
X850424Y684852D01*
X850336Y684861D01*
X850248Y684867D01*
X850159Y684869D01*
X848071Y684869D01*
X844602Y675471D02*
X841992Y675471D01*
X841891Y675473D01*
X841790Y675479D01*
X841689Y675489D01*
X841589Y675502D01*
X841489Y675520D01*
X841390Y675541D01*
X841292Y675567D01*
X841195Y675596D01*
X841099Y675628D01*
X841005Y675665D01*
X840912Y675705D01*
X840820Y675749D01*
X840731Y675796D01*
X840643Y675847D01*
X840557Y675901D01*
X840474Y675958D01*
X840392Y676018D01*
X840314Y676082D01*
X840237Y676148D01*
X840164Y676218D01*
X840093Y676290D01*
X840025Y676365D01*
X839960Y676443D01*
X839898Y676523D01*
X839839Y676605D01*
X839783Y676690D01*
X839731Y676777D01*
X839682Y676865D01*
X839636Y676956D01*
X839595Y677048D01*
X839556Y677142D01*
X839522Y677237D01*
X839491Y677333D01*
X839464Y677431D01*
X839440Y677529D01*
X839421Y677629D01*
X839405Y677729D01*
X839393Y677829D01*
X839385Y677930D01*
X839381Y678031D01*
X839381Y678133D01*
X839385Y678234D01*
X839393Y678335D01*
X839405Y678435D01*
X839421Y678535D01*
X839440Y678635D01*
X839464Y678733D01*
X839491Y678831D01*
X839522Y678927D01*
X839556Y679022D01*
X839595Y679116D01*
X839636Y679208D01*
X839682Y679299D01*
X839731Y679388D01*
X839783Y679474D01*
X839839Y679559D01*
X839898Y679641D01*
X839960Y679721D01*
X840025Y679799D01*
X840093Y679874D01*
X840164Y679946D01*
X840237Y680016D01*
X840314Y680082D01*
X840392Y680146D01*
X840474Y680206D01*
X840557Y680263D01*
X840643Y680317D01*
X840731Y680368D01*
X840820Y680415D01*
X840912Y680459D01*
X841005Y680499D01*
X841099Y680536D01*
X841195Y680568D01*
X841292Y680597D01*
X841390Y680623D01*
X841489Y680644D01*
X841589Y680662D01*
X841689Y680675D01*
X841790Y680685D01*
X841891Y680691D01*
X841992Y680693D01*
X841469Y684869D02*
X844602Y684869D01*
X841469Y684869D02*
X841379Y684867D01*
X841290Y684861D01*
X841200Y684852D01*
X841111Y684838D01*
X841023Y684821D01*
X840936Y684800D01*
X840849Y684775D01*
X840764Y684746D01*
X840680Y684714D01*
X840598Y684679D01*
X840517Y684639D01*
X840438Y684597D01*
X840361Y684551D01*
X840286Y684501D01*
X840213Y684449D01*
X840142Y684393D01*
X840074Y684335D01*
X840009Y684273D01*
X839946Y684209D01*
X839886Y684142D01*
X839829Y684073D01*
X839775Y684001D01*
X839724Y683927D01*
X839676Y683851D01*
X839632Y683773D01*
X839591Y683693D01*
X839553Y683611D01*
X839519Y683528D01*
X839489Y683443D01*
X839462Y683357D01*
X839439Y683271D01*
X839420Y683183D01*
X839405Y683094D01*
X839393Y683005D01*
X839385Y682916D01*
X839381Y682826D01*
X839381Y682736D01*
X839385Y682646D01*
X839393Y682557D01*
X839405Y682468D01*
X839420Y682379D01*
X839439Y682291D01*
X839462Y682205D01*
X839489Y682119D01*
X839519Y682034D01*
X839553Y681951D01*
X839591Y681869D01*
X839632Y681789D01*
X839676Y681711D01*
X839724Y681635D01*
X839775Y681561D01*
X839829Y681489D01*
X839886Y681420D01*
X839946Y681353D01*
X840009Y681289D01*
X840074Y681227D01*
X840142Y681169D01*
X840213Y681113D01*
X840286Y681061D01*
X840361Y681011D01*
X840438Y680965D01*
X840517Y680923D01*
X840598Y680883D01*
X840680Y680848D01*
X840764Y680816D01*
X840849Y680787D01*
X840936Y680762D01*
X841023Y680741D01*
X841111Y680724D01*
X841200Y680710D01*
X841290Y680701D01*
X841379Y680695D01*
X841469Y680693D01*
X841469Y680692D02*
X843558Y680692D01*
X680531Y676131D02*
X678442Y676131D01*
X680531Y676131D02*
X680620Y676133D01*
X680708Y676139D01*
X680796Y676148D01*
X680884Y676161D01*
X680971Y676178D01*
X681057Y676198D01*
X681142Y676223D01*
X681227Y676250D01*
X681310Y676282D01*
X681391Y676316D01*
X681471Y676355D01*
X681549Y676396D01*
X681626Y676441D01*
X681700Y676489D01*
X681773Y676540D01*
X681843Y676594D01*
X681910Y676652D01*
X681976Y676712D01*
X682038Y676774D01*
X682098Y676840D01*
X682156Y676907D01*
X682210Y676977D01*
X682261Y677050D01*
X682309Y677124D01*
X682354Y677201D01*
X682395Y677279D01*
X682434Y677359D01*
X682468Y677440D01*
X682500Y677523D01*
X682527Y677608D01*
X682552Y677693D01*
X682572Y677779D01*
X682589Y677866D01*
X682602Y677954D01*
X682611Y678042D01*
X682617Y678130D01*
X682619Y678219D01*
X682619Y683441D01*
X682617Y683530D01*
X682611Y683618D01*
X682602Y683706D01*
X682589Y683794D01*
X682572Y683881D01*
X682552Y683967D01*
X682527Y684052D01*
X682500Y684137D01*
X682468Y684220D01*
X682434Y684301D01*
X682395Y684381D01*
X682354Y684459D01*
X682309Y684536D01*
X682261Y684610D01*
X682210Y684683D01*
X682156Y684753D01*
X682098Y684820D01*
X682038Y684886D01*
X681976Y684948D01*
X681910Y685008D01*
X681843Y685066D01*
X681773Y685120D01*
X681700Y685171D01*
X681626Y685219D01*
X681549Y685264D01*
X681471Y685305D01*
X681391Y685344D01*
X681310Y685378D01*
X681227Y685410D01*
X681142Y685437D01*
X681057Y685462D01*
X680971Y685482D01*
X680884Y685499D01*
X680796Y685512D01*
X680708Y685521D01*
X680620Y685527D01*
X680531Y685529D01*
X678442Y685529D01*
X672885Y685529D02*
X674973Y678219D01*
X669752Y678219D01*
X671319Y676131D02*
X671319Y680308D01*
D10*
X263125Y853000D02*
X213125Y853000D01*
X263125Y853000D02*
X263125Y894000D01*
X263125Y903000D01*
X254125Y903000D01*
X213125Y903000D01*
X213125Y853000D01*
X263125Y894000D02*
X254125Y903000D01*
X220920Y878000D02*
X220925Y878422D01*
X220941Y878844D01*
X220967Y879266D01*
X221003Y879686D01*
X221049Y880106D01*
X221106Y880524D01*
X221173Y880941D01*
X221251Y881357D01*
X221338Y881770D01*
X221436Y882180D01*
X221543Y882589D01*
X221661Y882994D01*
X221788Y883397D01*
X221926Y883796D01*
X222073Y884192D01*
X222230Y884584D01*
X222396Y884972D01*
X222572Y885356D01*
X222757Y885736D01*
X222952Y886110D01*
X223155Y886480D01*
X223368Y886845D01*
X223589Y887205D01*
X223820Y887559D01*
X224058Y887907D01*
X224306Y888249D01*
X224561Y888585D01*
X224825Y888915D01*
X225097Y889238D01*
X225377Y889554D01*
X225664Y889864D01*
X225959Y890166D01*
X226261Y890461D01*
X226571Y890748D01*
X226887Y891028D01*
X227210Y891300D01*
X227540Y891564D01*
X227876Y891819D01*
X228218Y892067D01*
X228566Y892305D01*
X228920Y892536D01*
X229280Y892757D01*
X229645Y892970D01*
X230015Y893173D01*
X230389Y893368D01*
X230769Y893553D01*
X231153Y893729D01*
X231541Y893895D01*
X231933Y894052D01*
X232329Y894199D01*
X232728Y894337D01*
X233131Y894464D01*
X233536Y894582D01*
X233945Y894689D01*
X234355Y894787D01*
X234768Y894874D01*
X235184Y894952D01*
X235601Y895019D01*
X236019Y895076D01*
X236439Y895122D01*
X236859Y895158D01*
X237281Y895184D01*
X237703Y895200D01*
X238125Y895205D01*
X238547Y895200D01*
X238969Y895184D01*
X239391Y895158D01*
X239811Y895122D01*
X240231Y895076D01*
X240649Y895019D01*
X241066Y894952D01*
X241482Y894874D01*
X241895Y894787D01*
X242305Y894689D01*
X242714Y894582D01*
X243119Y894464D01*
X243522Y894337D01*
X243921Y894199D01*
X244317Y894052D01*
X244709Y893895D01*
X245097Y893729D01*
X245481Y893553D01*
X245861Y893368D01*
X246235Y893173D01*
X246605Y892970D01*
X246970Y892757D01*
X247330Y892536D01*
X247684Y892305D01*
X248032Y892067D01*
X248374Y891819D01*
X248710Y891564D01*
X249040Y891300D01*
X249363Y891028D01*
X249679Y890748D01*
X249989Y890461D01*
X250291Y890166D01*
X250586Y889864D01*
X250873Y889554D01*
X251153Y889238D01*
X251425Y888915D01*
X251689Y888585D01*
X251944Y888249D01*
X252192Y887907D01*
X252430Y887559D01*
X252661Y887205D01*
X252882Y886845D01*
X253095Y886480D01*
X253298Y886110D01*
X253493Y885736D01*
X253678Y885356D01*
X253854Y884972D01*
X254020Y884584D01*
X254177Y884192D01*
X254324Y883796D01*
X254462Y883397D01*
X254589Y882994D01*
X254707Y882589D01*
X254814Y882180D01*
X254912Y881770D01*
X254999Y881357D01*
X255077Y880941D01*
X255144Y880524D01*
X255201Y880106D01*
X255247Y879686D01*
X255283Y879266D01*
X255309Y878844D01*
X255325Y878422D01*
X255330Y878000D01*
X255325Y877578D01*
X255309Y877156D01*
X255283Y876734D01*
X255247Y876314D01*
X255201Y875894D01*
X255144Y875476D01*
X255077Y875059D01*
X254999Y874643D01*
X254912Y874230D01*
X254814Y873820D01*
X254707Y873411D01*
X254589Y873006D01*
X254462Y872603D01*
X254324Y872204D01*
X254177Y871808D01*
X254020Y871416D01*
X253854Y871028D01*
X253678Y870644D01*
X253493Y870264D01*
X253298Y869890D01*
X253095Y869520D01*
X252882Y869155D01*
X252661Y868795D01*
X252430Y868441D01*
X252192Y868093D01*
X251944Y867751D01*
X251689Y867415D01*
X251425Y867085D01*
X251153Y866762D01*
X250873Y866446D01*
X250586Y866136D01*
X250291Y865834D01*
X249989Y865539D01*
X249679Y865252D01*
X249363Y864972D01*
X249040Y864700D01*
X248710Y864436D01*
X248374Y864181D01*
X248032Y863933D01*
X247684Y863695D01*
X247330Y863464D01*
X246970Y863243D01*
X246605Y863030D01*
X246235Y862827D01*
X245861Y862632D01*
X245481Y862447D01*
X245097Y862271D01*
X244709Y862105D01*
X244317Y861948D01*
X243921Y861801D01*
X243522Y861663D01*
X243119Y861536D01*
X242714Y861418D01*
X242305Y861311D01*
X241895Y861213D01*
X241482Y861126D01*
X241066Y861048D01*
X240649Y860981D01*
X240231Y860924D01*
X239811Y860878D01*
X239391Y860842D01*
X238969Y860816D01*
X238547Y860800D01*
X238125Y860795D01*
X237703Y860800D01*
X237281Y860816D01*
X236859Y860842D01*
X236439Y860878D01*
X236019Y860924D01*
X235601Y860981D01*
X235184Y861048D01*
X234768Y861126D01*
X234355Y861213D01*
X233945Y861311D01*
X233536Y861418D01*
X233131Y861536D01*
X232728Y861663D01*
X232329Y861801D01*
X231933Y861948D01*
X231541Y862105D01*
X231153Y862271D01*
X230769Y862447D01*
X230389Y862632D01*
X230015Y862827D01*
X229645Y863030D01*
X229280Y863243D01*
X228920Y863464D01*
X228566Y863695D01*
X228218Y863933D01*
X227876Y864181D01*
X227540Y864436D01*
X227210Y864700D01*
X226887Y864972D01*
X226571Y865252D01*
X226261Y865539D01*
X225959Y865834D01*
X225664Y866136D01*
X225377Y866446D01*
X225097Y866762D01*
X224825Y867085D01*
X224561Y867415D01*
X224306Y867751D01*
X224058Y868093D01*
X223820Y868441D01*
X223589Y868795D01*
X223368Y869155D01*
X223155Y869520D01*
X222952Y869890D01*
X222757Y870264D01*
X222572Y870644D01*
X222396Y871028D01*
X222230Y871416D01*
X222073Y871808D01*
X221926Y872204D01*
X221788Y872603D01*
X221661Y873006D01*
X221543Y873411D01*
X221436Y873820D01*
X221338Y874230D01*
X221251Y874643D01*
X221173Y875059D01*
X221106Y875476D01*
X221049Y875894D01*
X221003Y876314D01*
X220967Y876734D01*
X220941Y877156D01*
X220925Y877578D01*
X220920Y878000D01*
X251125Y906000D02*
X254125Y903000D01*
X251125Y906000D02*
X255125Y910000D01*
X263125Y903000D01*
D12*
X251362Y849683D02*
X251362Y842317D01*
X251362Y849683D02*
X249316Y849683D01*
X249227Y849681D01*
X249138Y849675D01*
X249049Y849665D01*
X248961Y849652D01*
X248873Y849635D01*
X248786Y849613D01*
X248701Y849588D01*
X248616Y849560D01*
X248533Y849527D01*
X248451Y849491D01*
X248371Y849452D01*
X248293Y849409D01*
X248217Y849363D01*
X248142Y849313D01*
X248070Y849260D01*
X248001Y849204D01*
X247934Y849145D01*
X247869Y849084D01*
X247808Y849019D01*
X247749Y848952D01*
X247693Y848883D01*
X247640Y848811D01*
X247590Y848736D01*
X247544Y848660D01*
X247501Y848582D01*
X247462Y848502D01*
X247426Y848420D01*
X247393Y848337D01*
X247365Y848252D01*
X247340Y848167D01*
X247318Y848080D01*
X247301Y847992D01*
X247288Y847904D01*
X247278Y847815D01*
X247272Y847726D01*
X247270Y847637D01*
X247272Y847548D01*
X247278Y847459D01*
X247288Y847370D01*
X247301Y847282D01*
X247318Y847194D01*
X247340Y847107D01*
X247365Y847022D01*
X247393Y846937D01*
X247426Y846854D01*
X247462Y846772D01*
X247501Y846692D01*
X247544Y846614D01*
X247590Y846538D01*
X247640Y846463D01*
X247693Y846391D01*
X247749Y846322D01*
X247808Y846255D01*
X247869Y846190D01*
X247934Y846129D01*
X248001Y846070D01*
X248070Y846014D01*
X248142Y845961D01*
X248217Y845911D01*
X248293Y845865D01*
X248371Y845822D01*
X248451Y845783D01*
X248533Y845747D01*
X248616Y845714D01*
X248701Y845686D01*
X248786Y845661D01*
X248873Y845639D01*
X248961Y845622D01*
X249049Y845609D01*
X249138Y845599D01*
X249227Y845593D01*
X249316Y845591D01*
X251362Y845591D01*
X248907Y845591D02*
X247270Y842317D01*
X240990Y846409D02*
X239762Y846409D01*
X239762Y842317D01*
X242217Y842317D01*
X242295Y842319D01*
X242373Y842324D01*
X242450Y842334D01*
X242527Y842347D01*
X242603Y842363D01*
X242678Y842383D01*
X242752Y842407D01*
X242825Y842434D01*
X242897Y842465D01*
X242967Y842499D01*
X243036Y842536D01*
X243102Y842577D01*
X243167Y842621D01*
X243229Y842667D01*
X243289Y842717D01*
X243347Y842769D01*
X243402Y842824D01*
X243454Y842882D01*
X243504Y842942D01*
X243550Y843004D01*
X243594Y843069D01*
X243635Y843136D01*
X243672Y843204D01*
X243706Y843274D01*
X243737Y843346D01*
X243764Y843419D01*
X243788Y843493D01*
X243808Y843568D01*
X243824Y843644D01*
X243837Y843721D01*
X243847Y843798D01*
X243852Y843876D01*
X243854Y843954D01*
X243854Y848046D01*
X243852Y848124D01*
X243847Y848202D01*
X243837Y848279D01*
X243824Y848356D01*
X243808Y848432D01*
X243788Y848507D01*
X243764Y848581D01*
X243737Y848654D01*
X243706Y848726D01*
X243672Y848796D01*
X243635Y848865D01*
X243594Y848931D01*
X243550Y848996D01*
X243504Y849058D01*
X243454Y849118D01*
X243402Y849176D01*
X243347Y849231D01*
X243289Y849283D01*
X243229Y849333D01*
X243167Y849379D01*
X243102Y849423D01*
X243036Y849464D01*
X242967Y849501D01*
X242897Y849535D01*
X242825Y849566D01*
X242752Y849593D01*
X242678Y849617D01*
X242603Y849637D01*
X242527Y849653D01*
X242450Y849666D01*
X242373Y849676D01*
X242295Y849681D01*
X242217Y849683D01*
X239762Y849683D01*
X235934Y846409D02*
X233888Y846409D01*
X233799Y846407D01*
X233710Y846401D01*
X233621Y846391D01*
X233533Y846378D01*
X233445Y846361D01*
X233358Y846339D01*
X233273Y846314D01*
X233188Y846286D01*
X233105Y846253D01*
X233023Y846217D01*
X232943Y846178D01*
X232865Y846135D01*
X232789Y846089D01*
X232714Y846039D01*
X232642Y845986D01*
X232573Y845930D01*
X232506Y845871D01*
X232441Y845810D01*
X232380Y845745D01*
X232321Y845678D01*
X232265Y845609D01*
X232212Y845537D01*
X232162Y845462D01*
X232116Y845386D01*
X232073Y845308D01*
X232034Y845228D01*
X231998Y845146D01*
X231965Y845063D01*
X231937Y844978D01*
X231912Y844893D01*
X231890Y844806D01*
X231873Y844718D01*
X231860Y844630D01*
X231850Y844541D01*
X231844Y844452D01*
X231842Y844363D01*
X231844Y844274D01*
X231850Y844185D01*
X231860Y844096D01*
X231873Y844008D01*
X231890Y843920D01*
X231912Y843833D01*
X231937Y843748D01*
X231965Y843663D01*
X231998Y843580D01*
X232034Y843498D01*
X232073Y843418D01*
X232116Y843340D01*
X232162Y843264D01*
X232212Y843189D01*
X232265Y843117D01*
X232321Y843048D01*
X232380Y842981D01*
X232441Y842916D01*
X232506Y842855D01*
X232573Y842796D01*
X232642Y842740D01*
X232714Y842687D01*
X232789Y842637D01*
X232865Y842591D01*
X232943Y842548D01*
X233023Y842509D01*
X233105Y842473D01*
X233188Y842440D01*
X233273Y842412D01*
X233358Y842387D01*
X233445Y842365D01*
X233533Y842348D01*
X233621Y842335D01*
X233710Y842325D01*
X233799Y842319D01*
X233888Y842317D01*
X235934Y842317D01*
X235934Y849683D01*
X233888Y849683D01*
X233809Y849681D01*
X233730Y849675D01*
X233651Y849666D01*
X233573Y849653D01*
X233496Y849635D01*
X233420Y849615D01*
X233345Y849590D01*
X233271Y849562D01*
X233198Y849531D01*
X233127Y849495D01*
X233058Y849457D01*
X232991Y849415D01*
X232926Y849370D01*
X232863Y849322D01*
X232802Y849271D01*
X232745Y849217D01*
X232689Y849161D01*
X232637Y849102D01*
X232587Y849040D01*
X232541Y848976D01*
X232497Y848910D01*
X232457Y848842D01*
X232421Y848772D01*
X232387Y848700D01*
X232357Y848626D01*
X232331Y848552D01*
X232308Y848476D01*
X232290Y848399D01*
X232274Y848322D01*
X232263Y848243D01*
X232255Y848165D01*
X232251Y848086D01*
X232251Y848006D01*
X232255Y847927D01*
X232263Y847849D01*
X232274Y847770D01*
X232290Y847693D01*
X232308Y847616D01*
X232331Y847540D01*
X232357Y847466D01*
X232387Y847392D01*
X232421Y847320D01*
X232457Y847250D01*
X232497Y847182D01*
X232541Y847116D01*
X232587Y847052D01*
X232637Y846990D01*
X232689Y846931D01*
X232745Y846875D01*
X232802Y846821D01*
X232863Y846770D01*
X232926Y846722D01*
X232991Y846677D01*
X233058Y846635D01*
X233127Y846597D01*
X233198Y846561D01*
X233271Y846530D01*
X233345Y846502D01*
X233420Y846477D01*
X233496Y846457D01*
X233573Y846439D01*
X233651Y846426D01*
X233730Y846417D01*
X233809Y846411D01*
X233888Y846409D01*
X228980Y848046D02*
X226934Y849683D01*
X226934Y842317D01*
X228980Y842317D02*
X224888Y842317D01*
D10*
X146300Y501250D02*
X146300Y451250D01*
X146300Y501250D02*
X105300Y501250D01*
X96300Y501250D01*
X96300Y492250D01*
X96300Y451250D01*
X146300Y451250D01*
X105300Y501250D02*
X96300Y492250D01*
X104095Y476250D02*
X104100Y476672D01*
X104116Y477094D01*
X104142Y477516D01*
X104178Y477936D01*
X104224Y478356D01*
X104281Y478774D01*
X104348Y479191D01*
X104426Y479607D01*
X104513Y480020D01*
X104611Y480430D01*
X104718Y480839D01*
X104836Y481244D01*
X104963Y481647D01*
X105101Y482046D01*
X105248Y482442D01*
X105405Y482834D01*
X105571Y483222D01*
X105747Y483606D01*
X105932Y483986D01*
X106127Y484360D01*
X106330Y484730D01*
X106543Y485095D01*
X106764Y485455D01*
X106995Y485809D01*
X107233Y486157D01*
X107481Y486499D01*
X107736Y486835D01*
X108000Y487165D01*
X108272Y487488D01*
X108552Y487804D01*
X108839Y488114D01*
X109134Y488416D01*
X109436Y488711D01*
X109746Y488998D01*
X110062Y489278D01*
X110385Y489550D01*
X110715Y489814D01*
X111051Y490069D01*
X111393Y490317D01*
X111741Y490555D01*
X112095Y490786D01*
X112455Y491007D01*
X112820Y491220D01*
X113190Y491423D01*
X113564Y491618D01*
X113944Y491803D01*
X114328Y491979D01*
X114716Y492145D01*
X115108Y492302D01*
X115504Y492449D01*
X115903Y492587D01*
X116306Y492714D01*
X116711Y492832D01*
X117120Y492939D01*
X117530Y493037D01*
X117943Y493124D01*
X118359Y493202D01*
X118776Y493269D01*
X119194Y493326D01*
X119614Y493372D01*
X120034Y493408D01*
X120456Y493434D01*
X120878Y493450D01*
X121300Y493455D01*
X121722Y493450D01*
X122144Y493434D01*
X122566Y493408D01*
X122986Y493372D01*
X123406Y493326D01*
X123824Y493269D01*
X124241Y493202D01*
X124657Y493124D01*
X125070Y493037D01*
X125480Y492939D01*
X125889Y492832D01*
X126294Y492714D01*
X126697Y492587D01*
X127096Y492449D01*
X127492Y492302D01*
X127884Y492145D01*
X128272Y491979D01*
X128656Y491803D01*
X129036Y491618D01*
X129410Y491423D01*
X129780Y491220D01*
X130145Y491007D01*
X130505Y490786D01*
X130859Y490555D01*
X131207Y490317D01*
X131549Y490069D01*
X131885Y489814D01*
X132215Y489550D01*
X132538Y489278D01*
X132854Y488998D01*
X133164Y488711D01*
X133466Y488416D01*
X133761Y488114D01*
X134048Y487804D01*
X134328Y487488D01*
X134600Y487165D01*
X134864Y486835D01*
X135119Y486499D01*
X135367Y486157D01*
X135605Y485809D01*
X135836Y485455D01*
X136057Y485095D01*
X136270Y484730D01*
X136473Y484360D01*
X136668Y483986D01*
X136853Y483606D01*
X137029Y483222D01*
X137195Y482834D01*
X137352Y482442D01*
X137499Y482046D01*
X137637Y481647D01*
X137764Y481244D01*
X137882Y480839D01*
X137989Y480430D01*
X138087Y480020D01*
X138174Y479607D01*
X138252Y479191D01*
X138319Y478774D01*
X138376Y478356D01*
X138422Y477936D01*
X138458Y477516D01*
X138484Y477094D01*
X138500Y476672D01*
X138505Y476250D01*
X138500Y475828D01*
X138484Y475406D01*
X138458Y474984D01*
X138422Y474564D01*
X138376Y474144D01*
X138319Y473726D01*
X138252Y473309D01*
X138174Y472893D01*
X138087Y472480D01*
X137989Y472070D01*
X137882Y471661D01*
X137764Y471256D01*
X137637Y470853D01*
X137499Y470454D01*
X137352Y470058D01*
X137195Y469666D01*
X137029Y469278D01*
X136853Y468894D01*
X136668Y468514D01*
X136473Y468140D01*
X136270Y467770D01*
X136057Y467405D01*
X135836Y467045D01*
X135605Y466691D01*
X135367Y466343D01*
X135119Y466001D01*
X134864Y465665D01*
X134600Y465335D01*
X134328Y465012D01*
X134048Y464696D01*
X133761Y464386D01*
X133466Y464084D01*
X133164Y463789D01*
X132854Y463502D01*
X132538Y463222D01*
X132215Y462950D01*
X131885Y462686D01*
X131549Y462431D01*
X131207Y462183D01*
X130859Y461945D01*
X130505Y461714D01*
X130145Y461493D01*
X129780Y461280D01*
X129410Y461077D01*
X129036Y460882D01*
X128656Y460697D01*
X128272Y460521D01*
X127884Y460355D01*
X127492Y460198D01*
X127096Y460051D01*
X126697Y459913D01*
X126294Y459786D01*
X125889Y459668D01*
X125480Y459561D01*
X125070Y459463D01*
X124657Y459376D01*
X124241Y459298D01*
X123824Y459231D01*
X123406Y459174D01*
X122986Y459128D01*
X122566Y459092D01*
X122144Y459066D01*
X121722Y459050D01*
X121300Y459045D01*
X120878Y459050D01*
X120456Y459066D01*
X120034Y459092D01*
X119614Y459128D01*
X119194Y459174D01*
X118776Y459231D01*
X118359Y459298D01*
X117943Y459376D01*
X117530Y459463D01*
X117120Y459561D01*
X116711Y459668D01*
X116306Y459786D01*
X115903Y459913D01*
X115504Y460051D01*
X115108Y460198D01*
X114716Y460355D01*
X114328Y460521D01*
X113944Y460697D01*
X113564Y460882D01*
X113190Y461077D01*
X112820Y461280D01*
X112455Y461493D01*
X112095Y461714D01*
X111741Y461945D01*
X111393Y462183D01*
X111051Y462431D01*
X110715Y462686D01*
X110385Y462950D01*
X110062Y463222D01*
X109746Y463502D01*
X109436Y463789D01*
X109134Y464084D01*
X108839Y464386D01*
X108552Y464696D01*
X108272Y465012D01*
X108000Y465335D01*
X107736Y465665D01*
X107481Y466001D01*
X107233Y466343D01*
X106995Y466691D01*
X106764Y467045D01*
X106543Y467405D01*
X106330Y467770D01*
X106127Y468140D01*
X105932Y468514D01*
X105747Y468894D01*
X105571Y469278D01*
X105405Y469666D01*
X105248Y470058D01*
X105101Y470454D01*
X104963Y470853D01*
X104836Y471256D01*
X104718Y471661D01*
X104611Y472070D01*
X104513Y472480D01*
X104426Y472893D01*
X104348Y473309D01*
X104281Y473726D01*
X104224Y474144D01*
X104178Y474564D01*
X104142Y474984D01*
X104116Y475406D01*
X104100Y475828D01*
X104095Y476250D01*
X93300Y489250D02*
X96300Y492250D01*
X93300Y489250D02*
X89300Y493250D01*
X96300Y501250D01*
D12*
X149617Y463013D02*
X156983Y463013D01*
X156983Y465059D01*
X156981Y465148D01*
X156975Y465237D01*
X156965Y465326D01*
X156952Y465414D01*
X156935Y465502D01*
X156913Y465589D01*
X156888Y465674D01*
X156860Y465759D01*
X156827Y465842D01*
X156791Y465924D01*
X156752Y466004D01*
X156709Y466082D01*
X156663Y466158D01*
X156613Y466233D01*
X156560Y466305D01*
X156504Y466374D01*
X156445Y466441D01*
X156384Y466506D01*
X156319Y466567D01*
X156252Y466626D01*
X156183Y466682D01*
X156111Y466735D01*
X156036Y466785D01*
X155960Y466831D01*
X155882Y466874D01*
X155802Y466913D01*
X155720Y466949D01*
X155637Y466982D01*
X155552Y467010D01*
X155467Y467035D01*
X155380Y467057D01*
X155292Y467074D01*
X155204Y467087D01*
X155115Y467097D01*
X155026Y467103D01*
X154937Y467105D01*
X154848Y467103D01*
X154759Y467097D01*
X154670Y467087D01*
X154582Y467074D01*
X154494Y467057D01*
X154407Y467035D01*
X154322Y467010D01*
X154237Y466982D01*
X154154Y466949D01*
X154072Y466913D01*
X153992Y466874D01*
X153914Y466831D01*
X153838Y466785D01*
X153763Y466735D01*
X153691Y466682D01*
X153622Y466626D01*
X153555Y466567D01*
X153490Y466506D01*
X153429Y466441D01*
X153370Y466374D01*
X153314Y466305D01*
X153261Y466233D01*
X153211Y466158D01*
X153165Y466082D01*
X153122Y466004D01*
X153083Y465924D01*
X153047Y465842D01*
X153014Y465759D01*
X152986Y465674D01*
X152961Y465589D01*
X152939Y465502D01*
X152922Y465414D01*
X152909Y465326D01*
X152899Y465237D01*
X152893Y465148D01*
X152891Y465059D01*
X152891Y463013D01*
X152891Y465468D02*
X149617Y467105D01*
X153709Y473385D02*
X153709Y474613D01*
X149617Y474613D01*
X149617Y472158D01*
X149619Y472080D01*
X149624Y472002D01*
X149634Y471925D01*
X149647Y471848D01*
X149663Y471772D01*
X149683Y471697D01*
X149707Y471623D01*
X149734Y471550D01*
X149765Y471478D01*
X149799Y471408D01*
X149836Y471340D01*
X149877Y471273D01*
X149921Y471208D01*
X149967Y471146D01*
X150017Y471086D01*
X150069Y471028D01*
X150124Y470973D01*
X150182Y470921D01*
X150242Y470871D01*
X150304Y470825D01*
X150369Y470781D01*
X150436Y470740D01*
X150504Y470703D01*
X150574Y470669D01*
X150646Y470638D01*
X150719Y470611D01*
X150793Y470587D01*
X150868Y470567D01*
X150944Y470551D01*
X151021Y470538D01*
X151098Y470528D01*
X151176Y470523D01*
X151254Y470521D01*
X155346Y470521D01*
X155424Y470523D01*
X155502Y470528D01*
X155579Y470538D01*
X155656Y470551D01*
X155732Y470567D01*
X155807Y470587D01*
X155881Y470611D01*
X155954Y470638D01*
X156026Y470669D01*
X156096Y470703D01*
X156165Y470740D01*
X156231Y470781D01*
X156296Y470825D01*
X156358Y470871D01*
X156418Y470921D01*
X156476Y470973D01*
X156531Y471028D01*
X156583Y471086D01*
X156633Y471146D01*
X156679Y471208D01*
X156723Y471273D01*
X156764Y471340D01*
X156801Y471408D01*
X156835Y471478D01*
X156866Y471550D01*
X156893Y471623D01*
X156917Y471697D01*
X156937Y471772D01*
X156953Y471848D01*
X156966Y471925D01*
X156976Y472002D01*
X156981Y472080D01*
X156983Y472158D01*
X156983Y474613D01*
X153709Y478441D02*
X153709Y480487D01*
X153707Y480576D01*
X153701Y480665D01*
X153691Y480754D01*
X153678Y480842D01*
X153661Y480930D01*
X153639Y481017D01*
X153614Y481102D01*
X153586Y481187D01*
X153553Y481270D01*
X153517Y481352D01*
X153478Y481432D01*
X153435Y481510D01*
X153389Y481586D01*
X153339Y481661D01*
X153286Y481733D01*
X153230Y481802D01*
X153171Y481869D01*
X153110Y481934D01*
X153045Y481995D01*
X152978Y482054D01*
X152909Y482110D01*
X152837Y482163D01*
X152762Y482213D01*
X152686Y482259D01*
X152608Y482302D01*
X152528Y482341D01*
X152446Y482377D01*
X152363Y482410D01*
X152278Y482438D01*
X152193Y482463D01*
X152106Y482485D01*
X152018Y482502D01*
X151930Y482515D01*
X151841Y482525D01*
X151752Y482531D01*
X151663Y482533D01*
X151574Y482531D01*
X151485Y482525D01*
X151396Y482515D01*
X151308Y482502D01*
X151220Y482485D01*
X151133Y482463D01*
X151048Y482438D01*
X150963Y482410D01*
X150880Y482377D01*
X150798Y482341D01*
X150718Y482302D01*
X150640Y482259D01*
X150564Y482213D01*
X150489Y482163D01*
X150417Y482110D01*
X150348Y482054D01*
X150281Y481995D01*
X150216Y481934D01*
X150155Y481869D01*
X150096Y481802D01*
X150040Y481733D01*
X149987Y481661D01*
X149937Y481586D01*
X149891Y481510D01*
X149848Y481432D01*
X149809Y481352D01*
X149773Y481270D01*
X149740Y481187D01*
X149712Y481102D01*
X149687Y481017D01*
X149665Y480930D01*
X149648Y480842D01*
X149635Y480754D01*
X149625Y480665D01*
X149619Y480576D01*
X149617Y480487D01*
X149617Y478441D01*
X156983Y478441D01*
X156983Y480487D01*
X156981Y480566D01*
X156975Y480645D01*
X156966Y480724D01*
X156953Y480802D01*
X156935Y480879D01*
X156915Y480955D01*
X156890Y481030D01*
X156862Y481104D01*
X156831Y481177D01*
X156795Y481248D01*
X156757Y481317D01*
X156715Y481384D01*
X156670Y481449D01*
X156622Y481512D01*
X156571Y481573D01*
X156517Y481630D01*
X156461Y481686D01*
X156402Y481738D01*
X156340Y481788D01*
X156276Y481834D01*
X156210Y481878D01*
X156142Y481918D01*
X156072Y481954D01*
X156000Y481988D01*
X155926Y482018D01*
X155852Y482044D01*
X155776Y482067D01*
X155699Y482085D01*
X155622Y482101D01*
X155543Y482112D01*
X155465Y482120D01*
X155386Y482124D01*
X155306Y482124D01*
X155227Y482120D01*
X155149Y482112D01*
X155070Y482101D01*
X154993Y482085D01*
X154916Y482067D01*
X154840Y482044D01*
X154766Y482018D01*
X154692Y481988D01*
X154620Y481954D01*
X154550Y481918D01*
X154482Y481878D01*
X154416Y481834D01*
X154352Y481788D01*
X154290Y481738D01*
X154231Y481686D01*
X154175Y481630D01*
X154121Y481573D01*
X154070Y481512D01*
X154022Y481449D01*
X153977Y481384D01*
X153935Y481317D01*
X153897Y481248D01*
X153861Y481177D01*
X153830Y481104D01*
X153802Y481030D01*
X153777Y480955D01*
X153757Y480879D01*
X153739Y480802D01*
X153726Y480724D01*
X153717Y480645D01*
X153711Y480566D01*
X153709Y480487D01*
X156984Y487646D02*
X156982Y487731D01*
X156976Y487816D01*
X156966Y487900D01*
X156953Y487984D01*
X156935Y488068D01*
X156914Y488150D01*
X156889Y488231D01*
X156860Y488311D01*
X156827Y488390D01*
X156791Y488467D01*
X156751Y488542D01*
X156708Y488616D01*
X156662Y488687D01*
X156612Y488756D01*
X156559Y488823D01*
X156503Y488887D01*
X156444Y488948D01*
X156383Y489007D01*
X156319Y489063D01*
X156252Y489116D01*
X156183Y489166D01*
X156112Y489212D01*
X156038Y489255D01*
X155963Y489295D01*
X155886Y489331D01*
X155807Y489364D01*
X155727Y489393D01*
X155646Y489418D01*
X155564Y489439D01*
X155480Y489457D01*
X155396Y489470D01*
X155312Y489480D01*
X155227Y489486D01*
X155142Y489488D01*
X156983Y487646D02*
X156981Y487550D01*
X156975Y487454D01*
X156965Y487359D01*
X156952Y487264D01*
X156934Y487169D01*
X156913Y487076D01*
X156888Y486983D01*
X156859Y486892D01*
X156827Y486801D01*
X156791Y486712D01*
X156751Y486625D01*
X156708Y486539D01*
X156662Y486455D01*
X156612Y486373D01*
X156558Y486293D01*
X156502Y486216D01*
X156442Y486141D01*
X156380Y486068D01*
X156314Y485998D01*
X156246Y485930D01*
X156175Y485865D01*
X156102Y485804D01*
X156026Y485745D01*
X155947Y485689D01*
X155867Y485637D01*
X155784Y485588D01*
X155700Y485542D01*
X155614Y485500D01*
X155526Y485462D01*
X155437Y485427D01*
X155346Y485395D01*
X153710Y488873D02*
X153769Y488933D01*
X153831Y488990D01*
X153895Y489045D01*
X153962Y489096D01*
X154031Y489145D01*
X154101Y489191D01*
X154174Y489234D01*
X154248Y489274D01*
X154324Y489310D01*
X154402Y489343D01*
X154481Y489373D01*
X154561Y489400D01*
X154642Y489423D01*
X154724Y489442D01*
X154806Y489458D01*
X154890Y489471D01*
X154974Y489480D01*
X155058Y489485D01*
X155142Y489487D01*
X153709Y488873D02*
X149617Y485395D01*
X149617Y489487D01*
D10*
X260750Y147000D02*
X310750Y147000D01*
X260750Y147000D02*
X260750Y106000D01*
X260750Y97000D01*
X269750Y97000D01*
X310750Y97000D01*
X310750Y147000D01*
X260750Y106000D02*
X269750Y97000D01*
X268545Y122000D02*
X268550Y122422D01*
X268566Y122844D01*
X268592Y123266D01*
X268628Y123686D01*
X268674Y124106D01*
X268731Y124524D01*
X268798Y124941D01*
X268876Y125357D01*
X268963Y125770D01*
X269061Y126180D01*
X269168Y126589D01*
X269286Y126994D01*
X269413Y127397D01*
X269551Y127796D01*
X269698Y128192D01*
X269855Y128584D01*
X270021Y128972D01*
X270197Y129356D01*
X270382Y129736D01*
X270577Y130110D01*
X270780Y130480D01*
X270993Y130845D01*
X271214Y131205D01*
X271445Y131559D01*
X271683Y131907D01*
X271931Y132249D01*
X272186Y132585D01*
X272450Y132915D01*
X272722Y133238D01*
X273002Y133554D01*
X273289Y133864D01*
X273584Y134166D01*
X273886Y134461D01*
X274196Y134748D01*
X274512Y135028D01*
X274835Y135300D01*
X275165Y135564D01*
X275501Y135819D01*
X275843Y136067D01*
X276191Y136305D01*
X276545Y136536D01*
X276905Y136757D01*
X277270Y136970D01*
X277640Y137173D01*
X278014Y137368D01*
X278394Y137553D01*
X278778Y137729D01*
X279166Y137895D01*
X279558Y138052D01*
X279954Y138199D01*
X280353Y138337D01*
X280756Y138464D01*
X281161Y138582D01*
X281570Y138689D01*
X281980Y138787D01*
X282393Y138874D01*
X282809Y138952D01*
X283226Y139019D01*
X283644Y139076D01*
X284064Y139122D01*
X284484Y139158D01*
X284906Y139184D01*
X285328Y139200D01*
X285750Y139205D01*
X286172Y139200D01*
X286594Y139184D01*
X287016Y139158D01*
X287436Y139122D01*
X287856Y139076D01*
X288274Y139019D01*
X288691Y138952D01*
X289107Y138874D01*
X289520Y138787D01*
X289930Y138689D01*
X290339Y138582D01*
X290744Y138464D01*
X291147Y138337D01*
X291546Y138199D01*
X291942Y138052D01*
X292334Y137895D01*
X292722Y137729D01*
X293106Y137553D01*
X293486Y137368D01*
X293860Y137173D01*
X294230Y136970D01*
X294595Y136757D01*
X294955Y136536D01*
X295309Y136305D01*
X295657Y136067D01*
X295999Y135819D01*
X296335Y135564D01*
X296665Y135300D01*
X296988Y135028D01*
X297304Y134748D01*
X297614Y134461D01*
X297916Y134166D01*
X298211Y133864D01*
X298498Y133554D01*
X298778Y133238D01*
X299050Y132915D01*
X299314Y132585D01*
X299569Y132249D01*
X299817Y131907D01*
X300055Y131559D01*
X300286Y131205D01*
X300507Y130845D01*
X300720Y130480D01*
X300923Y130110D01*
X301118Y129736D01*
X301303Y129356D01*
X301479Y128972D01*
X301645Y128584D01*
X301802Y128192D01*
X301949Y127796D01*
X302087Y127397D01*
X302214Y126994D01*
X302332Y126589D01*
X302439Y126180D01*
X302537Y125770D01*
X302624Y125357D01*
X302702Y124941D01*
X302769Y124524D01*
X302826Y124106D01*
X302872Y123686D01*
X302908Y123266D01*
X302934Y122844D01*
X302950Y122422D01*
X302955Y122000D01*
X302950Y121578D01*
X302934Y121156D01*
X302908Y120734D01*
X302872Y120314D01*
X302826Y119894D01*
X302769Y119476D01*
X302702Y119059D01*
X302624Y118643D01*
X302537Y118230D01*
X302439Y117820D01*
X302332Y117411D01*
X302214Y117006D01*
X302087Y116603D01*
X301949Y116204D01*
X301802Y115808D01*
X301645Y115416D01*
X301479Y115028D01*
X301303Y114644D01*
X301118Y114264D01*
X300923Y113890D01*
X300720Y113520D01*
X300507Y113155D01*
X300286Y112795D01*
X300055Y112441D01*
X299817Y112093D01*
X299569Y111751D01*
X299314Y111415D01*
X299050Y111085D01*
X298778Y110762D01*
X298498Y110446D01*
X298211Y110136D01*
X297916Y109834D01*
X297614Y109539D01*
X297304Y109252D01*
X296988Y108972D01*
X296665Y108700D01*
X296335Y108436D01*
X295999Y108181D01*
X295657Y107933D01*
X295309Y107695D01*
X294955Y107464D01*
X294595Y107243D01*
X294230Y107030D01*
X293860Y106827D01*
X293486Y106632D01*
X293106Y106447D01*
X292722Y106271D01*
X292334Y106105D01*
X291942Y105948D01*
X291546Y105801D01*
X291147Y105663D01*
X290744Y105536D01*
X290339Y105418D01*
X289930Y105311D01*
X289520Y105213D01*
X289107Y105126D01*
X288691Y105048D01*
X288274Y104981D01*
X287856Y104924D01*
X287436Y104878D01*
X287016Y104842D01*
X286594Y104816D01*
X286172Y104800D01*
X285750Y104795D01*
X285328Y104800D01*
X284906Y104816D01*
X284484Y104842D01*
X284064Y104878D01*
X283644Y104924D01*
X283226Y104981D01*
X282809Y105048D01*
X282393Y105126D01*
X281980Y105213D01*
X281570Y105311D01*
X281161Y105418D01*
X280756Y105536D01*
X280353Y105663D01*
X279954Y105801D01*
X279558Y105948D01*
X279166Y106105D01*
X278778Y106271D01*
X278394Y106447D01*
X278014Y106632D01*
X277640Y106827D01*
X277270Y107030D01*
X276905Y107243D01*
X276545Y107464D01*
X276191Y107695D01*
X275843Y107933D01*
X275501Y108181D01*
X275165Y108436D01*
X274835Y108700D01*
X274512Y108972D01*
X274196Y109252D01*
X273886Y109539D01*
X273584Y109834D01*
X273289Y110136D01*
X273002Y110446D01*
X272722Y110762D01*
X272450Y111085D01*
X272186Y111415D01*
X271931Y111751D01*
X271683Y112093D01*
X271445Y112441D01*
X271214Y112795D01*
X270993Y113155D01*
X270780Y113520D01*
X270577Y113890D01*
X270382Y114264D01*
X270197Y114644D01*
X270021Y115028D01*
X269855Y115416D01*
X269698Y115808D01*
X269551Y116204D01*
X269413Y116603D01*
X269286Y117006D01*
X269168Y117411D01*
X269061Y117820D01*
X268963Y118230D01*
X268876Y118643D01*
X268798Y119059D01*
X268731Y119476D01*
X268674Y119894D01*
X268628Y120314D01*
X268592Y120734D01*
X268566Y121156D01*
X268550Y121578D01*
X268545Y122000D01*
X269750Y97000D02*
X272750Y94000D01*
X268750Y90000D01*
X260750Y97000D01*
D12*
X298987Y150317D02*
X298987Y157683D01*
X296941Y157683D01*
X296852Y157681D01*
X296763Y157675D01*
X296674Y157665D01*
X296586Y157652D01*
X296498Y157635D01*
X296411Y157613D01*
X296326Y157588D01*
X296241Y157560D01*
X296158Y157527D01*
X296076Y157491D01*
X295996Y157452D01*
X295918Y157409D01*
X295842Y157363D01*
X295767Y157313D01*
X295695Y157260D01*
X295626Y157204D01*
X295559Y157145D01*
X295494Y157084D01*
X295433Y157019D01*
X295374Y156952D01*
X295318Y156883D01*
X295265Y156811D01*
X295215Y156736D01*
X295169Y156660D01*
X295126Y156582D01*
X295087Y156502D01*
X295051Y156420D01*
X295018Y156337D01*
X294990Y156252D01*
X294965Y156167D01*
X294943Y156080D01*
X294926Y155992D01*
X294913Y155904D01*
X294903Y155815D01*
X294897Y155726D01*
X294895Y155637D01*
X294897Y155548D01*
X294903Y155459D01*
X294913Y155370D01*
X294926Y155282D01*
X294943Y155194D01*
X294965Y155107D01*
X294990Y155022D01*
X295018Y154937D01*
X295051Y154854D01*
X295087Y154772D01*
X295126Y154692D01*
X295169Y154614D01*
X295215Y154538D01*
X295265Y154463D01*
X295318Y154391D01*
X295374Y154322D01*
X295433Y154255D01*
X295494Y154190D01*
X295559Y154129D01*
X295626Y154070D01*
X295695Y154014D01*
X295767Y153961D01*
X295842Y153911D01*
X295918Y153865D01*
X295996Y153822D01*
X296076Y153783D01*
X296158Y153747D01*
X296241Y153714D01*
X296326Y153686D01*
X296411Y153661D01*
X296498Y153639D01*
X296586Y153622D01*
X296674Y153609D01*
X296763Y153599D01*
X296852Y153593D01*
X296941Y153591D01*
X298987Y153591D01*
X296532Y153591D02*
X294895Y150317D01*
X288615Y154409D02*
X287387Y154409D01*
X287387Y150317D01*
X289842Y150317D01*
X289920Y150319D01*
X289998Y150324D01*
X290075Y150334D01*
X290152Y150347D01*
X290228Y150363D01*
X290303Y150383D01*
X290377Y150407D01*
X290450Y150434D01*
X290522Y150465D01*
X290592Y150499D01*
X290661Y150536D01*
X290727Y150577D01*
X290792Y150621D01*
X290854Y150667D01*
X290914Y150717D01*
X290972Y150769D01*
X291027Y150824D01*
X291079Y150882D01*
X291129Y150942D01*
X291175Y151004D01*
X291219Y151069D01*
X291260Y151136D01*
X291297Y151204D01*
X291331Y151274D01*
X291362Y151346D01*
X291389Y151419D01*
X291413Y151493D01*
X291433Y151568D01*
X291449Y151644D01*
X291462Y151721D01*
X291472Y151798D01*
X291477Y151876D01*
X291479Y151954D01*
X291479Y156046D01*
X291477Y156124D01*
X291472Y156202D01*
X291462Y156279D01*
X291449Y156356D01*
X291433Y156432D01*
X291413Y156507D01*
X291389Y156581D01*
X291362Y156654D01*
X291331Y156726D01*
X291297Y156796D01*
X291260Y156865D01*
X291219Y156931D01*
X291175Y156996D01*
X291129Y157058D01*
X291079Y157118D01*
X291027Y157176D01*
X290972Y157231D01*
X290914Y157283D01*
X290854Y157333D01*
X290792Y157379D01*
X290727Y157423D01*
X290661Y157464D01*
X290592Y157501D01*
X290522Y157535D01*
X290450Y157566D01*
X290377Y157593D01*
X290303Y157617D01*
X290228Y157637D01*
X290152Y157653D01*
X290075Y157666D01*
X289998Y157676D01*
X289920Y157681D01*
X289842Y157683D01*
X287387Y157683D01*
X283559Y154409D02*
X281513Y154409D01*
X281424Y154407D01*
X281335Y154401D01*
X281246Y154391D01*
X281158Y154378D01*
X281070Y154361D01*
X280983Y154339D01*
X280898Y154314D01*
X280813Y154286D01*
X280730Y154253D01*
X280648Y154217D01*
X280568Y154178D01*
X280490Y154135D01*
X280414Y154089D01*
X280339Y154039D01*
X280267Y153986D01*
X280198Y153930D01*
X280131Y153871D01*
X280066Y153810D01*
X280005Y153745D01*
X279946Y153678D01*
X279890Y153609D01*
X279837Y153537D01*
X279787Y153462D01*
X279741Y153386D01*
X279698Y153308D01*
X279659Y153228D01*
X279623Y153146D01*
X279590Y153063D01*
X279562Y152978D01*
X279537Y152893D01*
X279515Y152806D01*
X279498Y152718D01*
X279485Y152630D01*
X279475Y152541D01*
X279469Y152452D01*
X279467Y152363D01*
X279469Y152274D01*
X279475Y152185D01*
X279485Y152096D01*
X279498Y152008D01*
X279515Y151920D01*
X279537Y151833D01*
X279562Y151748D01*
X279590Y151663D01*
X279623Y151580D01*
X279659Y151498D01*
X279698Y151418D01*
X279741Y151340D01*
X279787Y151264D01*
X279837Y151189D01*
X279890Y151117D01*
X279946Y151048D01*
X280005Y150981D01*
X280066Y150916D01*
X280131Y150855D01*
X280198Y150796D01*
X280267Y150740D01*
X280339Y150687D01*
X280414Y150637D01*
X280490Y150591D01*
X280568Y150548D01*
X280648Y150509D01*
X280730Y150473D01*
X280813Y150440D01*
X280898Y150412D01*
X280983Y150387D01*
X281070Y150365D01*
X281158Y150348D01*
X281246Y150335D01*
X281335Y150325D01*
X281424Y150319D01*
X281513Y150317D01*
X283559Y150317D01*
X283559Y157683D01*
X281513Y157683D01*
X281434Y157681D01*
X281355Y157675D01*
X281276Y157666D01*
X281198Y157653D01*
X281121Y157635D01*
X281045Y157615D01*
X280970Y157590D01*
X280896Y157562D01*
X280823Y157531D01*
X280752Y157495D01*
X280683Y157457D01*
X280616Y157415D01*
X280551Y157370D01*
X280488Y157322D01*
X280427Y157271D01*
X280370Y157217D01*
X280314Y157161D01*
X280262Y157102D01*
X280212Y157040D01*
X280166Y156976D01*
X280122Y156910D01*
X280082Y156842D01*
X280046Y156772D01*
X280012Y156700D01*
X279982Y156626D01*
X279956Y156552D01*
X279933Y156476D01*
X279915Y156399D01*
X279899Y156322D01*
X279888Y156243D01*
X279880Y156165D01*
X279876Y156086D01*
X279876Y156006D01*
X279880Y155927D01*
X279888Y155849D01*
X279899Y155770D01*
X279915Y155693D01*
X279933Y155616D01*
X279956Y155540D01*
X279982Y155466D01*
X280012Y155392D01*
X280046Y155320D01*
X280082Y155250D01*
X280122Y155182D01*
X280166Y155116D01*
X280212Y155052D01*
X280262Y154990D01*
X280314Y154931D01*
X280370Y154875D01*
X280427Y154821D01*
X280488Y154770D01*
X280551Y154722D01*
X280616Y154677D01*
X280683Y154635D01*
X280752Y154597D01*
X280823Y154561D01*
X280896Y154530D01*
X280970Y154502D01*
X281045Y154477D01*
X281121Y154457D01*
X281198Y154439D01*
X281276Y154426D01*
X281355Y154417D01*
X281434Y154411D01*
X281513Y154409D01*
X276605Y150317D02*
X274559Y150317D01*
X274470Y150319D01*
X274381Y150325D01*
X274292Y150335D01*
X274204Y150348D01*
X274116Y150365D01*
X274029Y150387D01*
X273944Y150412D01*
X273859Y150440D01*
X273776Y150473D01*
X273694Y150509D01*
X273614Y150548D01*
X273536Y150591D01*
X273460Y150637D01*
X273385Y150687D01*
X273313Y150740D01*
X273244Y150796D01*
X273177Y150855D01*
X273112Y150916D01*
X273051Y150981D01*
X272992Y151048D01*
X272936Y151117D01*
X272883Y151189D01*
X272833Y151264D01*
X272787Y151340D01*
X272744Y151418D01*
X272705Y151498D01*
X272669Y151580D01*
X272636Y151663D01*
X272608Y151748D01*
X272583Y151833D01*
X272561Y151920D01*
X272544Y152008D01*
X272531Y152096D01*
X272521Y152185D01*
X272515Y152274D01*
X272513Y152363D01*
X272515Y152452D01*
X272521Y152541D01*
X272531Y152630D01*
X272544Y152718D01*
X272561Y152806D01*
X272583Y152893D01*
X272608Y152978D01*
X272636Y153063D01*
X272669Y153146D01*
X272705Y153228D01*
X272744Y153308D01*
X272787Y153386D01*
X272833Y153462D01*
X272883Y153537D01*
X272936Y153609D01*
X272992Y153678D01*
X273051Y153745D01*
X273112Y153810D01*
X273177Y153871D01*
X273244Y153930D01*
X273313Y153986D01*
X273385Y154039D01*
X273460Y154089D01*
X273536Y154135D01*
X273614Y154178D01*
X273694Y154217D01*
X273776Y154253D01*
X273859Y154286D01*
X273944Y154314D01*
X274029Y154339D01*
X274116Y154361D01*
X274204Y154378D01*
X274292Y154391D01*
X274381Y154401D01*
X274470Y154407D01*
X274559Y154409D01*
X274150Y157683D02*
X276605Y157683D01*
X274150Y157683D02*
X274071Y157681D01*
X273992Y157675D01*
X273913Y157666D01*
X273835Y157653D01*
X273758Y157635D01*
X273682Y157615D01*
X273607Y157590D01*
X273533Y157562D01*
X273460Y157531D01*
X273389Y157495D01*
X273320Y157457D01*
X273253Y157415D01*
X273188Y157370D01*
X273125Y157322D01*
X273064Y157271D01*
X273007Y157217D01*
X272951Y157161D01*
X272899Y157102D01*
X272849Y157040D01*
X272803Y156976D01*
X272759Y156910D01*
X272719Y156842D01*
X272683Y156772D01*
X272649Y156700D01*
X272619Y156626D01*
X272593Y156552D01*
X272570Y156476D01*
X272552Y156399D01*
X272536Y156322D01*
X272525Y156243D01*
X272517Y156165D01*
X272513Y156086D01*
X272513Y156006D01*
X272517Y155927D01*
X272525Y155849D01*
X272536Y155770D01*
X272552Y155693D01*
X272570Y155616D01*
X272593Y155540D01*
X272619Y155466D01*
X272649Y155392D01*
X272683Y155320D01*
X272719Y155250D01*
X272759Y155182D01*
X272803Y155116D01*
X272849Y155052D01*
X272899Y154990D01*
X272951Y154931D01*
X273007Y154875D01*
X273064Y154821D01*
X273125Y154770D01*
X273188Y154722D01*
X273253Y154677D01*
X273320Y154635D01*
X273389Y154597D01*
X273460Y154561D01*
X273533Y154530D01*
X273607Y154502D01*
X273682Y154477D01*
X273758Y154457D01*
X273835Y154439D01*
X273913Y154426D01*
X273992Y154417D01*
X274071Y154411D01*
X274150Y154409D01*
X275787Y154409D01*
D10*
X451250Y147000D02*
X501250Y147000D01*
X451250Y147000D02*
X451250Y106000D01*
X451250Y97000D01*
X460250Y97000D01*
X501250Y97000D01*
X501250Y147000D01*
X451250Y106000D02*
X460250Y97000D01*
X459045Y122000D02*
X459050Y122422D01*
X459066Y122844D01*
X459092Y123266D01*
X459128Y123686D01*
X459174Y124106D01*
X459231Y124524D01*
X459298Y124941D01*
X459376Y125357D01*
X459463Y125770D01*
X459561Y126180D01*
X459668Y126589D01*
X459786Y126994D01*
X459913Y127397D01*
X460051Y127796D01*
X460198Y128192D01*
X460355Y128584D01*
X460521Y128972D01*
X460697Y129356D01*
X460882Y129736D01*
X461077Y130110D01*
X461280Y130480D01*
X461493Y130845D01*
X461714Y131205D01*
X461945Y131559D01*
X462183Y131907D01*
X462431Y132249D01*
X462686Y132585D01*
X462950Y132915D01*
X463222Y133238D01*
X463502Y133554D01*
X463789Y133864D01*
X464084Y134166D01*
X464386Y134461D01*
X464696Y134748D01*
X465012Y135028D01*
X465335Y135300D01*
X465665Y135564D01*
X466001Y135819D01*
X466343Y136067D01*
X466691Y136305D01*
X467045Y136536D01*
X467405Y136757D01*
X467770Y136970D01*
X468140Y137173D01*
X468514Y137368D01*
X468894Y137553D01*
X469278Y137729D01*
X469666Y137895D01*
X470058Y138052D01*
X470454Y138199D01*
X470853Y138337D01*
X471256Y138464D01*
X471661Y138582D01*
X472070Y138689D01*
X472480Y138787D01*
X472893Y138874D01*
X473309Y138952D01*
X473726Y139019D01*
X474144Y139076D01*
X474564Y139122D01*
X474984Y139158D01*
X475406Y139184D01*
X475828Y139200D01*
X476250Y139205D01*
X476672Y139200D01*
X477094Y139184D01*
X477516Y139158D01*
X477936Y139122D01*
X478356Y139076D01*
X478774Y139019D01*
X479191Y138952D01*
X479607Y138874D01*
X480020Y138787D01*
X480430Y138689D01*
X480839Y138582D01*
X481244Y138464D01*
X481647Y138337D01*
X482046Y138199D01*
X482442Y138052D01*
X482834Y137895D01*
X483222Y137729D01*
X483606Y137553D01*
X483986Y137368D01*
X484360Y137173D01*
X484730Y136970D01*
X485095Y136757D01*
X485455Y136536D01*
X485809Y136305D01*
X486157Y136067D01*
X486499Y135819D01*
X486835Y135564D01*
X487165Y135300D01*
X487488Y135028D01*
X487804Y134748D01*
X488114Y134461D01*
X488416Y134166D01*
X488711Y133864D01*
X488998Y133554D01*
X489278Y133238D01*
X489550Y132915D01*
X489814Y132585D01*
X490069Y132249D01*
X490317Y131907D01*
X490555Y131559D01*
X490786Y131205D01*
X491007Y130845D01*
X491220Y130480D01*
X491423Y130110D01*
X491618Y129736D01*
X491803Y129356D01*
X491979Y128972D01*
X492145Y128584D01*
X492302Y128192D01*
X492449Y127796D01*
X492587Y127397D01*
X492714Y126994D01*
X492832Y126589D01*
X492939Y126180D01*
X493037Y125770D01*
X493124Y125357D01*
X493202Y124941D01*
X493269Y124524D01*
X493326Y124106D01*
X493372Y123686D01*
X493408Y123266D01*
X493434Y122844D01*
X493450Y122422D01*
X493455Y122000D01*
X493450Y121578D01*
X493434Y121156D01*
X493408Y120734D01*
X493372Y120314D01*
X493326Y119894D01*
X493269Y119476D01*
X493202Y119059D01*
X493124Y118643D01*
X493037Y118230D01*
X492939Y117820D01*
X492832Y117411D01*
X492714Y117006D01*
X492587Y116603D01*
X492449Y116204D01*
X492302Y115808D01*
X492145Y115416D01*
X491979Y115028D01*
X491803Y114644D01*
X491618Y114264D01*
X491423Y113890D01*
X491220Y113520D01*
X491007Y113155D01*
X490786Y112795D01*
X490555Y112441D01*
X490317Y112093D01*
X490069Y111751D01*
X489814Y111415D01*
X489550Y111085D01*
X489278Y110762D01*
X488998Y110446D01*
X488711Y110136D01*
X488416Y109834D01*
X488114Y109539D01*
X487804Y109252D01*
X487488Y108972D01*
X487165Y108700D01*
X486835Y108436D01*
X486499Y108181D01*
X486157Y107933D01*
X485809Y107695D01*
X485455Y107464D01*
X485095Y107243D01*
X484730Y107030D01*
X484360Y106827D01*
X483986Y106632D01*
X483606Y106447D01*
X483222Y106271D01*
X482834Y106105D01*
X482442Y105948D01*
X482046Y105801D01*
X481647Y105663D01*
X481244Y105536D01*
X480839Y105418D01*
X480430Y105311D01*
X480020Y105213D01*
X479607Y105126D01*
X479191Y105048D01*
X478774Y104981D01*
X478356Y104924D01*
X477936Y104878D01*
X477516Y104842D01*
X477094Y104816D01*
X476672Y104800D01*
X476250Y104795D01*
X475828Y104800D01*
X475406Y104816D01*
X474984Y104842D01*
X474564Y104878D01*
X474144Y104924D01*
X473726Y104981D01*
X473309Y105048D01*
X472893Y105126D01*
X472480Y105213D01*
X472070Y105311D01*
X471661Y105418D01*
X471256Y105536D01*
X470853Y105663D01*
X470454Y105801D01*
X470058Y105948D01*
X469666Y106105D01*
X469278Y106271D01*
X468894Y106447D01*
X468514Y106632D01*
X468140Y106827D01*
X467770Y107030D01*
X467405Y107243D01*
X467045Y107464D01*
X466691Y107695D01*
X466343Y107933D01*
X466001Y108181D01*
X465665Y108436D01*
X465335Y108700D01*
X465012Y108972D01*
X464696Y109252D01*
X464386Y109539D01*
X464084Y109834D01*
X463789Y110136D01*
X463502Y110446D01*
X463222Y110762D01*
X462950Y111085D01*
X462686Y111415D01*
X462431Y111751D01*
X462183Y112093D01*
X461945Y112441D01*
X461714Y112795D01*
X461493Y113155D01*
X461280Y113520D01*
X461077Y113890D01*
X460882Y114264D01*
X460697Y114644D01*
X460521Y115028D01*
X460355Y115416D01*
X460198Y115808D01*
X460051Y116204D01*
X459913Y116603D01*
X459786Y117006D01*
X459668Y117411D01*
X459561Y117820D01*
X459463Y118230D01*
X459376Y118643D01*
X459298Y119059D01*
X459231Y119476D01*
X459174Y119894D01*
X459128Y120314D01*
X459092Y120734D01*
X459066Y121156D01*
X459050Y121578D01*
X459045Y122000D01*
X460250Y97000D02*
X463250Y94000D01*
X459250Y90000D01*
X451250Y97000D01*
D12*
X489487Y150317D02*
X489487Y157683D01*
X487441Y157683D01*
X487352Y157681D01*
X487263Y157675D01*
X487174Y157665D01*
X487086Y157652D01*
X486998Y157635D01*
X486911Y157613D01*
X486826Y157588D01*
X486741Y157560D01*
X486658Y157527D01*
X486576Y157491D01*
X486496Y157452D01*
X486418Y157409D01*
X486342Y157363D01*
X486267Y157313D01*
X486195Y157260D01*
X486126Y157204D01*
X486059Y157145D01*
X485994Y157084D01*
X485933Y157019D01*
X485874Y156952D01*
X485818Y156883D01*
X485765Y156811D01*
X485715Y156736D01*
X485669Y156660D01*
X485626Y156582D01*
X485587Y156502D01*
X485551Y156420D01*
X485518Y156337D01*
X485490Y156252D01*
X485465Y156167D01*
X485443Y156080D01*
X485426Y155992D01*
X485413Y155904D01*
X485403Y155815D01*
X485397Y155726D01*
X485395Y155637D01*
X485397Y155548D01*
X485403Y155459D01*
X485413Y155370D01*
X485426Y155282D01*
X485443Y155194D01*
X485465Y155107D01*
X485490Y155022D01*
X485518Y154937D01*
X485551Y154854D01*
X485587Y154772D01*
X485626Y154692D01*
X485669Y154614D01*
X485715Y154538D01*
X485765Y154463D01*
X485818Y154391D01*
X485874Y154322D01*
X485933Y154255D01*
X485994Y154190D01*
X486059Y154129D01*
X486126Y154070D01*
X486195Y154014D01*
X486267Y153961D01*
X486342Y153911D01*
X486418Y153865D01*
X486496Y153822D01*
X486576Y153783D01*
X486658Y153747D01*
X486741Y153714D01*
X486826Y153686D01*
X486911Y153661D01*
X486998Y153639D01*
X487086Y153622D01*
X487174Y153609D01*
X487263Y153599D01*
X487352Y153593D01*
X487441Y153591D01*
X489487Y153591D01*
X487032Y153591D02*
X485395Y150317D01*
X479115Y154409D02*
X477887Y154409D01*
X477887Y150317D01*
X480342Y150317D01*
X480420Y150319D01*
X480498Y150324D01*
X480575Y150334D01*
X480652Y150347D01*
X480728Y150363D01*
X480803Y150383D01*
X480877Y150407D01*
X480950Y150434D01*
X481022Y150465D01*
X481092Y150499D01*
X481161Y150536D01*
X481227Y150577D01*
X481292Y150621D01*
X481354Y150667D01*
X481414Y150717D01*
X481472Y150769D01*
X481527Y150824D01*
X481579Y150882D01*
X481629Y150942D01*
X481675Y151004D01*
X481719Y151069D01*
X481760Y151136D01*
X481797Y151204D01*
X481831Y151274D01*
X481862Y151346D01*
X481889Y151419D01*
X481913Y151493D01*
X481933Y151568D01*
X481949Y151644D01*
X481962Y151721D01*
X481972Y151798D01*
X481977Y151876D01*
X481979Y151954D01*
X481979Y156046D01*
X481977Y156124D01*
X481972Y156202D01*
X481962Y156279D01*
X481949Y156356D01*
X481933Y156432D01*
X481913Y156507D01*
X481889Y156581D01*
X481862Y156654D01*
X481831Y156726D01*
X481797Y156796D01*
X481760Y156865D01*
X481719Y156931D01*
X481675Y156996D01*
X481629Y157058D01*
X481579Y157118D01*
X481527Y157176D01*
X481472Y157231D01*
X481414Y157283D01*
X481354Y157333D01*
X481292Y157379D01*
X481227Y157423D01*
X481161Y157464D01*
X481092Y157501D01*
X481022Y157535D01*
X480950Y157566D01*
X480877Y157593D01*
X480803Y157617D01*
X480728Y157637D01*
X480652Y157653D01*
X480575Y157666D01*
X480498Y157676D01*
X480420Y157681D01*
X480342Y157683D01*
X477887Y157683D01*
X474059Y154409D02*
X472013Y154409D01*
X471924Y154407D01*
X471835Y154401D01*
X471746Y154391D01*
X471658Y154378D01*
X471570Y154361D01*
X471483Y154339D01*
X471398Y154314D01*
X471313Y154286D01*
X471230Y154253D01*
X471148Y154217D01*
X471068Y154178D01*
X470990Y154135D01*
X470914Y154089D01*
X470839Y154039D01*
X470767Y153986D01*
X470698Y153930D01*
X470631Y153871D01*
X470566Y153810D01*
X470505Y153745D01*
X470446Y153678D01*
X470390Y153609D01*
X470337Y153537D01*
X470287Y153462D01*
X470241Y153386D01*
X470198Y153308D01*
X470159Y153228D01*
X470123Y153146D01*
X470090Y153063D01*
X470062Y152978D01*
X470037Y152893D01*
X470015Y152806D01*
X469998Y152718D01*
X469985Y152630D01*
X469975Y152541D01*
X469969Y152452D01*
X469967Y152363D01*
X469969Y152274D01*
X469975Y152185D01*
X469985Y152096D01*
X469998Y152008D01*
X470015Y151920D01*
X470037Y151833D01*
X470062Y151748D01*
X470090Y151663D01*
X470123Y151580D01*
X470159Y151498D01*
X470198Y151418D01*
X470241Y151340D01*
X470287Y151264D01*
X470337Y151189D01*
X470390Y151117D01*
X470446Y151048D01*
X470505Y150981D01*
X470566Y150916D01*
X470631Y150855D01*
X470698Y150796D01*
X470767Y150740D01*
X470839Y150687D01*
X470914Y150637D01*
X470990Y150591D01*
X471068Y150548D01*
X471148Y150509D01*
X471230Y150473D01*
X471313Y150440D01*
X471398Y150412D01*
X471483Y150387D01*
X471570Y150365D01*
X471658Y150348D01*
X471746Y150335D01*
X471835Y150325D01*
X471924Y150319D01*
X472013Y150317D01*
X474059Y150317D01*
X474059Y157683D01*
X472013Y157683D01*
X471934Y157681D01*
X471855Y157675D01*
X471776Y157666D01*
X471698Y157653D01*
X471621Y157635D01*
X471545Y157615D01*
X471470Y157590D01*
X471396Y157562D01*
X471323Y157531D01*
X471252Y157495D01*
X471183Y157457D01*
X471116Y157415D01*
X471051Y157370D01*
X470988Y157322D01*
X470927Y157271D01*
X470870Y157217D01*
X470814Y157161D01*
X470762Y157102D01*
X470712Y157040D01*
X470666Y156976D01*
X470622Y156910D01*
X470582Y156842D01*
X470546Y156772D01*
X470512Y156700D01*
X470482Y156626D01*
X470456Y156552D01*
X470433Y156476D01*
X470415Y156399D01*
X470399Y156322D01*
X470388Y156243D01*
X470380Y156165D01*
X470376Y156086D01*
X470376Y156006D01*
X470380Y155927D01*
X470388Y155849D01*
X470399Y155770D01*
X470415Y155693D01*
X470433Y155616D01*
X470456Y155540D01*
X470482Y155466D01*
X470512Y155392D01*
X470546Y155320D01*
X470582Y155250D01*
X470622Y155182D01*
X470666Y155116D01*
X470712Y155052D01*
X470762Y154990D01*
X470814Y154931D01*
X470870Y154875D01*
X470927Y154821D01*
X470988Y154770D01*
X471051Y154722D01*
X471116Y154677D01*
X471183Y154635D01*
X471252Y154597D01*
X471323Y154561D01*
X471396Y154530D01*
X471470Y154502D01*
X471545Y154477D01*
X471621Y154457D01*
X471698Y154439D01*
X471776Y154426D01*
X471855Y154417D01*
X471934Y154411D01*
X472013Y154409D01*
X467105Y151954D02*
X465468Y157683D01*
X467105Y151954D02*
X463013Y151954D01*
X464241Y153591D02*
X464241Y150317D01*
D10*
X641750Y147000D02*
X691750Y147000D01*
X641750Y147000D02*
X641750Y106000D01*
X641750Y97000D01*
X650750Y97000D01*
X691750Y97000D01*
X691750Y147000D01*
X641750Y106000D02*
X650750Y97000D01*
X649545Y122000D02*
X649550Y122422D01*
X649566Y122844D01*
X649592Y123266D01*
X649628Y123686D01*
X649674Y124106D01*
X649731Y124524D01*
X649798Y124941D01*
X649876Y125357D01*
X649963Y125770D01*
X650061Y126180D01*
X650168Y126589D01*
X650286Y126994D01*
X650413Y127397D01*
X650551Y127796D01*
X650698Y128192D01*
X650855Y128584D01*
X651021Y128972D01*
X651197Y129356D01*
X651382Y129736D01*
X651577Y130110D01*
X651780Y130480D01*
X651993Y130845D01*
X652214Y131205D01*
X652445Y131559D01*
X652683Y131907D01*
X652931Y132249D01*
X653186Y132585D01*
X653450Y132915D01*
X653722Y133238D01*
X654002Y133554D01*
X654289Y133864D01*
X654584Y134166D01*
X654886Y134461D01*
X655196Y134748D01*
X655512Y135028D01*
X655835Y135300D01*
X656165Y135564D01*
X656501Y135819D01*
X656843Y136067D01*
X657191Y136305D01*
X657545Y136536D01*
X657905Y136757D01*
X658270Y136970D01*
X658640Y137173D01*
X659014Y137368D01*
X659394Y137553D01*
X659778Y137729D01*
X660166Y137895D01*
X660558Y138052D01*
X660954Y138199D01*
X661353Y138337D01*
X661756Y138464D01*
X662161Y138582D01*
X662570Y138689D01*
X662980Y138787D01*
X663393Y138874D01*
X663809Y138952D01*
X664226Y139019D01*
X664644Y139076D01*
X665064Y139122D01*
X665484Y139158D01*
X665906Y139184D01*
X666328Y139200D01*
X666750Y139205D01*
X667172Y139200D01*
X667594Y139184D01*
X668016Y139158D01*
X668436Y139122D01*
X668856Y139076D01*
X669274Y139019D01*
X669691Y138952D01*
X670107Y138874D01*
X670520Y138787D01*
X670930Y138689D01*
X671339Y138582D01*
X671744Y138464D01*
X672147Y138337D01*
X672546Y138199D01*
X672942Y138052D01*
X673334Y137895D01*
X673722Y137729D01*
X674106Y137553D01*
X674486Y137368D01*
X674860Y137173D01*
X675230Y136970D01*
X675595Y136757D01*
X675955Y136536D01*
X676309Y136305D01*
X676657Y136067D01*
X676999Y135819D01*
X677335Y135564D01*
X677665Y135300D01*
X677988Y135028D01*
X678304Y134748D01*
X678614Y134461D01*
X678916Y134166D01*
X679211Y133864D01*
X679498Y133554D01*
X679778Y133238D01*
X680050Y132915D01*
X680314Y132585D01*
X680569Y132249D01*
X680817Y131907D01*
X681055Y131559D01*
X681286Y131205D01*
X681507Y130845D01*
X681720Y130480D01*
X681923Y130110D01*
X682118Y129736D01*
X682303Y129356D01*
X682479Y128972D01*
X682645Y128584D01*
X682802Y128192D01*
X682949Y127796D01*
X683087Y127397D01*
X683214Y126994D01*
X683332Y126589D01*
X683439Y126180D01*
X683537Y125770D01*
X683624Y125357D01*
X683702Y124941D01*
X683769Y124524D01*
X683826Y124106D01*
X683872Y123686D01*
X683908Y123266D01*
X683934Y122844D01*
X683950Y122422D01*
X683955Y122000D01*
X683950Y121578D01*
X683934Y121156D01*
X683908Y120734D01*
X683872Y120314D01*
X683826Y119894D01*
X683769Y119476D01*
X683702Y119059D01*
X683624Y118643D01*
X683537Y118230D01*
X683439Y117820D01*
X683332Y117411D01*
X683214Y117006D01*
X683087Y116603D01*
X682949Y116204D01*
X682802Y115808D01*
X682645Y115416D01*
X682479Y115028D01*
X682303Y114644D01*
X682118Y114264D01*
X681923Y113890D01*
X681720Y113520D01*
X681507Y113155D01*
X681286Y112795D01*
X681055Y112441D01*
X680817Y112093D01*
X680569Y111751D01*
X680314Y111415D01*
X680050Y111085D01*
X679778Y110762D01*
X679498Y110446D01*
X679211Y110136D01*
X678916Y109834D01*
X678614Y109539D01*
X678304Y109252D01*
X677988Y108972D01*
X677665Y108700D01*
X677335Y108436D01*
X676999Y108181D01*
X676657Y107933D01*
X676309Y107695D01*
X675955Y107464D01*
X675595Y107243D01*
X675230Y107030D01*
X674860Y106827D01*
X674486Y106632D01*
X674106Y106447D01*
X673722Y106271D01*
X673334Y106105D01*
X672942Y105948D01*
X672546Y105801D01*
X672147Y105663D01*
X671744Y105536D01*
X671339Y105418D01*
X670930Y105311D01*
X670520Y105213D01*
X670107Y105126D01*
X669691Y105048D01*
X669274Y104981D01*
X668856Y104924D01*
X668436Y104878D01*
X668016Y104842D01*
X667594Y104816D01*
X667172Y104800D01*
X666750Y104795D01*
X666328Y104800D01*
X665906Y104816D01*
X665484Y104842D01*
X665064Y104878D01*
X664644Y104924D01*
X664226Y104981D01*
X663809Y105048D01*
X663393Y105126D01*
X662980Y105213D01*
X662570Y105311D01*
X662161Y105418D01*
X661756Y105536D01*
X661353Y105663D01*
X660954Y105801D01*
X660558Y105948D01*
X660166Y106105D01*
X659778Y106271D01*
X659394Y106447D01*
X659014Y106632D01*
X658640Y106827D01*
X658270Y107030D01*
X657905Y107243D01*
X657545Y107464D01*
X657191Y107695D01*
X656843Y107933D01*
X656501Y108181D01*
X656165Y108436D01*
X655835Y108700D01*
X655512Y108972D01*
X655196Y109252D01*
X654886Y109539D01*
X654584Y109834D01*
X654289Y110136D01*
X654002Y110446D01*
X653722Y110762D01*
X653450Y111085D01*
X653186Y111415D01*
X652931Y111751D01*
X652683Y112093D01*
X652445Y112441D01*
X652214Y112795D01*
X651993Y113155D01*
X651780Y113520D01*
X651577Y113890D01*
X651382Y114264D01*
X651197Y114644D01*
X651021Y115028D01*
X650855Y115416D01*
X650698Y115808D01*
X650551Y116204D01*
X650413Y116603D01*
X650286Y117006D01*
X650168Y117411D01*
X650061Y117820D01*
X649963Y118230D01*
X649876Y118643D01*
X649798Y119059D01*
X649731Y119476D01*
X649674Y119894D01*
X649628Y120314D01*
X649592Y120734D01*
X649566Y121156D01*
X649550Y121578D01*
X649545Y122000D01*
X650750Y97000D02*
X653750Y94000D01*
X649750Y90000D01*
X641750Y97000D01*
D12*
X679987Y150317D02*
X679987Y157683D01*
X677941Y157683D01*
X677852Y157681D01*
X677763Y157675D01*
X677674Y157665D01*
X677586Y157652D01*
X677498Y157635D01*
X677411Y157613D01*
X677326Y157588D01*
X677241Y157560D01*
X677158Y157527D01*
X677076Y157491D01*
X676996Y157452D01*
X676918Y157409D01*
X676842Y157363D01*
X676767Y157313D01*
X676695Y157260D01*
X676626Y157204D01*
X676559Y157145D01*
X676494Y157084D01*
X676433Y157019D01*
X676374Y156952D01*
X676318Y156883D01*
X676265Y156811D01*
X676215Y156736D01*
X676169Y156660D01*
X676126Y156582D01*
X676087Y156502D01*
X676051Y156420D01*
X676018Y156337D01*
X675990Y156252D01*
X675965Y156167D01*
X675943Y156080D01*
X675926Y155992D01*
X675913Y155904D01*
X675903Y155815D01*
X675897Y155726D01*
X675895Y155637D01*
X675897Y155548D01*
X675903Y155459D01*
X675913Y155370D01*
X675926Y155282D01*
X675943Y155194D01*
X675965Y155107D01*
X675990Y155022D01*
X676018Y154937D01*
X676051Y154854D01*
X676087Y154772D01*
X676126Y154692D01*
X676169Y154614D01*
X676215Y154538D01*
X676265Y154463D01*
X676318Y154391D01*
X676374Y154322D01*
X676433Y154255D01*
X676494Y154190D01*
X676559Y154129D01*
X676626Y154070D01*
X676695Y154014D01*
X676767Y153961D01*
X676842Y153911D01*
X676918Y153865D01*
X676996Y153822D01*
X677076Y153783D01*
X677158Y153747D01*
X677241Y153714D01*
X677326Y153686D01*
X677411Y153661D01*
X677498Y153639D01*
X677586Y153622D01*
X677674Y153609D01*
X677763Y153599D01*
X677852Y153593D01*
X677941Y153591D01*
X679987Y153591D01*
X677532Y153591D02*
X675895Y150317D01*
X669615Y154409D02*
X668387Y154409D01*
X668387Y150317D01*
X670842Y150317D01*
X670920Y150319D01*
X670998Y150324D01*
X671075Y150334D01*
X671152Y150347D01*
X671228Y150363D01*
X671303Y150383D01*
X671377Y150407D01*
X671450Y150434D01*
X671522Y150465D01*
X671592Y150499D01*
X671661Y150536D01*
X671727Y150577D01*
X671792Y150621D01*
X671854Y150667D01*
X671914Y150717D01*
X671972Y150769D01*
X672027Y150824D01*
X672079Y150882D01*
X672129Y150942D01*
X672175Y151004D01*
X672219Y151069D01*
X672260Y151136D01*
X672297Y151204D01*
X672331Y151274D01*
X672362Y151346D01*
X672389Y151419D01*
X672413Y151493D01*
X672433Y151568D01*
X672449Y151644D01*
X672462Y151721D01*
X672472Y151798D01*
X672477Y151876D01*
X672479Y151954D01*
X672479Y156046D01*
X672477Y156124D01*
X672472Y156202D01*
X672462Y156279D01*
X672449Y156356D01*
X672433Y156432D01*
X672413Y156507D01*
X672389Y156581D01*
X672362Y156654D01*
X672331Y156726D01*
X672297Y156796D01*
X672260Y156865D01*
X672219Y156931D01*
X672175Y156996D01*
X672129Y157058D01*
X672079Y157118D01*
X672027Y157176D01*
X671972Y157231D01*
X671914Y157283D01*
X671854Y157333D01*
X671792Y157379D01*
X671727Y157423D01*
X671661Y157464D01*
X671592Y157501D01*
X671522Y157535D01*
X671450Y157566D01*
X671377Y157593D01*
X671303Y157617D01*
X671228Y157637D01*
X671152Y157653D01*
X671075Y157666D01*
X670998Y157676D01*
X670920Y157681D01*
X670842Y157683D01*
X668387Y157683D01*
X664559Y154409D02*
X662513Y154409D01*
X662424Y154407D01*
X662335Y154401D01*
X662246Y154391D01*
X662158Y154378D01*
X662070Y154361D01*
X661983Y154339D01*
X661898Y154314D01*
X661813Y154286D01*
X661730Y154253D01*
X661648Y154217D01*
X661568Y154178D01*
X661490Y154135D01*
X661414Y154089D01*
X661339Y154039D01*
X661267Y153986D01*
X661198Y153930D01*
X661131Y153871D01*
X661066Y153810D01*
X661005Y153745D01*
X660946Y153678D01*
X660890Y153609D01*
X660837Y153537D01*
X660787Y153462D01*
X660741Y153386D01*
X660698Y153308D01*
X660659Y153228D01*
X660623Y153146D01*
X660590Y153063D01*
X660562Y152978D01*
X660537Y152893D01*
X660515Y152806D01*
X660498Y152718D01*
X660485Y152630D01*
X660475Y152541D01*
X660469Y152452D01*
X660467Y152363D01*
X660469Y152274D01*
X660475Y152185D01*
X660485Y152096D01*
X660498Y152008D01*
X660515Y151920D01*
X660537Y151833D01*
X660562Y151748D01*
X660590Y151663D01*
X660623Y151580D01*
X660659Y151498D01*
X660698Y151418D01*
X660741Y151340D01*
X660787Y151264D01*
X660837Y151189D01*
X660890Y151117D01*
X660946Y151048D01*
X661005Y150981D01*
X661066Y150916D01*
X661131Y150855D01*
X661198Y150796D01*
X661267Y150740D01*
X661339Y150687D01*
X661414Y150637D01*
X661490Y150591D01*
X661568Y150548D01*
X661648Y150509D01*
X661730Y150473D01*
X661813Y150440D01*
X661898Y150412D01*
X661983Y150387D01*
X662070Y150365D01*
X662158Y150348D01*
X662246Y150335D01*
X662335Y150325D01*
X662424Y150319D01*
X662513Y150317D01*
X664559Y150317D01*
X664559Y157683D01*
X662513Y157683D01*
X662434Y157681D01*
X662355Y157675D01*
X662276Y157666D01*
X662198Y157653D01*
X662121Y157635D01*
X662045Y157615D01*
X661970Y157590D01*
X661896Y157562D01*
X661823Y157531D01*
X661752Y157495D01*
X661683Y157457D01*
X661616Y157415D01*
X661551Y157370D01*
X661488Y157322D01*
X661427Y157271D01*
X661370Y157217D01*
X661314Y157161D01*
X661262Y157102D01*
X661212Y157040D01*
X661166Y156976D01*
X661122Y156910D01*
X661082Y156842D01*
X661046Y156772D01*
X661012Y156700D01*
X660982Y156626D01*
X660956Y156552D01*
X660933Y156476D01*
X660915Y156399D01*
X660899Y156322D01*
X660888Y156243D01*
X660880Y156165D01*
X660876Y156086D01*
X660876Y156006D01*
X660880Y155927D01*
X660888Y155849D01*
X660899Y155770D01*
X660915Y155693D01*
X660933Y155616D01*
X660956Y155540D01*
X660982Y155466D01*
X661012Y155392D01*
X661046Y155320D01*
X661082Y155250D01*
X661122Y155182D01*
X661166Y155116D01*
X661212Y155052D01*
X661262Y154990D01*
X661314Y154931D01*
X661370Y154875D01*
X661427Y154821D01*
X661488Y154770D01*
X661551Y154722D01*
X661616Y154677D01*
X661683Y154635D01*
X661752Y154597D01*
X661823Y154561D01*
X661896Y154530D01*
X661970Y154502D01*
X662045Y154477D01*
X662121Y154457D01*
X662198Y154439D01*
X662276Y154426D01*
X662355Y154417D01*
X662434Y154411D01*
X662513Y154409D01*
X657605Y150317D02*
X655150Y150317D01*
X655070Y150319D01*
X654990Y150325D01*
X654910Y150335D01*
X654831Y150348D01*
X654752Y150366D01*
X654675Y150387D01*
X654599Y150413D01*
X654524Y150442D01*
X654450Y150474D01*
X654378Y150510D01*
X654308Y150550D01*
X654241Y150593D01*
X654175Y150639D01*
X654112Y150689D01*
X654051Y150741D01*
X653992Y150796D01*
X653937Y150855D01*
X653885Y150915D01*
X653835Y150979D01*
X653789Y151044D01*
X653746Y151112D01*
X653706Y151182D01*
X653670Y151254D01*
X653638Y151328D01*
X653609Y151402D01*
X653584Y151479D01*
X653562Y151556D01*
X653544Y151635D01*
X653531Y151714D01*
X653521Y151793D01*
X653515Y151874D01*
X653513Y151954D01*
X653513Y152772D01*
X653515Y152850D01*
X653520Y152928D01*
X653530Y153005D01*
X653543Y153082D01*
X653559Y153158D01*
X653579Y153233D01*
X653603Y153307D01*
X653630Y153380D01*
X653661Y153452D01*
X653695Y153522D01*
X653732Y153591D01*
X653773Y153657D01*
X653817Y153722D01*
X653863Y153784D01*
X653913Y153844D01*
X653965Y153902D01*
X654020Y153957D01*
X654078Y154009D01*
X654138Y154059D01*
X654200Y154105D01*
X654265Y154149D01*
X654332Y154190D01*
X654400Y154227D01*
X654470Y154261D01*
X654542Y154292D01*
X654615Y154319D01*
X654689Y154343D01*
X654764Y154363D01*
X654840Y154379D01*
X654917Y154392D01*
X654994Y154402D01*
X655072Y154407D01*
X655150Y154409D01*
X657605Y154409D01*
X657605Y157683D01*
X653513Y157683D01*
D10*
X806000Y451250D02*
X806000Y501250D01*
X806000Y451250D02*
X847000Y451250D01*
X856000Y451250D01*
X856000Y460250D01*
X856000Y501250D01*
X806000Y501250D01*
X847000Y451250D02*
X856000Y460250D01*
X813795Y476250D02*
X813800Y476672D01*
X813816Y477094D01*
X813842Y477516D01*
X813878Y477936D01*
X813924Y478356D01*
X813981Y478774D01*
X814048Y479191D01*
X814126Y479607D01*
X814213Y480020D01*
X814311Y480430D01*
X814418Y480839D01*
X814536Y481244D01*
X814663Y481647D01*
X814801Y482046D01*
X814948Y482442D01*
X815105Y482834D01*
X815271Y483222D01*
X815447Y483606D01*
X815632Y483986D01*
X815827Y484360D01*
X816030Y484730D01*
X816243Y485095D01*
X816464Y485455D01*
X816695Y485809D01*
X816933Y486157D01*
X817181Y486499D01*
X817436Y486835D01*
X817700Y487165D01*
X817972Y487488D01*
X818252Y487804D01*
X818539Y488114D01*
X818834Y488416D01*
X819136Y488711D01*
X819446Y488998D01*
X819762Y489278D01*
X820085Y489550D01*
X820415Y489814D01*
X820751Y490069D01*
X821093Y490317D01*
X821441Y490555D01*
X821795Y490786D01*
X822155Y491007D01*
X822520Y491220D01*
X822890Y491423D01*
X823264Y491618D01*
X823644Y491803D01*
X824028Y491979D01*
X824416Y492145D01*
X824808Y492302D01*
X825204Y492449D01*
X825603Y492587D01*
X826006Y492714D01*
X826411Y492832D01*
X826820Y492939D01*
X827230Y493037D01*
X827643Y493124D01*
X828059Y493202D01*
X828476Y493269D01*
X828894Y493326D01*
X829314Y493372D01*
X829734Y493408D01*
X830156Y493434D01*
X830578Y493450D01*
X831000Y493455D01*
X831422Y493450D01*
X831844Y493434D01*
X832266Y493408D01*
X832686Y493372D01*
X833106Y493326D01*
X833524Y493269D01*
X833941Y493202D01*
X834357Y493124D01*
X834770Y493037D01*
X835180Y492939D01*
X835589Y492832D01*
X835994Y492714D01*
X836397Y492587D01*
X836796Y492449D01*
X837192Y492302D01*
X837584Y492145D01*
X837972Y491979D01*
X838356Y491803D01*
X838736Y491618D01*
X839110Y491423D01*
X839480Y491220D01*
X839845Y491007D01*
X840205Y490786D01*
X840559Y490555D01*
X840907Y490317D01*
X841249Y490069D01*
X841585Y489814D01*
X841915Y489550D01*
X842238Y489278D01*
X842554Y488998D01*
X842864Y488711D01*
X843166Y488416D01*
X843461Y488114D01*
X843748Y487804D01*
X844028Y487488D01*
X844300Y487165D01*
X844564Y486835D01*
X844819Y486499D01*
X845067Y486157D01*
X845305Y485809D01*
X845536Y485455D01*
X845757Y485095D01*
X845970Y484730D01*
X846173Y484360D01*
X846368Y483986D01*
X846553Y483606D01*
X846729Y483222D01*
X846895Y482834D01*
X847052Y482442D01*
X847199Y482046D01*
X847337Y481647D01*
X847464Y481244D01*
X847582Y480839D01*
X847689Y480430D01*
X847787Y480020D01*
X847874Y479607D01*
X847952Y479191D01*
X848019Y478774D01*
X848076Y478356D01*
X848122Y477936D01*
X848158Y477516D01*
X848184Y477094D01*
X848200Y476672D01*
X848205Y476250D01*
X848200Y475828D01*
X848184Y475406D01*
X848158Y474984D01*
X848122Y474564D01*
X848076Y474144D01*
X848019Y473726D01*
X847952Y473309D01*
X847874Y472893D01*
X847787Y472480D01*
X847689Y472070D01*
X847582Y471661D01*
X847464Y471256D01*
X847337Y470853D01*
X847199Y470454D01*
X847052Y470058D01*
X846895Y469666D01*
X846729Y469278D01*
X846553Y468894D01*
X846368Y468514D01*
X846173Y468140D01*
X845970Y467770D01*
X845757Y467405D01*
X845536Y467045D01*
X845305Y466691D01*
X845067Y466343D01*
X844819Y466001D01*
X844564Y465665D01*
X844300Y465335D01*
X844028Y465012D01*
X843748Y464696D01*
X843461Y464386D01*
X843166Y464084D01*
X842864Y463789D01*
X842554Y463502D01*
X842238Y463222D01*
X841915Y462950D01*
X841585Y462686D01*
X841249Y462431D01*
X840907Y462183D01*
X840559Y461945D01*
X840205Y461714D01*
X839845Y461493D01*
X839480Y461280D01*
X839110Y461077D01*
X838736Y460882D01*
X838356Y460697D01*
X837972Y460521D01*
X837584Y460355D01*
X837192Y460198D01*
X836796Y460051D01*
X836397Y459913D01*
X835994Y459786D01*
X835589Y459668D01*
X835180Y459561D01*
X834770Y459463D01*
X834357Y459376D01*
X833941Y459298D01*
X833524Y459231D01*
X833106Y459174D01*
X832686Y459128D01*
X832266Y459092D01*
X831844Y459066D01*
X831422Y459050D01*
X831000Y459045D01*
X830578Y459050D01*
X830156Y459066D01*
X829734Y459092D01*
X829314Y459128D01*
X828894Y459174D01*
X828476Y459231D01*
X828059Y459298D01*
X827643Y459376D01*
X827230Y459463D01*
X826820Y459561D01*
X826411Y459668D01*
X826006Y459786D01*
X825603Y459913D01*
X825204Y460051D01*
X824808Y460198D01*
X824416Y460355D01*
X824028Y460521D01*
X823644Y460697D01*
X823264Y460882D01*
X822890Y461077D01*
X822520Y461280D01*
X822155Y461493D01*
X821795Y461714D01*
X821441Y461945D01*
X821093Y462183D01*
X820751Y462431D01*
X820415Y462686D01*
X820085Y462950D01*
X819762Y463222D01*
X819446Y463502D01*
X819136Y463789D01*
X818834Y464084D01*
X818539Y464386D01*
X818252Y464696D01*
X817972Y465012D01*
X817700Y465335D01*
X817436Y465665D01*
X817181Y466001D01*
X816933Y466343D01*
X816695Y466691D01*
X816464Y467045D01*
X816243Y467405D01*
X816030Y467770D01*
X815827Y468140D01*
X815632Y468514D01*
X815447Y468894D01*
X815271Y469278D01*
X815105Y469666D01*
X814948Y470058D01*
X814801Y470454D01*
X814663Y470853D01*
X814536Y471256D01*
X814418Y471661D01*
X814311Y472070D01*
X814213Y472480D01*
X814126Y472893D01*
X814048Y473309D01*
X813981Y473726D01*
X813924Y474144D01*
X813878Y474564D01*
X813842Y474984D01*
X813816Y475406D01*
X813800Y475828D01*
X813795Y476250D01*
X856000Y460250D02*
X859000Y463250D01*
X863000Y459250D01*
X856000Y451250D01*
D12*
X802683Y463013D02*
X795317Y463013D01*
X802683Y463013D02*
X802683Y465059D01*
X802681Y465148D01*
X802675Y465237D01*
X802665Y465326D01*
X802652Y465414D01*
X802635Y465502D01*
X802613Y465589D01*
X802588Y465674D01*
X802560Y465759D01*
X802527Y465842D01*
X802491Y465924D01*
X802452Y466004D01*
X802409Y466082D01*
X802363Y466158D01*
X802313Y466233D01*
X802260Y466305D01*
X802204Y466374D01*
X802145Y466441D01*
X802084Y466506D01*
X802019Y466567D01*
X801952Y466626D01*
X801883Y466682D01*
X801811Y466735D01*
X801736Y466785D01*
X801660Y466831D01*
X801582Y466874D01*
X801502Y466913D01*
X801420Y466949D01*
X801337Y466982D01*
X801252Y467010D01*
X801167Y467035D01*
X801080Y467057D01*
X800992Y467074D01*
X800904Y467087D01*
X800815Y467097D01*
X800726Y467103D01*
X800637Y467105D01*
X800548Y467103D01*
X800459Y467097D01*
X800370Y467087D01*
X800282Y467074D01*
X800194Y467057D01*
X800107Y467035D01*
X800022Y467010D01*
X799937Y466982D01*
X799854Y466949D01*
X799772Y466913D01*
X799692Y466874D01*
X799614Y466831D01*
X799538Y466785D01*
X799463Y466735D01*
X799391Y466682D01*
X799322Y466626D01*
X799255Y466567D01*
X799190Y466506D01*
X799129Y466441D01*
X799070Y466374D01*
X799014Y466305D01*
X798961Y466233D01*
X798911Y466158D01*
X798865Y466082D01*
X798822Y466004D01*
X798783Y465924D01*
X798747Y465842D01*
X798714Y465759D01*
X798686Y465674D01*
X798661Y465589D01*
X798639Y465502D01*
X798622Y465414D01*
X798609Y465326D01*
X798599Y465237D01*
X798593Y465148D01*
X798591Y465059D01*
X798591Y463013D01*
X798591Y465468D02*
X795317Y467105D01*
X799409Y473385D02*
X799409Y474613D01*
X795317Y474613D01*
X795317Y472158D01*
X795319Y472080D01*
X795324Y472002D01*
X795334Y471925D01*
X795347Y471848D01*
X795363Y471772D01*
X795383Y471697D01*
X795407Y471623D01*
X795434Y471550D01*
X795465Y471478D01*
X795499Y471408D01*
X795536Y471340D01*
X795577Y471273D01*
X795621Y471208D01*
X795667Y471146D01*
X795717Y471086D01*
X795769Y471028D01*
X795824Y470973D01*
X795882Y470921D01*
X795942Y470871D01*
X796004Y470825D01*
X796069Y470781D01*
X796136Y470740D01*
X796204Y470703D01*
X796274Y470669D01*
X796346Y470638D01*
X796419Y470611D01*
X796493Y470587D01*
X796568Y470567D01*
X796644Y470551D01*
X796721Y470538D01*
X796798Y470528D01*
X796876Y470523D01*
X796954Y470521D01*
X801046Y470521D01*
X801124Y470523D01*
X801202Y470528D01*
X801279Y470538D01*
X801356Y470551D01*
X801432Y470567D01*
X801507Y470587D01*
X801581Y470611D01*
X801654Y470638D01*
X801726Y470669D01*
X801796Y470703D01*
X801865Y470740D01*
X801931Y470781D01*
X801996Y470825D01*
X802058Y470871D01*
X802118Y470921D01*
X802176Y470973D01*
X802231Y471028D01*
X802283Y471086D01*
X802333Y471146D01*
X802379Y471208D01*
X802423Y471273D01*
X802464Y471340D01*
X802501Y471408D01*
X802535Y471478D01*
X802566Y471550D01*
X802593Y471623D01*
X802617Y471697D01*
X802637Y471772D01*
X802653Y471848D01*
X802666Y471925D01*
X802676Y472002D01*
X802681Y472080D01*
X802683Y472158D01*
X802683Y474613D01*
X799409Y478441D02*
X799409Y480487D01*
X799407Y480576D01*
X799401Y480665D01*
X799391Y480754D01*
X799378Y480842D01*
X799361Y480930D01*
X799339Y481017D01*
X799314Y481102D01*
X799286Y481187D01*
X799253Y481270D01*
X799217Y481352D01*
X799178Y481432D01*
X799135Y481510D01*
X799089Y481586D01*
X799039Y481661D01*
X798986Y481733D01*
X798930Y481802D01*
X798871Y481869D01*
X798810Y481934D01*
X798745Y481995D01*
X798678Y482054D01*
X798609Y482110D01*
X798537Y482163D01*
X798462Y482213D01*
X798386Y482259D01*
X798308Y482302D01*
X798228Y482341D01*
X798146Y482377D01*
X798063Y482410D01*
X797978Y482438D01*
X797893Y482463D01*
X797806Y482485D01*
X797718Y482502D01*
X797630Y482515D01*
X797541Y482525D01*
X797452Y482531D01*
X797363Y482533D01*
X797274Y482531D01*
X797185Y482525D01*
X797096Y482515D01*
X797008Y482502D01*
X796920Y482485D01*
X796833Y482463D01*
X796748Y482438D01*
X796663Y482410D01*
X796580Y482377D01*
X796498Y482341D01*
X796418Y482302D01*
X796340Y482259D01*
X796264Y482213D01*
X796189Y482163D01*
X796117Y482110D01*
X796048Y482054D01*
X795981Y481995D01*
X795916Y481934D01*
X795855Y481869D01*
X795796Y481802D01*
X795740Y481733D01*
X795687Y481661D01*
X795637Y481586D01*
X795591Y481510D01*
X795548Y481432D01*
X795509Y481352D01*
X795473Y481270D01*
X795440Y481187D01*
X795412Y481102D01*
X795387Y481017D01*
X795365Y480930D01*
X795348Y480842D01*
X795335Y480754D01*
X795325Y480665D01*
X795319Y480576D01*
X795317Y480487D01*
X795317Y478441D01*
X802683Y478441D01*
X802683Y480487D01*
X802681Y480566D01*
X802675Y480645D01*
X802666Y480724D01*
X802653Y480802D01*
X802635Y480879D01*
X802615Y480955D01*
X802590Y481030D01*
X802562Y481104D01*
X802531Y481177D01*
X802495Y481248D01*
X802457Y481317D01*
X802415Y481384D01*
X802370Y481449D01*
X802322Y481512D01*
X802271Y481573D01*
X802217Y481630D01*
X802161Y481686D01*
X802102Y481738D01*
X802040Y481788D01*
X801976Y481834D01*
X801910Y481878D01*
X801842Y481918D01*
X801772Y481954D01*
X801700Y481988D01*
X801626Y482018D01*
X801552Y482044D01*
X801476Y482067D01*
X801399Y482085D01*
X801322Y482101D01*
X801243Y482112D01*
X801165Y482120D01*
X801086Y482124D01*
X801006Y482124D01*
X800927Y482120D01*
X800849Y482112D01*
X800770Y482101D01*
X800693Y482085D01*
X800616Y482067D01*
X800540Y482044D01*
X800466Y482018D01*
X800392Y481988D01*
X800320Y481954D01*
X800250Y481918D01*
X800182Y481878D01*
X800116Y481834D01*
X800052Y481788D01*
X799990Y481738D01*
X799931Y481686D01*
X799875Y481630D01*
X799821Y481573D01*
X799770Y481512D01*
X799722Y481449D01*
X799677Y481384D01*
X799635Y481317D01*
X799597Y481248D01*
X799561Y481177D01*
X799530Y481104D01*
X799502Y481030D01*
X799477Y480955D01*
X799457Y480879D01*
X799439Y480802D01*
X799426Y480724D01*
X799417Y480645D01*
X799411Y480566D01*
X799409Y480487D01*
X799409Y485395D02*
X799409Y487850D01*
X799407Y487928D01*
X799402Y488006D01*
X799392Y488083D01*
X799379Y488160D01*
X799363Y488236D01*
X799343Y488311D01*
X799319Y488385D01*
X799292Y488458D01*
X799261Y488530D01*
X799227Y488600D01*
X799190Y488669D01*
X799149Y488735D01*
X799105Y488800D01*
X799059Y488862D01*
X799009Y488922D01*
X798957Y488980D01*
X798902Y489035D01*
X798844Y489087D01*
X798784Y489137D01*
X798722Y489183D01*
X798657Y489227D01*
X798591Y489268D01*
X798522Y489305D01*
X798452Y489339D01*
X798380Y489370D01*
X798307Y489397D01*
X798233Y489421D01*
X798158Y489441D01*
X798082Y489457D01*
X798005Y489470D01*
X797928Y489480D01*
X797850Y489485D01*
X797772Y489487D01*
X797363Y489487D01*
X797274Y489485D01*
X797185Y489479D01*
X797096Y489469D01*
X797008Y489456D01*
X796920Y489439D01*
X796833Y489417D01*
X796748Y489392D01*
X796663Y489364D01*
X796580Y489331D01*
X796498Y489295D01*
X796418Y489256D01*
X796340Y489213D01*
X796264Y489167D01*
X796189Y489117D01*
X796117Y489064D01*
X796048Y489008D01*
X795981Y488949D01*
X795916Y488888D01*
X795855Y488823D01*
X795796Y488756D01*
X795740Y488687D01*
X795687Y488615D01*
X795637Y488540D01*
X795591Y488464D01*
X795548Y488386D01*
X795509Y488306D01*
X795473Y488224D01*
X795440Y488141D01*
X795412Y488056D01*
X795387Y487971D01*
X795365Y487884D01*
X795348Y487796D01*
X795335Y487708D01*
X795325Y487619D01*
X795319Y487530D01*
X795317Y487441D01*
X795319Y487352D01*
X795325Y487263D01*
X795335Y487174D01*
X795348Y487086D01*
X795365Y486998D01*
X795387Y486911D01*
X795412Y486826D01*
X795440Y486741D01*
X795473Y486658D01*
X795509Y486576D01*
X795548Y486496D01*
X795591Y486418D01*
X795637Y486342D01*
X795687Y486267D01*
X795740Y486195D01*
X795796Y486126D01*
X795855Y486059D01*
X795916Y485994D01*
X795981Y485933D01*
X796048Y485874D01*
X796117Y485818D01*
X796189Y485765D01*
X796264Y485715D01*
X796340Y485669D01*
X796418Y485626D01*
X796498Y485587D01*
X796580Y485551D01*
X796663Y485518D01*
X796748Y485490D01*
X796833Y485465D01*
X796920Y485443D01*
X797008Y485426D01*
X797096Y485413D01*
X797185Y485403D01*
X797274Y485397D01*
X797363Y485395D01*
X799409Y485395D01*
X799523Y485397D01*
X799637Y485403D01*
X799751Y485413D01*
X799865Y485427D01*
X799978Y485445D01*
X800090Y485467D01*
X800201Y485492D01*
X800311Y485522D01*
X800421Y485555D01*
X800529Y485592D01*
X800635Y485633D01*
X800741Y485678D01*
X800844Y485726D01*
X800946Y485778D01*
X801046Y485834D01*
X801144Y485892D01*
X801240Y485955D01*
X801333Y486020D01*
X801425Y486089D01*
X801513Y486161D01*
X801600Y486236D01*
X801683Y486314D01*
X801764Y486395D01*
X801842Y486478D01*
X801917Y486565D01*
X801989Y486653D01*
X802058Y486745D01*
X802123Y486838D01*
X802185Y486934D01*
X802244Y487032D01*
X802300Y487132D01*
X802352Y487234D01*
X802400Y487337D01*
X802445Y487443D01*
X802486Y487549D01*
X802523Y487657D01*
X802556Y487767D01*
X802586Y487877D01*
X802611Y487988D01*
X802633Y488100D01*
X802651Y488213D01*
X802665Y488327D01*
X802675Y488441D01*
X802681Y488555D01*
X802683Y488669D01*
D10*
X739375Y853000D02*
X689375Y853000D01*
X739375Y853000D02*
X739375Y894000D01*
X739375Y903000D01*
X730375Y903000D01*
X689375Y903000D01*
X689375Y853000D01*
X739375Y894000D02*
X730375Y903000D01*
X697170Y878000D02*
X697175Y878422D01*
X697191Y878844D01*
X697217Y879266D01*
X697253Y879686D01*
X697299Y880106D01*
X697356Y880524D01*
X697423Y880941D01*
X697501Y881357D01*
X697588Y881770D01*
X697686Y882180D01*
X697793Y882589D01*
X697911Y882994D01*
X698038Y883397D01*
X698176Y883796D01*
X698323Y884192D01*
X698480Y884584D01*
X698646Y884972D01*
X698822Y885356D01*
X699007Y885736D01*
X699202Y886110D01*
X699405Y886480D01*
X699618Y886845D01*
X699839Y887205D01*
X700070Y887559D01*
X700308Y887907D01*
X700556Y888249D01*
X700811Y888585D01*
X701075Y888915D01*
X701347Y889238D01*
X701627Y889554D01*
X701914Y889864D01*
X702209Y890166D01*
X702511Y890461D01*
X702821Y890748D01*
X703137Y891028D01*
X703460Y891300D01*
X703790Y891564D01*
X704126Y891819D01*
X704468Y892067D01*
X704816Y892305D01*
X705170Y892536D01*
X705530Y892757D01*
X705895Y892970D01*
X706265Y893173D01*
X706639Y893368D01*
X707019Y893553D01*
X707403Y893729D01*
X707791Y893895D01*
X708183Y894052D01*
X708579Y894199D01*
X708978Y894337D01*
X709381Y894464D01*
X709786Y894582D01*
X710195Y894689D01*
X710605Y894787D01*
X711018Y894874D01*
X711434Y894952D01*
X711851Y895019D01*
X712269Y895076D01*
X712689Y895122D01*
X713109Y895158D01*
X713531Y895184D01*
X713953Y895200D01*
X714375Y895205D01*
X714797Y895200D01*
X715219Y895184D01*
X715641Y895158D01*
X716061Y895122D01*
X716481Y895076D01*
X716899Y895019D01*
X717316Y894952D01*
X717732Y894874D01*
X718145Y894787D01*
X718555Y894689D01*
X718964Y894582D01*
X719369Y894464D01*
X719772Y894337D01*
X720171Y894199D01*
X720567Y894052D01*
X720959Y893895D01*
X721347Y893729D01*
X721731Y893553D01*
X722111Y893368D01*
X722485Y893173D01*
X722855Y892970D01*
X723220Y892757D01*
X723580Y892536D01*
X723934Y892305D01*
X724282Y892067D01*
X724624Y891819D01*
X724960Y891564D01*
X725290Y891300D01*
X725613Y891028D01*
X725929Y890748D01*
X726239Y890461D01*
X726541Y890166D01*
X726836Y889864D01*
X727123Y889554D01*
X727403Y889238D01*
X727675Y888915D01*
X727939Y888585D01*
X728194Y888249D01*
X728442Y887907D01*
X728680Y887559D01*
X728911Y887205D01*
X729132Y886845D01*
X729345Y886480D01*
X729548Y886110D01*
X729743Y885736D01*
X729928Y885356D01*
X730104Y884972D01*
X730270Y884584D01*
X730427Y884192D01*
X730574Y883796D01*
X730712Y883397D01*
X730839Y882994D01*
X730957Y882589D01*
X731064Y882180D01*
X731162Y881770D01*
X731249Y881357D01*
X731327Y880941D01*
X731394Y880524D01*
X731451Y880106D01*
X731497Y879686D01*
X731533Y879266D01*
X731559Y878844D01*
X731575Y878422D01*
X731580Y878000D01*
X731575Y877578D01*
X731559Y877156D01*
X731533Y876734D01*
X731497Y876314D01*
X731451Y875894D01*
X731394Y875476D01*
X731327Y875059D01*
X731249Y874643D01*
X731162Y874230D01*
X731064Y873820D01*
X730957Y873411D01*
X730839Y873006D01*
X730712Y872603D01*
X730574Y872204D01*
X730427Y871808D01*
X730270Y871416D01*
X730104Y871028D01*
X729928Y870644D01*
X729743Y870264D01*
X729548Y869890D01*
X729345Y869520D01*
X729132Y869155D01*
X728911Y868795D01*
X728680Y868441D01*
X728442Y868093D01*
X728194Y867751D01*
X727939Y867415D01*
X727675Y867085D01*
X727403Y866762D01*
X727123Y866446D01*
X726836Y866136D01*
X726541Y865834D01*
X726239Y865539D01*
X725929Y865252D01*
X725613Y864972D01*
X725290Y864700D01*
X724960Y864436D01*
X724624Y864181D01*
X724282Y863933D01*
X723934Y863695D01*
X723580Y863464D01*
X723220Y863243D01*
X722855Y863030D01*
X722485Y862827D01*
X722111Y862632D01*
X721731Y862447D01*
X721347Y862271D01*
X720959Y862105D01*
X720567Y861948D01*
X720171Y861801D01*
X719772Y861663D01*
X719369Y861536D01*
X718964Y861418D01*
X718555Y861311D01*
X718145Y861213D01*
X717732Y861126D01*
X717316Y861048D01*
X716899Y860981D01*
X716481Y860924D01*
X716061Y860878D01*
X715641Y860842D01*
X715219Y860816D01*
X714797Y860800D01*
X714375Y860795D01*
X713953Y860800D01*
X713531Y860816D01*
X713109Y860842D01*
X712689Y860878D01*
X712269Y860924D01*
X711851Y860981D01*
X711434Y861048D01*
X711018Y861126D01*
X710605Y861213D01*
X710195Y861311D01*
X709786Y861418D01*
X709381Y861536D01*
X708978Y861663D01*
X708579Y861801D01*
X708183Y861948D01*
X707791Y862105D01*
X707403Y862271D01*
X707019Y862447D01*
X706639Y862632D01*
X706265Y862827D01*
X705895Y863030D01*
X705530Y863243D01*
X705170Y863464D01*
X704816Y863695D01*
X704468Y863933D01*
X704126Y864181D01*
X703790Y864436D01*
X703460Y864700D01*
X703137Y864972D01*
X702821Y865252D01*
X702511Y865539D01*
X702209Y865834D01*
X701914Y866136D01*
X701627Y866446D01*
X701347Y866762D01*
X701075Y867085D01*
X700811Y867415D01*
X700556Y867751D01*
X700308Y868093D01*
X700070Y868441D01*
X699839Y868795D01*
X699618Y869155D01*
X699405Y869520D01*
X699202Y869890D01*
X699007Y870264D01*
X698822Y870644D01*
X698646Y871028D01*
X698480Y871416D01*
X698323Y871808D01*
X698176Y872204D01*
X698038Y872603D01*
X697911Y873006D01*
X697793Y873411D01*
X697686Y873820D01*
X697588Y874230D01*
X697501Y874643D01*
X697423Y875059D01*
X697356Y875476D01*
X697299Y875894D01*
X697253Y876314D01*
X697217Y876734D01*
X697191Y877156D01*
X697175Y877578D01*
X697170Y878000D01*
X727375Y906000D02*
X730375Y903000D01*
X727375Y906000D02*
X731375Y910000D01*
X739375Y903000D01*
D12*
X727612Y849683D02*
X727612Y842317D01*
X727612Y849683D02*
X725566Y849683D01*
X725477Y849681D01*
X725388Y849675D01*
X725299Y849665D01*
X725211Y849652D01*
X725123Y849635D01*
X725036Y849613D01*
X724951Y849588D01*
X724866Y849560D01*
X724783Y849527D01*
X724701Y849491D01*
X724621Y849452D01*
X724543Y849409D01*
X724467Y849363D01*
X724392Y849313D01*
X724320Y849260D01*
X724251Y849204D01*
X724184Y849145D01*
X724119Y849084D01*
X724058Y849019D01*
X723999Y848952D01*
X723943Y848883D01*
X723890Y848811D01*
X723840Y848736D01*
X723794Y848660D01*
X723751Y848582D01*
X723712Y848502D01*
X723676Y848420D01*
X723643Y848337D01*
X723615Y848252D01*
X723590Y848167D01*
X723568Y848080D01*
X723551Y847992D01*
X723538Y847904D01*
X723528Y847815D01*
X723522Y847726D01*
X723520Y847637D01*
X723522Y847548D01*
X723528Y847459D01*
X723538Y847370D01*
X723551Y847282D01*
X723568Y847194D01*
X723590Y847107D01*
X723615Y847022D01*
X723643Y846937D01*
X723676Y846854D01*
X723712Y846772D01*
X723751Y846692D01*
X723794Y846614D01*
X723840Y846538D01*
X723890Y846463D01*
X723943Y846391D01*
X723999Y846322D01*
X724058Y846255D01*
X724119Y846190D01*
X724184Y846129D01*
X724251Y846070D01*
X724320Y846014D01*
X724392Y845961D01*
X724467Y845911D01*
X724543Y845865D01*
X724621Y845822D01*
X724701Y845783D01*
X724783Y845747D01*
X724866Y845714D01*
X724951Y845686D01*
X725036Y845661D01*
X725123Y845639D01*
X725211Y845622D01*
X725299Y845609D01*
X725388Y845599D01*
X725477Y845593D01*
X725566Y845591D01*
X727612Y845591D01*
X725157Y845591D02*
X723520Y842317D01*
X717240Y846409D02*
X716012Y846409D01*
X716012Y842317D01*
X718467Y842317D01*
X718545Y842319D01*
X718623Y842324D01*
X718700Y842334D01*
X718777Y842347D01*
X718853Y842363D01*
X718928Y842383D01*
X719002Y842407D01*
X719075Y842434D01*
X719147Y842465D01*
X719217Y842499D01*
X719286Y842536D01*
X719352Y842577D01*
X719417Y842621D01*
X719479Y842667D01*
X719539Y842717D01*
X719597Y842769D01*
X719652Y842824D01*
X719704Y842882D01*
X719754Y842942D01*
X719800Y843004D01*
X719844Y843069D01*
X719885Y843136D01*
X719922Y843204D01*
X719956Y843274D01*
X719987Y843346D01*
X720014Y843419D01*
X720038Y843493D01*
X720058Y843568D01*
X720074Y843644D01*
X720087Y843721D01*
X720097Y843798D01*
X720102Y843876D01*
X720104Y843954D01*
X720104Y848046D01*
X720102Y848124D01*
X720097Y848202D01*
X720087Y848279D01*
X720074Y848356D01*
X720058Y848432D01*
X720038Y848507D01*
X720014Y848581D01*
X719987Y848654D01*
X719956Y848726D01*
X719922Y848796D01*
X719885Y848865D01*
X719844Y848931D01*
X719800Y848996D01*
X719754Y849058D01*
X719704Y849118D01*
X719652Y849176D01*
X719597Y849231D01*
X719539Y849283D01*
X719479Y849333D01*
X719417Y849379D01*
X719352Y849423D01*
X719286Y849464D01*
X719217Y849501D01*
X719147Y849535D01*
X719075Y849566D01*
X719002Y849593D01*
X718928Y849617D01*
X718853Y849637D01*
X718777Y849653D01*
X718700Y849666D01*
X718623Y849676D01*
X718545Y849681D01*
X718467Y849683D01*
X716012Y849683D01*
X712184Y846409D02*
X710138Y846409D01*
X710049Y846407D01*
X709960Y846401D01*
X709871Y846391D01*
X709783Y846378D01*
X709695Y846361D01*
X709608Y846339D01*
X709523Y846314D01*
X709438Y846286D01*
X709355Y846253D01*
X709273Y846217D01*
X709193Y846178D01*
X709115Y846135D01*
X709039Y846089D01*
X708964Y846039D01*
X708892Y845986D01*
X708823Y845930D01*
X708756Y845871D01*
X708691Y845810D01*
X708630Y845745D01*
X708571Y845678D01*
X708515Y845609D01*
X708462Y845537D01*
X708412Y845462D01*
X708366Y845386D01*
X708323Y845308D01*
X708284Y845228D01*
X708248Y845146D01*
X708215Y845063D01*
X708187Y844978D01*
X708162Y844893D01*
X708140Y844806D01*
X708123Y844718D01*
X708110Y844630D01*
X708100Y844541D01*
X708094Y844452D01*
X708092Y844363D01*
X708094Y844274D01*
X708100Y844185D01*
X708110Y844096D01*
X708123Y844008D01*
X708140Y843920D01*
X708162Y843833D01*
X708187Y843748D01*
X708215Y843663D01*
X708248Y843580D01*
X708284Y843498D01*
X708323Y843418D01*
X708366Y843340D01*
X708412Y843264D01*
X708462Y843189D01*
X708515Y843117D01*
X708571Y843048D01*
X708630Y842981D01*
X708691Y842916D01*
X708756Y842855D01*
X708823Y842796D01*
X708892Y842740D01*
X708964Y842687D01*
X709039Y842637D01*
X709115Y842591D01*
X709193Y842548D01*
X709273Y842509D01*
X709355Y842473D01*
X709438Y842440D01*
X709523Y842412D01*
X709608Y842387D01*
X709695Y842365D01*
X709783Y842348D01*
X709871Y842335D01*
X709960Y842325D01*
X710049Y842319D01*
X710138Y842317D01*
X712184Y842317D01*
X712184Y849683D01*
X710138Y849683D01*
X710059Y849681D01*
X709980Y849675D01*
X709901Y849666D01*
X709823Y849653D01*
X709746Y849635D01*
X709670Y849615D01*
X709595Y849590D01*
X709521Y849562D01*
X709448Y849531D01*
X709377Y849495D01*
X709308Y849457D01*
X709241Y849415D01*
X709176Y849370D01*
X709113Y849322D01*
X709052Y849271D01*
X708995Y849217D01*
X708939Y849161D01*
X708887Y849102D01*
X708837Y849040D01*
X708791Y848976D01*
X708747Y848910D01*
X708707Y848842D01*
X708671Y848772D01*
X708637Y848700D01*
X708607Y848626D01*
X708581Y848552D01*
X708558Y848476D01*
X708540Y848399D01*
X708524Y848322D01*
X708513Y848243D01*
X708505Y848165D01*
X708501Y848086D01*
X708501Y848006D01*
X708505Y847927D01*
X708513Y847849D01*
X708524Y847770D01*
X708540Y847693D01*
X708558Y847616D01*
X708581Y847540D01*
X708607Y847466D01*
X708637Y847392D01*
X708671Y847320D01*
X708707Y847250D01*
X708747Y847182D01*
X708791Y847116D01*
X708837Y847052D01*
X708887Y846990D01*
X708939Y846931D01*
X708995Y846875D01*
X709052Y846821D01*
X709113Y846770D01*
X709176Y846722D01*
X709241Y846677D01*
X709308Y846635D01*
X709377Y846597D01*
X709448Y846561D01*
X709521Y846530D01*
X709595Y846502D01*
X709670Y846477D01*
X709746Y846457D01*
X709823Y846439D01*
X709901Y846426D01*
X709980Y846417D01*
X710059Y846411D01*
X710138Y846409D01*
X705230Y848865D02*
X705230Y849683D01*
X701138Y849683D01*
X703184Y842317D01*
D13*
X608500Y902000D02*
X553500Y902000D01*
X550000Y881000D02*
X550000Y861000D01*
X553500Y840000D02*
X608500Y840000D01*
X612000Y861000D02*
X612000Y881000D01*
X563500Y871000D02*
X563505Y871429D01*
X563521Y871859D01*
X563547Y872287D01*
X563584Y872715D01*
X563632Y873142D01*
X563689Y873568D01*
X563758Y873992D01*
X563836Y874414D01*
X563925Y874834D01*
X564024Y875252D01*
X564134Y875667D01*
X564254Y876080D01*
X564383Y876489D01*
X564523Y876896D01*
X564673Y877298D01*
X564832Y877697D01*
X565001Y878092D01*
X565180Y878482D01*
X565369Y878868D01*
X565566Y879249D01*
X565773Y879626D01*
X565990Y879997D01*
X566215Y880362D01*
X566449Y880722D01*
X566692Y881077D01*
X566944Y881425D01*
X567204Y881767D01*
X567472Y882102D01*
X567749Y882431D01*
X568033Y882752D01*
X568326Y883067D01*
X568626Y883374D01*
X568933Y883674D01*
X569248Y883967D01*
X569569Y884251D01*
X569898Y884528D01*
X570233Y884796D01*
X570575Y885056D01*
X570923Y885308D01*
X571278Y885551D01*
X571638Y885785D01*
X572003Y886010D01*
X572374Y886227D01*
X572751Y886434D01*
X573132Y886631D01*
X573518Y886820D01*
X573908Y886999D01*
X574303Y887168D01*
X574702Y887327D01*
X575104Y887477D01*
X575511Y887617D01*
X575920Y887746D01*
X576333Y887866D01*
X576748Y887976D01*
X577166Y888075D01*
X577586Y888164D01*
X578008Y888242D01*
X578432Y888311D01*
X578858Y888368D01*
X579285Y888416D01*
X579713Y888453D01*
X580141Y888479D01*
X580571Y888495D01*
X581000Y888500D01*
X581429Y888495D01*
X581859Y888479D01*
X582287Y888453D01*
X582715Y888416D01*
X583142Y888368D01*
X583568Y888311D01*
X583992Y888242D01*
X584414Y888164D01*
X584834Y888075D01*
X585252Y887976D01*
X585667Y887866D01*
X586080Y887746D01*
X586489Y887617D01*
X586896Y887477D01*
X587298Y887327D01*
X587697Y887168D01*
X588092Y886999D01*
X588482Y886820D01*
X588868Y886631D01*
X589249Y886434D01*
X589626Y886227D01*
X589997Y886010D01*
X590362Y885785D01*
X590722Y885551D01*
X591077Y885308D01*
X591425Y885056D01*
X591767Y884796D01*
X592102Y884528D01*
X592431Y884251D01*
X592752Y883967D01*
X593067Y883674D01*
X593374Y883374D01*
X593674Y883067D01*
X593967Y882752D01*
X594251Y882431D01*
X594528Y882102D01*
X594796Y881767D01*
X595056Y881425D01*
X595308Y881077D01*
X595551Y880722D01*
X595785Y880362D01*
X596010Y879997D01*
X596227Y879626D01*
X596434Y879249D01*
X596631Y878868D01*
X596820Y878482D01*
X596999Y878092D01*
X597168Y877697D01*
X597327Y877298D01*
X597477Y876896D01*
X597617Y876489D01*
X597746Y876080D01*
X597866Y875667D01*
X597976Y875252D01*
X598075Y874834D01*
X598164Y874414D01*
X598242Y873992D01*
X598311Y873568D01*
X598368Y873142D01*
X598416Y872715D01*
X598453Y872287D01*
X598479Y871859D01*
X598495Y871429D01*
X598500Y871000D01*
X598495Y870571D01*
X598479Y870141D01*
X598453Y869713D01*
X598416Y869285D01*
X598368Y868858D01*
X598311Y868432D01*
X598242Y868008D01*
X598164Y867586D01*
X598075Y867166D01*
X597976Y866748D01*
X597866Y866333D01*
X597746Y865920D01*
X597617Y865511D01*
X597477Y865104D01*
X597327Y864702D01*
X597168Y864303D01*
X596999Y863908D01*
X596820Y863518D01*
X596631Y863132D01*
X596434Y862751D01*
X596227Y862374D01*
X596010Y862003D01*
X595785Y861638D01*
X595551Y861278D01*
X595308Y860923D01*
X595056Y860575D01*
X594796Y860233D01*
X594528Y859898D01*
X594251Y859569D01*
X593967Y859248D01*
X593674Y858933D01*
X593374Y858626D01*
X593067Y858326D01*
X592752Y858033D01*
X592431Y857749D01*
X592102Y857472D01*
X591767Y857204D01*
X591425Y856944D01*
X591077Y856692D01*
X590722Y856449D01*
X590362Y856215D01*
X589997Y855990D01*
X589626Y855773D01*
X589249Y855566D01*
X588868Y855369D01*
X588482Y855180D01*
X588092Y855001D01*
X587697Y854832D01*
X587298Y854673D01*
X586896Y854523D01*
X586489Y854383D01*
X586080Y854254D01*
X585667Y854134D01*
X585252Y854024D01*
X584834Y853925D01*
X584414Y853836D01*
X583992Y853758D01*
X583568Y853689D01*
X583142Y853632D01*
X582715Y853584D01*
X582287Y853547D01*
X581859Y853521D01*
X581429Y853505D01*
X581000Y853500D01*
X580571Y853505D01*
X580141Y853521D01*
X579713Y853547D01*
X579285Y853584D01*
X578858Y853632D01*
X578432Y853689D01*
X578008Y853758D01*
X577586Y853836D01*
X577166Y853925D01*
X576748Y854024D01*
X576333Y854134D01*
X575920Y854254D01*
X575511Y854383D01*
X575104Y854523D01*
X574702Y854673D01*
X574303Y854832D01*
X573908Y855001D01*
X573518Y855180D01*
X573132Y855369D01*
X572751Y855566D01*
X572374Y855773D01*
X572003Y855990D01*
X571638Y856215D01*
X571278Y856449D01*
X570923Y856692D01*
X570575Y856944D01*
X570233Y857204D01*
X569898Y857472D01*
X569569Y857749D01*
X569248Y858033D01*
X568933Y858326D01*
X568626Y858626D01*
X568326Y858933D01*
X568033Y859248D01*
X567749Y859569D01*
X567472Y859898D01*
X567204Y860233D01*
X566944Y860575D01*
X566692Y860923D01*
X566449Y861278D01*
X566215Y861638D01*
X565990Y862003D01*
X565773Y862374D01*
X565566Y862751D01*
X565369Y863132D01*
X565180Y863518D01*
X565001Y863908D01*
X564832Y864303D01*
X564673Y864702D01*
X564523Y865104D01*
X564383Y865511D01*
X564254Y865920D01*
X564134Y866333D01*
X564024Y866748D01*
X563925Y867166D01*
X563836Y867586D01*
X563758Y868008D01*
X563689Y868432D01*
X563632Y868858D01*
X563584Y869285D01*
X563547Y869713D01*
X563521Y870141D01*
X563505Y870571D01*
X563500Y871000D01*
M02*
