G04 EAGLE Gerber RS-274X export*
G75*
%MOMM*%
%FSLAX34Y34*%
%LPD*%
%INSilkscreen Top*%
%IPPOS*%
%AMOC8*
5,1,8,0,0,1.08239X$1,22.5*%
G01*
%ADD10C,0.127000*%
%ADD11C,0.400000*%


D10*
X131500Y748030D02*
X131500Y702000D01*
X249500Y702000D01*
X249500Y748030D01*
X249500Y775970D02*
X249500Y822000D01*
X131500Y822000D01*
X131500Y775970D01*
D11*
X163100Y673100D02*
X163102Y673189D01*
X163108Y673278D01*
X163118Y673367D01*
X163132Y673455D01*
X163149Y673542D01*
X163171Y673628D01*
X163197Y673714D01*
X163226Y673798D01*
X163259Y673881D01*
X163295Y673962D01*
X163336Y674042D01*
X163379Y674119D01*
X163426Y674195D01*
X163477Y674268D01*
X163530Y674339D01*
X163587Y674408D01*
X163647Y674474D01*
X163710Y674538D01*
X163775Y674598D01*
X163843Y674656D01*
X163914Y674710D01*
X163987Y674761D01*
X164062Y674809D01*
X164139Y674854D01*
X164218Y674895D01*
X164299Y674932D01*
X164381Y674966D01*
X164465Y674997D01*
X164550Y675023D01*
X164636Y675046D01*
X164723Y675064D01*
X164811Y675079D01*
X164900Y675090D01*
X164989Y675097D01*
X165078Y675100D01*
X165167Y675099D01*
X165256Y675094D01*
X165344Y675085D01*
X165433Y675072D01*
X165520Y675055D01*
X165607Y675035D01*
X165693Y675010D01*
X165777Y674982D01*
X165860Y674950D01*
X165942Y674914D01*
X166022Y674875D01*
X166100Y674832D01*
X166176Y674786D01*
X166250Y674736D01*
X166322Y674683D01*
X166391Y674627D01*
X166458Y674568D01*
X166522Y674506D01*
X166583Y674442D01*
X166642Y674374D01*
X166697Y674304D01*
X166749Y674232D01*
X166798Y674157D01*
X166843Y674081D01*
X166885Y674002D01*
X166923Y673922D01*
X166958Y673840D01*
X166989Y673756D01*
X167017Y673671D01*
X167040Y673585D01*
X167060Y673498D01*
X167076Y673411D01*
X167088Y673322D01*
X167096Y673234D01*
X167100Y673145D01*
X167100Y673055D01*
X167096Y672966D01*
X167088Y672878D01*
X167076Y672789D01*
X167060Y672702D01*
X167040Y672615D01*
X167017Y672529D01*
X166989Y672444D01*
X166958Y672360D01*
X166923Y672278D01*
X166885Y672198D01*
X166843Y672119D01*
X166798Y672043D01*
X166749Y671968D01*
X166697Y671896D01*
X166642Y671826D01*
X166583Y671758D01*
X166522Y671694D01*
X166458Y671632D01*
X166391Y671573D01*
X166322Y671517D01*
X166250Y671464D01*
X166176Y671414D01*
X166100Y671368D01*
X166022Y671325D01*
X165942Y671286D01*
X165860Y671250D01*
X165777Y671218D01*
X165693Y671190D01*
X165607Y671165D01*
X165520Y671145D01*
X165433Y671128D01*
X165344Y671115D01*
X165256Y671106D01*
X165167Y671101D01*
X165078Y671100D01*
X164989Y671103D01*
X164900Y671110D01*
X164811Y671121D01*
X164723Y671136D01*
X164636Y671154D01*
X164550Y671177D01*
X164465Y671203D01*
X164381Y671234D01*
X164299Y671268D01*
X164218Y671305D01*
X164139Y671346D01*
X164062Y671391D01*
X163987Y671439D01*
X163914Y671490D01*
X163843Y671544D01*
X163775Y671602D01*
X163710Y671662D01*
X163647Y671726D01*
X163587Y671792D01*
X163530Y671861D01*
X163477Y671932D01*
X163426Y672005D01*
X163379Y672081D01*
X163336Y672158D01*
X163295Y672238D01*
X163259Y672319D01*
X163226Y672402D01*
X163197Y672486D01*
X163171Y672572D01*
X163149Y672658D01*
X163132Y672745D01*
X163118Y672833D01*
X163108Y672922D01*
X163102Y673011D01*
X163100Y673100D01*
D10*
X703000Y702000D02*
X703000Y748030D01*
X703000Y702000D02*
X821000Y702000D01*
X821000Y748030D01*
X821000Y775970D02*
X821000Y822000D01*
X703000Y822000D01*
X703000Y775970D01*
D11*
X734600Y673100D02*
X734602Y673189D01*
X734608Y673278D01*
X734618Y673367D01*
X734632Y673455D01*
X734649Y673542D01*
X734671Y673628D01*
X734697Y673714D01*
X734726Y673798D01*
X734759Y673881D01*
X734795Y673962D01*
X734836Y674042D01*
X734879Y674119D01*
X734926Y674195D01*
X734977Y674268D01*
X735030Y674339D01*
X735087Y674408D01*
X735147Y674474D01*
X735210Y674538D01*
X735275Y674598D01*
X735343Y674656D01*
X735414Y674710D01*
X735487Y674761D01*
X735562Y674809D01*
X735639Y674854D01*
X735718Y674895D01*
X735799Y674932D01*
X735881Y674966D01*
X735965Y674997D01*
X736050Y675023D01*
X736136Y675046D01*
X736223Y675064D01*
X736311Y675079D01*
X736400Y675090D01*
X736489Y675097D01*
X736578Y675100D01*
X736667Y675099D01*
X736756Y675094D01*
X736844Y675085D01*
X736933Y675072D01*
X737020Y675055D01*
X737107Y675035D01*
X737193Y675010D01*
X737277Y674982D01*
X737360Y674950D01*
X737442Y674914D01*
X737522Y674875D01*
X737600Y674832D01*
X737676Y674786D01*
X737750Y674736D01*
X737822Y674683D01*
X737891Y674627D01*
X737958Y674568D01*
X738022Y674506D01*
X738083Y674442D01*
X738142Y674374D01*
X738197Y674304D01*
X738249Y674232D01*
X738298Y674157D01*
X738343Y674081D01*
X738385Y674002D01*
X738423Y673922D01*
X738458Y673840D01*
X738489Y673756D01*
X738517Y673671D01*
X738540Y673585D01*
X738560Y673498D01*
X738576Y673411D01*
X738588Y673322D01*
X738596Y673234D01*
X738600Y673145D01*
X738600Y673055D01*
X738596Y672966D01*
X738588Y672878D01*
X738576Y672789D01*
X738560Y672702D01*
X738540Y672615D01*
X738517Y672529D01*
X738489Y672444D01*
X738458Y672360D01*
X738423Y672278D01*
X738385Y672198D01*
X738343Y672119D01*
X738298Y672043D01*
X738249Y671968D01*
X738197Y671896D01*
X738142Y671826D01*
X738083Y671758D01*
X738022Y671694D01*
X737958Y671632D01*
X737891Y671573D01*
X737822Y671517D01*
X737750Y671464D01*
X737676Y671414D01*
X737600Y671368D01*
X737522Y671325D01*
X737442Y671286D01*
X737360Y671250D01*
X737277Y671218D01*
X737193Y671190D01*
X737107Y671165D01*
X737020Y671145D01*
X736933Y671128D01*
X736844Y671115D01*
X736756Y671106D01*
X736667Y671101D01*
X736578Y671100D01*
X736489Y671103D01*
X736400Y671110D01*
X736311Y671121D01*
X736223Y671136D01*
X736136Y671154D01*
X736050Y671177D01*
X735965Y671203D01*
X735881Y671234D01*
X735799Y671268D01*
X735718Y671305D01*
X735639Y671346D01*
X735562Y671391D01*
X735487Y671439D01*
X735414Y671490D01*
X735343Y671544D01*
X735275Y671602D01*
X735210Y671662D01*
X735147Y671726D01*
X735087Y671792D01*
X735030Y671861D01*
X734977Y671932D01*
X734926Y672005D01*
X734879Y672081D01*
X734836Y672158D01*
X734795Y672238D01*
X734759Y672319D01*
X734726Y672402D01*
X734697Y672486D01*
X734671Y672572D01*
X734649Y672658D01*
X734632Y672745D01*
X734618Y672833D01*
X734608Y672922D01*
X734602Y673011D01*
X734600Y673100D01*
M02*
