G04 EAGLE Gerber RS-274X export*
G75*
%MOMM*%
%FSLAX34Y34*%
%LPD*%
%INSoldermask Top*%
%IPPOS*%
%AMOC8*
5,1,8,0,0,1.08239X$1,22.5*%
G01*
%ADD10R,0.167637X0.084581*%
%ADD11R,0.170181X0.084581*%
%ADD12R,0.340363X0.084581*%
%ADD13R,0.337819X0.084581*%
%ADD14R,0.340363X0.084838*%
%ADD15R,0.337819X0.084838*%
%ADD16R,0.424181X0.084838*%
%ADD17R,0.424181X0.084581*%
%ADD18R,0.421637X0.084581*%
%ADD19R,0.421637X0.084838*%
%ADD20R,1.524000X0.084581*%
%ADD21R,1.353819X0.084838*%
%ADD22R,0.845819X0.084838*%
%ADD23R,1.353819X0.084581*%
%ADD24R,0.678181X0.084581*%
%ADD25R,1.440181X0.084838*%
%ADD26R,0.508000X0.084838*%
%ADD27R,0.508000X0.084581*%
%ADD28R,1.356363X0.084838*%
%ADD29R,1.610363X0.084581*%
%ADD30R,1.610363X0.084838*%
%ADD31R,0.845819X0.084581*%
%ADD32R,0.254000X0.084581*%
%ADD33R,0.678181X0.084838*%
%ADD34R,1.694181X0.084581*%
%ADD35R,1.694181X0.084838*%
%ADD36R,1.356363X0.084581*%
%ADD37C,2.082800*%
%ADD38C,4.203200*%
%ADD39C,1.903200*%
%ADD40C,2.743200*%
%ADD41C,1.711200*%
%ADD42R,2.303200X2.303200*%
%ADD43C,0.959600*%


D10*
X547315Y271753D03*
D11*
X560866Y271753D03*
D10*
X572715Y271753D03*
D11*
X586266Y271753D03*
D10*
X598115Y271753D03*
D11*
X611666Y271753D03*
X630285Y271753D03*
D10*
X659075Y271753D03*
D11*
X673465Y271753D03*
D10*
X687015Y271753D03*
X709875Y271753D03*
D12*
X547315Y272599D03*
D13*
X560866Y272599D03*
D12*
X572715Y272599D03*
D13*
X586266Y272599D03*
D12*
X598115Y272599D03*
D13*
X611666Y272599D03*
X630285Y272599D03*
D12*
X659075Y272599D03*
D13*
X673465Y272599D03*
D12*
X687015Y272599D03*
X709875Y272599D03*
D14*
X547315Y273446D03*
D15*
X560866Y273446D03*
D14*
X572715Y273446D03*
D15*
X586266Y273446D03*
D14*
X598115Y273446D03*
D15*
X611666Y273446D03*
X630285Y273446D03*
D14*
X659075Y273446D03*
D16*
X673896Y273446D03*
X686596Y273446D03*
D14*
X709875Y273446D03*
D12*
X547315Y274293D03*
X560015Y274293D03*
D17*
X573135Y274293D03*
X585835Y274293D03*
D12*
X598115Y274293D03*
X610815Y274293D03*
D13*
X630285Y274293D03*
D12*
X659075Y274293D03*
X674315Y274293D03*
D13*
X686165Y274293D03*
D12*
X709875Y274293D03*
X547315Y275139D03*
D17*
X559596Y275139D03*
D13*
X573566Y275139D03*
D12*
X585415Y275139D03*
X598115Y275139D03*
D17*
X610396Y275139D03*
D13*
X630285Y275139D03*
D12*
X659075Y275139D03*
D17*
X674735Y275139D03*
D18*
X685745Y275139D03*
D12*
X709875Y275139D03*
D14*
X547315Y275986D03*
D15*
X559165Y275986D03*
X573566Y275986D03*
D14*
X585415Y275986D03*
X598115Y275986D03*
D15*
X609965Y275986D03*
X630285Y275986D03*
D14*
X659075Y275986D03*
D19*
X675585Y275986D03*
D16*
X684895Y275986D03*
D14*
X709875Y275986D03*
D12*
X547315Y276833D03*
D18*
X558745Y276833D03*
D13*
X573566Y276833D03*
D12*
X585415Y276833D03*
X598115Y276833D03*
D18*
X609545Y276833D03*
D13*
X630285Y276833D03*
D12*
X659075Y276833D03*
D17*
X676436Y276833D03*
X684056Y276833D03*
D12*
X709875Y276833D03*
X547315Y277679D03*
D13*
X558326Y277679D03*
D20*
X579497Y277679D03*
D12*
X598115Y277679D03*
D13*
X609126Y277679D03*
X630285Y277679D03*
D12*
X659075Y277679D03*
D17*
X677275Y277679D03*
D18*
X683205Y277679D03*
D12*
X709875Y277679D03*
D14*
X547315Y278526D03*
D16*
X557895Y278526D03*
D21*
X579485Y278526D03*
D14*
X598115Y278526D03*
D16*
X608695Y278526D03*
D15*
X630285Y278526D03*
D14*
X659075Y278526D03*
D22*
X680246Y278526D03*
D14*
X709875Y278526D03*
D12*
X547315Y279373D03*
D17*
X557056Y279373D03*
D23*
X579485Y279373D03*
D12*
X598115Y279373D03*
D17*
X607856Y279373D03*
D13*
X630285Y279373D03*
D12*
X659075Y279373D03*
D24*
X680246Y279373D03*
D12*
X709875Y279373D03*
X547315Y280219D03*
D13*
X556625Y280219D03*
D23*
X579485Y280219D03*
D12*
X598115Y280219D03*
D13*
X607425Y280219D03*
X630285Y280219D03*
D12*
X659075Y280219D03*
D24*
X680246Y280219D03*
D12*
X709875Y280219D03*
D14*
X547315Y281066D03*
D19*
X556205Y281066D03*
D14*
X575255Y281066D03*
D15*
X583726Y281066D03*
D14*
X598115Y281066D03*
D19*
X607005Y281066D03*
D15*
X630285Y281066D03*
D25*
X654415Y281066D03*
D26*
X680234Y281066D03*
D25*
X705215Y281066D03*
D12*
X547315Y281913D03*
D13*
X555786Y281913D03*
D12*
X575255Y281913D03*
D13*
X583726Y281913D03*
D12*
X598115Y281913D03*
D13*
X606586Y281913D03*
X630285Y281913D03*
D20*
X654834Y281913D03*
D27*
X680234Y281913D03*
D20*
X705634Y281913D03*
D12*
X547315Y282759D03*
D17*
X555355Y282759D03*
D12*
X575255Y282759D03*
D13*
X583726Y282759D03*
D12*
X598115Y282759D03*
D17*
X606155Y282759D03*
D13*
X630285Y282759D03*
D20*
X654834Y282759D03*
D24*
X680246Y282759D03*
D20*
X705634Y282759D03*
D14*
X547315Y283606D03*
D16*
X554516Y283606D03*
X575675Y283606D03*
X583295Y283606D03*
D14*
X598115Y283606D03*
D16*
X605316Y283606D03*
D15*
X630285Y283606D03*
D25*
X654415Y283606D03*
D22*
X680246Y283606D03*
D25*
X705215Y283606D03*
D12*
X547315Y284453D03*
D13*
X554085Y284453D03*
X576106Y284453D03*
D12*
X582875Y284453D03*
X598115Y284453D03*
D13*
X604885Y284453D03*
X630285Y284453D03*
D12*
X648915Y284453D03*
X659075Y284453D03*
D17*
X677275Y284453D03*
D18*
X683205Y284453D03*
D12*
X699715Y284453D03*
X709875Y284453D03*
X547315Y285299D03*
D18*
X553665Y285299D03*
D13*
X576106Y285299D03*
D12*
X582875Y285299D03*
X598115Y285299D03*
D18*
X604465Y285299D03*
D13*
X630285Y285299D03*
D12*
X648915Y285299D03*
X659075Y285299D03*
D17*
X677275Y285299D03*
D18*
X683205Y285299D03*
D12*
X699715Y285299D03*
X709875Y285299D03*
D28*
X552395Y286146D03*
D15*
X576106Y286146D03*
D14*
X582875Y286146D03*
D28*
X603195Y286146D03*
D15*
X630285Y286146D03*
D14*
X648915Y286146D03*
X659075Y286146D03*
D16*
X676436Y286146D03*
X684056Y286146D03*
D14*
X699715Y286146D03*
X709875Y286146D03*
D20*
X553234Y286993D03*
D13*
X576945Y286993D03*
X582025Y286993D03*
D20*
X604034Y286993D03*
D13*
X630285Y286993D03*
D12*
X648915Y286993D03*
X659075Y286993D03*
D18*
X675585Y286993D03*
D17*
X684895Y286993D03*
D12*
X699715Y286993D03*
X709875Y286993D03*
D29*
X553665Y287839D03*
D13*
X576945Y287839D03*
X582025Y287839D03*
D29*
X604465Y287839D03*
D13*
X630285Y287839D03*
D12*
X648915Y287839D03*
X659075Y287839D03*
D17*
X674735Y287839D03*
D18*
X685745Y287839D03*
D12*
X699715Y287839D03*
X709875Y287839D03*
D30*
X553665Y288686D03*
D15*
X576945Y288686D03*
X582025Y288686D03*
D30*
X604465Y288686D03*
D15*
X630285Y288686D03*
D14*
X648915Y288686D03*
X659075Y288686D03*
D16*
X673896Y288686D03*
X686596Y288686D03*
D14*
X699715Y288686D03*
X709875Y288686D03*
D12*
X547315Y289533D03*
D17*
X560435Y289533D03*
D31*
X579485Y289533D03*
D12*
X598115Y289533D03*
D17*
X611235Y289533D03*
D13*
X630285Y289533D03*
D12*
X648915Y289533D03*
X659075Y289533D03*
D13*
X673465Y289533D03*
D12*
X687015Y289533D03*
X699715Y289533D03*
X709875Y289533D03*
X547315Y290379D03*
D13*
X560866Y290379D03*
D24*
X579485Y290379D03*
D12*
X598115Y290379D03*
D13*
X611666Y290379D03*
X630285Y290379D03*
D12*
X648915Y290379D03*
X659075Y290379D03*
D32*
X673884Y290379D03*
X686584Y290379D03*
D12*
X699715Y290379D03*
X709875Y290379D03*
D14*
X547315Y291226D03*
D15*
X560866Y291226D03*
D33*
X579485Y291226D03*
D14*
X598115Y291226D03*
D15*
X611666Y291226D03*
X630285Y291226D03*
D14*
X648915Y291226D03*
X659075Y291226D03*
X699715Y291226D03*
X709875Y291226D03*
D12*
X547315Y292073D03*
D13*
X560866Y292073D03*
D24*
X579485Y292073D03*
D12*
X598115Y292073D03*
D13*
X611666Y292073D03*
X630285Y292073D03*
D12*
X648915Y292073D03*
X659075Y292073D03*
X699715Y292073D03*
X709875Y292073D03*
X547315Y292919D03*
D13*
X560866Y292919D03*
D27*
X579497Y292919D03*
D12*
X598115Y292919D03*
D13*
X611666Y292919D03*
D10*
X623515Y292919D03*
D13*
X630285Y292919D03*
D11*
X637066Y292919D03*
D12*
X648915Y292919D03*
X659075Y292919D03*
X699715Y292919D03*
X709875Y292919D03*
D14*
X547315Y293766D03*
D15*
X560866Y293766D03*
D26*
X579497Y293766D03*
D14*
X598115Y293766D03*
D15*
X611666Y293766D03*
D14*
X623515Y293766D03*
D15*
X630285Y293766D03*
X637066Y293766D03*
D14*
X648915Y293766D03*
X659075Y293766D03*
X699715Y293766D03*
X709875Y293766D03*
D12*
X547315Y294613D03*
D17*
X560435Y294613D03*
D27*
X579497Y294613D03*
D12*
X598115Y294613D03*
D17*
X611235Y294613D03*
D12*
X623515Y294613D03*
D13*
X630285Y294613D03*
X637066Y294613D03*
D12*
X648915Y294613D03*
D10*
X659075Y294613D03*
D12*
X699715Y294613D03*
D10*
X709875Y294613D03*
D29*
X553665Y295459D03*
D27*
X579497Y295459D03*
D29*
X604465Y295459D03*
D34*
X630285Y295459D03*
D12*
X648915Y295459D03*
X699715Y295459D03*
D30*
X553665Y296306D03*
D15*
X579485Y296306D03*
D30*
X604465Y296306D03*
D35*
X630285Y296306D03*
D14*
X648915Y296306D03*
X699715Y296306D03*
D20*
X553234Y297153D03*
D13*
X579485Y297153D03*
D20*
X604034Y297153D03*
D34*
X630285Y297153D03*
D12*
X648915Y297153D03*
X699715Y297153D03*
D36*
X552395Y297999D03*
D11*
X579485Y297999D03*
D36*
X603195Y297999D03*
D34*
X630285Y297999D03*
D10*
X648915Y297999D03*
X699715Y297999D03*
D37*
X457200Y865188D03*
X457200Y839788D03*
X457200Y814388D03*
X457200Y788988D03*
X457200Y763588D03*
X457200Y738188D03*
X457200Y712788D03*
X457200Y687388D03*
X457200Y661988D03*
X457200Y636588D03*
X457200Y611188D03*
X457200Y585788D03*
X304800Y585788D03*
X304800Y611188D03*
X304800Y636588D03*
X304800Y661988D03*
X304800Y687388D03*
X304800Y712788D03*
X304800Y738188D03*
X304800Y763588D03*
X304800Y788988D03*
X304800Y814388D03*
X304800Y839788D03*
X304800Y865188D03*
D38*
X190500Y762000D03*
D39*
X139700Y762000D03*
X241300Y762000D03*
D40*
X152400Y787400D03*
X215900Y812800D03*
D38*
X190500Y571500D03*
D39*
X139700Y571500D03*
X241300Y571500D03*
D40*
X152400Y596900D03*
X215900Y622300D03*
D38*
X190500Y381000D03*
D39*
X139700Y381000D03*
X241300Y381000D03*
D40*
X152400Y406400D03*
X215900Y431800D03*
D38*
X190500Y190500D03*
D39*
X139700Y190500D03*
X241300Y190500D03*
D40*
X152400Y215900D03*
X215900Y241300D03*
D38*
X381000Y762000D03*
D39*
X330200Y762000D03*
X431800Y762000D03*
D40*
X342900Y787400D03*
X406400Y812800D03*
D38*
X381000Y571500D03*
D39*
X330200Y571500D03*
X431800Y571500D03*
D40*
X342900Y596900D03*
X406400Y622300D03*
D38*
X381000Y381000D03*
D39*
X330200Y381000D03*
X431800Y381000D03*
D40*
X342900Y406400D03*
X406400Y431800D03*
D38*
X381000Y190500D03*
D39*
X330200Y190500D03*
X431800Y190500D03*
D40*
X342900Y215900D03*
X406400Y241300D03*
D38*
X571500Y762000D03*
D39*
X520700Y762000D03*
X622300Y762000D03*
D40*
X533400Y787400D03*
X596900Y812800D03*
D38*
X571500Y571500D03*
D39*
X520700Y571500D03*
X622300Y571500D03*
D40*
X533400Y596900D03*
X596900Y622300D03*
D38*
X571500Y381000D03*
D39*
X520700Y381000D03*
X622300Y381000D03*
D40*
X533400Y406400D03*
X596900Y431800D03*
D38*
X571500Y190500D03*
D39*
X520700Y190500D03*
X622300Y190500D03*
D40*
X533400Y215900D03*
X596900Y241300D03*
D38*
X762000Y762000D03*
D39*
X711200Y762000D03*
X812800Y762000D03*
D40*
X723900Y787400D03*
X787400Y812800D03*
D38*
X762000Y571500D03*
D39*
X711200Y571500D03*
X812800Y571500D03*
D40*
X723900Y596900D03*
X787400Y622300D03*
D38*
X762000Y381000D03*
D39*
X711200Y381000D03*
X812800Y381000D03*
D40*
X723900Y406400D03*
X787400Y431800D03*
D38*
X762000Y190500D03*
D39*
X711200Y190500D03*
X812800Y190500D03*
D40*
X723900Y215900D03*
X787400Y241300D03*
D41*
X190500Y687000D03*
X165500Y687000D03*
X216000Y687000D03*
X165500Y832000D03*
X215500Y832000D03*
D42*
X133500Y762000D03*
X247500Y762000D03*
D41*
X762000Y687000D03*
X737000Y687000D03*
X787500Y687000D03*
X737000Y832000D03*
X787000Y832000D03*
D42*
X705000Y762000D03*
X819000Y762000D03*
D43*
X787000Y149000D03*
X797000Y501000D03*
X245000Y667576D03*
X760000Y889000D03*
M02*
