G04 EAGLE Gerber RS-274X export*
G75*
%MOMM*%
%FSLAX34Y34*%
%LPD*%
%INSolderpaste Bottom*%
%IPPOS*%
%AMOC8*
5,1,8,0,0,1.08239X$1,22.5*%
G01*
%ADD10R,1.220000X0.910000*%
%ADD11R,1.300000X1.600000*%
%ADD12R,2.000000X1.250000*%
%ADD13R,1.250000X2.000000*%
%ADD14R,1.550000X1.300000*%


D10*
X222000Y745650D03*
X222000Y778350D03*
X412500Y745650D03*
X412500Y778350D03*
X603000Y745650D03*
X603000Y778350D03*
X793500Y745650D03*
X793500Y778350D03*
X222000Y555150D03*
X222000Y587850D03*
X412500Y555150D03*
X412500Y587850D03*
X603000Y555150D03*
X603000Y587850D03*
X793500Y555150D03*
X793500Y587850D03*
X222000Y364650D03*
X222000Y397350D03*
X412500Y364650D03*
X412500Y397350D03*
X603000Y364650D03*
X603000Y397350D03*
X793500Y364650D03*
X793500Y397350D03*
X222000Y174150D03*
X222000Y206850D03*
X412500Y174150D03*
X412500Y206850D03*
X603000Y174150D03*
X603000Y206850D03*
X793500Y174150D03*
X793500Y206850D03*
D11*
X262000Y720000D03*
X242000Y720000D03*
X262000Y700000D03*
X242000Y700000D03*
X120000Y720000D03*
X140000Y720000D03*
X120000Y700000D03*
X140000Y700000D03*
X262000Y680000D03*
X242000Y680000D03*
X120000Y680000D03*
X140000Y680000D03*
X812000Y720000D03*
X832000Y720000D03*
X812000Y700000D03*
X832000Y700000D03*
X710000Y720000D03*
X690000Y720000D03*
X710000Y700000D03*
X690000Y700000D03*
X812000Y680000D03*
X832000Y680000D03*
X710000Y680000D03*
X690000Y680000D03*
D12*
X211125Y861500D03*
X211125Y894500D03*
X265125Y861500D03*
X265125Y894500D03*
D13*
X137800Y449250D03*
X104800Y449250D03*
X137800Y503250D03*
X104800Y503250D03*
D12*
X312750Y138500D03*
X312750Y105500D03*
X258750Y138500D03*
X258750Y105500D03*
X503250Y138500D03*
X503250Y105500D03*
X449250Y138500D03*
X449250Y105500D03*
X693750Y138500D03*
X693750Y105500D03*
X639750Y138500D03*
X639750Y105500D03*
D13*
X814500Y503250D03*
X847500Y503250D03*
X814500Y449250D03*
X847500Y449250D03*
D12*
X687375Y861500D03*
X687375Y894500D03*
X741375Y861500D03*
X741375Y894500D03*
D14*
X620750Y893500D03*
X541250Y893500D03*
X620750Y848500D03*
X541250Y848500D03*
M02*
